<svg fill="currentColor" aria-label="Apec" role="img" viewBox="0 0 60 21" xmlns="http://www.w3.org/2000/svg"> <path d="M28 14.4C26.8 14.4 25.8 14 25.1 13.2C24.4 12.5 24.1 11.5 24.1 10.5C24.1 8.6 25.5 6.5 28.1 6.5C29.2 6.5 30.1 6.9 30.6 7.7V6.7H32.1V14.2H30.6V13.1C30 14 29 14.4 28 14.4ZM28 7.9C26.3 7.9 25.5 9.4 25.5 10.5C25.5 12.1 26.8 13.1 28 13.1C29.4 13.1 30.5 11.9 30.5 10.5C30.5 9 29.4 7.9 28 7.9Z" /> <path d="M37 6.60001C35.9 6.60001 35 7.00001 34.5 7.80001V6.80001H33V14.3V16.1H34.5V14.3V13.2C35 14 35.9 14.5 37 14.5C38.2 14.5 39.2 14.1 39.9 13.3C40.6 12.6 40.9 11.6 40.9 10.6C41 8.60001 39.6 6.60001 37 6.60001ZM37 13.1C35.6 13.1 34.5 11.9 34.5 10.5C34.5 9.00001 35.6 7.90001 37 7.90001C38.7 7.90001 39.5 9.40001 39.5 10.5C39.5 12.1 38.2 13.1 37 13.1Z" /> <path d="M45.8 13.1C45 13.1 44.2 12.7 43.7 12L49.6 9.60001C49.2 8.00001 47.9 6.60001 45.8 6.60001C43.2 6.60001 41.8 8.60001 41.8 10.5C41.8 11.5 42.2 12.5 42.8 13.2C43.5 14 44.5 14.4 45.7 14.4C46.9 14.4 47.9 14 48.6 13.2C49 12.7 49.3 12.2 49.5 11.6H48C47.6 12.5 46.7 13.1 45.8 13.1ZM45.8 7.90001C46.8 7.90001 47.4 8.40001 47.8 9.00001L43.3 10.8C43.3 10.7 43.3 10.6 43.3 10.5C43.2 9.40001 44 7.90001 45.8 7.90001Z" /> <path d="M56.7 11.6C56.3 12.5 55.3 13.1 54.4 13.1C53.2 13.1 51.9 12.1 51.9 10.5C51.9 9.40001 52.7 7.90001 54.4 7.90001C55.6 7.90001 56.3 8.60001 56.7 9.40001H58.2C57.8 7.90001 56.5 6.60001 54.4 6.60001C51.8 6.60001 50.4 8.60001 50.4 10.6C50.4 11.6 50.8 12.6 51.4 13.3C52.1 14.1 53.1 14.5 54.3 14.5C55.5 14.5 56.5 14.1 57.2 13.3C57.6 12.8 57.9 12.3 58.1 11.7L56.7 11.6Z" /> <path d="M6.89999 6.8L1.79999 19.4H4.89999L9.59999 7.9L6.89999 6.8Z" /> <path d="M10.7 5.20001L12.2 9.00001L13.4 11.8L16 10.5L14.4 6.70001L12.3 1.60001H9L8 4.10001L10.7 5.20001Z" /> <path d="M14.5 14.7L16.4 19.4H19.6L17.1 13.4L14.5 14.7Z" /> <path class="svgcolor-2" d="M10.7 5.20001L1.79999 1.60001V4.70001L12.2 9.00001L10.7 5.20001Z" /> <path class="svgcolor-2" d="M14.4 6.70001L16 10.5L13.4 11.8L6.59999 15.3L4.89999 19.4L19.6 12.2V10.5V8.80001L14.4 6.70001Z" /> </svg>