<svg fill="currentColor" aria-label="Auchan" role="img" width="133" height="32" viewBox="0 0 133 32" xmlns="http://www.w3.org/2000/svg"> <g> <path d="M17.7633 23.6408C19.5918 23.6408 23.902 23.249 26.2531 19.3306C27.8204 16.1959 28.9959 12.9306 29.3878 9.40408L28.6041 9.14286L29.5184 9.5347L29.7796 9.40408L32.1306 8.35919C32.2612 8.35919 32.2612 8.22857 32.2612 8.09796L32.1306 7.96735H29.3878C28.4735 6.53061 26.9061 5.74694 25.2082 5.74694C23.902 5.74694 22.7265 6.13878 21.6816 6.79184C20.3755 7.70612 19.2 8.62041 18.0245 9.66531C15.6735 11.6245 13.5837 13.8449 11.6245 16.0653C13.5837 13.7143 15.6735 11.6245 18.0245 9.66531L11.2327 15.2816C10.7102 15.8041 9.92654 16.0653 9.14287 16.0653H0.522457C0.261233 16.0653 0.391845 16.1959 0.391845 16.3265C1.04491 18.5469 3.1347 19.8531 5.35511 19.7225L3.39593 21.8122C3.26531 21.9429 3.26531 22.0735 3.52654 22.0735H11.102C15.5429 22.3347 19.7225 20.1143 22.2041 16.3265C22.3347 16.0653 22.5959 15.6735 22.7265 15.4122C22.5959 15.4122 22.5959 15.2816 22.4653 15.4122C20.2449 17.8939 17.1102 19.4612 13.7143 19.5918C17.1102 19.4612 20.2449 18.0245 22.4653 15.4122C22.4653 15.2816 22.5959 15.2816 22.7265 15.4122C22.8572 15.4122 22.8572 15.5429 22.7265 15.6735C21.8123 18.0245 20.2449 19.9837 18.2857 21.4204C17.502 21.8122 16.7184 22.2041 15.9347 22.5959C15.8041 22.5959 15.8041 22.5959 15.8041 22.7265L18.8082 31.2163H20.5061L17.7633 23.6408ZM26.5143 8.35919C26.6449 8.4898 26.6449 8.4898 26.6449 8.62041C26.7755 8.88163 26.6449 9.27347 26.5143 9.40408C26.2531 9.66531 25.7306 9.66531 25.4694 9.40408C25.2082 9.14286 25.2082 8.62041 25.4694 8.35919C25.7306 8.09796 25.9918 8.09796 26.2531 8.22857C26.2531 8.22857 26.3837 8.35919 26.5143 8.35919ZM25.4694 10.7102C25.3388 10.7102 25.0776 10.7102 24.9469 10.5796C25.2082 10.7102 25.3388 10.7102 25.4694 10.7102ZM24.5551 8.35919C24.9469 7.96735 25.6 7.83674 26.1225 8.09796C25.4694 7.83674 24.9469 7.96735 24.5551 8.35919C24.0327 8.88163 24.0327 9.79592 24.5551 10.3184C23.902 9.79592 23.902 8.88163 24.5551 8.35919Z" /> <path d="M19.8531 25.0776L22.0735 31.3469H23.7715L21.4204 24.8163C20.898 24.9469 20.3755 25.0776 19.8531 25.0776Z" /> <path d="M9.92654 14.1061L14.3674 10.449C15.151 8.4898 15.8041 6.53061 16.5878 4.96327C16.9796 5.87755 17.3714 6.79184 17.7633 7.70612C19.4612 6.26939 20.5061 5.61633 20.6367 5.48571C21.2898 4.96326 22.0735 4.70204 22.8572 4.44082C21.8123 2.22041 21.1592 0.783673 20.7674 0H12.2776C11.6245 1.56735 9.01226 7.05306 5.87756 14.3673H9.01226C9.40409 14.3673 9.66532 14.2367 9.92654 14.1061Z" /> <path d="M27.6898 20.2449C26.5143 22.0735 24.9469 23.5102 22.8571 24.2939L25.4694 31.4776H32.9143C31.4775 27.1673 29.7796 22.8571 28.3428 19.0694C28.2122 19.4612 27.951 19.8531 27.6898 20.2449Z" /> <path d="M0 31.4776H7.57551L10.0571 23.902H2.61224C1.82857 26.2531 0.914286 28.7347 0 31.4776Z" /> <path d="M92.7347 22.7265C92.7347 29.2571 95.0857 32 99.7877 32C102.008 32.1306 104.229 31.2163 105.665 29.3878L105.927 31.4776H111.02V13.1918C108.147 12.2776 105.273 11.8857 102.269 12.0163C96.1306 12.0163 92.7347 15.8041 92.7347 22.7265ZM104.62 25.7306C103.837 26.5143 102.792 27.0367 101.616 27.0367C99.9184 27.0367 99.0041 25.4694 99.0041 22.4653C99.0041 18.8082 100.049 16.9796 102.008 16.9796C102.922 16.9796 103.706 17.1102 104.62 17.2408V25.7306Z" /> <path d="M83.9837 12.0163C82.0245 11.8857 80.0653 12.5388 78.3673 13.7143V5.22449H71.9673V31.3469H78.3673V18.2857C79.151 17.502 80.1959 16.9796 81.2408 16.9796C82.6776 16.849 83.8531 17.7633 83.9837 19.2C83.9837 19.4612 83.9837 19.5918 83.9837 19.8531V31.6082H90.3837V19.0694C90.5143 14.2367 88.4245 12.0163 83.9837 12.0163Z" /> <path d="M126.041 12.0163C123.559 11.7551 121.208 12.6694 119.51 14.498L119.118 12.4082H114.024V31.4776H120.424V18.2857C121.208 17.502 122.253 16.9796 123.298 16.9796C124.735 16.849 125.91 17.7633 126.041 19.2C126.041 19.4612 126.041 19.5918 126.041 19.8531V31.6082H132.441V19.0694C132.441 14.2367 130.351 12.0163 126.041 12.0163Z" /> <path d="M45.453 25.7306C44.6694 26.5143 43.6245 27.0367 42.4489 27.0367C41.0122 27.1673 39.7061 26.2531 39.5755 24.8163C39.5755 24.6857 39.5755 24.4245 39.5755 24.2939V12.5388V12.2775H33.4367V12.5388V25.0776C33.4367 27.951 34.2204 29.9102 35.9183 30.9551C36.9632 31.6082 38.2694 31.8694 39.8367 31.8694C42.3183 32 44.6694 31.0857 46.2367 29.2571L46.6285 31.3469H51.5918V12.2775H45.453V25.7306Z" /> <path d="M65.0449 26.6449C61.9102 26.6449 60.3429 24.6857 60.3429 21.8122C60.3429 19.0694 61.9102 17.2408 64.9143 17.2408C66.351 17.2408 67.7878 17.6327 68.9633 18.4163L69.8776 13.1918C67.7878 12.2776 65.5674 11.8857 63.3469 11.8857C57.2082 11.8857 53.8123 15.4122 53.8123 21.9429C53.8123 28.4735 56.947 31.8694 63.2163 31.8694C65.698 31.8694 68.049 31.3469 70.2694 30.1714L69.3551 25.3388C68.049 26.1225 66.6123 26.6449 65.0449 26.6449Z" /> </g> </svg>