<svg fill="currentColor" aria-label="Badoit" role="img" width="50" height="50" viewBox="0 0 50 50" xmlns="http://www.w3.org/2000/svg"> <g> <path d="M17.322 26.78C17.3087 26.7933 17.3087 26.8066 17.2954 26.8199C17.3619 26.7535 17.4283 26.687 17.4548 26.6073L17.4416 26.594C17.4017 26.6472 17.3486 26.7269 17.3353 26.7535L17.322 26.78Z" /> <path d="M29.025 26.78L28.9984 26.8199C29.0648 26.7535 29.1313 26.687 29.1578 26.6073L29.1445 26.594C29.118 26.6339 29.0781 26.7003 29.0515 26.7269C29.0383 26.7535 29.025 26.78 29.025 26.78Z" /> <path d="M43.4777 36.1052V36.1849H43.5574L43.5707 36.1982L43.6504 36.1451L43.5707 36.1052H43.4777Z" /> <path d="M34.737 26.3018C34.737 26.2885 34.737 26.2885 34.737 26.3018C34.7237 26.3018 34.6971 26.3018 34.6573 26.3151C34.4447 26.3948 34.2455 26.6073 34.1392 26.7933C34.3119 26.687 34.5112 26.5542 34.5776 26.4878C34.6971 26.3948 34.737 26.3151 34.737 26.3018Z" /> <path d="M26.169 23.3927H26.1025V23.6185H26.169C26.2354 23.6185 26.2885 23.5654 26.2885 23.4989C26.2885 23.4325 26.2354 23.3927 26.169 23.3927Z" /> <path d="M32.2928 24.0037C32.2928 23.9506 32.2662 23.9506 32.2662 23.9506C32.0138 23.9506 31.3496 24.8804 31.1105 25.2258L31.0839 25.2524L30.7253 25.7439C30.9378 25.6111 31.1504 25.4516 31.3098 25.3321C31.6286 25.0797 32.2928 24.4288 32.2928 24.0037Z" /> <path d="M28.1482 27.2848C28.2811 27.2848 28.4139 27.2184 28.5335 27.152C28.5733 27.0191 28.6929 26.8597 28.7859 26.7535C28.8523 26.6738 28.9586 26.5409 29.0914 26.5011C29.0383 26.3948 28.9187 26.3284 28.7859 26.3284C28.4272 26.3284 28.0154 26.8066 28.0154 27.1387C28.0154 27.245 28.0553 27.2848 28.1482 27.2848Z" /> <path d="M26.0096 27.6567C25.5579 27.7099 25.2524 27.7497 24.9734 27.8427C24.017 28.1482 23.9107 28.7991 23.9107 29.0515C23.9107 29.0781 23.9107 29.0914 23.9107 29.118C24.1764 29.1711 24.4155 29.2508 24.6413 29.3571C24.8273 29.2641 24.9867 29.1047 25.093 28.9586C25.3852 28.5866 25.704 28.1217 25.9564 27.7365L26.0096 27.6567Z" /> <path d="M17.3884 26.4878C17.3353 26.3815 17.2157 26.3151 17.0829 26.3151C16.7242 26.3151 16.3124 26.7933 16.3124 27.1254C16.3124 27.2317 16.3523 27.2715 16.4453 27.2715C16.5781 27.2715 16.7242 27.2051 16.8305 27.1387C16.8836 27.0058 16.9899 26.8332 17.0696 26.7402C17.136 26.687 17.2423 26.5409 17.3884 26.4878Z" /> <path d="M21.958 23.3794C21.8252 23.3794 21.7189 23.4724 21.7189 23.6451C21.7189 23.8177 21.8252 23.9107 21.958 23.9107C22.0908 23.9107 22.1838 23.8177 22.1838 23.6451C22.1838 23.4724 22.0908 23.3794 21.958 23.3794Z" /> <path d="M43.5441 35.9325C43.3847 35.9325 43.2519 36.0654 43.2519 36.238C43.2519 36.3974 43.3847 36.5303 43.5441 36.5303C43.7035 36.5303 43.8363 36.3974 43.8363 36.238C43.8363 36.0654 43.7035 35.9325 43.5441 35.9325ZM43.7168 36.4373L43.6504 36.4506L43.5441 36.2646H43.4777V36.4506H43.4644H43.4113V36.0521H43.584C43.6504 36.0521 43.7168 36.0654 43.7168 36.1583L43.6105 36.2779L43.7168 36.4373Z" /> <path d="M26.8066 17.2157C26.7136 17.2157 26.6339 17.2423 26.5675 17.3087C26.5011 17.3751 26.4745 17.4416 26.4745 17.5345C26.4745 17.5877 26.4878 17.6275 26.5143 17.6807C26.5409 17.7205 26.5808 17.7604 26.6339 17.7869C26.687 17.8135 26.7402 17.8268 26.8066 17.8268C26.9129 17.8268 26.9926 17.8002 27.0457 17.7338C27.1121 17.6807 27.1387 17.601 27.1387 17.5213C27.1387 17.4416 27.1121 17.3751 27.0457 17.3087C26.966 17.2423 26.8863 17.2157 26.8066 17.2157Z" /> <path d="M26.7933 17.0829C26.8331 17.0829 26.8863 17.0696 26.9261 17.043C26.966 17.0165 26.9925 16.9899 27.0191 16.9501C27.0457 16.9102 27.059 16.8703 27.059 16.8305C27.059 16.7774 27.0324 16.7242 26.9925 16.6711C26.9527 16.618 26.8863 16.6047 26.7933 16.6047C26.7136 16.6047 26.6472 16.6312 26.6073 16.6711C26.5542 16.7109 26.5276 16.7774 26.5276 16.8305C26.5276 16.8969 26.5542 16.9501 26.6073 17.0032C26.6605 17.0696 26.7269 17.0829 26.7933 17.0829Z" /> <path d="M27.1918 15.0638C26.0096 13.8815 24.0701 13.8815 22.8879 15.0638C21.7056 16.246 21.7056 18.1854 22.8879 19.3677C24.0701 20.5499 26.0096 20.5499 27.1918 19.3677C28.3475 18.1987 28.3873 16.2726 27.1918 15.0638ZM23.1536 17.9065H23.0207V16.6445H22.7949L22.8746 16.5117H23.1536V17.9065ZM23.9771 17.9463L23.8576 17.8932L24.5085 16.6445H23.8443V16.5117H24.7343L23.9771 17.9463ZM25.2524 17.9463L25.1328 17.8932L25.7837 16.6445H25.1195V16.5117H26.0096L25.2524 17.9463ZM27.1652 17.8002C27.0855 17.9065 26.9527 17.9463 26.7933 17.9463C26.6339 17.9463 26.5143 17.9065 26.4346 17.8135C26.3549 17.7205 26.3151 17.6275 26.3151 17.5213C26.3151 17.4416 26.3417 17.3751 26.3815 17.3087C26.4214 17.2423 26.4878 17.1892 26.594 17.136C26.5276 17.0962 26.4745 17.0563 26.4346 17.0032C26.3948 16.9501 26.3815 16.8969 26.3815 16.8305C26.3815 16.7641 26.3948 16.7109 26.4346 16.6578C26.4745 16.6047 26.5276 16.5515 26.5808 16.525C26.6472 16.4984 26.7136 16.4718 26.7933 16.4718C26.8597 16.4718 26.9394 16.4851 26.9926 16.525C27.059 16.5515 27.0988 16.6047 27.1387 16.6578C27.1785 16.7109 27.1918 16.7774 27.1918 16.8438C27.1918 16.9102 27.1785 16.9633 27.1387 17.0165C27.1121 17.0696 27.059 17.1095 26.9926 17.1493C27.0855 17.2024 27.152 17.2556 27.1918 17.3087C27.2317 17.3618 27.2582 17.4416 27.2582 17.508C27.2715 17.6142 27.2317 17.7072 27.1652 17.8002Z" /> <path d="M31.2301 29.8619C29.6759 29.8619 29.1313 31.3231 29.1313 32.678C29.1313 33.1961 29.2242 35.813 31.2301 35.813C32.771 35.813 33.3289 34.3518 33.3289 32.9968C33.3422 32.4787 33.2359 29.8619 31.2301 29.8619Z" /> <path d="M22.5956 29.9017C22.3698 29.9017 21.8916 29.9017 21.8252 29.9681C21.7455 30.0478 21.7455 30.3533 21.7455 30.9113C21.7455 31.4692 21.7588 34.2455 21.7588 34.6838C21.7588 35.1355 21.7455 35.5473 21.8252 35.627C21.9049 35.6934 22.3034 35.7333 22.6488 35.7333C24.1498 35.7333 24.9867 34.8167 24.9867 32.7976C24.9734 30.4463 23.6318 29.9017 22.5956 29.9017Z" /> <path d="M14.5855 33.5813H16.6711L15.6084 30.6722L14.5855 33.5813Z" /> <path d="M8.40862 32.5585H8.36877C8.9931 32.399 9.61744 31.8677 9.61744 30.991C9.61744 29.8884 8.06324 30.0478 7.45219 30.0478C7.45219 30.3666 7.4389 35.5473 7.4389 35.813C7.73115 35.813 8.15623 35.8263 8.40862 35.8263C9.19236 35.8263 10.0558 35.3613 10.0558 34.2721C10.0558 33.3156 9.24549 32.5585 8.40862 32.5585Z" /> <path d="M0 0V50H50V0H0ZM33.7673 25.5314C33.8204 25.5314 33.8735 25.5845 33.8735 25.6509C33.8735 25.7306 33.7938 25.8502 33.6743 25.8502C33.6079 25.8502 33.5547 25.8103 33.5547 25.7306C33.5547 25.6376 33.661 25.5314 33.7673 25.5314ZM29.9681 23.2333H30.4729L30.4198 23.3927H30.1541V23.5654H30.4198V23.7248H30.1541V23.9107H30.4596V24.0569H29.9681V23.2333ZM27.9224 14.5855C29.1977 16.0069 29.1844 18.212 27.9357 19.7662L27.763 19.5935C28.9054 18.1323 28.9187 16.0999 27.7365 14.7715L27.9224 14.5855ZM28.3475 23.8975C28.4272 23.8975 28.4936 23.8842 28.56 23.8443L28.6132 23.9772C28.5069 24.0436 28.4139 24.0701 28.3209 24.0701C28.042 24.0701 27.8826 23.8842 27.8826 23.6583C27.8826 23.4192 28.0685 23.2333 28.3608 23.2333C28.4405 23.2333 28.5202 23.2465 28.5733 23.2731V23.4325C28.4936 23.3927 28.4272 23.3794 28.3741 23.3794C28.1748 23.3794 28.0951 23.5122 28.0951 23.6451C28.0951 23.7912 28.1881 23.8975 28.3475 23.8975ZM26.5675 24.0569H26.3549C26.2354 23.8443 26.1823 23.7646 26.1557 23.7513H26.1026V24.0569H25.9033V23.2465H26.169C26.3948 23.2465 26.4745 23.3528 26.4745 23.4857C26.4745 23.5919 26.3948 23.6583 26.3284 23.6982C26.3682 23.7115 26.4479 23.8443 26.5675 24.0569ZM22.4362 20.0584L22.6222 19.8725C23.9506 21.0547 25.9963 21.0414 27.4442 19.899L27.6169 20.0717C26.0627 21.3204 23.8709 21.3337 22.4362 20.0584ZM23.9904 23.8576C24.017 23.8975 24.0701 23.9107 24.1233 23.9107C24.1897 23.9107 24.2295 23.8975 24.2694 23.8576C24.296 23.831 24.3092 23.7912 24.3092 23.738V23.2333H24.5085V23.7248C24.5085 23.831 24.4819 23.9107 24.4155 23.9639C24.3491 24.0303 24.2561 24.0569 24.1233 24.0569C24.0037 24.0569 23.8975 24.0303 23.831 23.9639C23.7779 23.9107 23.7513 23.831 23.7513 23.738V23.22H23.9373V23.7115C23.9506 23.7912 23.9772 23.831 23.9904 23.8576ZM27.2582 19.4341C26.0361 20.6695 24.0303 20.6695 22.8082 19.4341C21.5728 18.1987 21.5728 16.2062 22.8082 14.9841C24.0303 13.7487 26.0361 13.7487 27.2582 14.9841C28.4936 16.2062 28.4936 18.212 27.2582 19.4341ZM27.6302 14.28L27.4442 14.466C26.1158 13.2837 24.0701 13.297 22.6222 14.4394L22.4495 14.2667C24.0037 13.0314 26.1955 13.0181 27.6302 14.28ZM22.1307 14.5855L22.3034 14.7582C21.161 16.2194 21.1477 18.2519 22.33 19.5802L22.144 19.7662C20.8688 18.3448 20.882 16.1397 22.1307 14.5855ZM22.3964 23.6451C22.3964 23.7646 22.3565 23.8709 22.2768 23.9373C22.1971 24.017 22.0909 24.0569 21.958 24.0569C21.8252 24.0569 21.7322 24.017 21.6525 23.9639C21.5728 23.8842 21.5197 23.7779 21.5197 23.6583C21.5197 23.5388 21.5595 23.4325 21.6392 23.3528C21.7189 23.2731 21.8252 23.2333 21.958 23.2333C22.0909 23.2333 22.2104 23.2731 22.2901 23.3528C22.3565 23.4325 22.3964 23.5255 22.3964 23.6451ZM19.6865 23.6185C19.6599 23.5786 19.6334 23.5388 19.6334 23.4724C19.6334 23.3528 19.7396 23.2333 19.9256 23.2333C20.0186 23.2333 20.0983 23.2598 20.1382 23.2864V23.4458C20.0585 23.406 20.0053 23.3927 19.9389 23.3927C19.8858 23.3927 19.8326 23.4192 19.8326 23.4591C19.8326 23.5919 20.1913 23.5786 20.1913 23.831C20.1913 23.9904 20.0452 24.0834 19.8725 24.0834C19.7529 24.0834 19.6599 24.0436 19.5935 24.0037L19.6599 23.8709C19.7131 23.9107 19.7795 23.9373 19.8592 23.9373C19.9123 23.9373 19.9787 23.9107 19.9787 23.8576C19.992 23.738 19.7795 23.7248 19.6865 23.6185ZM18.9293 25.5314C18.9825 25.5314 19.0356 25.5845 19.0356 25.6509C19.0356 25.7306 18.9559 25.8502 18.8363 25.8502C18.7699 25.8502 18.7168 25.8103 18.7168 25.7306C18.7168 25.6376 18.8231 25.5314 18.9293 25.5314ZM13.9214 26.5409C13.9214 26.5409 13.9346 26.5276 13.9479 26.5276C14.0011 26.5276 14.1073 26.6605 14.1073 26.7136C14.1073 26.7402 14.094 26.7535 14.0808 26.7535C13.8018 26.8464 13.762 27.0058 13.762 27.0988C13.762 27.2848 14.0011 27.5372 14.4394 27.5372C14.8778 27.5372 15.5287 27.1918 15.5287 26.6738C15.5287 26.3417 15.2497 26.1955 14.9708 26.0494C14.7051 25.9033 14.4394 25.7572 14.4394 25.4516C14.4394 25.1063 14.9044 24.7343 15.5287 24.7343C15.8608 24.7343 16.2327 24.8804 16.2327 25.1993C16.2327 25.2657 16.2327 25.4384 15.9803 25.4384C15.9139 25.4384 15.9006 25.4118 15.9006 25.3852C15.9006 25.3719 15.9006 25.3587 15.9139 25.3454C15.9405 25.3055 15.9538 25.2524 15.9538 25.1993C15.9538 24.9734 15.6748 24.8804 15.4091 24.8804C15.077 24.8804 14.5855 25.0797 14.5855 25.3719C14.5855 25.5579 14.8114 25.6509 15.0638 25.7705C15.4091 25.9166 15.7944 26.0893 15.7944 26.5409C15.7944 27.245 14.9044 27.7099 14.3332 27.7099C14.0276 27.7099 13.6158 27.5505 13.6158 27.2051C13.576 26.9261 13.8151 26.6472 13.9214 26.5409ZM8.87354 36.6631H7.0271C6.32306 36.6631 6.15037 36.6631 6.15037 36.6631V29.0648C6.78799 29.0648 8.02338 29.0515 9.01966 29.0515C10.627 29.0515 11.0654 29.9416 11.0654 30.9113C11.0654 32.0802 10.1753 32.4123 10.0292 32.492C10.1886 32.5585 11.4373 32.9171 11.4373 34.3385C11.4373 36.2912 9.79012 36.6631 8.87354 36.6631ZM17.7471 36.6233L17.0032 34.4846H14.2535L13.4963 36.6233H12.1679L14.8911 29.0648H16.432L19.2083 36.6233H17.7471ZM19.8592 27.5106C19.7131 27.5106 19.6865 27.4176 19.6865 27.3645C19.6865 27.245 19.7928 27.0855 19.8592 26.966C19.8725 26.9394 19.8858 26.9261 19.899 26.8996C19.9256 26.8597 19.9522 26.8199 19.9787 26.78C20.0584 26.6605 20.1382 26.5409 20.1647 26.4081C20.1647 26.3815 20.1647 26.3815 20.1514 26.3815C20.1116 26.3815 20.0452 26.4081 19.9389 26.4479C19.8459 26.4878 19.5404 26.6605 19.5138 26.7003C19.5138 26.7003 19.4872 26.7402 19.4607 26.7933C19.4341 26.8464 19.381 26.9129 19.3677 26.9394L19.1552 27.2715C19.1153 27.3247 19.0489 27.4309 19.0356 27.4575C19.0223 27.4841 18.9957 27.4973 18.9825 27.4973C18.916 27.4973 18.8363 27.4044 18.8363 27.3645C18.8363 27.3379 18.8629 27.2981 18.9293 27.2184L18.9559 27.1785C18.9825 27.1387 19.009 27.0988 19.0356 27.0723C18.916 27.1653 18.7832 27.2582 18.6238 27.3379C18.4777 27.4044 18.3316 27.4442 18.1987 27.4442C18.026 27.4442 17.9065 27.3645 17.9065 27.2317C17.9065 27.1785 17.9198 27.1121 17.9596 27.059C17.8401 27.1653 17.7072 27.245 17.5345 27.3379C17.3751 27.4176 17.2157 27.4575 17.0962 27.4575C16.9368 27.4575 16.8438 27.3911 16.8438 27.2715C16.6445 27.3778 16.4851 27.4309 16.3257 27.4309C16.153 27.4309 16.0468 27.3247 16.0468 27.152C16.0468 26.78 16.5914 26.2354 17.0962 26.2354C17.2821 26.2354 17.415 26.3284 17.4947 26.5011C17.5213 26.5011 17.5744 26.5143 17.5744 26.5542C17.5744 26.7136 17.4416 26.8464 17.3353 26.9394L17.3087 26.966C17.2954 26.9793 17.2821 26.9926 17.2689 27.0058C17.2556 27.0191 17.229 27.0324 17.2157 27.0457C17.1759 27.1254 17.1227 27.1918 17.1227 27.245C17.1227 27.2715 17.1227 27.3247 17.2821 27.3247C17.4814 27.3247 17.7205 27.1653 17.8799 27.0457C18.0393 26.9261 18.1456 26.8066 18.1589 26.7933C18.212 26.7269 18.3714 26.5143 18.3714 26.4346C18.3714 26.4081 18.3316 26.3815 18.2917 26.3815C18.2253 26.3815 18.1854 26.4081 18.119 26.4479C18.1057 26.4612 18.0925 26.4612 18.0792 26.4745C18.0659 26.4878 18.0526 26.4878 18.0393 26.4878C18.026 26.4878 17.9995 26.4878 17.9995 26.4479C17.9995 26.4346 17.9995 26.4214 18.119 26.3549C18.1854 26.3151 18.2784 26.2885 18.3714 26.2885C18.4644 26.2885 18.584 26.3018 18.584 26.4479C18.584 26.5409 18.5043 26.6605 18.398 26.8066C18.2917 26.9527 18.1854 27.1254 18.1854 27.2317C18.1854 27.2848 18.212 27.3379 18.3714 27.3379C18.5043 27.3379 18.7699 27.1918 18.9559 27.059C19.102 26.9527 19.2083 26.8332 19.2349 26.8066C19.2481 26.7933 19.2614 26.7667 19.2747 26.7402C19.3411 26.6339 19.4607 26.4479 19.4607 26.3815C19.4607 26.3682 19.4474 26.3549 19.4208 26.3549C19.381 26.3549 19.288 26.3948 19.1552 26.4745C19.1419 26.4878 19.1286 26.4878 19.1153 26.4878C19.102 26.4878 19.0755 26.4878 19.0755 26.4479C19.0755 26.4346 19.0755 26.4214 19.195 26.3549C19.3146 26.2885 19.4208 26.2487 19.5005 26.2487C19.6334 26.2487 19.6599 26.3151 19.6599 26.3815C19.6599 26.4479 19.6334 26.5143 19.5935 26.5808C19.7131 26.5011 19.8592 26.4214 19.992 26.3682C20.0717 26.3284 20.2046 26.2752 20.2976 26.2752C20.3773 26.2752 20.4171 26.3151 20.4171 26.3948C20.4171 26.5542 20.271 26.7667 20.1647 26.9261L20.1382 26.966C20.0452 27.1121 19.9389 27.2981 19.9389 27.3512C19.9389 27.3645 19.9389 27.3778 19.9787 27.3778C20.1249 27.3778 20.4038 27.2184 20.6031 27.059C20.7492 26.9394 20.8953 26.8066 20.9086 26.78C20.9352 26.7535 20.9485 26.7136 20.975 26.6738C21.0414 26.5808 21.1079 26.4745 21.1743 26.3682C21.0946 26.3815 21.0282 26.3948 20.9883 26.4081L20.9485 26.4214C20.8953 26.4346 20.8555 26.4346 20.8289 26.4346C20.8156 26.4346 20.7891 26.4346 20.7891 26.4081C20.7891 26.3815 20.8156 26.3682 20.8555 26.3417C20.8688 26.3417 20.882 26.3284 20.882 26.3284C20.9219 26.3018 21.0547 26.2752 21.2673 26.2487L21.7721 25.5314C21.8119 25.4782 21.9049 25.3719 22.0244 25.3719C22.051 25.3719 22.0909 25.3719 22.0909 25.4118C22.0909 25.4384 22.0643 25.4782 22.0112 25.5314C21.9979 25.5446 21.9846 25.5579 21.9713 25.5712C21.8252 25.7572 21.6658 25.983 21.5197 26.2088C21.7056 26.1823 21.9315 26.1424 21.9713 26.1424H21.9979C22.0112 26.1424 22.0377 26.1424 22.0377 26.169C22.0377 26.2088 21.9315 26.2487 21.9049 26.2487C21.8385 26.2487 21.6259 26.2885 21.4532 26.3151C21.3603 26.4479 21.254 26.6073 21.1477 26.8066C21.068 26.966 21.0016 27.1121 21.0016 27.1918C21.0016 27.2582 21.0547 27.2981 21.161 27.2981C21.3204 27.2981 21.5728 27.1254 21.7189 27.0191C21.865 26.8996 21.9846 26.78 21.9979 26.7667C22.0112 26.7402 22.0244 26.7402 22.0377 26.7402C22.0643 26.7402 22.0776 26.7535 22.0776 26.7667C22.0776 26.78 22.0776 26.78 22.0643 26.7933C21.865 27.0324 21.6658 27.1785 21.3868 27.3247C21.2274 27.4044 21.1079 27.4309 21.0149 27.4309C20.8555 27.4309 20.7492 27.3247 20.7492 27.1785C20.7492 27.1254 20.7625 27.059 20.7891 26.9926C20.6297 27.1387 20.457 27.2582 20.271 27.3645C20.085 27.4575 19.9522 27.5106 19.8592 27.5106ZM26.4479 32.6382C26.4479 35.3348 24.9602 36.5967 22.7285 36.5967H21.1876H20.4038V35.4809C20.4038 34.8433 20.3905 31.4426 20.4038 29.9681C20.4038 29.5032 20.4038 29.0648 20.4038 29.0648C20.9617 29.0648 22.4362 29.0781 23.3927 29.0781C23.4724 29.0781 23.5654 29.0781 23.6451 29.0914C23.6318 29.0515 23.6318 28.9984 23.6318 28.9586C23.6318 28.3342 24.4022 27.9091 25.0531 27.7365C25.279 27.67 25.5712 27.6302 25.8502 27.6036C25.9299 27.5903 26.0096 27.577 26.0893 27.577C26.3284 27.2051 26.5409 26.8996 26.8066 26.5409C26.5011 26.7269 25.8103 27.0855 25.4516 27.1785C25.3454 27.2051 25.2258 27.2184 25.1063 27.2184C24.6679 27.2184 24.4155 27.0324 24.4155 26.7269C24.4155 26.4612 24.6148 26.1158 24.9336 25.7837C25.4251 25.2922 26.3815 24.7609 27.2051 24.7609C27.4708 24.7609 27.5903 24.8406 27.5903 25.0133C27.5903 25.1196 27.5638 25.1594 27.4442 25.1594C27.4309 25.1594 27.3911 25.1461 27.3911 25.093C27.3911 24.9336 27.2981 24.8672 27.1254 24.8672C26.7269 24.8672 26.0361 25.2391 25.5712 25.5978C25.1461 25.9166 24.6945 26.4214 24.6945 26.7667C24.6945 27.0058 24.9203 27.1254 25.1196 27.1254C25.4915 27.1254 25.9963 26.8597 26.4214 26.6605L26.4346 26.6472C26.5409 26.5941 26.78 26.4479 26.873 26.3682C27.0191 26.262 27.4575 25.6642 27.7896 25.1727C27.8294 25.1196 27.856 25.0797 27.8959 25.0797C27.9357 25.0797 28.0685 25.1461 28.0685 25.2258C28.0685 25.3587 27.8294 25.6509 27.5903 25.8634C27.4044 26.0228 27.245 26.262 27.0988 26.4612L27.059 26.5143L26.3682 27.5505C26.8863 27.4708 27.3247 27.3114 27.6567 27.059C27.6966 27.0324 27.7232 27.0058 27.763 26.9793C27.9091 26.6339 28.3475 26.262 28.7593 26.262C28.9453 26.262 29.0781 26.3549 29.1578 26.5276C29.1844 26.5276 29.2375 26.5409 29.2375 26.5808C29.2375 26.7402 29.1047 26.873 28.9851 26.966L28.9586 26.9793C28.9453 26.9926 28.932 27.0058 28.9187 27.0058C28.9054 27.0191 28.8789 27.0324 28.8523 27.059C28.8124 27.1387 28.7593 27.2051 28.7593 27.2582C28.7593 27.2848 28.7593 27.3379 28.9187 27.3379C29.118 27.3379 29.3571 27.1785 29.5165 27.059C29.5298 27.0457 29.5563 27.0324 29.5696 27.0191C29.5962 26.966 29.636 26.9129 29.6759 26.8597C29.6892 26.8464 29.7024 26.8199 29.7157 26.8066L30.1408 26.2354C29.9548 26.3417 29.7954 26.4479 29.729 26.4878C29.7157 26.5011 29.7024 26.5011 29.6892 26.5011C29.6759 26.5011 29.6493 26.5011 29.6493 26.4612C29.6493 26.4479 29.6493 26.4346 29.7689 26.3682L29.7954 26.3549C29.8751 26.3018 30.0611 26.2088 30.2604 26.076C30.3268 25.983 30.4198 25.8502 30.5393 25.704C30.6854 25.4915 30.8581 25.2657 30.9511 25.1196C31.4028 24.4554 31.7216 24.0436 32.2662 23.8709C32.3061 23.8576 32.3725 23.8443 32.3858 23.8443C32.4389 23.8443 32.5452 23.8709 32.5452 24.017C32.5452 24.3889 32.1467 24.8672 31.3762 25.4384C31.1902 25.5712 30.9378 25.7306 30.712 25.8767L30.5925 25.9564L30.1408 26.5808C29.9681 26.8332 29.7821 27.1121 29.7821 27.2582C29.7821 27.3247 29.8353 27.3911 29.9283 27.3911C30.1807 27.3911 30.4596 27.2184 30.6722 27.059C30.8183 26.9527 30.9246 26.8332 30.9511 26.8066C30.9644 26.78 30.991 26.7535 31.0043 26.7269C31.0972 26.5941 31.1769 26.4745 31.1769 26.4214C31.1769 26.3948 31.1504 26.3815 31.1238 26.3815C31.0574 26.3815 30.9644 26.4479 30.8847 26.4878C30.8714 26.5011 30.8581 26.5011 30.8448 26.5011C30.8316 26.5011 30.805 26.5011 30.805 26.4612C30.805 26.4479 30.805 26.4346 30.9246 26.3682H30.9378C31.0175 26.3284 31.1105 26.2752 31.2035 26.2752C31.3363 26.2752 31.4028 26.3284 31.4028 26.4214C31.4028 26.4745 31.3762 26.5276 31.3496 26.5808C31.4692 26.4745 31.6286 26.3682 31.788 26.3682C31.8544 26.3682 31.8943 26.4214 31.8943 26.5276C31.8943 26.5675 31.881 26.6206 31.8677 26.6605C32.0138 26.5542 32.2264 26.4346 32.3592 26.3815C32.4256 26.3549 32.492 26.3549 32.5319 26.3549C32.6382 26.3549 32.7046 26.4081 32.7046 26.5011C32.7046 26.5675 32.6647 26.6605 32.5717 26.7535C32.3725 26.966 32.2131 27.2582 32.1334 27.4442C32.0802 27.577 32.0537 27.6966 32.0537 27.8029C32.0537 28.0287 32.1865 28.2811 32.4787 28.2811C32.6514 28.2811 32.9304 28.1482 33.1164 28.0154C33.2625 27.9091 33.3688 27.7896 33.3953 27.7497C33.4086 27.7365 33.4219 27.7232 33.4352 27.7232C33.4485 27.7232 33.475 27.7365 33.475 27.7497C33.475 27.763 33.475 27.763 33.4617 27.7763C33.2226 28.042 33.0367 28.1615 32.771 28.2811C32.6116 28.3608 32.5053 28.3741 32.399 28.3741C32.0537 28.3741 31.8146 28.1482 31.8146 27.8294C31.8146 27.7232 31.8278 27.5638 31.881 27.4309C31.974 27.1785 32.1334 26.966 32.2396 26.7933L32.2795 26.7402C32.3326 26.6738 32.3725 26.594 32.3725 26.5542C32.3725 26.5409 32.3725 26.5143 32.2662 26.5276H32.2529C32.1201 26.5542 31.881 26.7136 31.7614 26.8464C31.7481 26.8597 31.7216 26.8996 31.6817 26.9527C31.5223 27.1785 31.3762 27.3911 31.2832 27.3911C31.2699 27.3911 31.2434 27.3778 31.2434 27.3512C31.2434 27.3379 31.2434 27.3379 31.2434 27.3247V27.3114C31.2434 27.2715 31.2699 27.2715 31.2832 27.2715C31.2965 27.2715 31.2965 27.2715 31.2965 27.2582C31.2965 27.245 31.4958 26.8464 31.5223 26.8199C31.5223 26.8066 31.5356 26.8066 31.5356 26.7933C31.5622 26.7535 31.6153 26.6472 31.6153 26.5808C31.6153 26.5675 31.6153 26.5409 31.5887 26.5409C31.509 26.5409 31.3098 26.687 31.1902 26.8066C31.1105 26.8863 30.9378 27.1653 30.8581 27.3247C30.805 27.4176 30.7917 27.4442 30.7784 27.4442C30.7519 27.4708 30.6854 27.4841 30.6456 27.4841C30.5526 27.4841 30.5393 27.4309 30.5393 27.4176C30.5393 27.4044 30.5393 27.3778 30.5659 27.3512C30.6057 27.3247 30.6722 27.2051 30.7386 27.0855C30.6057 27.1918 30.4729 27.2848 30.3002 27.3778C30.1142 27.4708 29.915 27.5239 29.7689 27.5239C29.5829 27.5239 29.4766 27.4309 29.4766 27.2582C29.4766 27.2317 29.4766 27.2051 29.4899 27.1785C29.3969 27.245 29.2907 27.3114 29.1711 27.3778C29.0117 27.4575 28.8523 27.4973 28.7327 27.4973C28.5733 27.4973 28.4803 27.4309 28.4803 27.3114C28.3475 27.3778 28.1615 27.4708 27.9623 27.4708C27.7896 27.4708 27.6833 27.3645 27.6833 27.1918C27.6833 27.1653 27.6833 27.152 27.6833 27.1254C27.5638 27.2184 27.4442 27.2981 27.2848 27.3778C26.9527 27.5505 26.5941 27.6169 26.2487 27.6833C26.1557 27.8029 26.076 27.9224 25.9963 28.042C25.8767 28.2147 25.7572 28.4139 25.5446 28.6663L25.4915 28.7327C25.2922 28.9718 25.0399 29.2907 24.6945 29.4633C25.797 29.9947 26.4479 31.2168 26.4479 32.6382ZM31.1504 36.6366C28.9453 36.6366 27.6302 35.2683 27.6302 32.9702C27.6302 30.6057 29.118 29.025 31.3363 29.025C33.5414 29.025 34.8698 30.3932 34.8698 32.6913C34.8565 35.0558 33.3555 36.6366 31.1504 36.6366ZM36.2513 26.5276C36.238 26.5276 36.2248 26.5143 36.2248 26.5011C36.2248 26.4878 36.2513 26.4479 36.2646 26.4346C36.2779 26.4214 36.2779 26.4081 36.2779 26.3948C36.2779 26.3549 36.2248 26.3417 36.1849 26.3417C36.1052 26.3417 35.9857 26.3815 35.9325 26.3948C35.8528 26.4214 35.7731 26.5409 35.72 26.6073C35.7067 26.6206 35.7067 26.6339 35.6934 26.6339C35.6004 26.7535 35.2949 27.2051 35.2152 27.3379L35.1886 27.3778C35.1488 27.4442 35.1355 27.4708 35.0824 27.4708C34.9628 27.4708 34.9495 27.4176 34.9495 27.3911C34.9495 27.3645 34.9761 27.3247 35.0159 27.2582C35.0292 27.2317 35.0425 27.2051 35.0691 27.1785C35.0956 27.1254 35.1355 27.0723 35.1621 27.0191C34.9894 27.1653 34.8034 27.2848 34.6041 27.3645C34.458 27.4176 34.2986 27.4575 34.1525 27.4575C33.9001 27.4575 33.7407 27.3645 33.7407 27.2051C33.7407 27.1918 33.7407 27.1653 33.754 27.152C33.661 27.2184 33.568 27.2715 33.4485 27.3379C33.3023 27.4044 33.1562 27.4442 33.0367 27.4442C32.864 27.4442 32.7444 27.3645 32.7444 27.2317C32.7444 27.0855 32.8507 26.9394 32.9835 26.7667C33.0499 26.687 33.1961 26.4878 33.1961 26.4081C33.1961 26.3815 33.1562 26.3549 33.1031 26.3549C33.0367 26.3549 32.9835 26.3815 32.9304 26.4214C32.9171 26.4346 32.9038 26.4346 32.8905 26.4479C32.8773 26.4612 32.864 26.4612 32.8507 26.4612C32.8374 26.4612 32.8108 26.4612 32.8108 26.4214C32.8108 26.4081 32.8108 26.3948 32.9304 26.3284C32.9968 26.2885 33.0898 26.262 33.1828 26.262C33.2758 26.262 33.3953 26.2752 33.3953 26.4214C33.3953 26.5143 33.3156 26.6339 33.2094 26.78C33.1164 26.9261 32.9968 27.0988 32.9968 27.2051C32.9968 27.2582 33.0234 27.3114 33.1828 27.3114C33.3289 27.3114 33.5813 27.1653 33.7673 27.0324C33.8868 26.7136 34.1259 26.4745 34.4846 26.2885C34.5643 26.2487 34.644 26.2221 34.6971 26.2221C34.8034 26.2221 34.8698 26.2885 34.8698 26.3417C34.8698 26.4081 34.7768 26.4745 34.7104 26.5276C34.6971 26.5409 34.6838 26.5409 34.6706 26.5542C34.6573 26.5675 34.1259 26.8996 34.0595 26.9394C34.0462 26.9926 34.0329 27.059 34.0329 27.1254C34.0329 27.2848 34.1126 27.3512 34.2721 27.3512C34.551 27.3512 34.83 27.1653 35.0159 27.0324C35.1621 26.9261 35.2683 26.8066 35.2949 26.78C35.3348 26.7269 35.4543 26.5143 35.4942 26.4745C35.5207 26.4479 35.5871 26.3948 35.72 26.3549C35.8794 26.3018 36.0255 26.2752 36.1849 26.2752C36.2779 26.2752 36.4639 26.3018 36.4639 26.3948C36.4639 26.4214 36.4373 26.4346 36.3975 26.4612L36.2779 26.5409C36.2646 26.5276 36.2513 26.5276 36.2513 26.5276ZM37.6993 36.5967H36.4107V29.0781H37.6993V36.5967ZM43.5441 36.5967C43.3448 36.5967 43.1854 36.4373 43.1854 36.238C43.1854 36.0388 43.3448 35.8794 43.5441 35.8794C43.7434 35.8794 43.9161 36.0388 43.9161 36.238C43.9161 36.4373 43.7566 36.5967 43.5441 36.5967ZM43.9161 30.2072H42.1493C42.1493 31.3895 42.1493 36.61 42.1493 36.61H40.7678V30.2072H39.0276V29.025H43.9161V30.2072Z" /> </g> </svg>