<svg fill="currentColor" aria-label="Ballantine's" role="img" width="117" height="40" viewBox="0 0 117 40" xmlns="http://www.w3.org/2000/svg"> <path d="M112.853 33.6534C111.573 33.6534 110.56 34.6667 110.56 35.9467C110.56 37.28 111.573 38.2934 112.853 38.2934C114.133 38.2934 115.147 37.28 115.147 35.9467C115.147 34.72 114.133 33.6534 112.853 33.6534ZM112.853 37.9733C111.787 37.9733 110.88 37.0667 110.88 35.9467C110.88 34.88 111.787 33.9734 112.853 33.9734C113.92 33.9734 114.827 34.88 114.827 35.9467C114.827 37.12 113.92 37.9733 112.853 37.9733ZM113.493 36.0534C113.76 35.8934 113.92 35.68 113.92 35.36C113.92 34.9867 113.6 34.6134 113.12 34.6134H111.733V37.2267H112.267V36.2134H112.8C113.067 36.2134 113.173 36.3734 113.227 36.64C113.28 36.8533 113.227 37.0667 113.333 37.28H113.92C113.813 37.12 113.813 36.8533 113.813 36.64C113.867 36.3734 113.76 36.1067 113.493 36.0534ZM112.907 35.84H112.267V35.0934H112.907C113.173 35.0934 113.28 35.2 113.28 35.4667C113.333 35.7334 113.173 35.84 112.907 35.84ZM108.053 21.3867L108.267 21.8667C108.267 21.8667 111.413 20.8 111.413 18.5067C111.413 17.8667 110.773 17.12 110.027 17.12C109.173 17.12 108.48 17.8134 108.32 18.6667C108.16 19.4667 108.747 20.16 109.493 20.2134C109.387 20.4267 109.067 20.9067 108.053 21.3867ZM88.6933 20.2667C89.5467 20.2667 90.3467 19.5734 90.5067 18.72C90.6667 17.8667 90.0267 17.1734 89.1733 17.1734C88.32 17.1734 87.52 17.8667 87.4133 18.72C87.2533 19.52 87.84 20.2667 88.6933 20.2667ZM29.0667 18.9334C32.16 17.8134 35.8933 14.9867 35.8933 10.4534C35.8933 7.62669 34.7733 5.65336 33.12 4.37336C34.08 3.73336 35.04 3.20002 36.0533 2.82669C36.3733 2.72002 36.3733 2.50669 36.3733 2.45336C36.32 2.34669 36.2667 2.18669 35.8933 2.29336C34.7733 2.56002 33.6533 3.14669 32.48 3.94669C30.6133 2.77336 28.3733 2.34669 26.2933 2.34669C22.8267 2.34669 17.3867 3.73336 14.08 7.36002C8.90667 13.0667 9.44 19.84 14.3467 19.7334C17.76 19.68 22.6667 13.92 23.68 8.74669C23.7867 8.32002 23.6267 8.10669 23.52 8.10669C23.2533 8.05335 23.2 8.32002 23.0933 8.74669C22.6133 10.72 21.0667 14.08 18.72 16.4267C17.12 18.0267 14.24 20.1067 12.3733 18.1867C10.3467 16.1067 12.4267 10.24 16.3733 7.04002C18.7733 5.01335 22.6133 3.20002 26.9333 3.20002C29.0133 3.20002 30.56 3.68002 31.5733 4.53336V4.58669C30.4533 5.44002 29.28 6.50669 28.16 7.68002C25.44 10.3467 21.8667 15.7867 16.8 25.4934C13.12 32.5867 9.76 36.64 6.56 36.64C3.84 36.64 2.4 34.8267 2.4 32.48C2.4 26.88 7.2 22.3467 10.56 22.3467C12.64 22.3467 13.2267 24.4267 13.0133 25.8667C12.8 27.2 11.3067 30.8267 7.30667 31.84C6.98667 31.9467 6.82667 32.0534 6.88 32.2134C6.98667 32.4267 7.25333 32.48 7.52 32.48C9.12 32.32 11.2 30.88 12.16 29.6C13.12 28.2667 13.9733 26.88 13.9733 24.9067C13.9733 22.88 12.5867 21.4934 10.5067 21.4934C8.37333 21.4934 5.97333 23.04 4.64 24.4267C2.88 26.1867 1.33333 28.8 1.33333 32.2667C1.33333 35.8934 3.36 37.6534 6.66667 37.6534C10.1333 37.6534 17.1733 33.6 20.8 25.2267C24.2667 17.1734 25.3867 14.6667 26.9333 12C28.8 8.90669 30.4 6.77335 32.1067 5.28002C32.8533 6.18669 33.1733 7.36002 33.1733 8.74669C33.1733 13.28 30.24 17.6534 28.1067 18.4534C27.2 17.9734 26.4 17.76 25.8667 17.76C25.28 17.76 24.48 17.9734 24.48 18.6134C24.48 19.2534 25.1733 19.6267 26.24 19.6267C26.72 19.6267 27.3067 19.52 27.9467 19.36C28.7467 20.0534 29.2267 21.1734 29.2267 22.6134C29.2267 26.6667 25.92 32.64 24.2133 34.1867C23.68 34.72 22.3467 36.0534 20.96 35.7867C17.8667 35.1467 19.7867 30.1867 21.2267 28.2667C22.3467 26.8267 23.7867 25.5467 25.8667 25.0134C26.1333 24.9067 26.1867 24.8 26.1333 24.5867C26.08 24.4267 25.3867 24.48 25.0133 24.5867C20.2667 25.92 18.2933 31.52 18.2933 33.4934C18.2933 35.4667 19.36 36.7467 21.4933 36.7467C24.6933 36.7467 27.2533 34.4534 28.16 33.6C29.9733 31.7867 31.8933 28.8 31.8933 25.3867C31.84 22.1867 30.56 20.1067 29.0667 18.9334ZM27.0933 18.72C27.0933 18.72 26.6667 18.8267 26.2933 18.8267C25.8133 18.8267 25.5467 18.72 25.5467 18.6134C25.5467 18.5067 25.6533 18.3467 26.1333 18.4C26.5067 18.5067 26.88 18.56 27.0933 18.72ZM111.627 24.2667C111.573 24 111.893 23.4134 111.947 23.3067C113.44 21.0134 114.24 19.7867 114.24 19.04C114.24 18.5067 113.92 18.3467 113.6 18.3467C113.013 18.3467 112.373 19.2534 112.107 19.7334C111.84 20.2134 111.253 21.4934 111.04 23.2534C110.08 25.3334 107.36 28.6934 106.027 30.5067C105.493 30.24 104.64 30.6134 104.053 31.2534C103.573 31.7867 103.2 32.7467 103.2 33.9734C101.707 35.52 100.747 36.0534 99.9467 36.0534C99.7333 36.0534 99.2533 35.7867 99.2533 35.1467C99.2533 34.08 99.8933 32.3734 101.44 29.5467C101.707 29.6534 102.187 29.7067 102.72 29.7067C104.64 29.7067 107.947 27.7334 107.947 25.1734C107.947 23.8934 107.2 23.0934 105.973 23.0934C104.427 23.0934 100.853 24.8 98.6667 29.28C96.32 34.0267 94.4 36.0534 93.76 36.0534C93.3333 36.0534 93.1733 35.5734 93.28 34.9867C93.44 34.1334 95.2533 30.88 97.12 27.84C97.9733 26.5067 98.1867 25.6534 98.1867 25.0134C98.1333 24.2134 97.6533 23.2534 96.4267 23.2534C94.72 23.2 93.3867 24.5334 92.5333 25.8134C92.5867 25.5467 92.7467 23.2534 90.9333 23.2534C89.6533 23.2534 88.7467 24.64 88.2133 25.6534C87.5733 26.8267 84.6933 32.4267 83.84 33.76C83.2 34.88 82.5067 36.2134 81.8667 36.2134C81.4933 36.2134 81.3333 35.7334 81.76 34.8267L87.8933 23.4667H85.12L80.96 31.1467C78.7733 35.0934 77.1733 36.0534 76.5333 36.0534C76.16 36.0534 75.8933 35.6267 76.3733 34.72L83.3067 21.9734H85.5467L86.08 21.0134H83.84L85.7067 17.6H82.9333L81.0667 21.0134H78.1333L77.6 21.9734H80.5333L75.2 31.7334C73.76 34.4 72.1067 36.0534 71.4667 36.0534C71.04 36.0534 70.9333 35.5734 71.04 34.9867C71.2 34.1334 73.0133 30.88 74.9333 27.84C75.7333 26.5067 76 25.6534 75.9467 25.0134C75.8933 24.2134 75.4667 23.2534 74.1867 23.2534C72.5333 23.2 71.1467 24.5334 70.2933 25.8134C70.3467 25.5467 70.56 23.2534 68.6933 23.2534C67.4133 23.2534 66.5067 24.64 65.9733 25.6534C65.3333 26.8267 62.4533 32.4267 61.6 33.76C60.96 34.88 60.2667 36.2134 59.6267 36.2134C59.2533 36.2134 59.0933 35.7334 59.52 34.8267L65.76 23.4667H62.9867L62.56 24.4267C62.56 24.4267 62.4 23.3067 60.96 23.3067C59.5733 23.3067 55.1467 25.4934 52.96 30.56C51.3067 34.2934 49.28 36.0534 48.6933 36.0534C48.3733 36.0534 48.16 35.5734 48.5867 34.6667L61.2267 11.4667H58.4533L47.4667 31.7334C45.6533 34.88 44.16 36.0534 43.52 36.0534C43.1467 36.0534 42.9867 35.5734 43.4133 34.6667L56.0533 11.4667H53.28L42.2933 31.7334C40.48 34.88 39.0933 36.0534 38.4533 36.0534C38.08 36.0534 37.92 35.5734 38.3467 34.6667L44.5867 23.4667H41.8133L41.3867 24.4267C41.3867 24.4267 41.2267 23.3067 39.7867 23.3067C38.3467 23.3067 33.4933 25.5467 31.6267 30.9867C30.1333 35.36 32.0533 36.8 33.1733 36.8C34.4533 36.8 35.52 35.68 36.48 34.4C36.4267 34.6667 36.2667 36.8 38.1333 36.8C39.2 36.8 40.0533 36.1067 41.3867 34.24C41.3333 34.5067 41.3333 36.8 43.2533 36.8C44.32 36.8 45.28 36.1067 46.6133 34.24C46.56 34.7734 46.72 36.8 48.3733 36.8C49.2267 36.8 50.5067 36.16 52.2133 33.28C51.9467 35.8934 53.3867 36.8534 54.2933 36.8534C55.5733 36.8534 56.64 35.7334 57.6 34.4C57.5467 34.6667 57.3867 36.8534 59.2533 36.8534C60.5333 36.8534 61.2267 35.68 61.9733 34.3467C62.6133 33.28 65.7067 27.3067 66.3467 26.1334C66.9333 25.0134 67.6267 24 68.2667 24C68.5867 24 69.0133 24.2667 67.9467 26.24L62.2933 36.64H65.0667L69.7067 28.16C71.5733 24.8 72.7467 23.9467 73.76 23.9467C74.08 23.9467 74.4533 24.4267 73.92 25.28C71.4133 28.8534 69.4933 32.6934 69.28 34.24C69.0667 35.7867 70.0267 36.8534 71.2 36.8534C72.48 36.8534 73.5467 35.4667 74.4533 34.24C74.4 34.5067 74.2933 36.8534 76.16 36.8534C77.2267 36.8534 78.2933 36.32 79.8933 34.24C79.84 34.6134 79.68 36.9067 81.5467 36.9067C82.8267 36.9067 83.52 35.7334 84.2667 34.4C84.8533 33.3334 88.2667 26.8267 88.64 26.1334C89.2267 25.0667 89.8133 24.0534 90.5067 24.0534C90.88 24.0534 91.3067 24.3734 90.1867 26.2934L84.5333 36.6934H87.3067L91.8933 28.2134C93.8133 24.8534 94.9333 24 95.9467 24C96.2667 24 96.64 24.48 96.0533 25.3334C93.5467 28.9067 91.6267 32.7467 91.4133 34.2934C91.2533 35.84 92.2133 36.9067 93.3867 36.9067C94.5067 36.9067 96.0533 35.52 97.5467 32.7467C97.0667 35.8934 98.88 36.96 99.84 36.9067C101.013 36.8533 102.187 35.9467 103.147 34.9867C103.36 36.0534 104.16 36.9067 105.44 36.9067C107.573 36.9067 110.133 35.3067 111.2 33.12C112.747 30.08 112.48 27.1467 111.627 24.2667ZM105.227 24.3734C105.653 23.9467 106.027 23.7867 106.24 24.2667C106.4 24.64 106.293 26.2934 105.067 27.68C104.48 28.32 103.307 29.2267 101.813 28.96C103.2 26.5067 104.48 25.12 105.227 24.3734ZM33.44 36C33.1733 36 32.8 35.84 32.8 35.1467C32.8 34.08 33.44 32.3734 35.0933 29.44C37.6 25.0667 39.2533 24.0534 39.84 24.0534C40.0533 24.0534 40.48 24.2134 40.48 24.9067C40.48 25.9734 39.7867 26.88 38.24 29.92C35.4133 35.2534 33.9733 36 33.44 36ZM54.6667 36C54.4 36 54.0267 35.84 54.0267 35.2C54.0267 34.1334 54.6667 32.4267 56.32 29.44C58.8267 25.0667 60.48 24.1067 61.0133 24.1067C61.28 24.1067 61.6533 24.2667 61.6533 24.9067C61.6533 25.9734 61.0133 26.88 59.4133 29.92C56.64 35.2534 55.2 36 54.6667 36ZM109.707 30.56C108.96 32.6934 107.573 36.0534 105.44 36.0534C103.947 36.0534 104.107 34.4534 104.107 34.08C104.107 34.08 104.96 34.2934 105.973 33.3334C106.4 32.9067 106.88 31.7334 106.56 31.04C108.16 28.9067 110.187 26.08 110.88 25.12C110.613 26.88 110.24 29.0134 109.707 30.56Z" /> </svg>