<svg fill="currentColor" aria-label="Bouygues Telecom" role="img" width="130" height="40" viewBox="0 0 130 40" xmlns="http://www.w3.org/2000/svg"> <g> <path d="M75.4841 14.7057C75.5484 14.7186 75.6127 14.7314 75.6771 14.7314C76.1016 14.7314 76.4361 14.3969 76.4361 13.9723C76.4361 13.9595 76.4361 13.9595 76.4361 13.9466C76.4361 13.7021 76.2818 13.3419 75.9858 13.1618C75.2525 12.6471 74.1332 12.467 73.1554 12.467C72.1775 12.467 71.1483 12.7115 70.505 13.2004C69.8617 13.6893 69.5272 14.384 69.5272 15.2718C69.5272 16.88 70.7108 18.0508 73.0653 18.5397C74.1074 18.7584 75.2268 19.2859 75.2268 20.2123C75.2268 20.6755 75.008 21.1901 74.6221 21.4603C74.0174 21.8977 73.1425 21.9878 72.7179 21.9878C72.1518 21.9878 71.2641 21.872 70.5178 21.4474C70.4792 21.4217 70.4535 21.4088 70.4149 21.3831C70.2991 21.3187 70.1705 21.2801 70.0289 21.2801C69.5786 21.2801 69.2184 21.6404 69.2184 22.0907C69.2184 22.2837 69.2827 22.4638 69.3985 22.5925C69.4629 22.6825 69.5529 22.7597 69.643 22.8241C70.6594 23.5317 72.1004 23.6346 72.7565 23.6346C73.3741 23.6346 73.9788 23.5059 74.6349 23.3001C75.111 23.1586 75.5227 22.9398 75.8701 22.6568C76.2046 22.3737 76.4748 22.0392 76.6677 21.6404C76.8607 21.2416 77.0022 20.6626 77.0022 20.1865C77.0022 18.0251 75.0852 17.1759 73.4127 16.8543C71.9974 16.5584 71.2769 15.9537 71.2769 15.2589C71.2769 15.0531 71.3284 14.8858 71.4313 14.7314C71.5343 14.577 71.6629 14.4612 71.8173 14.3712C71.9717 14.2811 72.1647 14.2168 72.3705 14.1782C72.5893 14.1396 72.8208 14.1139 73.1682 14.1139C73.6443 14.1139 74.6735 14.3326 75.111 14.5513C75.2139 14.6156 75.3554 14.6671 75.4841 14.7057ZM67.5973 13.8565C66.3879 12.4284 64.4323 12.4413 64.0335 12.4542C63.6603 12.4542 61.7305 12.467 60.5725 13.8565C60.045 14.487 59.8392 15.1817 59.6848 15.7864C59.5047 16.5584 59.4789 17.266 59.4789 18.0251C59.4789 19.4532 59.5947 21.1 60.5725 22.2065C61.5375 23.3258 62.9399 23.6089 64.0849 23.6089C65.3458 23.6089 66.7224 23.5059 67.7388 22.8112C67.9318 22.6954 68.0733 22.4895 68.1377 22.2966C68.1763 22.2065 68.1891 22.1164 68.1891 22.0135C68.1891 21.5761 67.8418 21.2287 67.4043 21.2287C67.3014 21.2287 67.2113 21.2544 67.1213 21.2801C67.0698 21.293 67.0055 21.3316 66.8639 21.4088C66.1177 21.8334 65.3972 22.0264 64.0849 21.9878C63.1972 21.9878 62.3738 21.7433 61.8205 21.0614C61.3059 20.4181 61.2287 19.4017 61.2158 18.2824H67.8031C68.2921 18.2824 68.6909 17.8836 68.6909 17.3947C68.7166 15.0016 67.5973 13.8565 67.5973 13.8565ZM61.2673 16.7642C61.2673 16.5841 61.2416 15.3232 62.2708 14.5642C62.9013 14.101 63.5831 14.0624 64.0077 14.0624C64.4323 14.0624 65.2171 14.0495 65.9119 14.577C66.9411 15.3618 66.954 16.597 66.9411 16.7771H61.2673V16.7642ZM58.1409 13.5349C58.1409 13.0717 57.7678 12.6857 57.2917 12.6857C56.8286 12.6857 56.4426 13.0589 56.4426 13.5349V21.4603C56.4426 21.6018 56.3397 21.7305 56.2239 21.7819C56.1209 21.8205 55.6449 22.0135 54.0495 22.0135C53.2518 22.0135 52.4027 21.6919 51.8881 21.01C51.3606 20.3152 51.3091 19.1187 51.3091 17.8836V13.5349C51.3091 13.0717 50.936 12.6857 50.46 12.6857C49.9968 12.6857 49.6108 13.0589 49.6108 13.5349V17.8707C49.6108 19.3889 49.7009 21.0228 50.6915 22.2065C51.5536 23.2486 52.9945 23.6089 54.0495 23.6089C54.7186 23.6089 56.1853 23.6603 57.4976 23.1714C57.8578 23.0556 58.1151 22.5796 58.1151 22.1808L58.1409 13.5349ZM48.3242 13.9852C48.3242 13.6121 48.1055 13.3033 47.7967 13.1489C46.3686 12.5314 44.7604 12.4413 44.027 12.4413C42.9206 12.4413 41.4796 12.7243 40.5146 13.8437C39.5497 14.9501 39.4082 16.6484 39.4082 18.1666C39.4082 19.6848 39.5497 21.0872 40.5146 22.1936C41.4796 23.313 42.882 23.6089 44.027 23.6089C45.082 23.6089 46.2528 23.1328 46.6131 22.734V24.1878C46.6131 24.9598 46.4329 25.5774 46.0598 26.0148C45.6867 26.4394 45.1592 26.6581 44.5031 26.6581C44.0656 26.6581 43.6153 26.6066 43.1521 26.4908C42.7018 26.375 41.9299 26.0148 41.6468 25.8733C41.3766 25.7446 40.862 25.8475 40.6433 26.2078C40.4117 26.5809 40.5661 27.1341 40.9263 27.3271C41.2866 27.5201 41.7498 27.8031 42.7147 28.0476C43.3323 28.202 43.937 28.2792 44.5031 28.2792C45.1335 28.2792 45.6996 28.1763 46.1756 27.9704C46.6517 27.7645 47.0634 27.4686 47.3721 27.1084C47.6938 26.7481 47.9254 26.3107 48.0926 25.7961C48.2599 25.2943 48.3371 24.7539 48.3371 24.1878V13.9852H48.3242ZM46.5873 20.1222C46.5873 20.7269 46.33 21.1386 46.047 21.4088C45.6867 21.7433 44.9019 22.0135 44.027 22.0135C43.1393 22.0135 42.3159 21.7562 41.7626 21.0743C41.2094 20.3795 41.1451 19.4146 41.1451 18.1795C41.1451 16.9443 41.2094 15.6706 41.7626 14.9887C42.3159 14.3068 43.165 14.0624 44.027 14.0624C44.696 14.0624 45.6095 14.2039 46.3686 14.4741C46.4973 14.5256 46.6002 14.6414 46.6002 14.7957L46.5873 20.1222ZM34.8665 20.7269C34.815 20.8298 34.725 20.8942 34.6092 20.8942C34.4805 20.8942 34.3776 20.7526 34.3519 20.7012C34.0817 20.3152 31.9846 14.5127 31.5343 13.2518C31.3799 12.8273 30.891 12.6085 30.4664 12.7629C30.0418 12.9173 29.8231 13.4062 29.9775 13.8308L32.705 21.0614C33.0267 21.9106 33.4899 22.3995 34.1589 22.6439L32.4992 27.0312C32.3319 27.4686 32.5507 27.9447 32.9881 28.1119C33.4255 28.2792 33.9016 28.0605 34.0688 27.623L39.2924 13.8437C39.4468 13.4191 39.228 12.9431 38.8163 12.7758C38.3918 12.6085 37.9029 12.8273 37.7356 13.2647L34.8665 20.7269ZM28.8839 13.5349C28.8839 13.0717 28.5108 12.6857 28.0347 12.6857C27.5716 12.6857 27.1856 13.0589 27.1856 13.5349V21.4603C27.1856 21.6018 27.0827 21.7305 26.9669 21.7819C26.8639 21.8205 26.3879 22.0135 24.7925 22.0135C23.9948 22.0135 23.1457 21.6919 22.6311 21.01C22.1036 20.3152 22.0521 19.1187 22.0521 17.8836V13.5349C22.0521 13.0717 21.679 12.6857 21.203 12.6857C20.7398 12.6857 20.3538 13.0589 20.3538 13.5349V17.8707C20.3538 19.3889 20.4439 21.0228 21.4345 22.2065C22.2966 23.2486 23.7375 23.6089 24.7925 23.6089C25.4616 23.6089 26.9283 23.6603 28.2406 23.1714C28.6008 23.0556 28.8582 22.5796 28.8582 22.1808L28.8839 13.5349ZM18.2309 13.8694C17.266 12.7372 15.8636 12.4413 14.7186 12.4413C13.5735 12.4413 12.1711 12.7372 11.1933 13.8694C10.2284 15.0016 10.0868 16.4812 10.0868 17.935C10.0868 19.3889 10.2284 21.0743 11.1933 22.1936C12.1582 23.3258 13.5606 23.6217 14.7057 23.6217C15.8508 23.6217 17.2531 23.3258 18.2181 22.1936C19.183 21.0614 19.3245 19.4661 19.3245 17.935C19.3245 16.3911 19.1959 15.0016 18.2309 13.8694ZM16.9701 21.0486C16.4168 21.7433 15.5934 22.0135 14.7057 22.0135C13.8179 22.0135 12.9945 21.7433 12.4413 21.0486C11.8881 20.3538 11.8237 19.183 11.8237 17.935C11.8237 16.687 11.8881 15.7221 12.4413 15.0273C12.9945 14.3326 13.8179 14.0624 14.7057 14.0624C15.5934 14.0624 16.4168 14.3326 16.9701 15.0273C17.5233 15.7221 17.5876 16.687 17.5876 17.935C17.5876 19.183 17.5233 20.3409 16.9701 21.0486ZM7.82245 13.8565C6.84464 12.7372 5.45513 12.4413 4.31006 12.4413C3.25506 12.4413 2.08427 12.9045 1.72402 13.3033V8.25988C1.72402 7.78385 1.33805 7.41074 0.874874 7.41074C0.398837 7.41074 0.0257263 7.79671 0.0257263 8.25988V22.065C0.0257263 22.4767 0.283044 22.8241 0.643288 22.9527C2.04567 23.5317 3.61531 23.6217 4.33579 23.6217C5.45513 23.6217 6.88324 23.3387 7.84818 22.2194C8.81312 21.1129 8.95464 19.5561 8.95464 18.0379C8.95464 16.5198 8.78739 14.963 7.82245 13.8565ZM6.56159 21.0872C6.00836 21.7691 5.15921 22.0135 4.2972 22.0135C3.62817 22.0135 2.70183 21.872 1.94274 21.6018C1.82695 21.5632 1.73689 21.4474 1.73689 21.3187V15.9408C1.73689 15.3361 1.99421 14.9244 2.27725 14.6542C2.6375 14.3197 3.42232 14.0624 4.2972 14.0624C5.17208 14.0624 6.00836 14.3068 6.56159 14.9887C7.11482 15.6835 7.17915 16.8028 7.17915 18.0379C7.17915 19.2731 7.11482 20.3924 6.56159 21.0872Z" /> <path d="M109.553 39.3052C112.975 41.6726 119.756 37.8128 124.683 30.6594C129.611 23.5188 130.833 15.825 127.411 13.4577C123.988 11.0904 117.388 14.7571 112.448 21.8977C107.52 29.0383 106.131 36.9379 109.553 39.3052Z" /> <path d="M101.01 39.3052C97.5877 41.6726 90.8073 37.8128 85.8797 30.6594C80.9521 23.5188 79.7298 15.825 83.1521 13.4577C86.5745 11.0904 93.1747 14.7571 98.1152 21.8977C103.043 29.0383 104.432 36.9379 101.01 39.3052Z" /> <path d="M105.269 15.0531C113.959 15.0531 121.004 11.6833 121.004 7.52654C121.004 3.36975 113.959 0 105.269 0C96.5784 0 89.5336 3.36975 89.5336 7.52654C89.5336 11.6833 96.5784 15.0531 105.269 15.0531Z" /> <path d="M76.2946 28.1377H76.0888C76.0116 28.1377 75.9601 28.0862 75.9601 28.0219V26.761L75.4198 28.0733C75.394 28.1119 75.3554 28.1377 75.2911 28.1377H75.0852C75.0338 28.1377 74.9823 28.1119 74.9695 28.0733L74.4034 26.7482V28.0219C74.4034 28.0862 74.339 28.1377 74.2747 28.1377H74.0688C73.9917 28.1377 73.9402 28.0862 73.9402 28.0219V25.6803C73.9402 25.616 74.0045 25.5645 74.0688 25.5645H74.2747C74.3262 25.5645 74.3776 25.5902 74.3905 25.6288L75.1882 27.5201L75.973 25.6288C75.9987 25.5902 76.0373 25.5645 76.0888 25.5645H76.2946C76.3718 25.5645 76.4233 25.616 76.4233 25.6803V28.0219C76.4362 28.0862 76.3718 28.1377 76.2946 28.1377ZM71.7015 25.7961C71.4957 25.616 71.2126 25.5259 70.9296 25.5259C70.6465 25.5259 70.3635 25.616 70.1576 25.7961C69.8617 26.0534 69.8231 26.3236 69.8231 26.8511C69.8231 27.3786 69.8617 27.6488 70.1576 27.9061C70.3635 28.0862 70.6337 28.1891 70.9296 28.1891C71.2255 28.1891 71.4957 28.0862 71.7015 27.9061C71.9974 27.6488 72.036 27.3786 72.036 26.8511C72.0232 26.3107 71.9846 26.0534 71.7015 25.7961ZM71.3413 27.6359C71.2384 27.726 71.084 27.7774 70.9296 27.7774C70.7752 27.7774 70.6208 27.726 70.5179 27.6359C70.3635 27.5072 70.2991 27.3529 70.2991 26.8511C70.2991 26.3493 70.3635 26.1949 70.5179 26.0663C70.6208 25.9762 70.7752 25.9119 70.9296 25.9119C71.084 25.9119 71.2384 25.9633 71.3413 26.0663C71.4957 26.1949 71.56 26.3493 71.56 26.8511C71.5471 27.3529 71.4957 27.4944 71.3413 27.6359ZM67.7388 27.3657L67.533 27.3271C67.4687 27.3143 67.4043 27.3529 67.3915 27.4043C67.3529 27.5072 67.3014 27.5844 67.2371 27.6359C67.1341 27.726 66.9798 27.7903 66.8254 27.7903C66.671 27.7903 66.5166 27.7388 66.4137 27.6359C66.2593 27.5072 66.1949 27.3529 66.1949 26.8511C66.1949 26.3493 66.2593 26.1949 66.4137 26.0663C66.5166 25.9762 66.671 25.9119 66.8254 25.9119C66.9798 25.9119 67.1341 25.9633 67.2371 26.0663C67.3143 26.1306 67.3657 26.1949 67.3915 26.2978C67.4172 26.3493 67.4815 26.375 67.533 26.375L67.7388 26.3364C67.7774 26.3236 67.816 26.3107 67.8289 26.2721C67.8546 26.2464 67.8546 26.2078 67.8418 26.1692C67.7903 26.0277 67.7131 25.899 67.5716 25.7832C67.3657 25.6031 67.0827 25.513 66.7996 25.513C66.5166 25.513 66.2335 25.6031 66.0277 25.7832C65.7318 26.0405 65.6932 26.3107 65.6932 26.8382C65.6932 27.3657 65.7318 27.6359 66.0277 27.8932C66.2335 28.0733 66.5166 28.1634 66.7996 28.1634C67.0827 28.1634 67.3657 28.0733 67.5716 27.8932C67.7002 27.7774 67.7903 27.6616 67.8418 27.5072C67.8546 27.4686 67.8546 27.43 67.8289 27.4043C67.816 27.3914 67.7774 27.3657 67.7388 27.3657ZM63.506 28.1377H61.8977C61.8205 28.1377 61.7691 28.0862 61.7691 28.0219V25.6803C61.7691 25.616 61.8334 25.5645 61.8977 25.5645H63.506C63.5832 25.5645 63.6346 25.616 63.6346 25.6803V25.8733C63.6346 25.9376 63.5703 25.9891 63.506 25.9891H62.2322V26.6324H63.3001C63.3773 26.6324 63.4288 26.6838 63.4288 26.7482V26.9283C63.4288 26.9926 63.3644 27.0441 63.3001 27.0441H62.2322V27.7131H63.506C63.5832 27.7131 63.6346 27.7646 63.6346 27.8289V28.0219C63.6346 28.0862 63.5832 28.1377 63.506 28.1377ZM59.6848 28.1377H58.0766C57.9994 28.1377 57.9479 28.0862 57.9479 28.0219V25.6803C57.9479 25.616 58.0122 25.5645 58.0766 25.5645H58.2824C58.3596 25.5645 58.4111 25.616 58.4111 25.6803V27.7131H59.6848C59.762 27.7131 59.8135 27.7646 59.8135 27.8289V28.0219C59.8135 28.0862 59.7491 28.1377 59.6848 28.1377ZM55.5163 28.1377H53.908C53.8308 28.1377 53.7794 28.0862 53.7794 28.0219V25.6803C53.7794 25.616 53.8437 25.5645 53.908 25.5645H55.5163C55.5934 25.5645 55.6449 25.616 55.6449 25.6803V25.8733C55.6449 25.9376 55.5806 25.9891 55.5163 25.9891H54.2425V26.6324H55.3104C55.3876 26.6324 55.4391 26.6838 55.4391 26.7482V26.9283C55.4391 26.9926 55.3747 27.0441 55.3104 27.0441H54.2425V27.7131H55.5163C55.5934 27.7131 55.6449 27.7646 55.6449 27.8289V28.0219C55.6449 28.0862 55.5806 28.1377 55.5163 28.1377ZM50.7559 28.1377H50.5629C50.4857 28.1377 50.4342 28.0862 50.4342 28.0219V25.9891H49.7781C49.7009 25.9891 49.6494 25.9376 49.6494 25.8733V25.6803C49.6494 25.616 49.7137 25.5645 49.7781 25.5645H51.5536C51.6308 25.5645 51.6822 25.616 51.6822 25.6803V25.8733C51.6822 25.9376 51.6179 25.9891 51.5536 25.9891H50.8974V28.0219C50.8974 28.0862 50.8331 28.1377 50.7559 28.1377Z" /> </g> </svg>