<svg fill="currentColor" aria-label="Caisse des Dépôts" role="img" width="50" height="50" viewBox="0 0 50 50" xmlns="http://www.w3.org/2000/svg"> <path d="M31.9792 20.2247C32.1089 20.0951 32.1089 19.9654 31.9792 19.8358L31.8064 19.6629L31.4174 20.0519L31.5903 20.2247C31.7632 20.3544 31.8928 20.3111 31.9792 20.2247Z" /> <path d="M35.9118 -1.49384e-06C35.9118 -1.49384e-06 35.9118 0.0432137 35.8686 0.0432137C35.8254 0.172859 35.6958 0.25929 35.5229 0.302505C35.2636 0.388935 35.0908 0.388935 35.0475 0.388935C34.9611 0.302505 34.9611 0.129644 34.9611 -1.49384e-06H35.0043H34.2264C34.2264 0.0432137 34.2264 0.0864289 34.14 0.129644L33.7943 0.302505L34.14 0.864303L34.5722 0.605011C34.5722 0.518581 34.529 0.432151 34.529 0.34572L34.6154 0.302505C34.7018 0.34572 34.745 0.432151 34.7882 0.518581C34.7882 0.561796 34.8315 0.605011 34.8315 0.648227L33.8375 1.21002C33.7943 1.12359 33.8375 1.08038 33.9239 0.993948L33.4054 -1.49384e-06H31.2014C27.8738 2.72256 25.9291 6.828 25.9291 11.1495C25.9291 19.1011 32.2818 25.497 40.1469 25.497C43.7338 25.497 47.0182 24.1573 49.5246 21.9533V23.4659C46.9317 25.497 43.6906 26.6638 40.1469 26.6638C31.6335 26.6638 24.7623 19.7061 24.7623 11.1063C24.7623 6.91443 26.4477 2.8522 29.4728 -0.0432167H0V49.9568H49.4814V-1.49384e-06H35.9118ZM26.8799 27.6145C28.4356 27.6145 29.0406 28.9974 28.9542 30.2074H25.8859C25.9291 30.9853 26.3181 31.331 26.9231 31.331C27.3984 31.331 27.7874 31.0285 27.8306 30.7692H28.8678C28.522 31.936 27.701 32.2385 26.8799 32.2385C25.4538 32.2385 24.6759 31.2446 24.6759 29.9481C24.6759 28.6085 25.5834 27.6145 26.8799 27.6145ZM28.3924 33.6646L27.0527 35.1772H26.2316L27.0959 33.6646H28.3924ZM22.9905 30.5964C22.5583 30.2074 21.2187 30.2506 20.6569 29.6888C20.484 29.516 20.3976 29.2999 20.3976 28.9974C20.3976 28.0899 21.0458 27.6145 22.2558 27.6145C23.0769 27.6145 24.0277 27.8738 24.1573 28.9974H23.0337C23.0337 28.522 22.6448 28.3924 22.2126 28.3924C21.9101 28.3924 21.5644 28.4356 21.5644 28.7813C21.5644 29.0838 21.8669 29.2135 22.4287 29.2999C22.6016 29.3431 22.7312 29.3863 22.9041 29.4296C23.5955 29.6024 24.2437 29.8185 24.2437 30.6396C24.2437 31.5471 23.6387 32.1521 22.299 32.1521C21.2187 32.1521 20.3111 31.72 20.3111 30.6396H21.4347C21.4347 31.115 21.8237 31.3742 22.3423 31.3742C22.6448 31.3742 23.1201 31.2446 23.1201 30.8124C23.0769 30.7692 23.0337 30.6396 22.9905 30.5964ZM18.5825 30.5964C18.1504 30.2074 16.8107 30.2506 16.2489 29.6888C16.0761 29.516 15.9896 29.2999 15.9896 28.9974C15.9896 28.0899 16.6379 27.6145 17.8479 27.6145C18.669 27.6145 19.6197 27.8738 19.7494 28.9974H18.6258C18.6258 28.522 18.2368 28.3924 17.8047 28.3924C17.5022 28.3924 17.1564 28.4356 17.1564 28.7813C17.1564 29.0838 17.4589 29.2135 18.0207 29.2999C18.1936 29.3431 18.3232 29.3863 18.4961 29.4296C19.1876 29.6024 19.8358 29.8185 19.8358 30.6396C19.8358 31.5471 19.1876 32.1521 17.8911 32.1521C16.8107 32.1521 15.9032 31.72 15.9032 30.6396H17.0268C17.0268 31.115 17.4157 31.3742 17.9343 31.3742C18.2368 31.3742 18.7122 31.2446 18.7122 30.8124C18.7122 30.7692 18.669 30.6396 18.5825 30.5964ZM15.471 38.764C15.0389 38.3751 13.6992 38.4183 13.1374 37.8565C12.9646 37.6837 12.8781 37.4676 12.8781 37.1651C12.8781 36.2576 13.5264 35.7822 14.7364 35.7822C15.5575 35.7822 16.5082 36.0415 16.6379 37.1651H15.5143C15.5143 36.6897 15.1253 36.5601 14.6932 36.5601C14.3907 36.5601 14.0449 36.6033 14.0449 36.949C14.0449 37.2515 14.3475 37.3812 14.866 37.4676C15.0389 37.5108 15.1685 37.554 15.3414 37.5972C16.0328 37.7701 16.6811 37.9862 16.6811 38.8073C16.6811 39.7148 16.0328 40.3198 14.7364 40.3198C13.656 40.3198 12.7485 39.8876 12.7485 38.8073H13.8721C13.8721 39.2826 14.261 39.5419 14.7796 39.5419C15.0821 39.5419 15.5575 39.4123 15.5575 38.9801C15.6007 38.9369 15.5575 38.8505 15.471 38.764ZM14.1746 26.0588H15.3414V27.0527H14.1746V26.0588ZM14.1746 27.7442H15.3414V32.1089H14.1746V27.7442ZM11.4088 28.4356C10.9767 28.4356 10.6742 28.6085 10.6309 29.0838H9.46413C9.55056 27.9602 10.5445 27.6145 11.452 27.6145C12.1003 27.6145 13.3103 27.7442 13.3103 28.8678V31.115C13.3103 31.4175 13.3535 31.8928 13.4399 32.0657H12.2299C12.1867 31.9793 12.1435 31.7632 12.1435 31.6335C11.7545 32.0657 11.1495 32.1521 10.7174 32.1521C9.85307 32.1521 9.24806 31.72 9.24806 30.8557C9.24806 29.8617 10.0259 29.6456 10.6742 29.516C10.847 29.4728 11.0199 29.4728 11.1927 29.4296C11.8842 29.3431 12.1003 29.2135 12.057 28.911C12.1435 28.522 11.7978 28.4356 11.4088 28.4356ZM10.3717 39.4987C10.847 39.4987 11.236 39.1962 11.2792 38.9369H12.3163C11.9706 40.1037 11.1495 40.4062 10.3284 40.4062C8.90233 40.4062 8.16768 39.4123 8.16768 38.1158C8.16768 36.7761 9.07519 35.8254 10.3284 35.8254C11.8842 35.8254 12.4892 37.2083 12.4028 38.4183H9.33449C9.3777 39.1962 9.76664 39.4987 10.3717 39.4987ZM6.30942 25.9291C7.64909 25.9291 8.68626 26.7502 8.85912 28.0899H7.60588C7.51945 27.4849 6.95765 27.0527 6.30942 27.0527C5.18583 27.0527 4.71046 27.9602 4.71046 29.1271C4.71046 30.121 5.14261 31.1582 6.30942 31.1582C7.13051 31.1582 7.56266 30.6396 7.64909 29.8185H8.90233C8.77269 31.4175 7.64909 32.2818 6.30942 32.2818C4.49438 32.2818 3.414 30.8989 3.414 29.1703C3.414 27.2688 4.5376 25.9291 6.30942 25.9291ZM6.43907 45.8946C6.09334 46.1971 5.61798 46.3699 5.14261 46.3699C4.14866 46.3699 3.54365 45.6785 3.54365 44.7277C3.54365 43.8202 4.19188 43.0856 5.14261 43.0856C5.70441 43.0856 6.00691 43.2584 6.35264 43.5177L6.00691 43.9499C5.74762 43.7338 5.53155 43.6041 5.14261 43.6041C4.58081 43.6041 4.14866 44.1227 4.14866 44.7277C4.14866 45.376 4.58081 45.8513 5.22904 45.8513C5.53155 45.8513 5.79084 45.7649 5.9637 45.592V44.987H5.18583V44.5117H6.5255V45.8946H6.43907ZM7.69231 40.2766H6.56871V39.7148C6.30942 40.1901 5.83405 40.363 5.27226 40.363C3.9758 40.363 3.37079 39.2394 3.37079 38.0294C3.37079 36.7761 4.10544 35.7822 5.27226 35.7822C5.79084 35.7822 6.26621 35.9983 6.5255 36.4304V34.2264H7.69231V40.2766ZM9.9395 46.3267L9.16162 45.2031H8.47018V46.3267H7.90838V43.1288H9.29127C9.68021 43.1288 9.98271 43.2584 10.1988 43.4313C10.3717 43.6041 10.4581 43.8202 10.4581 44.1227C10.4581 44.6413 10.1556 44.9438 9.72342 45.0735L10.5877 46.2835H9.9395V46.3267ZM14.866 44.7277C14.866 45.6353 14.1746 46.3699 13.2239 46.3699C12.2731 46.3699 11.5817 45.6353 11.5817 44.7277C11.5817 43.8202 12.2731 43.0856 13.2239 43.0856C14.1746 43.0856 14.866 43.8202 14.866 44.7277ZM18.7122 44.9438C18.7122 45.8946 18.1936 46.3699 17.3725 46.3699C16.5514 46.3699 16.0328 45.8946 16.0328 44.987V43.172H16.5946V44.987C16.5946 45.592 16.8971 45.8946 17.3725 45.8946C17.8479 45.8946 18.1504 45.592 18.1504 44.987V43.172H18.7122V44.9438ZM22.4719 44.2092C22.4719 44.9438 21.9101 45.2895 21.2187 45.2895H20.6137V46.3267H20.0519V43.1288H21.2619C21.9965 43.1288 22.4719 43.5609 22.4719 44.2092ZM21.5644 40.2766H19.0147V34.2697H21.5644C23.0769 34.2697 24.2437 35.2204 24.2437 37.2515C24.2437 39.0233 23.3362 40.2766 21.5644 40.2766ZM25.8859 46.3267H23.5523V43.1288H25.8859V43.6474H24.1141V44.4685H25.6698V44.987H24.1141V45.8513H25.8859V46.3267ZM28.9542 38.3751H25.8859C25.9291 39.153 26.3181 39.4987 26.9231 39.4987C27.3984 39.4987 27.7874 39.1962 27.8306 38.9369H28.8678C28.522 40.1037 27.701 40.4062 26.8799 40.4062C25.4538 40.4062 24.7191 39.4123 24.7191 38.1158C24.7191 36.7761 25.6266 35.8254 26.8799 35.8254C28.4356 35.7822 29.0406 37.1651 28.9542 38.3751ZM35.9118 34.1832H36.9922L37.8997 35.3933H36.949L36.4304 34.7018L35.8686 35.35H35.0043L35.9118 34.1832ZM31.8928 40.363C31.331 40.363 30.8989 40.1037 30.5964 39.7148V41.7891H29.4296V35.9118H30.5532V36.4736C30.8557 35.9983 31.331 35.7822 31.8064 35.7822C33.1893 35.7822 33.7511 36.949 33.7511 38.1158C33.7943 39.3258 33.1461 40.363 31.8928 40.363ZM36.4304 40.363C35.1772 40.363 34.2264 39.5419 34.2264 38.0726C34.2264 36.6465 35.0908 35.7822 36.4304 35.7822C37.8133 35.7822 38.6344 36.6897 38.6344 38.0726C38.6344 39.4123 37.8565 40.363 36.4304 40.363ZM41.5298 36.7329H40.6655V38.8937C40.6655 39.2826 40.7519 39.4123 41.1409 39.4123C41.2705 39.4123 41.4002 39.4123 41.4866 39.3691V40.2766C41.2705 40.3198 41.0112 40.3198 40.7952 40.3198C40.0173 40.3198 39.4555 40.1469 39.4555 39.2826V36.7329H38.764V35.9118H39.4555V34.6154H40.6223V35.9118H41.4866L41.5298 36.7329ZM43.8202 40.363C42.7398 40.363 41.8323 39.9309 41.8323 38.8505H42.9559C42.9559 39.3258 43.3449 39.5851 43.8634 39.5851C44.1659 39.5851 44.6413 39.4555 44.6413 39.0233C44.6413 38.9369 44.5981 38.8505 44.5117 38.764C44.0795 38.3751 42.7398 38.4183 42.178 37.8565C42.0052 37.6837 41.9188 37.4676 41.9188 37.1651C41.9188 36.2576 42.567 35.7822 43.777 35.7822C44.5981 35.7822 45.5488 36.0415 45.6785 37.1651H44.5549C44.5549 36.6897 44.1659 36.5601 43.7338 36.5601C43.4313 36.5601 43.0856 36.6033 43.0856 36.949C43.0856 37.2515 43.3881 37.3812 43.9499 37.4676C44.1227 37.5108 44.2524 37.554 44.4252 37.5972C45.1167 37.7701 45.7649 37.9862 45.7649 38.8073C45.7649 39.758 45.1599 40.363 43.8202 40.363ZM49.395 18.3665C49.4814 18.4529 49.4382 18.4961 49.3518 18.6258L49.4814 18.7122V18.9715L49.2653 18.7554C49.2221 18.7986 49.1357 18.8418 49.0925 18.885L49.0061 18.7986L49.395 18.3665ZM46.4996 7.69231C46.5428 7.86517 46.4564 8.03803 46.3267 8.16767C46.4996 8.16767 46.7156 8.29732 46.9749 8.47018C46.6724 8.72947 46.1971 8.72947 45.8513 8.47018C45.8946 8.38375 45.981 8.29732 46.0242 8.2541C45.9378 7.99481 46.1106 7.82195 46.4996 7.69231ZM46.4131 9.07519C46.1971 9.24805 45.8081 9.29127 45.592 9.03198C45.8081 8.72947 46.2403 8.8159 46.4131 9.07519ZM45.0303 8.08124C44.9438 8.34054 44.9438 8.64304 45.0735 8.90233C45.2031 9.20484 45.4624 9.50735 45.7649 9.72342C46.1971 9.29127 46.7589 9.63699 47.0614 9.89628C46.5428 10.2852 45.8081 10.1124 45.2463 9.59378C45.2895 9.85307 45.376 10.1124 45.4192 10.4149C45.592 10.3284 45.7649 10.2852 45.9378 10.3284C45.6353 10.4149 45.4624 10.6309 45.4624 10.9334C45.4624 10.9767 45.4624 11.1495 45.4624 11.1927C45.592 11.0199 45.8513 10.847 46.1538 10.7606C46.4564 10.6742 46.8453 10.6742 47.191 10.847C46.9749 11.2792 46.2835 11.3224 45.8513 11.0631C45.6785 11.1927 45.4624 11.452 45.4624 11.841C45.4624 12.2731 45.6785 12.6188 46.1538 12.7053C45.8513 12.7917 45.592 12.7053 45.4192 12.5756C45.4192 12.7917 45.376 12.9646 45.3328 13.1806C45.1167 13.3535 44.9438 13.5264 44.771 13.8289C44.987 13.0942 45.1167 12.2731 45.1167 11.452C45.1167 10.5445 44.9438 9.80985 44.8574 9.29127C44.771 8.85912 44.7277 8.5134 44.8142 8.21089C44.9438 7.47623 45.4192 7.17372 46.0242 7.13051C45.981 7.51945 45.7217 8.16767 45.0303 8.08124ZM46.6724 12.446C46.4564 12.5756 46.0674 12.5324 45.9378 12.1867C46.1971 12.057 46.586 12.1867 46.6724 12.446ZM45.4192 6.35263C45.5056 6.74157 45.2031 7.08729 44.8142 7.08729C44.771 6.78479 44.987 6.39585 45.4192 6.35263ZM44.2092 6.61193C44.2524 6.87122 44.3388 7.26015 44.5549 7.69231C44.5981 7.73552 44.5981 7.82195 44.6413 7.86517C44.5981 7.99481 44.5549 8.16767 44.5549 8.34053C44.4685 8.12446 44.382 7.9516 44.2956 7.73552C43.5609 6.30942 43.8634 5.53155 44.7277 5.09939C44.9438 5.57476 44.987 6.35263 44.2092 6.61193ZM40.1469 0.777872C40.363 0.777872 40.5359 0.950733 40.5359 1.16681C40.5359 1.38289 40.363 1.55575 40.1469 1.55575C39.9309 1.55575 39.758 1.38289 39.758 1.16681C39.758 0.950733 39.9309 0.777872 40.1469 0.777872ZM36.0847 3.50043L36.7761 3.24114L36.9922 3.63008C37.0787 3.75972 37.2083 3.84615 37.3379 3.75972C37.4676 3.71651 37.554 3.58686 37.5108 3.414L37.3812 2.98185L38.4615 2.5497L38.6776 2.98185C38.764 3.11149 38.8937 3.19792 39.0233 3.11149C39.153 3.06828 39.2394 2.93863 39.1962 2.76577L39.0666 2.24719L40.1037 1.81504L41.1409 2.24719L41.0545 2.72256C41.0112 2.89542 41.0977 3.02506 41.2273 3.06828C41.357 3.11149 41.5298 3.06828 41.573 2.93863L41.7891 2.50648L42.8695 2.93863L42.7398 3.37078C42.6966 3.54365 42.7831 3.67329 42.9127 3.71651C43.0424 3.75972 43.2152 3.71651 43.2584 3.58686L43.4745 3.19792L44.1659 3.45722C44.2956 3.19792 44.5117 3.28435 44.5981 3.32757L43.6041 5.27225C43.3449 5.87727 43.4313 6.30942 43.4745 6.43906C43.172 5.9637 42.4373 5.48833 42.3077 5.4019L42.8695 4.96975C42.8695 5.05618 42.8695 5.14261 42.8263 5.22904L43.0424 5.4019L43.3449 4.88332C42.4373 4.23509 41.357 3.84615 40.2766 3.84615C40.3198 3.71651 40.4062 3.58686 40.6655 3.58686C41.6595 3.67329 42.6102 4.01901 43.5177 4.62403L43.9931 3.75972L43.6041 3.58686C43.3881 3.93258 43.1288 3.9758 42.8263 3.84615C42.5238 3.71651 42.4373 3.50043 42.4806 3.11149L41.9188 2.98185C41.6595 3.414 41.4002 3.414 41.1409 3.28435C40.8384 3.15471 40.7519 2.89542 40.8384 2.50648C40.8384 2.50648 40.6655 2.42005 40.4927 2.37684C40.4062 3.02506 40.1901 3.414 40.1901 3.414C40.1901 3.414 39.9309 3.02506 39.8444 2.37684C39.6716 2.46327 39.4987 2.50648 39.4987 2.50648C39.5851 2.8522 39.4555 3.15471 39.1962 3.28435C38.8937 3.414 38.6776 3.37078 38.4183 2.98185L37.8133 3.24114C37.8997 3.58686 37.7701 3.84615 37.4676 3.9758C37.1651 4.10544 36.9058 4.06223 36.6897 3.71651L36.3008 3.88937L36.7761 4.75367C37.6837 4.14866 38.6344 3.80294 39.6283 3.71651C39.8876 3.67329 39.9741 3.84615 40.0173 3.9758C38.9369 3.9758 37.8565 4.36474 36.949 5.01296L37.2515 5.53155L37.4676 5.35869C37.4676 5.27225 37.4244 5.14261 37.4244 5.09939L37.9862 5.53155C37.8565 5.61798 37.1651 6.09334 36.8194 6.56871C36.8194 6.43906 36.949 6.00691 36.6897 5.4019L35.6958 3.45722C35.739 3.28435 35.9551 3.24114 36.0847 3.50043ZM40.7952 18.7122C40.7519 18.7986 40.6655 18.7986 40.5791 18.7554C40.6655 18.885 40.6223 19.0147 40.5359 19.0579C40.4494 19.1011 40.363 19.0579 40.3198 19.0147C40.363 19.1443 40.2334 19.274 40.1469 19.274C40.0605 19.274 39.9741 19.1876 39.9741 19.0147C39.9309 19.1011 39.8444 19.1443 39.758 19.0579C39.6716 19.0147 39.6283 18.885 39.7148 18.7554C39.6283 18.7986 39.5419 18.7986 39.4987 18.7122C39.4555 18.6258 39.4987 18.5393 39.5419 18.4961C39.5851 18.4529 39.7148 18.3232 39.9741 18.1072C40.0173 18.064 40.0605 18.0207 40.1469 18.0207C40.1901 18.0207 40.2766 18.064 40.3198 18.1072C40.5791 18.3232 40.7087 18.4529 40.7519 18.4961C40.7952 18.5393 40.8384 18.669 40.7952 18.7122ZM40.5791 19.4901L40.1469 20.3111L39.6716 19.5333C39.6716 19.5333 39.8876 19.6197 40.1469 19.6197C40.4062 19.5765 40.5791 19.4901 40.5791 19.4901ZM38.1158 18.2368C38.1158 18.7554 37.943 19.5765 38.764 19.3604C38.8937 19.6629 39.0233 20.2247 37.6404 20.2679C37.7269 19.9222 37.9862 19.6629 38.3319 19.4901C37.9862 19.4036 37.943 19.1011 37.8997 18.7986C37.7269 18.9715 37.5108 19.0579 37.2947 19.0579C36.949 19.0147 36.7761 18.7554 36.7761 18.7554C36.9058 18.7122 37.0354 18.669 37.1651 18.7122C37.0354 18.5393 36.949 18.28 37.0354 18.064C37.4676 18.064 37.7701 18.3665 37.6837 18.885C37.8997 18.7554 37.8997 18.4529 37.8133 18.28C37.554 17.5886 36.7329 17.7182 36.3872 18.1072C36.4304 17.8911 36.6033 17.675 36.7761 17.5886C37.2515 17.2861 38.0294 17.5454 38.5048 17.7614C38.8937 17.9343 39.2826 18.0207 39.7148 18.1072C39.0233 18.7122 38.8505 18.8418 38.4183 18.885C38.5048 18.7986 38.5912 18.669 38.6776 18.5393C38.4183 18.3665 38.2022 18.2368 38.1158 18.2368ZM36.949 19.5333C37.1219 19.2308 37.554 19.1876 37.8133 19.4468C37.5972 19.7493 37.1651 19.7061 36.949 19.5333ZM32.8436 11.7978C33.1029 11.452 33.7079 11.4088 34.0104 11.7978C33.6214 12.1867 33.1029 12.057 32.8436 11.7978ZM34.3561 12.2299C34.2264 12.5756 33.8375 12.5756 33.6214 12.4892C33.7079 12.1867 34.0968 12.057 34.3561 12.2299ZM34.9611 13.5264C35.3068 13.8721 35.6093 14.3474 35.9118 14.9525C36.0415 15.255 36.2576 15.5575 36.4304 15.86C36.7761 16.3786 37.2083 16.8107 37.6837 17.1564C37.3379 17.1132 37.0787 17.1132 36.8626 17.1997C36.6897 17.0268 36.5169 16.8107 36.344 16.5946C36.0847 16.2489 35.8254 16.1625 35.4797 16.2489C35.6093 16.1193 35.7822 16.0328 35.9551 16.0328C35.739 15.6871 35.6093 15.2982 35.2204 15.0821C35.1772 15.0821 35.0908 15.0389 35.0475 14.9957C34.8315 15.3846 34.3993 15.2982 34.2264 15.1685C34.529 14.7796 35.0043 14.7364 35.4797 14.9957C35.3933 14.8228 35.35 14.65 35.2636 14.4771C35.0908 13.9153 34.745 13.5264 34.4425 13.3535C33.9672 13.8721 33.3189 13.5696 33.0596 13.3103C33.7511 12.7917 34.3993 13.051 34.9611 13.5264ZM40.4062 14.261L40.6223 13.9585C40.7087 13.9153 40.7952 13.8721 40.8816 13.8721C41.1841 13.8721 41.4434 14.1314 41.4434 14.4771C41.4434 14.5635 41.4434 14.65 41.4002 14.7364C41.3137 14.5635 41.1409 14.4339 40.9248 14.4339C40.6223 14.4339 40.4062 14.7364 40.4062 14.9957C40.4062 15.1685 40.4494 15.3846 40.5791 15.5575H39.758C39.8444 15.3846 39.9309 15.2118 39.9309 14.9957C39.9309 14.7364 39.7148 14.4339 39.4123 14.4339C39.1962 14.4339 39.0233 14.5635 38.9369 14.7364C38.8937 14.65 38.8937 14.5635 38.8937 14.4771C38.8937 14.1314 39.153 13.8721 39.4555 13.8721C39.5419 13.8721 39.6716 13.9153 39.7148 13.9585L39.9309 14.261L40.0173 14.2178C40.0173 14.2178 39.7148 13.6992 39.7148 13.3967C39.7148 13.0942 39.9309 12.5756 40.2334 12.3163C40.5359 12.5756 40.7519 13.051 40.7519 13.3967C40.7519 13.6992 40.4494 14.2178 40.4494 14.2178L40.4062 14.261ZM41.1841 14.9525H40.7087C40.7519 14.866 40.8384 14.7364 40.9248 14.7364C41.0112 14.7364 41.0977 14.8228 41.1841 14.9525ZM39.3258 13.4831C39.3258 13.5264 39.3258 13.5696 39.3258 13.6128C39.1962 13.6128 39.0233 13.656 38.8937 13.7424H36.7761C36.7329 13.656 36.7329 13.5696 36.6897 13.4831H39.3258ZM36.6897 13.0942C36.6897 13.0078 36.6465 12.9213 36.6465 12.8349H39.4555C39.4123 12.9213 39.4123 13.0078 39.3691 13.0942H36.6897ZM38.6344 14.0882C38.5912 14.1746 38.548 14.261 38.548 14.3474H37.0787C37.0354 14.261 36.9922 14.1746 36.9922 14.0882H38.6344ZM38.548 14.6932C38.548 14.7364 38.5912 14.9092 38.6344 14.9525H37.3812C37.3379 14.866 37.2947 14.7796 37.2515 14.6932H38.548ZM39.5419 15.2982C39.4987 15.3846 39.4555 15.471 39.4123 15.5575H37.8133C37.7269 15.471 37.6837 15.3846 37.5972 15.2982H39.5419ZM39.1098 14.9525C39.153 14.866 39.2394 14.7364 39.3691 14.7364C39.4987 14.7364 39.5851 14.8228 39.5851 14.9525H39.1098ZM39.5851 12.4892H36.5601C36.5601 12.4028 36.5169 12.3163 36.5169 12.2299H39.758C39.7148 12.3163 39.6716 12.4028 39.5851 12.4892ZM33.9672 14.261C33.8807 14.1746 33.8375 14.0882 33.8375 14.0017C34.3993 14.0017 34.6586 14.2178 34.529 14.5203C34.1832 14.866 33.6646 14.9957 33.2757 14.7364C33.535 14.4339 33.7943 14.3042 33.9672 14.261ZM34.2697 15.6439C34.0536 15.9032 33.7079 15.86 33.535 15.6871C33.7079 15.471 34.0536 15.4278 34.2697 15.6439ZM35.2636 15.7736C35.2204 16.2057 34.6154 16.4218 34.0968 16.2057C34.3129 15.86 34.7882 15.6871 35.2636 15.7736ZM35.0908 17.1997C34.8315 17.5022 34.4425 17.4589 34.2264 17.2429C34.3993 16.9836 34.8315 16.9404 35.0908 17.1997ZM35.6093 17.1564C35.3068 17.07 35.0908 16.8539 35.0475 16.6379C35.6958 16.5514 36.0847 16.7243 36.1279 17.07C36.2576 17.1132 36.4304 17.1564 36.5601 17.2861C36.2143 17.8911 35.5661 18.1936 34.9611 18.0207C35.1772 17.5886 35.3933 17.3293 35.6093 17.1564ZM40.1469 16.7675C39.758 16.7675 39.4123 16.6811 39.0666 16.5082H41.2705C40.8816 16.6811 40.5359 16.7675 40.1469 16.7675ZM38.4615 16.1625C38.3751 16.0761 38.2455 15.9896 38.159 15.9032H42.1348C42.0484 15.9896 41.962 16.0761 41.8323 16.1625H38.4615ZM40.8384 15.5575C40.7952 15.471 40.7519 15.4278 40.7087 15.2982H42.6102C42.567 15.3846 42.4806 15.471 42.3941 15.5575H40.8384ZM41.6162 14.9525C41.6595 14.9092 41.7027 14.7796 41.7027 14.6932H42.9991C42.9559 14.7796 42.9127 14.866 42.8695 14.9525H41.6162ZM41.7459 14.3042C41.7459 14.2178 41.7027 14.1314 41.6595 14.0449H43.3016C43.2584 14.1314 43.2152 14.2178 43.2152 14.3042H41.7459ZM41.3137 13.6992C41.1841 13.6128 41.0545 13.5696 40.8816 13.5696C40.8816 13.5264 40.8816 13.4831 40.8816 13.4399H43.4745C43.4313 13.5264 43.4313 13.6128 43.3881 13.6992H41.3137ZM40.9248 13.0942C40.9248 13.0078 40.8816 12.9213 40.8384 12.8349H43.6474C43.6474 12.9213 43.6041 13.0078 43.6041 13.0942H40.9248ZM40.6655 12.4892C40.6223 12.4028 40.5359 12.3163 40.4927 12.2299H43.7338C43.7338 12.3163 43.7338 12.4028 43.6906 12.4892H40.6655ZM36.5169 11.8842C36.5169 11.7978 36.5169 11.7113 36.5169 11.6249H43.8202C43.8202 11.7113 43.8202 11.7978 43.8202 11.8842H36.5169ZM40.1469 6.13656C40.5359 6.13656 40.8816 6.22299 41.2273 6.39585H39.0233C39.4123 6.22299 39.758 6.13656 40.1469 6.13656ZM39.4987 4.49438L39.6716 4.23509H40.6223L40.7952 4.49438L40.6223 4.79689L40.5359 4.66724H39.8444L39.758 4.79689L39.4987 4.49438ZM42.0052 5.22904L41.962 5.05618L41.3137 4.79689L41.1409 4.88332L41.0977 4.5376L41.357 4.32152L42.2213 4.66724L42.2645 4.96975L42.0052 5.22904ZM42.1348 7.00086H38.159C38.2455 6.91443 38.3319 6.828 38.4615 6.74157H41.8323C41.9188 6.828 42.0052 6.91443 42.1348 7.00086ZM39.1098 4.88332L38.9369 4.79689L38.2887 5.05618L38.2455 5.22904L37.9862 5.01296L38.0294 4.71046L38.8937 4.36474L39.153 4.58081L39.1098 4.88332ZM42.4373 7.3898C42.5238 7.47623 42.567 7.56266 42.6534 7.64909H37.6404C37.6837 7.56266 37.7701 7.47623 37.8565 7.3898H42.4373ZM42.1348 11.0199C42.178 11.1063 42.178 11.1927 42.2645 11.2792H41.4866C41.5298 11.1927 41.573 11.1063 41.6162 11.0199C41.6595 10.9334 41.6595 10.847 41.6595 10.7174C41.6595 10.4581 41.4434 10.1556 41.1409 10.1556C40.9248 10.1556 40.7519 10.2852 40.6655 10.4581C40.6223 10.3716 40.6223 10.2852 40.6223 10.1988C40.6223 9.85307 40.8816 9.59378 41.1841 9.59378C41.2705 9.59378 41.4002 9.63699 41.4434 9.68021L41.6595 9.98271L41.7459 9.9395C41.7459 9.9395 41.4434 9.42091 41.4434 9.11841C41.4434 8.8159 41.6595 8.29732 41.962 8.03803C42.2645 8.29732 42.4806 8.77269 42.4806 9.11841C42.4806 9.42091 42.178 9.9395 42.178 9.9395L42.2645 9.98271L42.4806 9.68021C42.567 9.63699 42.6534 9.59378 42.7398 9.59378C43.0424 9.59378 43.3016 9.85307 43.3016 10.1988C43.3016 10.2852 43.2584 10.3716 43.2584 10.4581C43.172 10.2852 42.9991 10.1556 42.7831 10.1556C42.4806 10.1556 42.2645 10.4581 42.2645 10.7174C42.0916 10.847 42.0916 10.9334 42.1348 11.0199ZM38.7208 11.0199C38.764 11.1063 38.764 11.1927 38.8505 11.2792H38.0294C38.0726 11.1927 38.1158 11.1063 38.159 11.0199C38.2022 10.9334 38.2022 10.847 38.2022 10.7174C38.2022 10.4581 37.9862 10.1556 37.6837 10.1556C37.4676 10.1556 37.2947 10.2852 37.2083 10.4581C37.1651 10.3716 37.1651 10.2852 37.1651 10.1988C37.1651 9.85307 37.4244 9.59378 37.7269 9.59378C37.8133 9.59378 37.943 9.63699 37.9862 9.68021L38.2022 9.98271L38.2887 9.9395C38.2887 9.9395 37.9862 9.42091 37.9862 9.11841C37.9862 8.8159 38.2022 8.29732 38.5048 8.03803C38.8073 8.29732 39.0233 8.77269 39.0233 9.11841C39.0233 9.42091 38.7208 9.9395 38.7208 9.9395L38.8073 9.98271L39.0233 9.68021C39.1098 9.63699 39.1962 9.59378 39.2826 9.59378C39.5851 9.59378 39.8444 9.85307 39.8444 10.1988C39.8444 10.2852 39.8012 10.3716 39.8012 10.4581C39.7148 10.2852 39.5419 10.1556 39.3258 10.1556C39.0233 10.1556 38.8073 10.4581 38.8073 10.7174C38.6776 10.847 38.6776 10.9334 38.7208 11.0199ZM37.8997 10.6742H37.4244C37.4676 10.5877 37.554 10.4581 37.6837 10.4581C37.7701 10.4581 37.8565 10.5877 37.8997 10.6742ZM40.0173 10.4149H40.2766C40.3198 10.5445 40.363 10.6309 40.363 10.6742H39.8876C39.9309 10.6309 39.9741 10.5445 40.0173 10.4149ZM39.9309 9.80985H40.3198C40.2766 9.89628 40.2334 9.98271 40.2334 10.0691H40.0173C40.0173 9.98271 39.9741 9.89628 39.9309 9.80985ZM39.6283 9.46413C39.4987 9.3777 39.3691 9.33449 39.1962 9.33449C39.1962 9.29127 39.1962 9.24805 39.1962 9.20484H41.0545C41.0545 9.24805 41.0545 9.29127 41.0545 9.33449C40.8816 9.33449 40.7519 9.3777 40.6223 9.46413H39.6283ZM39.1962 8.85912C39.1962 8.77269 39.153 8.68626 39.1098 8.59983H41.1409C41.0977 8.68626 41.0977 8.77269 41.0545 8.85912H39.1962ZM38.9801 8.2541C38.9369 8.16767 38.8505 8.08124 38.8073 7.99481H41.4866C41.4002 8.08124 41.357 8.16767 41.3137 8.2541H38.9801ZM39.1962 10.4581C39.3258 10.4581 39.4123 10.5445 39.4555 10.6742H38.9801C38.9801 10.5877 39.0666 10.4581 39.1962 10.4581ZM41.2705 11.0199C41.2273 11.1063 41.1841 11.1927 41.1409 11.2792H39.153C39.1098 11.1927 39.0666 11.1495 39.0233 11.0199H41.2705ZM40.8384 10.6742C40.8816 10.5877 40.968 10.4581 41.0977 10.4581C41.2273 10.4581 41.3137 10.5445 41.3137 10.6742H40.8384ZM42.6102 10.4581C42.7398 10.4581 42.8263 10.5445 42.8695 10.6742H42.3941C42.4373 10.5877 42.4806 10.4581 42.6102 10.4581ZM43.777 11.0199C43.777 11.1063 43.777 11.1927 43.777 11.2792H42.567C42.5238 11.1927 42.4806 11.1495 42.4373 11.0199H43.777ZM43.3449 10.6742C43.3449 10.6742 43.3881 10.6309 43.3881 10.5877C43.4313 10.5445 43.4313 10.4581 43.4313 10.4149H43.6906C43.6906 10.5013 43.6906 10.5877 43.7338 10.6742H43.3449ZM43.4313 10.0691C43.4313 9.98271 43.3881 9.89628 43.3449 9.80985H43.5609C43.5609 9.89628 43.6041 9.98271 43.6041 10.0691H43.4313ZM43.0424 9.46413C42.9127 9.3777 42.7831 9.33449 42.6102 9.33449C42.6102 9.29127 42.6102 9.24805 42.6102 9.20484H43.3881C43.4313 9.29127 43.4313 9.3777 43.4745 9.46413H43.0424ZM42.6102 8.85912C42.6102 8.77269 42.567 8.68626 42.5238 8.59983H43.172C43.2152 8.68626 43.2584 8.77269 43.2584 8.85912H42.6102ZM42.3941 8.2541C42.3509 8.16767 42.2645 8.08124 42.2213 7.99481H42.8695C42.9127 8.08124 42.9559 8.16767 42.9991 8.2541H42.3941ZM38.0726 7.99481C37.9862 8.08124 37.943 8.16767 37.8997 8.2541H37.2515C37.2947 8.16767 37.3379 8.08124 37.3812 7.99481H38.0726ZM37.7269 8.59983C37.6837 8.68626 37.6837 8.77269 37.6404 8.85912H36.949C36.9922 8.77269 37.0354 8.68626 37.0354 8.59983H37.7269ZM37.6404 9.20484C37.6404 9.24805 37.6404 9.29127 37.6404 9.33449C37.4676 9.33449 37.3379 9.3777 37.2083 9.46413H36.7329C36.7761 9.3777 36.7761 9.29127 36.8194 9.20484H37.6404ZM36.9058 9.80985C36.8626 9.89628 36.8194 9.98271 36.8194 10.0691H36.6033C36.6033 9.98271 36.6465 9.89628 36.6465 9.80985H36.9058ZM36.8194 10.4149C36.8194 10.4581 36.8626 10.5445 36.8626 10.5877C36.8626 10.6309 36.9058 10.6309 36.9058 10.6742H36.5169C36.5169 10.5877 36.5169 10.5013 36.5601 10.4149H36.8194ZM37.8133 11.0199C37.7701 11.1063 37.7269 11.1927 37.6837 11.2792H36.4736C36.4736 11.1927 36.4736 11.1063 36.4736 11.0199H37.8133ZM35.5229 5.18582C36.3872 5.61798 36.7329 6.39585 35.9551 7.82195C35.8686 7.99481 35.7822 8.21089 35.6958 8.42696C35.6958 8.2541 35.6525 8.08124 35.6093 7.9516C35.6525 7.90838 35.6525 7.82195 35.6958 7.77874C35.9118 7.34658 36.0415 6.95765 36.0415 6.69836C35.3068 6.35263 35.35 5.57476 35.5229 5.18582ZM34.8747 6.35263C35.3068 6.35263 35.4797 6.74157 35.4797 7.08729C35.0908 7.08729 34.7882 6.74157 34.8747 6.35263ZM35.4797 8.21089C35.5229 8.5134 35.5229 8.85912 35.4365 9.29127C35.3068 9.80985 35.1772 10.5445 35.1772 11.452C35.1772 12.2731 35.3068 13.051 35.5229 13.8289C35.35 13.5696 35.134 13.3535 34.9179 13.1806C34.8747 13.0078 34.8747 12.7917 34.8315 12.5756C34.6586 12.7485 34.3993 12.7917 34.0968 12.7053C34.5722 12.6188 34.7882 12.2731 34.7882 11.841C34.7882 11.452 34.5722 11.1927 34.3993 11.0631C34.0104 11.3224 33.3189 11.2792 33.0596 10.847C33.4054 10.6742 33.7943 10.6742 34.0968 10.7606C34.3561 10.847 34.6154 10.9767 34.7882 11.1927C34.7882 11.1495 34.7882 10.9767 34.7882 10.9334C34.7882 10.5877 34.6154 10.3716 34.3129 10.3284C34.4857 10.2852 34.7018 10.2852 34.8315 10.4149C34.8747 10.1556 34.9179 9.85307 35.0043 9.59378C34.4857 10.1124 33.7511 10.2852 33.1893 9.89628C33.4918 9.59378 34.0536 9.29127 34.4857 9.72342C34.745 9.55056 35.0475 9.20484 35.1772 8.90233C35.2204 8.77269 35.3068 8.42697 35.2204 8.08124C34.529 8.16767 34.2697 7.51945 34.2264 7.08729C34.8747 7.17372 35.35 7.47623 35.4797 8.21089ZM33.8807 9.07519C34.0536 8.8159 34.4857 8.77269 34.7018 9.03198C34.4425 9.29127 34.0536 9.24805 33.8807 9.07519ZM33.7943 7.69231C34.1832 7.82195 34.3561 8.03803 34.2697 8.21089C34.3561 8.2541 34.3993 8.34053 34.4425 8.42696C34.0536 8.68626 33.6214 8.68626 33.3189 8.42696C33.5782 8.2541 33.7943 8.12446 33.9672 8.12446C33.8375 7.99481 33.7511 7.86517 33.7943 7.69231ZM32.1089 0.475366C32.4978 0.172859 32.93 0.216075 33.2325 0.605011C33.3621 0.821088 33.4486 0.993948 33.4054 1.21002C33.3621 1.4261 33.2757 1.59896 33.0596 1.77182L32.4546 2.20397C32.4114 2.16076 32.4114 2.11754 32.5411 1.9879L31.7632 0.950733C31.6335 1.03716 31.5471 1.03716 31.5039 0.950733L32.1089 0.475366ZM29.9049 2.63613L30.6828 1.77182C30.726 1.77182 30.7692 1.81504 30.7692 1.81504C30.8124 1.85825 30.8989 1.94468 30.9421 2.03111L30.8989 2.07433C30.8124 2.03111 30.7692 2.03111 30.6828 1.9879L30.3371 2.37684L30.6828 2.76577L31.0285 2.37684L31.0717 2.42005C31.0717 2.46327 31.115 2.50648 31.0285 2.5497L30.7692 2.8522L31.2014 3.28435L31.5471 2.89542C31.5039 2.80899 31.4607 2.76577 31.4175 2.67934L31.5039 2.59291C31.5903 2.63613 31.6768 2.67934 31.72 2.72256C31.7632 2.76577 31.7632 2.76577 31.8064 2.80899L31.0285 3.67329C30.9421 3.58686 30.9853 3.54365 31.0717 3.414L30.121 2.5497C29.9914 2.67934 29.9914 2.72256 29.9049 2.63613ZM29.3431 3.32757C29.4728 3.15471 29.5592 3.06828 29.6024 3.02506C29.6889 3.02506 29.8185 3.11149 29.9049 3.28435L29.8617 3.37078C29.8185 3.37078 29.6889 3.32757 29.6024 3.28435C29.5592 3.32757 29.516 3.37079 29.4728 3.45722C29.3431 3.63008 29.3863 3.75972 29.4728 3.84615C29.5592 3.88937 29.6456 3.88937 29.7753 3.84615C29.8185 3.80294 29.8617 3.80294 29.9481 3.75972L29.9914 3.71651C30.2074 3.54365 30.3803 3.54365 30.5964 3.67329C30.8557 3.84615 30.8557 4.10544 30.6396 4.40795C30.4667 4.62403 30.2939 4.71046 30.2506 4.75367C30.2506 4.75367 30.2074 4.75367 30.2074 4.71046C30.121 4.66724 30.0346 4.5376 29.9914 4.45117L30.0346 4.36474C30.121 4.36474 30.2074 4.40795 30.2939 4.45117C30.3803 4.40795 30.4667 4.32152 30.5099 4.2783C30.5532 4.19187 30.5964 4.10544 30.5964 4.06223C30.5964 3.9758 30.5532 3.93258 30.5099 3.88937C30.3803 3.80294 30.2939 3.84615 30.1642 3.88937C30.0778 3.88937 30.0346 3.88937 30.0346 3.93258C29.9914 3.9758 29.9481 4.01901 29.8617 4.01901C29.6889 4.10544 29.516 4.10544 29.3863 3.9758C29.1703 3.84615 29.1703 3.58686 29.3431 3.32757ZM28.5653 4.58081C28.6517 4.40795 28.7813 4.2783 28.7813 4.23509C28.8678 4.23509 28.9542 4.32152 29.0838 4.45117L29.0406 4.5376C28.9974 4.5376 28.8678 4.5376 28.7813 4.49438C28.7381 4.5376 28.6949 4.58081 28.6517 4.66724C28.5653 4.8401 28.5653 4.96975 28.6949 5.01296C28.7813 5.05618 28.8678 5.05618 28.9974 4.96975C29.0406 4.92653 29.0838 4.88332 29.1271 4.8401L29.1703 4.79689C29.3863 4.62403 29.5592 4.58081 29.7321 4.71046C29.9914 4.8401 30.0346 5.09939 29.8617 5.44512C29.7321 5.70441 29.5592 5.79084 29.516 5.83405C29.4728 5.83405 29.4728 5.79084 29.4296 5.79084C29.3431 5.74762 29.2567 5.66119 29.2135 5.57476L29.2567 5.48833C29.3431 5.48833 29.4296 5.53155 29.516 5.57476C29.5592 5.53155 29.6456 5.48833 29.7321 5.35869C29.8185 5.18582 29.7753 5.05618 29.6456 4.96975C29.516 4.88332 29.3863 4.92653 29.2999 5.01296C29.2567 5.05618 29.2135 5.05618 29.2135 5.09939C29.1703 5.14261 29.1271 5.18582 29.0406 5.22904C28.8678 5.31547 28.7381 5.35869 28.5653 5.27225C28.4356 5.14261 28.3924 4.88332 28.5653 4.58081ZM27.8738 6.05013L28.1331 5.44512L28.2195 5.48833C28.2195 5.53155 28.1763 5.61798 28.1763 5.70441L29.3431 6.22299C29.3863 6.17977 29.4296 6.09334 29.4728 6.05013L29.5592 6.09334L29.2999 6.69836C29.2135 6.65514 29.2135 6.61193 29.2567 6.43906L28.0899 5.92048C28.0035 6.05013 27.9602 6.09334 27.8738 6.05013ZM27.4849 7.08729C27.5281 6.91443 27.6145 6.91443 27.701 6.91443H29.0406C29.1271 6.78479 29.1271 6.78479 29.2135 6.78479L29.0406 7.3898H28.9542C28.9542 7.30337 28.9542 7.26015 28.9974 7.17372H28.5653L28.3924 7.73552L28.7381 7.99481C28.7813 7.90838 28.8245 7.86517 28.8245 7.82195L28.9542 7.77874L28.7813 8.29732H28.7381C28.6949 8.2541 28.6949 8.21089 28.6949 8.12446L27.4417 7.21694L27.4849 7.08729ZM27.0959 8.59983C27.1392 8.47018 27.1824 8.29732 27.1824 8.21089C27.2256 8.21089 27.2688 8.21089 27.312 8.21089C27.3984 8.21089 27.5281 8.29732 27.5713 8.34053V8.42696C27.5281 8.42696 27.4417 8.47018 27.312 8.47018C27.312 8.5134 27.2688 8.59983 27.2256 8.68626C27.1824 8.85912 27.2256 8.98876 27.312 9.11841C27.3984 9.24805 27.5713 9.29127 27.7442 9.33449C27.917 9.3777 28.0899 9.33448 28.2195 9.29127C28.3492 9.20484 28.4356 9.07519 28.4788 8.94555C28.522 8.72947 28.4356 8.59983 28.3924 8.5134C28.4356 8.47018 28.4356 8.47018 28.4788 8.47018C28.5653 8.55661 28.6949 8.72947 28.6517 9.03198C28.5653 9.46413 28.2195 9.72342 27.7442 9.63699C27.6145 9.63699 27.5281 9.59378 27.4417 9.50735C27.1824 9.29127 27.0095 8.98876 27.0959 8.59983ZM27.7442 11.0199C27.7442 11.1495 27.6145 11.2792 27.4849 11.2792C27.3552 11.2792 27.2256 11.1495 27.2688 11.0199C27.2688 10.8902 27.3984 10.7606 27.5281 10.7606C27.6145 10.7606 27.7442 10.8902 27.7442 11.0199ZM27.0959 13.1374L27.0095 13.1806L26.9231 12.4892C27.0095 12.4892 27.0527 12.5324 27.0959 12.6621L28.3492 12.4892C28.3492 12.3163 28.3492 12.2731 28.4788 12.2731L28.6517 13.3967C28.6085 13.3967 28.5653 13.3967 28.522 13.3967C28.4356 13.3967 28.306 13.3967 28.2627 13.3967V13.3103C28.3492 13.2671 28.3924 13.2239 28.4788 13.2239L28.3924 12.7485L27.8738 12.8349L27.9602 13.3103H27.8738C27.8306 13.3103 27.7874 13.2671 27.7874 13.1806L27.7442 12.8349L27.1392 12.9213C27.0959 12.9646 27.0959 13.051 27.0959 13.1374ZM27.2688 14.6067C27.2256 14.3907 27.2256 14.1746 27.312 14.0449C27.3984 13.8721 27.5713 13.7424 27.8306 13.656C28.0467 13.6128 28.306 13.6128 28.4788 13.6992C28.6517 13.7857 28.7813 13.9585 28.8245 14.1746C28.8678 14.3907 28.8678 14.6067 28.7813 14.7364C28.6949 14.9092 28.522 15.0389 28.2627 15.1253C28.0467 15.1685 27.7874 15.1685 27.6145 15.0389C27.4417 14.9957 27.312 14.8228 27.2688 14.6067ZM27.8738 16.2921L27.6145 15.6439C27.701 15.6007 27.7442 15.6439 27.8306 15.8168L29.0406 15.3414C28.9974 15.1685 28.9974 15.1253 29.0838 15.0821L29.3431 15.7303L29.2567 15.7736C29.2135 15.7303 29.1703 15.6439 29.1271 15.6007L27.917 16.0761C27.917 16.1625 27.9602 16.2057 27.9602 16.2921H27.8738ZM29.1703 17.4589L28.7381 17.7182C28.7813 17.8047 28.7813 17.8479 28.8245 17.9343L28.7381 17.9775L28.3924 17.3725C28.4788 17.3293 28.522 17.3725 28.6085 17.5022L29.6889 16.8539C29.6456 16.6811 29.6456 16.6379 29.7321 16.5946L29.8617 16.8539C29.9049 16.8971 29.9481 16.9836 29.9914 17.07C30.0346 17.1564 30.0778 17.1997 30.0778 17.2429C30.1642 17.3725 30.2074 17.5022 30.1642 17.6318C30.1642 17.7614 30.0778 17.8479 29.9481 17.9343C29.8185 18.0207 29.6889 18.0207 29.5592 17.9775C29.516 17.8911 29.3431 17.8047 29.1703 17.4589ZM29.9049 19.6629C29.8185 19.6197 29.7753 19.5765 29.6889 19.4901C29.5592 19.3172 29.516 19.1443 29.516 19.0147C29.516 18.8418 29.6456 18.7122 29.8185 18.5393L30.4667 18.0207C30.3803 17.8479 30.3803 17.8047 30.4667 17.7614L30.8989 18.3232L30.8124 18.3665C30.7692 18.3232 30.6828 18.28 30.6396 18.1936L30.0346 18.669C29.7753 18.885 29.7321 19.1011 29.9049 19.3172C30.0778 19.5333 30.2939 19.5333 30.5532 19.3172L31.1582 18.8418C31.115 18.7554 31.0717 18.669 31.0717 18.6258L31.1582 18.5825L31.5471 19.1011C31.4607 19.1443 31.4175 19.1443 31.2878 19.0147L30.6396 19.5333C30.3803 19.7926 30.121 19.7926 29.9049 19.6629ZM31.2014 21.0458C31.1582 21.0026 31.0717 20.9594 31.0285 20.9162L30.5099 20.3976C30.5964 20.3111 30.6396 20.3544 30.7692 20.4408L31.6335 19.4901C31.5471 19.3604 31.5039 19.3172 31.5903 19.2308L32.1089 19.7493C32.3682 20.0086 32.325 20.2247 32.1953 20.3544C32.1089 20.484 31.936 20.5272 31.7632 20.4408C31.8928 20.6137 31.8928 20.7865 31.72 20.9594C31.5903 21.1322 31.3742 21.1755 31.2014 21.0458ZM32.8868 21.9101C32.8868 21.9533 32.8003 22.083 32.7571 22.1694C32.7139 22.2126 32.7139 22.2126 32.6707 22.2558L31.7632 21.5644C31.8064 21.478 31.8496 21.478 32.0225 21.5644L32.8003 20.5272C32.6707 20.3976 32.6707 20.3544 32.7139 20.2679L33.2325 20.6569L33.1461 20.7433C33.1029 20.7433 33.0164 20.7001 32.93 20.6569L32.1521 21.694L32.5843 21.9965C32.6275 21.9533 32.7139 21.8669 32.8003 21.8237L32.8868 21.9101ZM33.535 22.688L33.4918 22.7744L32.93 22.4287C32.9732 22.3423 33.0164 22.3423 33.1893 22.4287L33.8375 21.3483C33.7079 21.1755 33.6646 21.1322 33.7079 21.0458L34.2697 21.3915L34.2264 21.478C34.1832 21.478 34.0968 21.4347 34.0104 21.3915L33.3621 22.4719C33.4486 22.5583 33.4918 22.6448 33.535 22.688ZM35.5661 22.9041C35.3933 23.2498 35.0908 23.4659 34.745 23.4226C34.8747 23.6819 35.0908 23.8548 35.2636 23.9412C35.35 23.9844 35.3933 23.9844 35.4797 24.0277V24.1141C35.4365 24.1573 35.2636 24.2005 35.0908 24.1141C35.0908 24.1141 35.0475 24.1141 35.0475 24.0709C34.8315 23.9412 34.6586 23.6819 34.5722 23.3794H34.529C34.3129 23.293 34.1832 23.1634 34.14 22.9473C34.0536 22.7744 34.0968 22.5151 34.1832 22.299C34.3993 21.8669 34.8315 21.694 35.2636 21.8669C35.4797 21.9533 35.6093 22.1262 35.6525 22.299C35.6958 22.4719 35.6525 22.688 35.5661 22.9041ZM36.6897 18.3665C36.5601 18.7554 36.1279 18.7986 35.8686 18.669C35.9551 18.3665 36.3872 18.1936 36.6897 18.3665ZM37.3812 22.8176L37.1651 23.5955C37.1219 23.7684 36.9922 23.9412 36.8626 24.0277C36.7329 24.1141 36.5601 24.1141 36.3872 24.0709C36.3008 24.0277 36.2143 24.0277 36.1711 23.9844C36.0847 23.9412 35.9983 23.8548 35.9551 23.7684C35.8686 23.6387 35.8686 23.4659 35.9118 23.2066L36.1279 22.4287C35.9551 22.3423 35.9551 22.299 35.9551 22.2126L36.6033 22.4287L36.5601 22.5151C36.5169 22.5151 36.3872 22.5151 36.344 22.5151L36.1279 23.293C36.0847 23.4659 36.0847 23.5955 36.1279 23.6819C36.1711 23.8116 36.2576 23.8548 36.4304 23.898C36.5601 23.9412 36.6897 23.9412 36.7761 23.8548C36.8626 23.8116 36.949 23.6819 36.9922 23.5091L37.2083 22.7312C37.1219 22.688 37.0354 22.6448 36.9922 22.6016L37.0354 22.5151L37.6404 22.688C37.6404 22.8608 37.554 22.8608 37.3812 22.8176ZM38.9369 23.0337C38.9369 23.1201 38.8937 23.2498 38.8505 23.293H38.764C38.7208 23.2066 38.7208 23.1634 38.7208 23.0337L38.2455 22.9473L38.159 23.4659L38.6776 23.5523V23.6387C38.6776 23.6819 38.6344 23.7251 38.548 23.6819L38.159 23.6387L38.0294 24.2437L38.548 24.3302C38.5912 24.2437 38.6344 24.1573 38.6776 24.1141H38.764C38.764 24.1573 38.8073 24.2869 38.764 24.3734C38.764 24.4166 38.764 24.4598 38.7208 24.503L37.5972 24.3302C37.5972 24.2437 37.6404 24.2005 37.8133 24.2005L37.9862 22.9473C37.8133 22.9041 37.7701 22.8608 37.8133 22.7744L38.9369 22.9473C38.9369 22.9905 38.9369 22.9905 38.9369 23.0337ZM39.2826 19.879L40.0605 20.3544L39.2826 20.8297C39.2826 20.8297 39.3691 20.6137 39.3691 20.3544C39.3691 20.0951 39.2826 19.879 39.2826 19.879ZM40.4062 23.9844C40.363 24.0277 40.3198 24.0277 40.1901 24.0277H39.8012V23.898C39.8444 23.8548 39.8876 23.8548 40.0173 23.8548H40.4062V23.9844ZM40.1469 21.1322C39.8876 21.1322 39.6716 21.2187 39.6716 21.2187L40.1469 20.4408L40.6223 21.2187C40.5791 21.2187 40.4062 21.1322 40.1469 21.1322ZM41.0112 20.8297L40.1901 20.3544L40.968 19.879C40.968 19.879 40.8816 20.0951 40.8816 20.3544C40.8816 20.6137 41.0112 20.8297 41.0112 20.8297ZM42.178 24.4166L41.5298 24.503C41.5298 24.4166 41.573 24.3734 41.7459 24.3302L41.6162 23.4659C41.5298 23.4659 41.4866 23.4659 41.4002 23.4659V23.3794C41.4866 23.3362 41.573 23.293 41.6595 23.293C41.7027 23.293 41.7459 23.293 41.7891 23.293L41.9188 24.3302C42.0052 24.3302 42.0484 24.3302 42.1348 24.3302L42.178 24.4166ZM42.9991 24.2869C42.8263 24.3302 42.6966 24.3302 42.567 24.2437C42.4806 24.2005 42.3941 24.1141 42.3941 23.9844C42.3509 23.8116 42.4373 23.6387 42.6102 23.5091C42.4373 23.4659 42.3077 23.3794 42.2645 23.1634C42.2213 23.0337 42.2645 22.9473 42.3509 22.8608C42.4373 22.7744 42.5238 22.688 42.6966 22.6448C43.0424 22.5583 43.2152 22.7312 43.2584 22.9473C43.3016 23.1634 43.172 23.293 43.0424 23.3794C43.2584 23.4226 43.3881 23.5091 43.4313 23.7684C43.4745 23.9844 43.3016 24.2005 42.9991 24.2869ZM42.4373 19.4036C42.6966 19.1443 43.1288 19.2308 43.3016 19.4901C43.0856 19.7061 42.6534 19.7493 42.4373 19.4036ZM42.9991 19.0579C42.7398 19.0579 42.5238 18.9715 42.3941 18.7986C42.3509 19.1011 42.3077 19.4036 41.962 19.4901C42.3077 19.6629 42.567 19.9222 42.6534 20.2679C41.2705 20.1815 41.4002 19.6629 41.5298 19.3604C42.3509 19.5765 42.178 18.7986 42.178 18.2368C42.0916 18.28 41.8755 18.3665 41.6595 18.4529C41.7027 18.5825 41.7891 18.7122 41.9188 18.7986C41.5298 18.7554 41.357 18.6258 40.6223 18.0207C41.0545 17.9775 41.4434 17.8479 41.8323 17.675C42.2645 17.4589 43.0424 17.1997 43.5609 17.5022C43.7338 17.6318 43.9067 17.8047 43.9499 18.0207C43.6041 17.6318 42.7831 17.5022 42.5238 18.1936C42.4373 18.3665 42.4373 18.669 42.6534 18.7986C42.567 18.3232 42.8695 18.0207 43.3016 17.9775C43.3449 18.1936 43.3016 18.4529 43.172 18.6258C43.3016 18.6258 43.4313 18.6258 43.5609 18.669C43.5177 18.7554 43.3449 19.0147 42.9991 19.0579ZM45.376 18.0207C44.771 18.1936 44.1227 17.8479 43.777 17.2861C43.9067 17.1997 44.0795 17.1132 44.2092 17.07C44.2524 16.7243 44.6413 16.5514 45.2895 16.6379C45.2031 16.8971 44.987 17.07 44.7277 17.1564C44.9006 17.3293 45.1167 17.5886 45.376 18.0207ZM44.382 18.669C44.1227 18.7986 43.6906 18.7122 43.5609 18.3665C43.9067 18.1936 44.2956 18.3665 44.382 18.669ZM44.4685 23.8548L43.8202 24.0709C43.777 23.9844 43.8202 23.9412 43.9931 23.8548L43.7338 23.0337C43.6474 23.0337 43.6041 23.0337 43.5177 23.0337L43.4745 22.9473C43.5609 22.9041 43.6474 22.8176 43.7338 22.8176C43.777 22.8176 43.8202 22.8176 43.8634 22.8176L44.1659 23.8116C44.2524 23.8116 44.3388 23.8116 44.382 23.8116L44.4685 23.8548ZM45.592 23.2498C45.5488 23.3794 45.4624 23.5091 45.2895 23.5523C45.1167 23.6387 44.987 23.5955 44.8574 23.5523C44.7277 23.4659 44.5981 23.3362 44.5549 23.1634C44.3388 22.6016 44.5549 22.083 45.0735 21.8237L45.1167 21.9101C44.771 22.1262 44.6413 22.4719 44.6845 22.8608C44.7277 22.7312 44.8142 22.6016 44.9438 22.5583C45.0735 22.5151 45.2031 22.5151 45.3328 22.5583C45.4192 22.6016 45.5056 22.688 45.592 22.8176C45.6353 22.9473 45.6353 23.1201 45.592 23.2498ZM45.1599 17.1997C45.4192 16.9404 45.8513 16.9836 46.0242 17.2429C45.8513 17.4589 45.4192 17.5454 45.1599 17.1997ZM45.0303 15.7736C45.5056 15.6871 45.981 15.86 46.1971 16.2057C45.6353 16.465 45.0735 16.2057 45.0303 15.7736ZM46.0242 15.6439C46.2403 15.4278 46.586 15.471 46.7589 15.6871C46.5428 15.86 46.1971 15.9032 46.0242 15.6439ZM46.8885 22.083C46.8885 22.2126 46.7589 22.3423 46.6292 22.3423C46.4996 22.3423 46.3699 22.2126 46.4131 22.083C46.4131 21.9533 46.5428 21.8237 46.6724 21.8237C46.8021 21.8669 46.8885 21.9533 46.8885 22.083ZM45.7649 14.5203C45.6353 14.1746 45.9378 14.0017 46.4564 14.0017C46.4564 14.0882 46.3699 14.2178 46.3267 14.261C46.4996 14.3042 46.7589 14.4339 47.0614 14.7364C46.6292 14.9525 46.1106 14.866 45.7649 14.5203ZM45.8946 13.4399C45.5488 13.6128 45.2463 14.0017 45.0735 14.5635C45.0303 14.7364 44.9438 14.9092 44.8574 15.0821C45.2895 14.8228 45.8081 14.866 46.1106 15.255C45.8946 15.3846 45.4624 15.471 45.2895 15.0821C45.2463 15.0821 45.1167 15.1253 45.1167 15.1685C44.7277 15.3846 44.5981 15.7303 44.382 16.1193C44.5549 16.1625 44.7277 16.2057 44.8574 16.3353C44.5117 16.2489 44.2524 16.3353 43.9931 16.6811C43.8202 16.8971 43.6474 17.07 43.4745 17.2861C43.2584 17.1997 42.9991 17.1564 42.6534 17.2429C43.1288 16.8971 43.5177 16.465 43.9067 15.9464C44.1227 15.6439 44.2956 15.3414 44.4252 15.0389C44.7277 14.3907 45.0303 13.9153 45.376 13.6128C45.8946 13.0942 46.586 12.8781 47.3207 13.4399C46.9749 13.6128 46.3699 13.9153 45.8946 13.4399ZM46.2835 11.7978C46.586 11.4088 47.191 11.452 47.4503 11.7978C47.191 12.057 46.6292 12.1867 46.2835 11.7978ZM48.79 21.3483C48.6171 21.478 48.4875 21.5644 48.4443 21.5644C48.3578 21.5212 48.3146 21.3915 48.2282 21.2619L48.3146 21.2187C48.401 21.2619 48.4443 21.3051 48.5307 21.3483C48.5739 21.3483 48.6171 21.3051 48.7035 21.2187C48.8332 21.089 48.8764 20.9594 48.79 20.8729C48.7035 20.7865 48.6171 20.7865 48.4875 20.8297C48.401 20.8297 48.3578 20.8729 48.3146 20.8729L48.2282 20.9162C47.9689 21.0026 47.796 21.0026 47.6664 20.8297C47.5799 20.7001 47.5367 20.5704 47.5367 20.4408C47.5799 20.3111 47.6232 20.1815 47.7528 20.0951C47.9689 19.9222 48.1417 19.879 48.185 19.879C48.2714 19.9654 48.3578 20.0951 48.401 20.2247L48.3146 20.2679C48.2282 20.2247 48.1417 20.1383 48.0985 20.0951C48.0121 20.0951 47.9257 20.1383 47.8392 20.2247C47.7096 20.3544 47.6664 20.5272 47.7528 20.6137C47.8392 20.7433 47.9689 20.7433 48.0985 20.7001C48.1417 20.7001 48.185 20.6569 48.2282 20.6569C48.2714 20.6137 48.3146 20.6137 48.401 20.6137C48.5739 20.5704 48.7468 20.6137 48.8332 20.7433C49.0925 20.8729 49.0493 21.1322 48.79 21.3483ZM49.4814 20.7001C49.395 20.6569 49.395 20.6137 49.4814 20.484V20.7001ZM49.4814 19.4036V19.6197L48.79 19.5333L49.4814 20.1383V20.3976L48.6171 19.6197C48.5739 19.5765 48.5307 19.5333 48.4875 19.4901C48.4443 19.4468 48.4875 19.3604 48.5307 19.3172L48.5739 19.274L49.4814 19.4036Z" /> <path d="M42.8695 23.5523H42.783C42.6966 23.6387 42.6102 23.7684 42.6534 23.9412C42.6966 24.1141 42.8263 24.2005 42.9991 24.1573C43.172 24.1141 43.2584 23.9844 43.2152 23.8548C43.172 23.6819 43.0856 23.5955 42.8695 23.5523Z" /> <path d="M35.5229 0.172861C35.6093 0.129646 35.6958 0.0864304 35.6958 0H35.0475C35.0908 0.0864304 35.1772 0.129646 35.2204 0.216076C35.3501 0.216076 35.4365 0.216076 35.5229 0.172861Z" /> <path d="M34.0968 0H33.6646L33.7511 0.172861L34.0968 0Z" /> <path d="M35.1772 21.9965C34.8315 21.8237 34.5722 21.9965 34.3993 22.3855C34.3129 22.5583 34.2697 22.7312 34.3129 22.9041C34.3561 23.0337 34.4425 23.1634 34.5722 23.2066C34.8747 23.3362 35.134 23.2066 35.3068 22.8176C35.4797 22.4719 35.4365 22.1262 35.1772 21.9965Z" /> <path d="M42.9127 23.3362C42.9991 23.2498 43.0424 23.1201 42.9991 22.9905C42.9991 22.9041 42.9559 22.8608 42.9127 22.8176C42.8695 22.7744 42.7831 22.7744 42.6966 22.7744C42.6534 22.7744 42.567 22.8176 42.5238 22.8608C42.4806 22.9041 42.4806 22.9905 42.4806 23.0337C42.5238 23.2498 42.6966 23.293 42.9127 23.3362Z" /> <path d="M31.331 20.1815L30.9421 20.5704C30.8989 20.6137 30.8989 20.6137 30.9421 20.6569L31.0717 20.7865C31.2014 20.9162 31.3742 20.9162 31.5039 20.7865C31.6335 20.6569 31.6335 20.484 31.4607 20.3544L31.331 20.1815Z" /> <path d="M27.6577 7.17373L28.2628 7.60588L28.3924 7.17373H27.6577Z" /> <path d="M29.8617 17.675C29.9482 17.6318 29.9914 17.5454 29.9914 17.5022C29.9914 17.4157 29.9914 17.3293 29.9482 17.2429C29.9049 17.1997 29.8617 17.1132 29.8617 17.07L29.3431 17.3725C29.4296 17.5454 29.516 17.675 29.6456 17.7182C29.6889 17.7615 29.8185 17.7182 29.8617 17.675Z" /> <path d="M45.2031 22.7312C45.1167 22.688 45.0303 22.688 44.9438 22.7312C44.8142 22.7744 44.771 22.9041 44.7278 22.9905C44.7278 23.0337 44.8142 23.293 44.987 23.3794C45.0735 23.4226 45.1599 23.4226 45.2463 23.3794C45.3328 23.3362 45.376 23.293 45.376 23.2066C45.376 23.1201 45.376 23.0337 45.3328 22.9041C45.3328 22.8608 45.2463 22.7744 45.2031 22.7312Z" /> <path d="M28.2195 14.9092C28.3924 14.866 28.5653 14.7796 28.6517 14.65C28.7381 14.5203 28.7813 14.3907 28.7381 14.2178C28.6949 14.0882 28.6085 13.9585 28.4788 13.9153C28.3492 13.8721 28.1763 13.8721 27.9602 13.9153C27.7874 13.9585 27.6145 14.0449 27.5281 14.1746C27.4417 14.3042 27.3985 14.4339 27.4417 14.5635C27.4849 14.6932 27.5713 14.8228 27.701 14.866C27.8306 14.9957 28.0035 14.9957 28.2195 14.9092Z" /> <path d="M32.7571 1.81504L32.93 1.68539C33.1028 1.55575 33.1893 1.4261 33.1893 1.25324C33.1893 1.12359 33.1461 0.950734 33.0164 0.777873C32.7571 0.475366 32.4978 0.432151 32.1521 0.648227L31.936 0.821088L32.6707 1.81504C32.7139 1.81504 32.7139 1.81504 32.7571 1.81504Z" /> <path d="M10.3284 36.6897C9.72341 36.6897 9.37769 37.1219 9.33447 37.5972H11.2359C11.1495 36.9922 10.8902 36.6897 10.3284 36.6897Z" /> <path d="M13.2238 43.6041C12.6188 43.6041 12.1867 44.1227 12.1867 44.7277C12.1867 45.3328 12.6188 45.8513 13.2671 45.8513C13.8721 45.8513 14.3042 45.3328 14.3042 44.7277C14.3042 44.1227 13.8289 43.6041 13.2238 43.6041Z" /> <path d="M31.5903 36.6897C30.9421 36.6897 30.5532 37.2083 30.5532 38.1158C30.5532 38.8937 30.8557 39.4987 31.5903 39.4987C32.325 39.4987 32.6275 38.8937 32.6275 38.1158C32.5843 37.2947 32.2818 36.6897 31.5903 36.6897Z" /> <path d="M11.1927 30.2074C10.6309 30.2939 10.5013 30.5532 10.5013 30.8557C10.5013 31.2878 10.847 31.4175 11.2359 31.4175C11.7545 31.4175 12.1867 31.1582 12.1867 30.4235V29.9914C12.057 30.121 11.7113 30.1642 11.4952 30.2074C11.3656 30.1642 11.2792 30.2074 11.1927 30.2074Z" /> <path d="M26.8367 36.6897C26.2316 36.6897 25.8859 37.1219 25.8427 37.5972H27.7442C27.6578 36.9922 27.3985 36.6897 26.8367 36.6897Z" /> <path d="M21.2619 35.35H20.3544V39.153H21.5212C22.3855 39.153 22.9905 38.548 22.9905 37.3379C22.9473 36.2576 22.6016 35.35 21.2619 35.35Z" /> <path d="M21.2187 43.6474H20.5704V44.8142H21.2187C21.6508 44.8142 21.9101 44.5981 21.9101 44.2524C21.9101 43.8634 21.6508 43.6474 21.2187 43.6474Z" /> <path d="M5.57476 36.6897C4.8401 36.6897 4.5376 37.2947 4.5376 38.0726C4.5376 38.7208 4.8401 39.4555 5.57476 39.4555C6.35264 39.4555 6.56871 38.764 6.56871 38.0294C6.56871 37.3812 6.30942 36.6897 5.57476 36.6897Z" /> <path d="M9.9395 44.2092C9.9395 43.8634 9.68021 43.6906 9.29127 43.6906H8.5134V44.771H9.33449C9.68021 44.7277 9.9395 44.5117 9.9395 44.2092Z" /> <path d="M36.4304 36.6897C35.6958 36.6897 35.3932 37.2947 35.3932 38.0726C35.3932 38.8505 35.6958 39.4555 36.4304 39.4555C37.2083 39.4555 37.4676 38.764 37.4676 38.0726C37.4676 37.4244 37.2515 36.6897 36.4304 36.6897Z" /> <path d="M26.8367 28.522C26.2316 28.522 25.8859 28.9542 25.8427 29.4296H27.7442C27.6578 28.8245 27.3985 28.522 26.8367 28.522Z" /> </svg>