<svg fill="currentColor" aria-label="Canal Plus" role="img" width="160" height="40" viewBox="0 0 160 40" xmlns="http://www.w3.org/2000/svg"> <g> <path d="M0 0V40H160V0H0ZM26.656 25.504L25.696 30.912C25.664 31.168 25.536 31.392 25.536 31.392C25.536 31.392 25.376 31.52 25.184 31.584C21.92 32.896 18.304 32.448 18.304 32.448C12.448 31.808 8.736 28.224 7.552 23.616C5.792 16.704 9.28 11.808 10.144 10.752C12.192 8.32 15.424 6.56 18.56 6.144C22.56 5.568 25.536 6.528 26.784 6.944C26.784 6.944 28.128 7.36 29.12 8.064C29.632 8.416 29.696 8.544 29.696 8.544C29.696 8.544 29.728 8.608 29.6 9.152L28.64 14.112C28.608 14.304 28.48 14.432 28.48 14.432C28.48 14.432 28.416 14.464 27.936 14.144C24.896 12 21.344 12.256 21.344 12.256C18.656 12.416 15.488 13.856 14.56 17.408C13.728 20.576 14.592 23.232 16.48 24.832C17.76 25.952 19.776 26.528 21.856 26.432C24.128 26.272 25.952 25.344 25.824 25.408C25.824 25.408 25.92 25.376 26.016 25.344C26.496 25.12 26.592 25.152 26.592 25.152C26.592 25.152 26.752 25.184 26.656 25.504ZM53.376 31.744C53.376 31.744 53.344 31.776 53.28 31.776L47.264 31.808C47.136 31.808 47.04 31.744 47.04 31.744C47.04 31.744 47.008 31.712 46.976 31.488L46.048 27.616C46.048 27.52 45.984 27.488 45.984 27.488C45.984 27.488 45.952 27.488 45.888 27.488H37.408C37.248 27.488 37.12 27.616 37.12 27.616C37.12 27.616 36.992 27.712 36.896 27.968L35.2 31.584C35.136 31.712 35.104 31.744 35.104 31.744C35.104 31.744 35.008 31.808 34.912 31.808H27.904C27.712 31.84 27.648 31.744 27.648 31.744C27.648 31.744 27.616 31.648 27.68 31.52L39.808 7.2C39.872 7.072 39.968 7.04 39.968 7.04C39.968 7.04 40.032 7.04 40.192 7.04H47.936C48.064 7.04 48.16 7.136 48.16 7.136C48.16 7.136 48.192 7.168 48.224 7.264L53.44 31.616C53.44 31.712 53.376 31.744 53.376 31.744ZM80.512 31.808C80.512 31.808 80.48 31.84 80.32 31.84H74.144C74.048 31.84 73.952 31.84 73.952 31.84C73.952 31.84 73.92 31.808 73.888 31.776L65.28 16.576C65.216 16.512 65.184 16.512 65.184 16.512C65.184 16.512 65.12 16.512 65.12 16.608L62.976 31.52C62.944 31.68 62.912 31.712 62.912 31.712C62.912 31.712 62.848 31.744 62.752 31.744H56.608C56.512 31.744 56.448 31.68 56.448 31.68C56.448 31.68 56.32 31.552 56.352 31.392L59.712 7.232C59.744 7.104 59.808 7.072 59.808 7.072C59.808 7.072 59.904 6.976 60 6.976H66.848C66.944 6.976 67.008 7.04 67.008 7.04C67.008 7.04 67.072 7.072 67.104 7.168L74.88 20.736C75.008 20.992 75.104 20.96 75.104 20.96C75.104 20.96 75.2 20.96 75.264 20.64L77.216 7.168C77.216 7.072 77.28 7.04 77.28 7.04C77.28 7.04 77.312 6.976 77.408 6.976L83.84 7.04C83.968 7.04 84 7.072 84 7.072C84 7.072 84.032 7.104 84.032 7.168L80.544 31.52C80.544 31.712 80.512 31.808 80.512 31.808ZM109.344 31.84C109.344 31.84 109.344 31.872 109.248 31.872H103.072C102.944 31.936 102.816 31.808 102.816 31.808C102.816 31.808 102.784 31.776 102.752 31.552L101.92 27.744C101.856 27.552 101.792 27.456 101.792 27.456C101.792 27.456 101.632 27.36 101.408 27.36H93.376C93.216 27.36 93.12 27.456 93.12 27.456C93.12 27.456 92.992 27.584 92.928 27.776L91.104 31.68C91.072 31.776 91.008 31.808 91.008 31.808C91.008 31.808 90.88 31.84 90.816 31.84H83.84C83.68 31.872 83.616 31.776 83.616 31.776C83.616 31.776 83.584 31.712 83.68 31.584L95.936 7.168C96 7.136 96.064 7.04 96.064 7.04C96.064 7.04 96.128 7.008 96.352 7.008H103.936C104.096 7.008 104.192 7.104 104.192 7.104C104.192 7.104 104.224 7.136 104.256 7.232L109.344 31.776C109.376 31.808 109.344 31.84 109.344 31.84ZM126.976 31.488C126.944 31.68 126.912 31.744 126.912 31.744C126.912 31.744 126.88 31.808 126.72 31.808H112.8C112.384 31.808 112.288 31.712 112.288 31.712C112.288 31.712 112.224 31.584 112.256 31.264L115.712 7.36C115.744 7.072 115.808 6.976 115.808 6.976C115.808 6.976 115.84 6.976 116.16 6.976H122.496C122.656 6.976 122.72 7.008 122.72 7.008C122.72 7.008 122.752 7.104 122.72 7.264L120.128 25.984C120.096 26.176 120.192 26.208 120.192 26.208C120.192 26.208 120.256 26.24 120.544 26.24H127.424C127.584 26.24 127.616 26.304 127.616 26.304C127.616 26.304 127.648 26.336 127.648 26.496L126.976 31.488ZM153.856 21.856C153.856 21.92 153.76 22.016 153.76 22.016C153.76 22.016 153.728 22.08 153.6 22.08H144.96C144.832 22.08 144.768 22.144 144.768 22.144C144.768 22.144 144.672 22.176 144.672 22.336V31.52C144.672 31.648 144.608 31.68 144.608 31.68C144.608 31.68 144.576 31.744 144.48 31.744H137.6C137.504 31.744 137.44 31.68 137.44 31.68C137.44 31.68 137.408 31.648 137.408 31.488V22.336C137.408 22.24 137.312 22.176 137.312 22.176C137.312 22.176 137.28 22.08 137.184 22.08H128.32C128.16 22.08 128.128 22.048 128.128 22.048C128.128 22.048 128.064 21.984 128.064 21.76V15.04C128.064 14.944 128.128 14.88 128.128 14.88C128.128 14.88 128.16 14.848 128.224 14.848H137.28C137.344 14.848 137.344 14.816 137.344 14.816C137.344 14.816 137.408 14.784 137.408 14.72V6.656C137.408 6.56 137.44 6.496 137.44 6.496C137.44 6.496 137.504 6.464 137.728 6.464H144.448C144.576 6.464 144.608 6.496 144.608 6.496C144.608 6.496 144.672 6.56 144.672 6.688V14.784H153.472C153.696 14.784 153.76 14.816 153.76 14.816C153.76 14.816 153.856 14.848 153.856 15.04V21.856Z" /> <path d="M99.136 14.112C99.104 14.016 99.072 14.016 99.072 14.016C99.072 14.016 99.04 14.016 99.008 14.144L95.648 21.76C95.584 21.984 95.616 22.048 95.616 22.048C95.616 22.048 95.712 22.112 95.776 22.112L100.768 22.08C100.8 22.08 100.832 22.08 100.832 22.08C100.832 22.08 100.864 22.048 100.832 21.952L99.136 14.112Z" /> <path d="M43.04 14.176C43.04 14.112 43.008 14.112 43.008 14.112C43.008 14.112 42.976 14.112 42.944 14.176L39.552 21.824C39.488 21.92 39.52 21.984 39.52 21.984C39.52 21.984 39.552 22.016 39.712 22.016L44.672 22.048C44.704 22.048 44.736 22.016 44.736 22.016C44.736 22.016 44.768 21.984 44.736 21.888L43.04 14.176Z" /> </g> </svg>