<svg fill="currentColor" aria-label="Carrefour" role="img" width="63" height="50" viewBox="0 0 63 50" xmlns="http://www.w3.org/2000/svg"> <g> <path d="M12.7649 46.303C11.9598 46.303 11.3665 46.7055 11.3665 47.4894C11.3665 48.2203 11.875 48.7288 12.6483 48.7288C13.1568 48.7288 13.6759 48.4428 13.9937 48.0403V47.0021C13.9937 46.6525 13.5382 46.303 12.7649 46.303ZM30.1907 46.1653C30.2331 47.5318 31.1017 48.5169 32.5954 48.5169C33.5064 48.5169 34.1949 48.0191 34.4386 47.7119C34.5551 47.7966 34.6716 47.9237 34.6716 48.2309C34.6716 48.9089 33.856 49.8517 31.9386 49.8517C30.0212 49.8517 28.4534 48.3157 28.4534 46.3136C28.4534 44.1102 29.9047 42.5318 32.0445 42.5318C33.9937 42.5318 34.8835 43.9619 34.8835 45.1801C34.8835 45.5403 34.8093 45.8686 34.6504 46.1547H30.1907V46.1653ZM32.9026 45.2754C33.2098 45.2754 33.2204 45.0953 33.2204 44.8517C33.2098 44.1314 32.6377 43.464 31.7903 43.464C30.678 43.464 30.2437 44.3962 30.2013 45.2648H32.9026V45.2754ZM50.9746 46.0275C50.9746 47.7013 51.2077 48.5487 52.2776 48.5487C53.4534 48.5487 53.7712 47.5 53.7712 46.5466V44.7246C53.7712 44.0996 53.4746 43.8559 52.7966 43.9301C52.5106 43.2309 53.4534 42.7754 53.9725 42.6801C54.142 42.6589 54.2903 42.6271 54.4386 42.6271C55.1801 42.6271 55.4661 43.0932 55.4661 43.7818C55.4661 44.036 55.4449 44.5021 55.4449 46.4195C55.4449 47.2246 55.4343 47.6589 55.4343 47.7966C55.4343 48.4322 55.731 48.75 56.3983 48.6758C56.6738 49.3856 55.7521 49.714 55.2225 49.8093C55.0636 49.8305 54.9153 49.8623 54.7882 49.8623C54.089 49.8623 53.9407 49.4068 53.803 48.75C53.7077 48.8771 53.6123 48.9725 53.4216 49.1525C52.9555 49.5869 52.3623 49.8411 51.6843 49.8411C50.9428 49.8411 50.3178 49.5551 49.9153 49.089C49.3009 48.358 49.3009 47.4258 49.3009 46.0487V44.7352C49.3009 44.1102 49.0043 43.8665 48.3263 43.9407C48.0403 43.2415 48.9831 42.786 49.5021 42.6907C49.6716 42.6695 49.8199 42.6377 49.9577 42.6377C50.6992 42.6377 50.9852 43.1038 50.9852 43.7924L50.9746 46.0275ZM47.7331 46.1758C47.7331 44.0148 46.2394 42.5424 44.1632 42.5424C42.2458 42.5424 40.5403 44.0148 40.5403 46.1758C40.5403 48.3686 42.1399 49.8411 44.0996 49.8411C46.1759 49.8411 47.7331 48.3475 47.7331 46.1758ZM15.5932 48.0826C15.5932 48.6335 15.9534 48.8136 16.5784 48.8983C16.536 49.5445 16.0911 49.7881 15.5615 49.8411C14.9682 49.8941 14.3962 49.6186 14.1632 49.0042C13.8983 49.2479 13.1038 49.8729 12.0657 49.8729C10.6462 49.8729 9.57629 48.9195 9.57629 47.6271C9.57629 46.2606 10.7627 45.4449 12.4471 45.4449C13.0191 45.4449 13.6229 45.5614 13.9831 45.7521V44.8305C13.9831 44.0042 13.6229 43.4852 12.6907 43.4852C12.5 43.4852 12.0763 43.5381 11.7373 43.6653C11.7797 43.7924 11.8009 43.9301 11.8009 44.0572C11.8009 44.5551 11.4831 44.9682 10.9428 44.9682C10.4661 44.9682 10.106 44.5869 10.106 44.0996C10.106 43.1991 11.2288 42.553 12.7966 42.553C14.036 42.553 14.7988 42.8496 15.1907 43.358C15.5509 43.803 15.5721 44.5021 15.5721 45.4979L15.5932 48.0826ZM45.9004 46.2818C45.9004 47.9449 45.1801 48.8453 44.1738 48.8453C43.2733 48.8453 42.4047 47.9449 42.4047 45.964C42.4047 44.428 43.0403 43.464 44.0996 43.464C45.1377 43.4746 45.9004 44.5339 45.9004 46.2818ZM20.6568 43.75C20.6992 44.1843 21.0699 44.4915 21.5043 44.4915C22.0551 44.4915 22.3835 44.0042 22.3835 43.5275C22.3835 42.8602 21.8432 42.5106 21.303 42.5106C20.6886 42.5106 20.0318 42.9767 19.661 43.6653L19.6399 43.6758C19.5233 43.0614 19.2267 42.5953 18.6123 42.5953C18.4746 42.5953 18.3157 42.6165 18.1568 42.6695C17.6483 42.8178 16.8856 43.2203 17.1716 43.9195C17.892 43.7818 18.1462 44.0254 18.1462 44.6504V47.6271C18.1462 48.2203 18.0721 48.464 17.8602 48.6441C17.6695 48.7924 17.4682 48.8559 17.3305 48.8771C17.0339 49.5233 17.6165 49.714 19.036 49.714C20.4555 49.714 20.9428 49.5127 20.6462 48.8771C20.5191 48.8559 20.1589 48.7924 19.9682 48.6441C19.767 48.4746 19.6716 48.2203 19.6716 47.6271V45.8263C19.6928 44.2479 20.2754 43.8347 20.6568 43.75ZM38.2839 42.7119H40.1166C40.339 43.2309 40.0424 43.6547 39.6293 43.697C39.5021 43.7076 39.3644 43.7076 39.2373 43.7076C38.9089 43.7076 38.5699 43.6864 38.3369 43.6864V47.6483C38.3369 48.2415 38.4428 48.4852 38.6441 48.6653C38.8348 48.8136 39.2903 48.8771 39.4174 48.8983C39.714 49.5445 39.0149 49.7352 37.5954 49.7352C36.1759 49.7352 35.5827 49.5339 35.8793 48.8983C36.0064 48.8771 36.2077 48.8136 36.4089 48.6653C36.6102 48.4958 36.6949 48.2415 36.6949 47.6483V43.6547L35.6144 43.6123C35.392 43.0932 35.6886 42.7119 36.1229 42.7119H36.6632V42.2034C36.6632 41.1653 36.8538 40.5932 37.1081 40.2013C37.5 39.5869 38.1886 39.1631 39.2479 39.1631C40.5932 39.1631 41.6843 39.7881 41.6843 40.7415C41.6843 41.1547 41.3983 41.6525 40.8157 41.6525C40.3814 41.6525 39.9682 41.2818 39.9682 40.8157C39.9682 40.625 40.0424 40.4131 40.1483 40.286C40 40.1059 39.6716 40.0212 39.3644 40.0212C38.4852 40.0212 38.2839 40.678 38.2839 41.4936V42.7119ZM26.4937 43.75C26.536 44.1843 26.9068 44.4915 27.3411 44.4915C27.892 44.4915 28.2204 44.0042 28.2204 43.5275C28.2204 42.8602 27.6801 42.5106 27.1399 42.5106C26.5254 42.5106 25.8687 42.9767 25.4979 43.6653L25.4767 43.6758C25.3602 43.0614 25.0636 42.5953 24.4492 42.5953C24.3115 42.5953 24.1526 42.6165 23.9937 42.6695C23.4852 42.8178 22.7225 43.2203 23.0085 43.9195C23.7288 43.7818 23.9831 44.0254 23.9831 44.6504V47.6271C23.9831 48.2203 23.9089 48.464 23.6971 48.6441C23.5064 48.7924 23.3051 48.8559 23.178 48.8771C22.8814 49.5233 23.464 49.714 24.8835 49.714C26.303 49.714 26.7903 49.5127 26.4937 48.8771C26.3665 48.8559 26.0064 48.7924 25.8157 48.6441C25.6144 48.4746 25.5191 48.2203 25.5191 47.6271V45.8263C25.5191 44.2479 26.1017 43.8347 26.4937 43.75ZM60.5721 43.75C60.6144 44.1843 60.9852 44.4915 61.4301 44.4915C61.9704 44.4915 62.3093 44.0042 62.3093 43.5275C62.3093 42.8602 61.7797 42.5106 61.2288 42.5106C60.6144 42.5106 59.9682 42.9767 59.5975 43.6653L59.5551 43.6758C59.4386 43.0614 59.142 42.5953 58.5382 42.5953C58.3899 42.5953 58.2415 42.6165 58.0615 42.6695C57.553 42.8178 56.8009 43.2203 57.0763 43.9195C57.7966 43.7818 58.0509 44.0254 58.0509 44.6504V47.6271C58.0509 48.2203 57.9767 48.464 57.7649 48.6441C57.5848 48.7924 57.3729 48.8559 57.2458 48.8771C56.9492 49.5233 57.5318 49.714 58.9513 49.714C60.3708 49.714 60.8581 49.5127 60.5509 48.8771C60.4238 48.8559 60.0742 48.7924 59.8729 48.6441C59.6822 48.4746 59.5869 48.2203 59.5869 47.6271V45.8263C59.6187 44.2479 60.1907 43.8347 60.5721 43.75Z" /> <path d="M0.0953369 44.7564C0.0953369 47.9873 2.31991 49.9047 4.74576 49.9047C6.92796 49.9047 8.44279 48.3686 8.44279 47.0975C8.44279 46.4195 8.01907 45.9216 7.46822 45.9216C6.90678 45.9216 6.43008 46.303 6.43008 46.9597C6.43008 47.3835 6.66313 47.6165 6.82203 47.7966C6.52542 48.3686 5.90042 48.8347 4.92585 48.8347C3.31568 48.8347 2.15042 47.1504 2.15042 44.7352C2.15042 42.3199 3.26271 40.625 4.88347 40.625C5.85805 40.625 6.48305 41.1017 6.77966 41.6631C6.61017 41.8538 6.38771 42.0869 6.38771 42.5106C6.38771 43.1674 6.8644 43.5487 7.42584 43.5487C7.97669 43.5487 8.40042 43.0508 8.40042 42.3729C8.40042 41.1017 6.875 39.5657 4.70339 39.5657C2.27754 39.5657 0.0953369 41.6737 0.0953369 44.7564Z" /> <path d="M21.0805 1.11229L7.48942 14.2585C6.81146 14.8305 6.37714 15.5085 6.37714 16.4831C6.37714 17.447 6.81146 18.125 7.48942 18.7076L21.0805 31.8432C21.1653 31.928 21.25 31.9703 21.3242 31.9703C21.4513 31.9703 21.5466 31.8538 21.536 31.7161C21.536 31.6314 21.4937 31.5466 21.4195 31.4619C18.231 27.5 15.911 22.9555 15.911 16.5254C15.911 10.0953 18.231 5.4661 21.4195 1.49364C21.5043 1.4089 21.536 1.32415 21.536 1.23941C21.536 1.10169 21.4513 0.985168 21.3242 0.985168C21.25 0.995762 21.1653 1.02754 21.0805 1.11229Z" /> <path d="M31.5255 0C26.2077 0 24.1208 7.54237 24.1208 16.5254C24.1208 25.5191 26.1971 32.9555 31.5255 32.9555C34.714 32.9555 37.4365 31.0805 37.4471 29.5445C37.4471 29.2055 37.3199 28.8877 37.0339 28.6017C35.5191 27.1398 34.9259 25.678 34.9259 24.3856C34.9153 21.928 37.0551 20.0953 39.0254 20.0953C41.7267 20.0953 43.3263 22.2246 43.3263 24.9788C43.3263 27.5847 42.214 29.7669 41.0064 31.5042C40.9534 31.5784 40.9322 31.6525 40.9322 31.7267C40.9322 31.8644 41.017 31.9703 41.1335 31.9703C41.2077 31.9703 41.2924 31.928 41.3877 31.8326L54.9788 18.7076C55.6568 18.125 56.0911 17.447 56.0911 16.4831C56.0911 15.5191 55.6568 14.8411 54.9788 14.2585L41.3877 1.11229C41.2924 1.01695 41.2077 0.974576 41.1335 0.974576C41.017 0.974576 40.9322 1.0911 40.9322 1.22881C40.9322 1.30297 40.9534 1.37712 41.0064 1.45127C42.214 3.18856 43.3263 5.37076 43.3263 7.9767C43.3263 10.7309 41.7267 12.8602 39.0254 12.8602C37.0551 12.8602 34.9259 11.0275 34.9259 8.56992C34.9259 7.27754 35.5191 5.81568 37.0339 4.35381C37.3199 4.0678 37.4471 3.75 37.4471 3.41102C37.4365 1.875 34.714 0 31.5255 0Z" /> </g> </svg>