<svg fill="currentColor" aria-label="Coca-cola" role="img" width="123" height="40" viewBox="0 0 123 40" xmlns="http://www.w3.org/2000/svg"> <g> <path d="M46.9151 34.8962C42.3641 31.9641 36.1942 31.4601 26.2523 34.209C15.6383 36.6983 12.1106 38.3019 7.46791 35.0948C5.68111 33.5218 5.03969 30.9867 5.51312 27.3367C6.62796 21.3807 9.62124 15.6385 14.9358 9.28537C17.8986 5.97138 20.6628 3.13082 24.2975 2.00071C27.077 1.28293 26.8173 3.48207 26.4814 3.78751C26.1301 3.78751 25.5345 3.8486 25.0611 4.13876C24.6793 4.42893 23.6561 5.37578 23.595 6.62807C23.5186 8.5676 25.5192 8.15526 26.3745 7.1015C27.306 5.9103 28.6805 3.61952 27.5962 1.48146C27.138 0.717872 26.3592 0.198629 25.3818 0.0153673C22.0525 -0.167895 18.9523 1.4051 16.0965 3.16137C9.83505 7.51384 4.82589 13.5309 2.0006 20.1284C0.366509 24.1143 -1.11486 29.8107 1.09956 34.4381C2.81 37.6605 6.36834 39.3709 10.6139 39.0044C13.5919 38.6989 17.1808 37.7368 19.609 37.1565C22.022 36.5762 34.4227 32.3153 38.485 39.7221C38.485 39.7221 39.8442 37.0954 43.2193 37.0343C45.9988 36.7747 50.0153 37.8437 52.9322 39.9818C51.9853 38.5462 49.2211 36.3776 46.9151 34.8962Z" /> <path d="M27.5199 10.0337C25.1985 8.5065 20.5406 11.4234 16.8143 16.402C13.4087 20.8767 11.9273 26.0691 13.5308 28.4668C15.9133 31.2921 20.3421 27.184 22.2205 24.9848L22.4649 24.7252C23.7477 23.3507 24.7404 21.7014 25.6872 20.1131C25.6872 20.1131 26.573 18.6623 26.6035 18.5859C27.1533 18.479 27.7947 18.3263 28.5431 18.1125C28.5278 18.143 25.7178 22.8773 26.0079 25.2139C26.0996 25.9317 26.0232 28.5432 28.5889 29.3373C31.9945 29.9024 34.7129 27.2756 37.1106 24.9237C37.1106 24.9237 37.5229 24.5267 37.752 24.3129C37.6909 24.5419 37.6145 24.8626 37.6145 24.8626C36.6219 28.3294 37.9658 29.0471 38.8057 29.322C41.3409 30.0551 44.38 26.3746 44.38 26.3746C44.3036 27.5352 44.0745 28.4973 45.2963 29.2762C46.4569 29.6885 47.6176 29.0624 48.5186 28.4668C51.7257 26.2066 54.3067 22.6788 56.3836 19.6244H55.055C55.0397 19.6244 51.7715 24.3587 49.6488 25.3819C49.6488 25.3819 49.267 25.5804 49.0379 25.4277C48.763 25.1986 48.8699 24.7099 49.0379 24.3587C49.0532 24.3434 57.2236 10.1559 57.2236 10.1559H53.3598C53.3598 10.1559 52.9322 10.8431 52.9017 10.8889C52.8711 10.8736 52.81 10.7515 52.7642 10.6904C50.3665 7.37639 44.9603 12.4772 40.8827 18.3721C39.3097 20.6476 37.3091 23.198 35.2474 25.0459C35.2474 25.0459 32.1778 27.8559 30.8644 25.84C30.391 24.9848 30.5284 23.7478 30.8033 22.9384C32.3305 18.5859 34.9572 14.6458 37.9505 12.2634C38.7905 11.6067 39.7221 11.4082 40.1649 11.6983C40.5926 11.9579 40.6689 12.5994 40.394 13.027C39.6915 13.0117 39.1417 13.2102 38.6836 13.6837C37.7825 14.6152 37.4771 15.5315 37.7673 16.3715C39.157 18.3416 41.9059 14.4472 41.7685 12.0801C41.7227 11.2249 41.2645 10.4308 40.5925 10.0337C39.5846 9.42281 38.0422 9.5908 37.0495 10.0642C35.7208 10.5682 33.6133 12.3245 32.3763 13.6837C30.8338 15.3941 28.1613 17.2878 27.3366 17.074C27.6268 16.341 29.8717 11.7441 27.5199 10.0337ZM46.121 16.8297C46.8693 15.7912 49.0532 13.0117 49.5877 12.5383C51.3745 10.9653 52.0922 11.6525 52.1533 12.1412C50.4734 15.1345 48.5034 18.5706 46.6555 21.6556C46.6555 21.6403 46.0751 22.5413 46.0751 22.5413C45.2505 23.7936 44.4258 24.8626 43.0819 25.611C42.8833 25.6721 42.5779 25.6873 42.3641 25.5346C42.1045 25.3666 42.0128 25.0917 42.0434 24.8016C42.1197 23.8394 43.0971 20.892 46.121 16.8297ZM25.1222 18.6317C25.1222 18.6317 25.0916 18.7386 25.0764 18.7692L23.3965 21.5028C22.3885 22.862 21.121 24.5572 19.5327 25.3666C19.0593 25.5193 18.4178 25.6262 18.0819 25.2139C17.3794 24.3739 17.7459 23.2133 18.036 22.2817L18.1429 21.9457C18.9829 19.6702 20.3115 17.6543 21.6097 15.7912C21.6249 15.7759 21.6555 15.7759 21.6707 15.7759C21.6707 15.7912 21.686 15.7912 21.686 15.8064C22.4954 17.3642 24.0226 18.0972 25.168 18.4332C25.168 18.4332 25.1833 18.4485 25.1833 18.4637C25.1833 18.479 25.168 18.5248 25.1222 18.6317ZM26.7104 15.3941C26.7104 15.4094 25.9621 17.1198 25.9621 17.1198C25.8552 17.2115 25.6872 17.1656 25.4887 17.1198L25.1527 17.0587C24.1142 16.738 23.3201 16.0355 23.0757 15.2108C22.755 13.6073 24.1295 12.3397 24.7404 11.8816C25.3207 11.4845 26.2217 11.2707 26.7563 11.683C27.077 12.0648 27.1991 12.5535 27.1991 13.0881C27.1991 13.8211 26.9701 14.6305 26.7104 15.3941Z" /> <path d="M75.5192 20.5865C75.1527 19.7771 74.2669 19.2732 73.3201 19.319C70.2657 19.5939 67.2724 22.1137 65.6994 25.7179C64.8747 27.5658 64.4319 29.1082 64.1264 31.5364C65.0733 30.4369 67.0128 28.6348 69.2119 27.6574C69.2119 27.6574 69.5174 25.3208 71.0446 23.2438C71.6249 22.3886 72.7856 20.9989 74.0837 21.3654C75.2138 21.7472 74.8167 24.8932 73.3048 27.9323C72.19 30.162 70.4795 32.4069 68.7538 33.9494C67.2266 35.2475 64.9664 36.8052 62.9963 35.5988C61.744 34.8657 61.1179 33.3233 61.2553 31.3226C61.8509 25.6721 64.4166 20.8767 68.0971 15.3941C71.8845 10.3086 76.069 5.08562 81.7043 2.30615C82.8497 1.72582 83.9187 1.58837 84.835 1.95489C84.835 1.95489 79.551 4.85654 77.0311 10.2322C76.3897 11.5914 75.5039 13.4393 76.3897 15.0734C76.8631 15.9286 77.6878 15.9897 78.3598 15.9439C81.4447 15.2261 83.4453 12.3397 85.0794 9.71299C86.0262 7.71238 86.8662 5.72704 86.8662 3.51262C86.8662 3.23773 86.8509 2.88648 86.8356 2.61158C88.317 1.83272 91.3408 3.22246 91.3408 3.22246C93.708 4.00132 98.7324 7.8651 100.443 8.59814C101.268 7.63602 102.627 6.18519 103.406 5.45215L102.291 4.76491C100.519 3.68061 98.6408 2.6574 96.7929 1.63419C92.5931 -0.65659 89.1875 0.152818 87.4465 0.778963C86.7593 1.02331 86.1331 1.23712 86.1331 1.23712C84.8503 -0.167891 82.7275 -0.0304443 81.1698 0.33608C75.565 1.93962 70.3573 5.86449 64.7831 12.6757C60.675 18.0056 58.1399 22.6177 56.7807 27.1534C55.7422 30.2231 55.4215 34.713 57.9719 37.3856C60.1405 39.6611 63.0116 39.1571 65.058 38.3477C69.4563 36.1791 73.4117 31.5059 75.3818 26.1302C75.8094 24.5572 76.3286 22.297 75.5192 20.5865ZM85.6444 3.7417C85.0641 10.4308 79.8717 14.3556 78.5736 14.6611C77.7947 14.8138 76.4661 14.4778 77.6573 11.6678C79.3983 7.89564 82.3915 4.68855 85.5834 3.0392C85.6597 3.31409 85.6597 3.49735 85.6444 3.7417Z" /> <path d="M116.463 4.58166C113.668 6.16993 110.767 7.19315 107.269 6.84189C106.292 7.94147 105.345 9.07158 104.475 10.2322C109.392 11.4845 114.615 8.70506 117.532 6.04776C120.602 3.37519 122.175 0.0153809 122.175 0.0153809C122.175 0.0153809 119.869 2.65741 116.463 4.58166Z" /> <path d="M61.5761 13.5157L63.6378 10.1559H59.9725L57.9108 13.5157H61.5761Z" /> <path d="M107.239 35.2017C106.842 35.4766 106.292 35.2628 106.491 34.6519C107.01 33.0942 109.056 29.9024 109.056 29.9024L114.768 19.7771H110.874C110.69 20.0826 110.293 20.7851 110.293 20.7851C110.11 20.4796 109.575 19.8077 109.346 19.6702C108.384 19.0594 106.994 19.3495 106.017 19.8993C101.817 22.3581 98.7477 27.2145 96.3195 31.0019C96.3195 31.0019 93.7691 35.217 92.3641 35.5224C91.2645 35.614 91.3714 34.1174 91.4172 33.7814C91.8448 31.2768 92.8375 28.8944 93.8302 26.7411C95.8613 25.3361 98.1826 23.4882 100.29 21.4723C104.856 17.1046 108.72 12.1565 109.285 11.0416C109.285 11.0416 108.674 11.1638 107.957 11.1944C104.444 16.0966 97.2358 23.2286 95.0519 24.2976C96.014 21.9763 102.26 10.8737 107.575 5.55905L108.415 4.74964C109.713 3.48208 111.042 2.18397 112.095 1.97017C112.202 1.95489 112.355 1.97017 112.477 2.22979C112.523 3.20719 112.156 3.94023 111.744 4.76491L111.148 5.97139C111.148 5.97139 111.988 5.81867 112.523 5.63541C113.164 4.44421 113.867 3.10028 113.607 1.49674C113.516 0.977497 113.149 0.595701 112.66 0.50407C111.072 0.198633 109.346 1.37457 107.957 2.32142L107.896 2.35196C100.748 7.95673 94.7159 16.0203 89.4319 27.0465C89.0501 27.3367 87.5687 27.6879 87.3243 27.52C87.8436 26.4509 88.5003 25.0001 88.8363 23.4424C88.8973 22.9995 88.9432 22.5413 88.9432 22.0832C88.9432 21.1211 88.7141 20.22 87.8436 19.5939C86.8357 19.0899 85.5834 19.319 84.7434 19.7008C80.9713 21.2585 78.146 25.1375 76.1148 28.3141C75.0152 30.33 73.9309 32.4986 73.6255 34.9879C73.4117 36.9274 73.8393 38.1797 74.9542 38.8058C76.0843 39.3862 77.5198 38.7906 78.0849 38.4851C81.9028 36.4693 84.5754 32.4375 86.6829 28.757C86.7593 28.7417 87.92 28.7112 88.7904 28.4821C88.8057 28.4821 88.8057 28.4821 88.821 28.4974C88.7752 28.6653 88.317 30.0093 88.317 30.0093C86.9884 33.9189 86.3622 36.5762 87.6298 38.1644C89.4319 40.3941 92.4099 38.0881 94.8381 35.049C94.3188 38.6989 96.2126 39.264 97.6481 38.9891C99.2975 38.5462 101.145 36.7747 102.001 35.8737C101.726 36.9427 101.802 38.8364 103.299 39.0197C104.337 39.2029 105.101 38.6531 105.987 38.1644C109.194 36.4234 113.027 30.6049 114.02 28.925H112.721C111.301 31.0783 109.514 33.873 107.239 35.2017ZM78.4972 34.8199C78.2987 34.5145 78.2223 34.1938 78.2223 33.8272C78.1765 31.6281 80.5436 27.7185 82.2083 25.5804C82.9108 27.1076 84.4838 28.085 85.4459 28.4974C84.2547 31.1394 80.1924 36.79 78.4972 34.8199ZM86.1026 27.3214C85.9957 27.3978 83.9951 26.7258 83.6133 24.8779C83.2926 23.2897 84.3769 22.0526 85.4306 21.4265C85.8888 21.0752 86.576 20.9531 87.0647 21.1211C87.5229 21.4418 87.6603 21.9916 87.6603 22.6024C87.6603 22.9689 87.6145 23.3507 87.5687 23.702C87.5687 23.702 87.5534 23.7631 87.5534 23.7784C87.2327 25.0154 86.7287 26.2371 86.1026 27.3214ZM102.077 34.1174L101.695 34.4534C101.161 34.9268 100.611 35.446 99.9389 35.1864C99.7556 35.1253 99.6182 34.881 99.5876 34.6825C99.5571 33.308 100.183 32.0404 100.779 30.7881L100.932 30.4674C102.657 27.581 104.673 24.1907 107.621 21.8236C108.125 21.4723 108.659 21.1669 109.224 21.3959C109.362 21.5181 109.514 21.7319 109.514 21.9457C109.514 22.0068 109.453 22.1901 109.423 22.2512C108.598 23.5798 107.819 24.9848 107.056 26.3135C105.559 28.9708 104.016 31.7197 102.077 34.1174Z" /> </g> </svg>