<svg fill="currentColor" aria-label="Danone" role="img" width="128" height="25" viewBox="0 0 128 25" xmlns="http://www.w3.org/2000/svg"> <path fill-rule="evenodd" clip-rule="evenodd" d="M0 0.622815C0 0.622815 0.114395 1.00413 0.228789 2.0591C0.368605 4.7156 0.381316 6.92723 0.394026 9.38036C0.432158 11.2742 0.406737 13.13 0.394026 14.9094C0.381316 16.1169 0.368605 16.7779 0.368605 17.871C0.368605 21.1376 0.114395 23.4128 0.114395 23.4128C0.114395 23.4128 2.52939 23.9339 6.1646 23.9339C9.79981 23.9339 13.6638 22.6756 15.9009 20.7817C18.1252 18.8878 20.1335 16.1805 20.1335 11.3251C20.1335 6.46965 18.0489 3.80044 15.3035 2.0591C12.558 0.317763 8.36352 -0.0127105 5.12234 0.139816C1.89387 0.279631 0.114395 0.622815 0 0.622815ZM126.597 18.8878L121.729 17.7439C120.458 19.0022 119.072 19.625 117.305 19.5996C113.657 19.5361 111.853 17.388 111.179 13.8545H126.851C127.08 12.5961 127.143 11.2615 127.067 10.0032C126.915 7.46107 126.139 5.10963 124.538 3.11408C122.974 1.11853 120.254 0.0762631 116.911 0.101684C113.759 0.127105 111.192 1.2075 109.145 3.36829C107.226 5.40197 106.082 8.49063 106.133 12.5199C106.184 16.3457 107.162 19.1929 109.552 21.5316C111.217 23.1586 113.454 24.0229 116.39 24.0102C121.97 23.8322 124.296 22.04 126.597 18.8878ZM122.618 9.92691H111.37C111.573 7.02892 114.229 4.32158 117.051 4.33429C119.975 4.33429 122.479 6.41881 122.618 9.92691ZM73.2761 4.48681C77.0003 4.48681 80.0127 7.84239 80.0127 11.986C80.0127 16.1296 77.0003 19.4979 73.2761 19.4979C69.552 19.4979 66.5396 16.1424 66.5396 11.986C66.5396 7.82968 69.552 4.48681 73.2761 4.48681ZM73.4159 0C79.6568 0 84.7283 5.41468 84.7283 11.9987C84.7283 18.5828 79.517 23.9212 73.2761 23.9212C67.0353 23.9212 61.9638 18.5828 61.9638 11.9987C61.9638 5.41468 67.1751 0 73.4159 0ZM85.707 23.1204H90.7531V7.88052C95.367 11.9225 98.7734 16.994 100.82 23.1077L105.154 23.1331V0.762631H100.324V11.7191C98.8116 9.1897 96.9558 7.11789 95.1382 5.32571C93.3079 3.53352 91.8335 2.00826 89.9778 0.749921H85.707V23.1204ZM41.6015 23.1204H46.5078V7.88052C51.1217 11.9225 54.4646 16.994 56.4983 23.1077H60.8834V0.762631H55.9771V11.5412C53.13 7.44836 49.6854 3.77502 45.7324 0.762631H41.6142L41.6015 23.1204ZM27.6072 0.762631H32.361C36.9749 5.85955 39.8093 13.2698 40.7626 23.1077H35.5894C35.4496 21.4045 35.2463 19.8284 34.9666 18.2523H24.7728C24.4932 19.8284 24.2771 21.3918 24.15 23.1077H19.1293C20.0318 13.2189 23.0696 5.5545 27.6072 0.762631ZM34.0133 14.0705C32.9075 10.537 31.5856 7.63902 29.7935 4.9571C28.014 7.65173 26.6285 10.6768 25.6498 14.0705H34.0133ZM5.17318 4.51223C5.17318 4.51223 6.1646 4.4741 7.39752 4.4741C8.61773 4.4741 11.2997 4.70289 13.2698 6.62218C15.2399 8.55418 15.278 10.7404 15.278 12.2529C15.278 13.7782 14.7569 17.0702 11.5284 18.5574C8.29997 20.0445 5.14776 19.4852 5.14776 19.4852L5.17318 4.51223Z" /> </svg>