<svg fill="currentColor" aria-label="Disney" role="img" viewBox="0 0 77 32" fill="none" xmlns="http://www.w3.org/2000/svg"> <g> <path d="M66.374 13.9757C65.0741 14.2746 61.653 14.4467 61.653 14.4467L61.2197 15.8053C61.2197 15.8053 62.9258 15.6604 64.1715 15.7872C64.1715 15.7872 64.5777 15.7419 64.6228 16.2491C64.6409 16.7201 64.5867 17.2273 64.5867 17.2273C64.5867 17.2273 64.5596 17.5353 64.1263 17.6077C63.6569 17.6892 60.4434 17.807 60.4434 17.807L59.9198 19.5732C59.9198 19.5732 59.7303 19.9808 60.1636 19.863C60.5698 19.7543 63.9368 19.1203 64.3791 19.2109C64.8485 19.3286 65.372 19.9536 65.2186 20.5333C65.038 21.2398 61.6801 23.3954 59.631 23.2415C59.631 23.2415 58.5568 23.3139 57.6451 21.8557C56.7966 20.4699 57.9701 17.8342 57.9701 17.8342C57.9701 17.8342 57.4375 16.6024 57.8256 16.1948C57.8256 16.1948 58.0603 15.9864 58.7283 15.9321L59.5497 14.2202C59.5497 14.2202 58.611 14.2836 58.0513 13.5953C57.5277 12.9341 57.4916 12.6352 57.8888 12.454C58.3131 12.2457 62.2217 11.5302 64.9117 11.6207C64.9117 11.6207 65.8505 11.5302 66.6538 13.1605C66.6448 13.1605 67.042 13.8217 66.374 13.9757ZM56.255 20.5514C55.9119 21.3666 55.0002 22.2361 53.8719 21.6926C52.7526 21.1492 50.9743 17.499 50.9743 17.499C50.9743 17.499 50.2973 16.1404 50.1709 16.1676C50.1709 16.1676 50.0265 15.9049 49.9362 17.3903C49.8459 18.8758 49.9543 21.7651 49.3675 22.218C48.8079 22.6708 48.1308 22.4897 47.7788 21.9553C47.4629 21.43 47.3275 20.18 47.499 17.9881C47.7066 15.7962 48.2121 13.4594 48.862 12.7258C49.5119 12.0012 50.0355 12.5265 50.2341 12.7167C50.2341 12.7167 51.1007 13.5047 52.5359 15.8234L52.7887 16.2491C52.7887 16.2491 54.0885 18.441 54.2239 18.432C54.2239 18.432 54.3323 18.5316 54.4225 18.4591C54.5579 18.4229 54.5038 17.7164 54.5038 17.7164C54.5038 17.7164 54.233 15.3343 53.0505 11.2947C53.0505 11.2947 52.8699 10.7875 52.9963 10.3165C53.1136 9.83643 53.5921 10.0629 53.5921 10.0629C53.5921 10.0629 55.4335 10.9867 56.3182 13.9938C57.1938 17.0281 56.598 19.7362 56.255 20.5514ZM47.2101 12.8254C47.0567 13.1333 46.9664 13.5772 46.1901 13.6949C46.1901 13.6949 38.761 14.2021 38.409 14.7275C38.409 14.7275 38.1472 15.0354 38.5534 15.126C38.9596 15.2075 40.6386 15.4339 41.451 15.4792C42.3176 15.4883 45.2423 15.5155 46.2894 16.8288C46.2894 16.8288 46.9122 17.4538 46.8852 18.8667C46.8581 20.3159 46.6053 20.8231 46.0457 21.3485C45.4589 21.8376 40.422 24.1019 37.1723 20.6239C37.1723 20.6239 35.6739 18.9482 37.6868 17.6802C37.6868 17.6802 39.1402 16.8016 42.8321 17.8342C42.8321 17.8342 43.9514 18.2418 43.8973 18.6493C43.8341 19.0841 42.9765 19.546 41.7308 19.5189C40.5213 19.4826 39.6366 18.9029 39.8081 18.9935C39.9706 19.0569 38.5083 18.287 38.0569 18.8124C37.6056 19.2924 37.7139 19.5913 38.1562 19.8902C39.2846 20.5333 43.6445 20.3069 44.9444 18.8577C44.9444 18.8577 45.4589 18.2689 44.6736 17.7889C43.8883 17.336 41.6406 17.0643 40.765 17.019C39.9255 16.9737 36.8022 17.0281 36.3509 16.1948C36.3509 16.1948 35.8995 15.6332 36.396 14.0391C36.9196 12.3725 40.5574 11.7294 42.128 11.5845C42.128 11.5845 46.4519 11.4305 47.2462 12.3182C47.2372 12.3182 47.3455 12.5265 47.2101 12.8254ZM34.9337 22.5984C34.4101 22.9879 33.2998 22.8158 32.9839 22.381C32.6679 21.9915 32.5596 20.4427 32.6228 18.0153C32.686 15.5607 32.7402 12.5174 33.2637 12.0374C33.8234 11.5483 34.1664 11.974 34.383 12.3091C34.6177 12.6352 34.8976 12.9975 34.9607 13.7674C35.0149 14.5373 35.1954 18.5769 35.1954 18.5769C35.1954 18.5769 35.4301 22.218 34.9337 22.5984ZM36.062 9.57376C34.5365 10.081 33.4894 9.90889 32.6048 9.52848C32.2166 10.2078 31.9909 10.4161 31.693 10.4614C31.2598 10.5067 30.8716 9.80926 30.7994 9.58282C30.7272 9.41073 30.5196 9.12089 30.7723 8.43252C29.9057 7.65358 29.8426 6.60292 29.987 5.89644C30.2036 5.08126 31.666 1.98361 36.1162 1.62131C36.1162 1.62131 38.2916 1.45828 38.6617 2.62669H38.7249C38.7249 2.62669 40.8372 2.63575 40.7921 4.5197C40.765 6.41271 38.4451 8.76765 36.062 9.57376ZM31.9097 5.38016C31.4584 6.10476 31.4403 6.53952 31.6479 6.83841C32.1624 6.05041 33.1012 4.80954 34.4823 3.86756C33.4172 3.95814 32.5235 4.42007 31.9097 5.38016ZM38.0569 4.16646C36.6578 4.37478 34.4914 6.25873 33.4623 7.7985C35.042 8.08834 37.8313 7.97965 39.0679 5.45262C39.0589 5.45262 39.6547 3.88568 38.0569 4.16646ZM76.0417 18.758C75.2022 20.2253 72.8462 23.2868 69.7049 22.5712C68.6668 25.0982 67.8002 27.6434 67.3038 31.4656C67.3038 31.4656 67.1954 32.2084 66.5816 31.9457C65.9768 31.7283 64.9658 30.7139 64.7672 29.31C64.5506 27.4622 65.372 24.3374 67.042 20.7597C66.5545 19.9627 66.2206 18.8214 66.5094 17.2001C66.5094 17.2001 66.9337 14.1931 69.9396 11.4758C69.9396 11.4758 70.3007 11.1588 70.5083 11.2585C70.743 11.3581 70.6347 12.3363 70.4451 12.8073C70.2555 13.2783 68.9105 15.6151 68.9105 15.6151C68.9105 15.6151 68.071 17.1911 68.3057 18.432C69.8854 15.9955 73.4781 11.0773 75.7077 12.6261C76.4569 13.1605 76.8 14.3289 76.8 15.5879C76.7909 16.702 76.5292 17.8795 76.0417 18.758ZM75.3918 14.8995C75.3918 14.8995 75.2654 13.9304 74.3266 14.9992C73.5142 15.8959 72.0519 17.5896 70.8694 19.8812C72.106 19.7453 73.2976 19.066 73.6586 18.7218C74.2454 18.1965 75.6084 16.7835 75.3918 14.8995ZM31.5667 16.1314C31.3952 18.3233 30.5557 22.0097 24.607 23.8302C20.6804 25.0167 16.9703 24.4461 14.9483 23.9298C14.9032 24.7359 14.8129 25.0801 14.6866 25.216C14.5151 25.3881 13.2332 26.1308 12.5292 25.0801C12.2132 24.582 12.0507 23.6762 11.9605 22.8701C7.41096 20.7688 5.31674 17.7436 5.2355 17.6077C5.13621 17.5081 4.09812 16.4212 5.13621 15.0898C6.1111 13.8851 9.29756 12.6805 12.1681 12.1914C12.2674 9.72774 12.5562 7.87096 12.8993 7.01956C13.3145 6.0323 13.838 6.91993 14.2894 7.59018C14.6685 8.08834 14.8942 10.235 14.9122 11.9468C16.7898 11.8562 17.9001 11.9921 19.9943 12.3725C22.7204 12.8707 24.5438 14.2655 24.3813 15.8506C24.264 17.4085 22.8378 18.0515 22.2962 18.0968C21.7275 18.1421 20.8428 17.7345 20.8428 17.7345C20.238 17.4447 20.7977 17.1911 21.5289 16.8741C22.3232 16.4846 22.1427 16.0861 22.1427 16.0861C21.8448 15.2166 18.3063 14.6097 14.7859 14.6097C14.7678 16.5571 14.8671 19.7906 14.9122 21.6745C17.3765 22.1455 19.218 22.0549 19.218 22.0549C19.218 22.0549 28.2087 21.8013 28.4795 16.0408C28.7593 10.2712 19.5159 4.73708 12.6826 2.97993C5.85835 1.18656 1.99488 2.43649 1.66089 2.60858C1.29982 2.78973 1.63381 2.84407 1.63381 2.84407C1.63381 2.84407 2.00391 2.89842 2.64481 3.1158C3.32182 3.33317 2.79827 3.68642 2.79827 3.68642C1.63381 4.05777 0.324923 3.82228 0.0721725 3.28789C-0.180578 2.7535 0.243682 2.27345 0.731129 1.58509C1.21858 0.860488 1.75116 0.887661 1.75116 0.887661C10.1912 -2.04696 20.4727 3.26071 20.4727 3.26071C30.1043 8.1608 31.7472 13.9032 31.5667 16.1314ZM6.09305 15.8325C5.13621 16.3035 5.79516 16.9828 5.79516 16.9828C7.5915 18.9211 9.80306 20.1348 11.9063 20.8865C12.15 17.5443 12.1139 16.3669 12.141 14.6822C8.85525 14.9086 6.95962 15.4339 6.09305 15.8325Z" /> </g> </svg>