<svg fill="currentColor" aria-label="Dolce Gusto" role="img" width="51" height="50" viewBox="0 0 51 50" fill="none" xmlns="http://www.w3.org/2000/svg"> <g> <path d="M25.3139 0C11.3305 0 0 11.1887 0 25C0 38.8113 11.3305 50 25.3139 50C39.2973 50 50.6278 38.8113 50.6278 25C50.6278 11.1887 39.2973 0 25.3139 0ZM41.2515 24.1495V24.4836H36.7558C36.7558 25.7695 37.3836 28.3718 39.9656 28.3718C40.32 28.3718 40.7351 28.3313 41.049 28.1693V28.6553C40.6744 28.7971 40.158 28.9287 39.2062 28.9287C36.8165 28.9287 35.4698 27.6326 35.4698 25.0709C35.4698 22.8433 36.371 21.6079 38.5986 21.6079C40.0061 21.6181 41.2515 22.3775 41.2515 24.1495ZM37.6772 15.2592L37.5354 16.1401H37.5152C37.5152 16.1401 37.5152 16.0186 37.2722 16.0186L36.3102 16.0085V17.2134C36.3102 17.2134 36.9684 17.3046 37.4342 17.1932C37.9911 17.0717 38.1025 16.8287 38.1025 16.8287H38.1227L37.8392 17.983H35.1053C35.1053 17.983 35.0142 17.821 35.0142 17.4565V15.1073C35.0142 14.6618 35.0142 13.6189 34.7104 13.6087V13.5784H37.9202L37.7683 14.6719H37.7481C37.7481 14.6719 37.7379 14.3479 37.2924 14.3378L36.3001 14.3175V15.2592H37.6772ZM34.9939 12.9405C34.9939 12.9405 35.9761 12.5759 36.7355 12.2215C37.4848 11.857 37.6671 11.6849 37.6671 11.6849L37.6974 11.695C37.7177 12.1102 37.6164 12.5456 37.1912 12.7987C36.6646 13.1025 34.9939 12.9708 34.9939 12.9708V12.9405ZM11.6039 17.9526C11.6039 17.9526 11.9279 17.8109 11.9279 16.4844V13.5682C11.9279 12.3026 11.6748 12.1608 11.6039 12.1304V12.1H12.8595C13.0822 12.1 13.2645 12.1507 13.4265 12.3431C13.8619 12.8493 15.3706 15.2086 15.6845 15.7452L15.6642 13.4366C15.6642 12.2823 15.3807 12.1304 15.3807 12.1304V12.1H34.6598C34.8218 12.1 34.8623 12.0899 34.9028 12.0494L34.9332 12.0595C34.599 12.7582 34.0928 12.9101 33.8396 12.9101H16.7274V16.8489C16.7274 17.7096 16.8084 17.983 16.8084 17.983H15.6946C15.401 17.983 15.2592 17.7299 15.158 17.578C15.158 17.578 13.3252 14.7428 12.9607 14.2062L12.981 17.8007C12.981 17.9121 12.9303 17.983 12.7785 17.983H11.6039V17.9526ZM34.3459 15.2592L34.2143 16.1401H34.194C34.194 16.1401 34.1839 16.0186 33.951 16.0186C33.7282 16.0186 33.1308 16.0085 33.0296 16.0085V17.3957C33.0296 17.9222 33.2928 17.9729 33.2928 17.9729V17.9931H31.8347C31.8347 17.9931 31.7436 17.8311 31.7436 17.4666V15.1175C31.7436 14.6719 31.7436 13.629 31.4399 13.6189V13.5885H34.6092L34.4573 14.6821H34.4269C34.4269 14.6821 34.4066 14.358 33.9712 14.3479L33.0194 14.3277V15.2693L34.3459 15.2592ZM28.5136 17.9627V17.983H27.3593L28.6148 14.0441C28.6958 13.791 28.6351 13.6391 28.4629 13.6087V13.5784H29.9615L31.3285 17.578C31.3892 17.7704 31.4905 17.9425 31.6322 17.9627V17.983H30.1539C30.1539 17.983 30.0425 17.902 29.9008 17.4463L29.7489 16.9502H28.5034C28.5034 16.9502 28.3819 17.3755 28.3617 17.5881C28.3212 17.8615 28.4528 17.9425 28.5136 17.9627ZM26.6808 17.3147C27.2074 17.3147 27.3896 16.9907 27.4099 16.9502L27.4403 16.9603C27.1972 17.8514 26.8327 18.1146 26.0834 18.1146C25.2835 18.1146 24.0786 17.4565 24.0786 15.806C24.0786 14.3985 24.9797 13.4366 26.4277 13.4366C27.1264 13.4366 27.582 13.7201 27.6731 13.872L27.3188 14.8036L27.2985 14.7934C27.1972 14.3884 26.7821 14.1657 26.4378 14.1657C26.1037 14.1657 25.3341 14.4188 25.3341 15.6136C25.3341 16.9603 26.1341 17.3147 26.6808 17.3147ZM22.3167 16.4034C22.0838 16.2718 21.7598 16.13 21.5472 16.0186C21.2738 15.887 20.7878 15.5427 20.7878 14.8846C20.7878 13.7606 21.7801 13.4265 22.499 13.4265C23.1369 13.4265 23.5318 13.6391 23.7141 13.8011L23.4103 14.7934H23.3799C23.3597 14.6314 23.0964 14.1555 22.4787 14.1555C22.2661 14.1555 21.9117 14.277 21.9117 14.5504C21.9117 14.7833 22.1041 14.9048 22.2357 14.9656C22.4686 15.077 22.8331 15.2491 22.9749 15.3098C23.7748 15.7047 23.9166 16.2819 23.9166 16.5654C23.9166 17.9222 22.6812 18.1045 22.013 18.1045C21.5573 18.1045 20.9903 17.902 20.6966 17.6286L20.9498 16.5452L20.9802 16.5553C20.9802 16.5553 21.1725 17.3653 22.0535 17.3653C22.5395 17.3653 22.7116 17.1021 22.7116 16.8894C22.7116 16.6565 22.5395 16.5249 22.3167 16.4034ZM13.71 37.2317C13.9935 37.2722 14.2973 37.2924 14.6213 37.2924C15.0668 37.2924 15.32 37.2621 15.7351 37.1709V34.3256C15.7351 33.2625 15.5124 33.1612 14.1454 32.9688V32.7461H17.1122V37.5051C16.6565 37.6063 15.2288 37.9 13.791 37.9C12.1203 37.9 10.9559 37.4139 10.2167 36.5128C9.56865 35.8141 9.16363 34.7712 9.16363 33.1916C9.16363 30.1843 10.966 29.4046 12.7481 28.8477C14.8441 28.1794 15.6339 27.096 15.6339 24.7874C15.6339 22.2256 14.7833 20.6865 11.7456 20.6865C10.9457 20.6865 10.8141 20.7675 10.8141 21.851V27.7845C10.8141 28.868 9.88254 29.0401 9.38639 29.111L9.39652 21.5472C9.39652 20.5043 8.86999 20.403 7.99919 20.403V20.1296H11.7456C14.3985 20.1296 17.2134 20.6258 17.2134 24.7772C17.2134 27.7845 15.3908 28.5541 13.6087 29.111C11.5634 29.759 10.7736 30.8121 10.7432 33.0093C10.7938 34.9737 11.4419 36.8773 13.71 37.2317ZM17.497 17.4565V15.1073C17.497 14.6618 17.497 13.6189 17.1932 13.6087V13.5784H20.403L20.2511 14.6719H20.2309C20.2309 14.6719 20.2106 14.3479 19.7752 14.3378L18.7829 14.3175V15.2592L20.1499 15.2491L20.0081 16.13H19.9878C19.9878 16.13 19.9878 16.0085 19.7448 16.0085L18.7829 15.9984V17.2033C18.7829 17.2033 19.4411 17.2945 19.9068 17.1831C20.4638 17.0616 20.5751 16.8186 20.5751 16.8186H20.6055L20.322 17.9729H17.5881C17.578 17.983 17.497 17.821 17.497 17.4565ZM23.1673 37.6468V35.9255H23.1369C22.9445 36.4115 22.499 37.6772 20.9194 37.6772C19.674 37.6772 19.0259 36.8267 19.0259 35.4698V31.8246C19.0259 30.9437 18.3475 30.9032 17.902 30.8728V30.6197H20.1802V35.1559C20.1802 36.371 20.5954 36.938 21.3649 36.938C22.3269 36.938 23.1673 35.561 23.1673 34.2345L23.1571 30.6703L24.3216 30.6602V37.6569L23.1673 37.6468ZM21.5674 28.9388C19.593 28.9388 18.3475 27.5618 18.3475 25.2734C18.3475 22.9951 19.593 21.6181 21.5674 21.6181C23.5419 21.6181 24.7975 22.9951 24.7975 25.2734C24.7874 27.5618 23.5318 28.9388 21.5674 28.9388ZM25.0203 28.7667V28.5034C25.6784 28.5034 26.2049 28.3617 26.2049 27.3593V21.1422C26.2049 20.2309 25.486 20.1802 25.0203 20.1397V19.8765L27.42 19.5119V27.3593C27.42 28.3617 27.9567 28.5034 28.6047 28.5034V28.7667H25.0203ZM27.7845 37.6873C26.934 37.6873 26.2252 37.5557 25.8202 37.4241L25.7088 35.7938H26.0936C26.2454 36.3102 26.61 37.2013 27.8959 37.2013C28.8882 37.2013 29.4046 36.5128 29.4046 36.0166C29.4046 34.9838 27.4504 34.4674 26.6201 33.87C26.0126 33.4447 25.8303 33.0802 25.8303 32.4828C25.8303 31.1158 27.1162 30.6703 28.3617 30.6703C28.9895 30.6703 29.7793 30.8222 30.1134 30.9235L30.2147 32.4524H29.8299C29.7084 31.9664 29.354 31.1563 28.2706 31.1563C27.7035 31.1563 27.0049 31.3892 27.0049 32.0778C27.0049 32.9081 28.3111 33.3333 29.1616 33.7991C29.9413 34.2143 30.5792 34.6193 30.5792 35.7128C30.5893 36.9684 29.4755 37.6873 27.7845 37.6873ZM35.1559 37.6266C34.923 37.6569 34.68 37.6772 34.437 37.6772C32.2094 37.6772 32.0778 37.1405 32.0778 35.5002V31.288H30.8829V30.8121C31.9968 30.8121 32.746 30.2855 32.8372 28.9287C32.8169 28.9287 32.7967 28.9287 32.7764 28.9287C30.0527 28.9287 28.8477 27.42 28.8477 25.0608C28.8477 23.0356 29.8096 21.6181 32.179 21.6181C33.2321 21.6181 34.6092 21.9218 34.6092 23.0356C34.6092 23.4812 34.2851 23.7546 33.8801 23.7546C33.2928 23.7546 33.1713 23.2888 33.0498 22.7825C32.9688 22.4484 32.6853 22.1243 31.9765 22.1243C30.9336 22.1243 30.1235 22.8939 30.1235 24.5747C30.1235 26.5087 31.3993 28.3718 33.546 28.3718C33.8396 28.3718 34.1333 28.3111 34.4168 28.2503V28.6958C34.0927 28.8173 33.7181 28.8983 33.222 28.9287V30.8222H35.0041V31.2981H33.222V35.9255C33.222 37.0393 33.7282 37.2114 34.5383 37.2114C34.7307 37.2114 34.923 37.1709 35.1357 37.1304V37.6266H35.1559ZM38.3252 37.6873C36.4216 37.6873 35.2369 36.371 35.2369 34.1839C35.2369 31.9866 36.4318 30.6703 38.3252 30.6703C40.2288 30.6703 41.4237 31.9866 41.4237 34.1839C41.4237 36.371 40.2288 37.6873 38.3252 37.6873Z" /> <path d="M29.0907 14.8137L28.6958 16.2313H29.5261L29.0907 14.8137Z" /> <path d="M38.3252 31.1462C36.8469 31.1462 36.5533 32.9587 36.5533 34.1738C36.5533 35.3888 36.8469 37.2013 38.3252 37.2013C39.8036 37.2013 40.1073 35.3888 40.1073 34.1738C40.1073 32.9587 39.8036 31.1462 38.3252 31.1462Z" /> <path d="M36.7558 23.9773H39.8744C39.8744 23.1673 39.601 22.1142 38.4062 22.1142C37.2317 22.1142 36.7558 23.4204 36.7558 23.9773Z" /> <path d="M21.5674 22.1142C20.0182 22.1142 19.7043 24.0077 19.7043 25.2734C19.7043 26.5391 20.0182 28.4326 21.5674 28.4326C23.1167 28.4326 23.4204 26.5391 23.4204 25.2734C23.4103 24.0077 23.1065 22.1142 21.5674 22.1142Z" /> </g> </svg>