<svg fill="currentColor" aria-label="Felix" role="img" width="80" height="50" viewBox="0 0 80 50" xmlns="http://www.w3.org/2000/svg"> <g> <path d="M28.7018 0.747975C16.5061 1.38185 13.248 13.7297 12.4239 16.3793C12.2084 17.0893 12.0309 17.6471 11.8661 18.2429C9.16582 18.8895 6.61764 19.3078 4.69066 19.2064C3.4863 19.143 3.47363 20.3727 3.87931 21.4757C4.69066 23.7069 6.49087 24.3788 10.1166 23.6815C10.18 23.6689 10.2434 23.6562 10.3195 23.6435C9.87576 25.1648 9.30527 27.1298 8.53194 29.7414C5.5147 39.9087 3.10598 44.8276 0.469062 48.428C-0.0380376 49.1253 -0.0380376 49.5309 0.101415 49.7845C0.291577 50.1014 0.773321 50.1141 1.572 49.7718C9.78701 46.2475 14.2875 33.5193 15.4412 29.7414C16.2018 27.2186 16.9498 24.7845 18.1288 21.0193C21.7672 19.4853 25.1268 17.7612 26.3818 16.9498C28.6004 15.5426 28.7272 14.6932 28.5624 14.0974C28.4229 13.5903 28.0299 13.248 26.5593 13.679C25.1902 14.072 22.6673 14.9848 19.7135 15.9483C19.8529 15.4919 20.0051 15.0101 20.1572 14.5284C22.68 6.57962 25.7606 3.81593 28.9427 3.75254C30.5527 3.72718 31.5923 4.77942 31.7191 5.98378C31.7951 6.70639 31.7317 7.23885 31.2246 8.24037C30.7175 9.25457 30.857 9.45741 30.9331 9.64757C31.1105 10.104 31.5923 10.2434 32.391 10.142C34.8124 9.83773 36.3717 7.7713 36.3717 5.70487C36.359 2.49747 33.0502 0.519781 28.7018 0.747975Z" /> <path d="M52.9919 0.0126727C54.2723 -0.114102 55.1597 0.43103 54.2723 2.33265C53.3849 4.2216 47.5279 15.3651 45.3474 24.1506C44.9924 25.5832 44.8529 26.7115 44.8529 27.5989C44.8403 30.4386 46.2221 30.6922 47.0335 30.6161C47.3124 30.5908 47.68 30.6415 47.8195 31.0979C47.9462 31.5289 47.7054 31.9346 47.4011 32.391C46.7926 33.3164 45.1065 34.787 42.9767 34.5081C40.8342 34.2292 39.034 32.0106 38.9452 27.9031C38.8185 21.7799 43.9021 8.62068 48.0096 2.35801C48.6689 1.36916 49.0745 1.03955 50.0634 0.735289C51.0269 0.43103 52.1678 0.101415 52.9919 0.0126727Z" /> <path d="M78.2201 11.6126C79.1329 11.0167 79.1456 10.5984 78.9681 10.142C78.6511 9.33061 78.4229 9.06438 78.0933 8.74745C77.7257 8.3798 76.4833 7.72057 74.607 9.35597C73.3139 10.4843 71.1714 12.893 68.6359 15.7454C68.2683 14.3129 67.9513 12.2718 67.8626 11.6379C67.6597 10.1673 66.823 9.79968 65.2764 10.4082C64.4523 10.7251 63.1085 11.3717 62.4873 11.7267C61.5112 12.2845 61.6887 13.0198 61.8154 13.6917C62.3225 16.6328 63.1339 19.4092 63.9199 21.1714C60.3448 25.3423 57.2262 29.1582 56.7064 30.0329C56.0091 31.1866 56.643 31.681 57.1881 31.681C57.8727 31.681 58.9503 31.4401 60.6111 29.4371C62.1197 27.6115 63.7551 25.7353 65.4158 23.897C67.609 27.1805 70.3727 28.6891 72.7054 28.2327C75.1521 27.7637 76.7749 26.2424 77.1805 24.8732C77.358 24.2647 77.2186 23.9731 77.0538 23.821C76.7495 23.5421 76.2424 23.7956 76.0015 23.9224C75.2916 24.29 74.2901 24.3027 73.2378 23.5167C71.7546 22.4011 70.6516 20.7784 69.8656 19.0923C72.7307 16.1638 75.7987 13.1972 78.2201 11.6126Z" /> <path d="M30.54 28.106C32.9614 27.0791 38.6663 24.7591 38.1846 20.2079C37.9564 18.1668 36.3337 17.1273 34.0263 17.1019C26.5593 17.0132 17.3301 23.8337 17.7611 32.86C17.9259 36.2449 20.1825 38.9579 24.1886 38.7424C28.1947 38.5269 33.3925 34.9645 35.2561 32.1881C35.7885 31.3895 35.6617 30.9077 35.1927 30.7049C34.7997 30.5401 34.2038 30.7683 33.5066 31.3007C32.822 31.8332 28.8666 34.4954 26.5466 34.2546C24.8859 34.0771 23.9224 32.6445 24.607 29.7794C26.2804 29.5005 29.0948 28.7145 30.54 28.106ZM30.4386 20.6263C31.0218 20.3347 32.074 20.2459 32.4417 20.7911C32.7586 21.2728 32.5304 22.2363 32.3276 22.642C31.6049 24.1379 29.4371 26.0522 25.431 26.9523C26.572 23.9224 28.0172 21.8053 30.4386 20.6263Z" /> <path d="M54.6526 12.7028C55.5401 12.3098 57.6192 11.8408 58.4812 11.752C59.4447 11.6379 60.3448 12.3225 59.356 14.3129C59.1405 14.7439 55.426 22.9589 54.6526 25.5832C54.1836 27.2059 53.9807 29.4118 54.9696 30.2358C55.4767 30.6542 55.6035 30.9838 55.5527 31.2754C55.4894 31.681 55.071 32.353 53.1821 32.353C51.3818 32.353 48.9605 31.1486 48.821 27.8144C48.7196 25.2536 49.645 22.4138 50.0887 20.9812C50.4057 19.929 52.2819 15.7835 52.9665 14.4904C53.4356 13.5903 53.6638 13.1466 54.6526 12.7028Z" /> <path d="M56.0598 2.16785C56.605 1.61004 57.7459 1.95233 58.3544 2.77637C58.9503 3.60041 58.7728 4.27231 58.4939 4.56389C58.215 4.8428 57.4036 4.96957 56.7317 4.43712C56.1105 3.9427 55.502 2.75101 56.0598 2.16785Z" /> <path d="M59.4067 1.01419C60.0279 0.684576 60.7125 0.824028 61.1942 2.04107C61.6252 3.14401 61.1562 3.62575 60.6491 3.81591C60.1673 3.9934 59.5081 3.84127 59.2038 3.22007C58.9503 2.67494 58.7221 1.38184 59.4067 1.01419Z" /> <path d="M62.5887 1.96501C63.0705 1.73681 63.9833 2.04107 64.2495 2.9285C64.503 3.75253 64.1988 4.48783 63.6029 4.74138C62.8423 5.05831 62.4366 4.47515 62.2591 4.1075C62.0436 3.6004 61.8661 2.29462 62.5887 1.96501Z" /> <path d="M55.1597 5.47667C54.8174 6.08519 55.464 6.94726 55.9838 7.21349C56.4275 7.44168 57.2388 7.47971 57.5558 6.95994C57.9234 6.3641 57.5051 5.6288 57.0487 5.32454C56.6684 5.07099 55.5654 4.75405 55.1597 5.47667Z" /> <path d="M59.5335 5.13438C60.3575 4.66531 61.5111 4.75406 62.0816 5.22312C62.6521 5.69219 63.1972 5.98377 63.8184 6.11055C64.6805 6.28803 65.289 6.65568 65.289 7.58113C65.289 8.2784 64.8073 8.72211 64.0847 8.81085C63.3621 8.89959 62.8042 8.77282 62.2338 9.05172C61.7267 9.30527 61.4858 9.69827 61.3717 9.83773C61.0928 10.1673 60.8519 10.3195 60.3828 10.3829C59.9138 10.4462 59.2926 10.2181 59.0137 9.6856C58.2277 8.17698 58.177 5.89503 59.5335 5.13438Z" /> </g> </svg>