<svg fill="currentColor" aria-label="Fiskars" role="img" width="197" height="24" viewBox="0 0 197 24" xmlns="http://www.w3.org/2000/svg"> <path d="M133.824 4.704V10.2144H147.744C149.587 10.2144 151.584 9.6768 151.584 7.4688C151.584 5.2608 149.568 4.7232 147.744 4.7232H133.824V4.704ZM151.814 22.8864L143.251 13.7856H133.824V22.8672H128.563V3.5712C128.563 2.2272 129.658 1.1136 131.021 1.1136H148.166C151.085 1.1136 156.883 1.824 156.883 7.4496C156.883 12.2688 152.659 13.4784 149.606 13.728L158.208 22.8672L151.814 22.8864ZM104.218 14.592H115.949L110.093 6.0288L104.218 14.592ZM114.278 3.5712C115.584 5.3568 127.603 22.8864 127.603 22.8864H121.613L118.406 18.1824H101.76L98.5536 22.8864H89.8752L79.5264 11.904L72.0768 16.8576V22.8864H66.816V1.1136H72.0768V12.0192L88.416 1.1712H95.6928L83.712 9.12L94.2912 20.3712C97.6704 15.456 104.89 4.9344 105.888 3.5712C107.194 1.7856 108.096 0.902401 110.074 0.902401C112.051 0.902401 112.973 1.7664 114.278 3.5712ZM3.39841 1.1136H27.1488V4.704H6.22081V10.1952H27.1488V13.7856H6.22081V22.8672H0.960007V3.5712C0.960007 2.208 2.05441 1.1136 3.39841 1.1136ZM178.522 10.3296C183.206 10.7328 186.662 12.192 186.662 16.1088C186.662 22.4448 177.312 23.328 172.493 23.328C167.29 23.328 161.722 22.1952 158.15 20.4288L159.418 16.5696C162.605 18.4128 167.52 19.8144 172.224 19.8144C174.95 19.8144 181.344 19.584 181.344 16.6464C181.344 15.264 180.154 14.4768 176.986 14.208L166.118 13.2864C160.934 12.8448 158.304 11.04 158.304 7.8912C158.304 1.5552 167.654 0.672001 172.474 0.672001C176.314 0.672001 181.478 1.2672 184.973 2.7264L183.667 6.4128C180.48 5.0304 175.853 4.1856 172.358 4.1856C169.92 4.1856 163.622 4.416 163.622 7.3536C163.622 8.544 164.506 9.12 167.654 9.3888L178.522 10.3296ZM57.2928 10.3296C61.9776 10.7328 65.4336 12.192 65.4336 16.1088C65.4336 22.4448 56.0832 23.3088 51.264 23.3088C46.0608 23.3088 40.4928 22.176 36.9216 20.4096L38.1888 16.5504C41.376 18.3936 46.2912 19.7952 50.9952 19.7952C53.7216 19.7952 60.1152 19.5648 60.1152 16.6272C60.1152 15.2448 58.9056 14.4576 55.7568 14.1888L44.8896 13.2672C39.7056 12.8256 37.0752 11.0208 37.0752 7.872C37.0752 1.536 46.4256 0.652802 51.2448 0.652802C55.0848 0.652802 60.2496 1.248 63.744 2.7072L62.4384 6.3936C59.2512 5.0112 54.624 4.1664 51.1296 4.1664C48.6912 4.1664 42.3936 4.3968 42.3936 7.3344C42.3936 8.5248 43.2768 9.1008 46.4256 9.3696L57.2928 10.3296ZM29.856 23.0016V1.2288H35.1168V22.9824L29.856 23.0016ZM191.482 8.3904C193.44 8.3904 195.034 6.7968 195.034 4.8384C195.034 2.88 193.44 1.2864 191.482 1.2864C189.523 1.2864 187.93 2.88 187.93 4.8384C187.93 6.7968 189.523 8.3904 191.482 8.3904ZM191.482 0.672001C193.786 0.672001 195.648 2.5344 195.648 4.8384C195.648 7.1424 193.786 9.0048 191.482 9.0048C189.178 9.0048 187.315 7.1424 187.315 4.8384C187.315 2.5344 189.178 0.672001 191.482 0.672001ZM190.387 3.36V4.4352H191.942C192.307 4.4352 192.691 4.3392 192.691 3.8976C192.691 3.4752 192.307 3.36 191.942 3.36H190.387ZM192.749 6.8928L191.155 5.1264H190.406V6.8928H189.389V3.1296C189.389 2.8608 189.6 2.6496 189.869 2.6496H192.058C192.634 2.6496 193.747 2.784 193.747 3.8784C193.747 4.8192 192.922 5.0496 192.326 5.088L193.997 6.8736L192.749 6.8928Z" /> </svg>