<svg fill="currentColor" aria-label="Franprix" role="img" width="206" height="40" viewBox="0 0 206 40" xmlns="http://www.w3.org/2000/svg"> <g> <path d="M4.54433 8.92432V10.7173H-0.0249023V16.0963H4.54433V32.4646H11.3693V16.0963H16.459V10.7173H11.3693V9.3292C11.3693 6.49512 12.4682 5.80105 14.6661 5.80105C15.5336 5.80105 16.112 5.97456 16.9217 6.26375L17.2109 0.537757C15.8807 0.248565 14.6082 0.132898 13.2201 0.132898C5.75894 0.132898 4.54433 4.23941 4.54433 8.92432Z" /> <path d="M27.2748 14.2455H27.217V10.7752H20.3342V32.5224H27.217V23.4418C27.217 19.1039 27.8532 16.0963 33.0587 16.0963C34.0419 16.0963 35.083 16.2698 36.0084 16.559V10.486C35.3722 10.3125 34.4468 10.2546 33.6949 10.2546C30.6873 10.2546 28.7208 11.6428 27.2748 14.2455Z" /> <path d="M48.0967 10.2546C44.4528 10.2546 40.7512 11.4114 38.322 13.7249L42.0236 17.4266C43.4696 15.8071 45.3204 14.8239 47.6339 14.8239C50.0053 14.8239 52.0297 16.3855 52.0297 18.699C46.3037 18.699 36.9338 18.8725 36.9338 26.3337C36.9338 30.7294 40.6933 33.043 44.8577 33.043C47.6339 33.043 50.4102 32.1175 51.9718 29.804H52.0297V32.5224H58.334V21.4174C58.2762 14.1876 56.1362 10.2546 48.0967 10.2546ZM50.2367 22.9791H51.914V24.425C51.914 27.1434 49.3691 28.5316 46.6507 28.5316C45.0891 28.5316 43.4117 27.7797 43.4117 26.1602C43.4696 23.0948 48.1545 22.9791 50.2367 22.9791Z" /> <path d="M76.4953 10.2546C73.1985 10.2546 70.885 12.0476 70.0174 13.7249H69.8439V10.7752H63.1925V32.5224H70.0753V21.7066C70.0753 18.8725 70.5958 16.1541 74.2396 16.1541C77.7678 16.1541 77.7678 19.3931 77.7678 21.8801V32.5224H84.6505V20.5499C84.7084 14.7082 83.4359 10.2546 76.4953 10.2546Z" /> <path d="M103.448 10.2546C100.383 10.2546 97.6642 12.1055 96.5652 13.6671H96.5074V10.833H90.203V40.0414H97.0858V30.2667H97.1436C98.7052 32.3489 101.366 33.1008 104.258 33.1008C110.562 33.1008 114.437 27.5483 114.437 21.5331C114.437 14.8817 110.099 10.2546 103.448 10.2546ZM102.06 16.0963C105.53 16.0963 107.555 18.352 107.555 21.5909C107.555 24.8299 105.472 27.0856 102.06 27.0856C98.5896 27.0856 96.5652 24.8299 96.5652 21.5909C96.5074 18.352 98.5896 16.0963 102.06 16.0963Z" /> <path d="M125.427 14.2455H125.369V10.7752H118.428V32.5224H125.311V23.4418C125.311 19.1039 125.947 16.0963 131.153 16.0963C132.136 16.0963 133.177 16.2698 134.102 16.559V10.486C133.466 10.3125 132.541 10.2546 131.789 10.2546C128.839 10.2546 126.93 11.6428 125.427 14.2455Z" /> <path d="M140.638 -0.0406284C138.382 -0.0406284 136.647 1.75237 136.647 3.83455C136.647 5.97457 138.44 7.70971 140.638 7.70971C142.894 7.70971 144.629 5.91673 144.629 3.83455C144.629 1.75237 142.894 -0.0406284 140.638 -0.0406284Z" /> <path d="M137.226 32.5224H144.108V10.7752H137.226V32.5224Z" /> <path d="M171.119 10.7752H163.484L159.725 16.7325L155.792 10.7752H147.694L155.098 20.8969L146.306 32.5224H154.346L159.609 25.2926L164.468 32.5224H172.565L164.005 20.8969L171.119 10.7752Z" /> <path d="M192.461 12.279C196.741 12.279 199.749 8.75083 199.518 5.04917C197.03 4.87565 193.676 5.97457 192.461 9.44487C191.247 5.97457 187.834 4.87565 185.405 5.04917C185.116 8.75083 188.123 12.279 192.461 12.279ZM205.128 20.3185C204.954 16.3855 201.889 12.973 197.551 12.973C195.585 12.973 193.792 13.7249 192.403 14.9974C191.015 13.7249 189.222 12.973 187.256 12.973C182.976 12.973 179.852 16.3855 179.679 20.3185C179.39 27.1434 185.405 32.6959 192.403 32.6959C199.46 32.6959 205.359 27.1434 205.128 20.3185Z" /> </g> </svg>