<svg fill="currentColor" aria-label="Gaumont" role="img" width="119" height="40" viewBox="0 0 119 40" xmlns="http://www.w3.org/2000/svg"> <g> <path d="M16.7129 9.78217C16.5545 9.86138 16.3564 9.74257 16.3564 9.74257C13.3861 8.0792 12.396 5.70296 12.2772 4.79207C11.8812 2.41583 12.6337 1.14851 12.9901 0.990092C13.3465 0.831676 14.9703 0.950488 16.2772 3.0891C16.8713 4.0396 17.6634 5.90098 16.9505 9.46534C16.9109 9.46534 16.8713 9.70296 16.7129 9.78217Z" /> <path d="M12.1584 12.9901C12.0396 13.1485 11.802 13.1485 11.802 13.1485C7.88119 12.8317 6.25743 11.2079 5.46535 10.3366C3.72277 8.31684 4.11881 6.85149 4.39604 6.53466C4.63366 6.21783 6.17822 5.70298 8.47525 7.08912C9.46535 7.68317 11.2079 8.83169 12.2376 12.6337C12.2376 12.5941 12.2772 12.8317 12.1584 12.9901Z" /> <path d="M22.0594 8.95049C21.901 8.95049 21.7426 8.79208 21.7426 8.79208C19.7228 5.94059 19.802 4.0396 19.9604 3.0099C20.3168 0.673267 21.5842 0 21.9406 0C22.297 0 23.604 0.554455 24 2.9703C24.1584 4 24.1584 5.9802 22.3366 8.75247C22.3366 8.75247 22.2178 8.95049 22.0594 8.95049Z" /> <path d="M31.3267 12.8317C31.2475 12.7525 31.2871 12.5545 31.2871 12.5545C32.0396 9.94059 33.1881 9.10891 33.901 8.71287C35.4851 7.80198 36.5941 8.23762 36.7525 8.47525C36.9505 8.67327 37.2277 9.86138 35.9604 11.2475C35.4059 11.8416 34.297 12.7129 31.5643 12.9109C31.5643 12.9109 31.4059 12.9109 31.3267 12.8317Z" /> <path d="M9.90099 17.9406C9.86138 18.1386 9.66336 18.2178 9.66336 18.2178C6.0594 19.802 3.88119 19.1287 2.77228 18.7327C0.277226 17.8218 -0.118814 16.3564 -1.85743e-06 15.9604C0.0792061 15.5644 1.0297 14.2574 3.68317 14.3366C4.87129 14.3762 7.08911 14.6931 9.78218 17.5446C9.78218 17.5842 9.9802 17.7822 9.90099 17.9406Z" /> <path d="M9.86137 23.4059C9.94058 23.5644 9.78217 23.7624 9.78217 23.7624C7.48514 26.6139 5.58415 26.9703 4.47524 27.1287C2.01979 27.4455 0.950483 26.4554 0.831671 26.099C0.712859 25.7426 1.1485 24.3168 3.40593 23.2475C4.39603 22.7723 6.099 22.0198 9.58415 23.2079C9.62375 23.1683 9.86137 23.2475 9.86137 23.4059Z" /> <path d="M11.7624 28.4753C11.8812 28.5941 11.802 28.7921 11.802 28.7921C10.7723 31.9208 9.1881 32.9109 8.31682 33.3861C6.33662 34.4159 5.1881 33.8218 4.99008 33.5446C4.79206 33.2673 4.63365 32 6.21781 30.3762C6.89107 29.6634 8.198 28.4357 11.4851 28.3564C11.4851 28.3168 11.6832 28.3168 11.7624 28.4753Z" /> <path d="M15.8812 31.5248C16 31.5644 16.0396 31.7624 16.0396 31.7624C16.6337 34.5743 16.0792 35.9604 15.604 36.7129C14.5743 38.3762 13.2673 38.4554 12.9901 38.297C12.7129 38.1782 11.8416 37.1881 12.3168 35.2871C12.5149 34.4554 13.1485 33.0693 15.5644 31.5644C15.604 31.5644 15.7624 31.4455 15.8812 31.5248Z" /> <path d="M21.1881 33.5446C21.3069 33.5446 21.3861 33.6634 21.3861 33.6634C22.6535 35.8416 22.5743 37.1881 22.3762 37.901C21.9802 39.5644 20.9109 40 20.6337 39.9604C20.3564 39.9604 19.3663 39.3267 19.2475 37.6238C19.2079 36.8713 19.3267 35.5644 20.9505 33.6238C20.9505 33.6634 21.0693 33.5446 21.1881 33.5446Z" /> <path d="M26.2178 33.1881C26.297 33.1485 26.4158 33.2277 26.4158 33.2277C28.1584 34.4554 28.5941 35.4851 28.7129 36.1188C28.9901 37.5446 28.3168 38.2574 28.1188 38.3366C27.9208 38.4158 26.9307 38.297 26.2178 37.0693C25.901 36.5149 25.5446 35.4455 26.0594 33.3861C26.0594 33.3465 26.099 33.2277 26.2178 33.1881Z" /> <path d="M30.6535 30.6535C30.6931 30.5743 30.8119 30.6139 30.8119 30.6139C32.5148 30.9307 33.2673 31.604 33.5445 32.0396C34.2178 33.0297 33.8614 33.8218 33.7426 33.9406C33.6238 34.0594 32.7921 34.3366 31.8416 33.6238C31.4059 33.3069 30.7327 32.5149 30.5742 30.8119C30.6139 30.8119 30.5743 30.6931 30.6535 30.6535Z" /> <path d="M27.3267 9.94058C27.1683 9.90098 27.1287 9.70296 27.1287 9.70296C26.3366 6.61385 27.0495 4.99009 27.5248 4.1584C28.5941 2.29702 29.901 2.17821 30.2178 2.29702C30.5347 2.41583 31.4456 3.32672 31.0099 5.50494C30.8119 6.45543 30.297 8.0792 27.6436 9.90098C27.604 9.90098 27.4455 10.0198 27.3267 9.94058Z" /> <path d="M27.9604 14.9307V16.4752C27.9604 16.4752 24.1584 15.3663 21.4653 15.6832C21.4653 15.6832 19.5247 15.7624 18.495 16.6337C18.495 16.6337 16.8317 17.6237 16.5148 20.1188C16.198 22.6138 17.7426 24.198 18.2574 24.5148C18.2574 24.5148 19.3267 25.4257 21.9406 25.703C21.9406 25.703 23.4455 25.9406 24.8713 25.6634V23.6039C24.8713 23.6039 24.8317 22.9307 24.3564 22.4554C23.8416 21.9802 23.2475 21.9802 22.9307 22.0198H21.3465V20.396H28.6337V26.2178C28.6337 26.2178 28.7129 26.8911 28 27.0891C28 27.0891 26.3762 27.5643 23.5643 27.6436C23.5643 27.6436 19.8416 27.802 17.1881 26.8911C17.1881 26.8911 13.3465 25.8614 12.594 21.9802C12.594 21.9802 11.8416 18.297 14.6535 15.9208C14.6535 15.9208 16.3168 14.297 20 13.9802C20 13.9802 22.9307 13.5841 26.099 14.4554L27.9604 14.9307Z" /> <path d="M39.0891 24.8317V22.1782H38.2178C36.9901 22.1782 35.4059 22.1782 34.5743 22.5742C33.703 23.0099 33.5842 23.7624 33.6634 24.3168C33.8218 25.3861 35.2079 25.5841 35.5644 25.5841C37.0693 25.6633 38.6139 25.1485 39.0891 24.8317ZM35.1683 17.0297C37.505 16.7129 40 17.1485 40 17.1485C42.8911 17.8218 42.6139 19.8416 42.6139 19.8416V27.3267C42.6139 27.3267 41.0693 27.3267 41.0297 27.3267C39.3267 27.2475 39.0891 26.3366 39.0891 26.3366C38.5347 26.693 37.4257 26.9703 37.4257 26.9703C34.8911 27.6039 33.1881 27.1287 33.1881 27.1287C30.3762 26.297 30.5743 24.3168 30.5743 24.3168C30.4951 23.0099 31.6436 22.1386 31.6436 22.1386C32.9901 21.0297 35.2871 20.8713 36.1584 20.8713C37.0297 20.8713 39.0891 20.8317 39.0891 20.8317V19.9208C39.1287 18.6534 37.5842 18.5346 37.5842 18.5346C36.9109 18.4158 35.802 18.3762 34.4554 18.5742C33.1089 18.7723 31.8812 19.2475 31.8812 19.2475V17.703C33.4257 17.1881 35.1683 17.0297 35.1683 17.0297Z" /> <path d="M44.9901 17.3465H48.5545V23.8812C48.5545 23.8812 48.396 25.5445 50.6931 25.5445C50.6931 25.5445 52.4753 25.5842 53.703 24.8317V17.3465H57.1881V27.2079H55.4852C55.4852 27.2079 54.0198 27.1683 53.8218 26.1386C53.8218 26.1386 53.1881 26.6139 52.4356 26.8515C51.6832 27.0891 50.2178 27.5643 48.3564 27.3663C48.3564 27.3663 45.1881 27.1683 44.9505 24.5148L44.9901 17.3465Z" /> <path d="M59.7624 17.3069H63.1287V18.4158C63.1287 18.4158 64.4356 17.1485 67.3267 17.1089C67.3267 17.1089 70.0594 16.9505 71.1287 18.5742C71.1287 18.5742 72.8317 17.1485 75.9208 17.1485C75.9208 17.1485 79.7228 16.9109 80.0396 20.0396V27.2079H77.8614C77.8614 27.2079 76.7129 27.0495 76.6336 26.0198V20.4752C76.6336 20.4752 76.5148 19.0099 74.6535 19.0099C74.6535 19.0099 72.7525 18.9703 71.6039 19.7624V27.2079H69.6237C69.6237 27.2079 68.198 27.0891 68.1584 25.901V20.4356C68.1584 20.4356 68.1188 18.9307 65.901 19.0099C65.901 19.0099 64.198 19.0495 63.1683 19.7624V27.2079H61.1089C61.1089 27.2079 59.8416 27.0891 59.7624 25.8218V17.3069Z" /> <path d="M88.8317 17.1089C91.9208 17.1089 95.6039 18.1782 95.802 22.1386C95.802 22.1386 96.3168 27.4455 88.7525 27.4851C88.7525 27.4851 82.099 27.8812 81.7426 22.4554C81.7426 22.4158 81.2277 17.0693 88.8317 17.1089ZM85.5445 22.4554C85.7822 26.2178 88.8713 25.901 88.8713 25.901C92.2772 25.8218 92.0396 22.0594 92.0396 22.0594C91.802 18.7723 89.5445 18.6138 88.7129 18.6138C85.3069 18.6931 85.5445 22.4554 85.5445 22.4554Z" /> <path d="M97.5446 17.3069H100.911V18.4158C100.911 18.4158 102.257 17.2277 104.713 17.1485C104.713 17.1485 107.723 16.7921 108.99 18.7327C108.99 18.7327 109.386 19.2871 109.386 20.0396V27.2079H107.366C107.366 27.2079 105.98 27.0891 105.941 25.8614V20.7921C105.941 20.7921 106.178 19.2475 104.198 19.0495C104.198 19.0495 102.495 18.8515 100.95 19.7624V27.2475H99.0891C99.0891 27.2475 97.5446 27.1683 97.5446 25.7426V17.3069Z" /> <path d="M112.04 15.3267H115.604V17.3069H118.535V18.8515H115.604V24C115.604 24 115.564 25.1881 116.396 25.5445C116.396 25.5445 117.228 25.9802 118.772 25.703V27.1683C118.772 27.1683 117.465 27.6039 115.485 27.4059C113.465 27.1683 112.119 26.495 112.04 24.594V18.8515H110.495V17.3069H112.04V15.3267Z" /> </g> </svg>