<svg fill="currentColor" aria-label="Giraudy" role="img" width="114" height="32" viewBox="0 0 114 32" xmlns="http://www.w3.org/2000/svg"> <g> <path d="M29.1345 32H44.6951V0H29.1345V32ZM32.5242 1.97192H37.4165C39.9026 1.97192 41.7897 3.15507 41.7897 5.84587C41.7897 7.58315 40.8212 9.0858 39.034 9.40031L42.9928 14.5622H38.9192L35.829 9.71981H35.7941V14.5622H32.5192V1.97192H32.5242Z" /> <path d="M46.4075 32H61.6536V0H46.4075V32ZM52.1086 1.97192H55.683L60.4256 14.5622H56.936L56.1173 12.3757H51.6093L50.7407 14.5622H47.2661L52.1086 1.97192Z" /> <path d="M53.8958 5.86584H53.8608L52.5079 9.87457H55.2287L53.8958 5.86584Z" /> <path d="M0 32H15.8802V0H0V32ZM8.23214 1.55757C10.8231 1.55757 12.825 2.72574 13.9083 5.08206L10.8031 6.38502C10.3538 5.1819 9.40031 4.38315 8.08237 4.38315C5.92574 4.38315 4.80749 6.43495 4.80749 8.35694C4.80749 10.3089 5.97566 12.2958 8.13229 12.2958C9.55008 12.2958 10.6384 11.5619 10.7732 10.1092H8.10234V7.53822H14.5972C14.5622 9.37535 14.4324 10.9429 13.3142 12.5154C12.0761 14.2328 10.224 14.9866 8.12231 14.9866C4.16349 14.9866 1.4078 12.2958 1.4078 8.34197C1.40281 4.24337 4.17847 1.55757 8.23214 1.55757Z" /> <path d="M17.5925 32H27.4222V0H17.5925V32ZM20.6927 1.97192H23.9676V14.5622H20.6927V1.97192Z" /> <path d="M38.39 6.04555C38.39 4.67769 37.1869 4.478 36.1186 4.478H35.7991V7.6181H36.1186C37.1869 7.6181 38.39 7.41841 38.39 6.04555Z" /> <path d="M98.0718 0V32H113.792V0H98.0718ZM107.587 8.52168V14.5672H104.312V8.52168L99.6693 1.97691H103.593L105.949 5.40156L108.306 1.97691H112.23L107.587 8.52168Z" /> <path d="M91.0228 8.26708C91.0228 6.01061 89.5351 4.74259 87.4334 4.74259H86.6646V11.7916H87.3985C89.3504 11.7916 91.0228 10.7232 91.0228 8.26708Z" /> <path d="M80.679 32H96.3595V0H80.679V32ZM83.3897 1.97192H88.0325C91.537 1.97192 94.4275 4.72761 94.4275 8.26708C94.4275 11.8066 91.522 14.5622 88.0325 14.5622H83.3897V1.97192Z" /> <path d="M63.366 32H78.9666V0H63.366V32ZM66.0318 1.97192H69.3067V8.60156C69.3067 10.239 69.4215 12.0262 71.5282 12.0262C73.6349 12.0262 73.7497 10.239 73.7497 8.60156V1.97192H77.0196V9.05086C77.0196 10.6733 76.9547 12.2758 75.7017 13.4939C74.6483 14.5273 72.9959 14.8967 71.5282 14.8967C70.0605 14.8967 68.4081 14.5273 67.3547 13.4939C66.1017 12.2758 66.0368 10.6733 66.0368 9.05086L66.0318 1.97192Z" /> </g> </svg>