<svg fill="currentColor" aria-label="Gourmet" role="img" width="97" height="40" viewBox="0 0 97 40" xmlns="http://www.w3.org/2000/svg"> <g> <path fill-rule="evenodd" clip-rule="evenodd" d="M96.1054 38.6631H0V40H96.1054V38.6631Z" /> <path fill-rule="evenodd" clip-rule="evenodd" d="M60.8708 37.3853L61.4992 35.4539L59.8545 34.2604H61.883L62.5113 32.3289L63.1397 34.2604H65.1682L63.5277 35.4539L64.156 37.3853L62.5156 36.1919L60.8708 37.3853ZM45.8956 37.3811L46.524 35.4496L44.8835 34.2562H46.912L47.5403 32.3247L48.1687 34.2562H50.1972L48.5567 35.4496L49.185 37.3811L47.5403 36.1876L45.8956 37.3811ZM30.7306 37.3853L31.359 35.4539L29.7185 34.2604H31.747L32.3753 32.3289L33.0037 34.2604H35.0322L33.3917 35.4539L34.02 37.3853L32.3795 36.1919L30.7306 37.3853Z" /> <path fill-rule="evenodd" clip-rule="evenodd" d="M35.1629 14.815C50.5894 10.2773 48.8519 17.9652 62.1487 14.33V13.3052C48.8519 16.9404 50.5936 9.25251 35.1629 13.786V14.815ZM60.9763 10.543C60.9763 10.2646 61.1998 10.0622 61.4655 10.0622C61.7312 10.0622 61.9505 10.2773 61.9505 10.5472C61.9505 10.8129 61.7354 11.0322 61.4655 11.0322C61.1998 11.0364 60.9805 10.8213 60.9763 10.5556C60.9763 10.5472 60.9763 10.543 60.9763 10.543ZM61.4697 10.9436C61.689 10.9436 61.8619 10.7707 61.8619 10.5388C61.8661 10.3237 61.6974 10.1423 61.4824 10.1381C61.4781 10.1381 61.4739 10.1381 61.4697 10.1381C61.2546 10.1381 61.0775 10.311 61.0733 10.5261C61.0733 10.5303 61.0733 10.5345 61.0733 10.5388C61.0775 10.7749 61.2504 10.9436 61.4697 10.9436ZM61.3685 10.8213H61.2841V10.2646H61.495C61.6257 10.2646 61.6932 10.3152 61.6932 10.4249C61.6932 10.5261 61.63 10.5683 61.5498 10.5767L61.7059 10.8213H61.6131L61.4655 10.5809H61.3685V10.8213ZM61.4697 10.5092C61.5414 10.5092 61.6047 10.505 61.6047 10.4165C61.6047 10.349 61.5414 10.3363 61.4824 10.3363H61.3685V10.5092H61.4697ZM36.4534 4.90881H39.9241C40.447 4.90881 40.97 5.08172 41.1344 5.43174C40.7043 5.89142 40.2109 6.43965 40.2109 6.43965C40.2109 6.43965 40.1307 6.04745 39.6879 6.04745H38.2414L38.1192 6.88246H39.321L39.1566 8.05483C39.1566 8.05483 38.9795 7.87349 38.7728 7.87349H37.98C37.98 7.87349 37.651 10.2731 37.5962 10.5092C37.5456 10.7454 37.5962 10.9014 37.7016 11.0069H35.5635C35.5635 11.0069 35.7997 10.8761 35.8756 10.4333C35.9557 9.99052 36.5293 5.89142 36.5799 5.52874C36.6389 5.15763 36.6642 5.01003 36.4534 4.90881Z" /> <path fill-rule="evenodd" clip-rule="evenodd" d="M39.5066 6.87823H41.2145L41.1513 7.32525C41.3832 7.05113 41.7206 6.88666 42.0791 6.87823H42.214L42.0369 8.11808C41.4381 7.98735 41.0206 8.23616 40.9193 8.91934C40.8519 9.4001 40.7001 10.4333 40.6663 10.6104C40.6326 10.7876 40.6916 10.9647 40.8097 11.0026H38.8824C38.8824 11.0026 39.0807 10.9056 39.1355 10.5936C39.1861 10.2815 39.5656 7.59936 39.6036 7.3379C39.6331 7.10595 39.5909 6.99631 39.5066 6.87823ZM43.5171 6.73063C43.9726 6.73063 44.3437 6.45651 44.3437 6.11492C44.3437 5.77332 43.9726 5.49921 43.5171 5.49921C43.0617 5.49921 42.6906 5.77332 42.6906 6.11492C42.6906 6.45651 43.0575 6.73063 43.5171 6.73063ZM42.3405 6.87823H44.116C44.116 6.87823 43.6099 10.408 43.5846 10.5978C43.5593 10.7876 43.6099 10.9225 43.7238 11.0026H41.6278C41.8345 10.9225 41.9483 10.796 41.9694 10.5978C41.9694 10.5978 42.408 7.53189 42.4375 7.35055C42.4586 7.165 42.4713 7.04691 42.3405 6.87823ZM44.1581 9.58988C44.4365 9.86821 45.0227 10.2182 45.3896 10.2182C45.7565 10.2182 46.0685 9.72904 45.5456 9.5224C45.0227 9.31576 44.5377 9.01634 44.3817 8.70427C44.2256 8.3922 44.3015 7.8777 44.4702 7.56984C44.6937 7.15656 45.2167 6.86136 45.6848 6.81075C46.1529 6.76015 46.6589 6.82762 46.9541 6.87823C47.2493 6.92883 47.5066 6.87823 47.5066 6.87823L47.3337 8.09699C47.0638 7.80179 46.5577 7.62889 46.2288 7.62889C45.8998 7.62889 45.8113 7.73431 45.8281 7.87348C45.845 8.01265 45.9673 8.10121 46.2288 8.18555C46.6969 8.34159 47.1144 8.58619 47.2704 8.88139C47.5445 9.4001 47.3548 10.2857 46.8445 10.6906C46.5029 10.9647 46.0517 11.0237 45.592 11.0237C45.0227 11.0237 44.2088 10.7074 43.9557 11.0026L44.1581 9.58988ZM53.0353 6.73063C53.4908 6.73063 53.8619 6.45651 53.8619 6.11492C53.8619 5.77332 53.4908 5.49921 53.0353 5.49921C52.5799 5.49921 52.2088 5.77332 52.2088 6.11492C52.2088 6.45651 52.5756 6.73063 53.0353 6.73063Z" /> <path fill-rule="evenodd" clip-rule="evenodd" d="M53.7227 6.87823H51.9473C52.078 7.04692 52.0654 7.165 52.0401 7.34634C52.019 7.49394 51.728 9.53506 51.6141 10.3068V10.3026C51.2599 10.5514 51.2894 10.1676 51.2219 9.91882C51.1587 9.67001 51.1165 9.38324 51.0575 8.91513C50.9773 8.29521 50.4924 8.05061 49.8471 8.21086C50.1128 7.78914 50.7749 7.75119 51.0237 8.08856C51.1924 7.86505 51.5677 7.39695 51.7533 7.15235C51.5973 6.94149 51.3653 6.77702 50.9858 6.77702C50.4628 6.77702 49.9652 7.1397 49.5224 7.67528L49.8345 5.495H48.0211C48.2572 5.66368 48.2362 5.8408 48.2151 6.02636C48.1898 6.21192 47.6036 10.3616 47.5614 10.5978C47.5192 10.834 47.3969 10.9225 47.1734 11.0026H49.2483C49.1176 10.9225 49.0838 10.8086 49.1007 10.5978C49.1176 10.3869 49.2736 9.40011 49.32 9.05852C49.3495 8.85187 49.4549 8.86031 49.4802 9.09647C49.5055 9.33263 49.6363 10.1002 49.6911 10.4797C49.7417 10.8593 49.9399 11.0026 50.252 11.0026H53.3263C53.2082 10.9225 53.1618 10.7876 53.1871 10.5978C53.2167 10.408 53.7227 6.87823 53.7227 6.87823ZM59.8714 8.15604C59.6099 8.06748 59.4876 7.98313 59.4707 7.84397C59.4539 7.7048 59.5382 7.59937 59.8714 7.59937C60.2003 7.59937 60.7064 7.77228 60.9763 8.06748C61.0185 7.78493 61.1787 6.88245 61.1787 6.88245C61.1787 6.88245 60.9215 6.93305 60.6263 6.88245C60.331 6.83184 59.8292 6.76015 59.3569 6.81497C58.8888 6.86558 58.3363 7.13126 58.1128 7.54455C57.9441 7.85662 57.8766 8.36268 58.0243 8.67897C58.1887 9.03321 58.6189 9.3495 59.2219 9.5688C59.7491 9.76279 59.4834 10.1339 58.8803 10.1676C58.4375 10.1929 57.8092 9.93147 57.4591 9.47602V9.48867C57.185 9.85978 56.6115 10.1803 56.038 10.1297C55.5319 10.0833 55.1102 9.68688 55.1777 9.13021C55.1777 9.13021 56.8983 8.932 57.7206 8.81392C57.7459 8.25303 57.6827 7.69215 57.2905 7.29995C56.8983 6.90775 56.3036 6.78124 55.6668 6.85715C54.9415 6.94571 54.2161 7.47286 53.8998 8.01687C53.495 8.70849 53.5793 9.65314 53.9167 10.1634C54.3806 10.8593 54.9288 11.0828 55.6331 11.0828C56.3374 11.0828 57.0037 10.9267 57.4591 10.5514V10.5598C57.864 10.8846 58.4881 11.049 58.9858 11.049C59.4834 11.049 60.175 10.8888 60.5166 10.6189C61.0227 10.214 61.1829 9.40011 60.913 8.88139C60.757 8.58197 60.3395 8.31207 59.8714 8.15604ZM55.7891 7.63733C56.2446 7.56985 56.4681 7.88614 56.4302 8.35425L55.1819 8.51028C55.1903 8.06748 55.359 7.70058 55.7891 7.63733ZM92.31 30.4312C92.31 29.6848 92.9172 29.1323 93.6342 29.1323C94.3426 29.1323 94.9499 29.6848 94.9499 30.4312C94.9499 31.1861 94.3426 31.7385 93.6342 31.7385C92.9172 31.7385 92.31 31.1861 92.31 30.4312ZM93.6384 31.5192C94.2288 31.5192 94.6927 31.0596 94.6927 30.4312C94.6927 29.8155 94.2246 29.3474 93.6384 29.3474C93.0395 29.3474 92.5756 29.8155 92.5756 30.4312C92.5756 31.0596 93.0395 31.5192 93.6384 31.5192ZM93.36 31.1861H93.1323V29.6848H93.7059C94.0601 29.6848 94.2372 29.8155 94.2372 30.1107C94.2372 30.3806 94.0685 30.4945 93.8492 30.524L94.2752 31.1861H94.0179L93.6215 30.5324H93.36V31.1861ZM93.6342 30.3384C93.8282 30.3384 94.0011 30.3258 94.0011 30.0938C94.0011 29.9083 93.8324 29.8745 93.6721 29.8745H93.36V30.3427L93.6342 30.3384Z" /> <path fill-rule="evenodd" clip-rule="evenodd" d="M72.3374 9.74591C67.3442 3.90511 58.3279 0 48.0211 0C37.7143 0 28.6979 3.90511 23.7048 9.74591H0V11.0828H23.2999L23.3168 11.0617H23.4054C28.331 5.36848 37.5076 1.53927 48.0211 1.53927C58.5345 1.53927 67.7111 5.36848 72.6368 11.0617H72.7844L72.8013 11.0828H96.1012V9.74591H72.3374ZM16.8013 22.1487L16.5271 22.174C15.8018 19.4665 14.1065 18.758 12.0569 18.758C9.43384 18.758 7.45177 20.8202 7.45177 24.7085C7.45177 29.7818 9.81761 32.7254 12.213 32.7254C13.339 32.7254 13.5625 32.0675 13.5625 30.621V26.4038C13.5625 25.379 13.1618 24.8266 12.3901 24.776V24.4344H18.5345V24.776C17.7586 24.8266 17.5351 25.379 17.5351 26.4038V32.4976C17.5351 33.5477 17.6152 34.1002 18.3869 34.155V34.4966H13.6131C11.0912 34.4966 8.93621 34.3911 7.3126 33.4465C4.6136 31.8693 3.06589 28.951 3.06589 25.3495C3.06589 22.8529 3.81655 20.7739 5.31365 19.1713C6.78545 17.5941 8.73379 16.8055 11.2346 16.8055C13.107 16.8055 14.3553 17.3832 15.0554 17.3832C15.6036 17.3832 15.9536 17.2525 16.1307 16.8856L16.8013 22.1487ZM25.67 16.8814C29.3263 16.8814 31.7512 19.5846 31.7512 24.156C31.7512 26.2393 31.0849 28.0907 29.9336 29.4106C28.8034 30.7095 27.184 31.4518 25.5266 31.4518C21.7059 31.4518 19.281 28.7275 19.281 24.3458C19.2852 19.8166 21.9547 16.8814 25.67 16.8814ZM22.6336 22.7517C22.6336 27.6436 23.8524 30.0685 25.6489 30.0685C27.2472 30.0685 28.3648 28.5588 28.3648 25.476C28.3648 20.6052 27.146 18.2014 25.3495 18.2014C23.7512 18.2014 22.6336 19.7111 22.6336 22.7517ZM37.5582 17.1133V17.3875C36.5293 17.6869 36.6389 18.4713 36.5799 20.0232L36.3395 26.3827C36.3395 26.5725 36.3184 26.7454 36.3184 26.9141C36.3184 28.9763 37.0227 29.9125 38.6589 29.9125C40.2151 29.9125 41.1639 28.8076 41.1639 26.6147C41.1639 25.805 41.1429 25.379 41.1429 25.3368L40.9995 19.9557C40.9573 18.2098 41.029 17.4465 39.8988 17.3832V17.1091H43.787V17.3832C42.9183 17.4465 42.6568 18.02 42.6568 19.2768V19.5762L42.796 24.9151C42.8171 25.7881 42.8171 26.3616 42.8171 26.5725C42.8171 29.9125 41.1429 31.4644 37.6848 31.4644C34.4713 31.4644 33.088 30.0601 33.088 27.0828C33.088 26.9773 33.088 26.5092 33.1091 25.7206L33.2905 19.8714C33.3115 19.2557 33.3284 18.6147 33.3284 18.5936C33.3284 18.1255 33.2694 17.8303 33.0459 17.6152C32.9236 17.4887 32.7422 17.4043 32.5187 17.379V17.1049L37.5582 17.1133ZM62.1824 17.1133L63.8355 22.0179L64.8055 18.543C64.9067 18.2435 64.9868 18.0327 64.9868 17.8429C64.9868 17.5435 64.8477 17.3959 64.582 17.3959V17.1218H70.0643V17.3959C69.436 17.4381 69.1154 17.8851 69.1154 18.7159V29.5836C69.1154 30.4354 69.4402 30.8824 70.0643 30.9246V31.203H65.3453V30.9246C65.9736 30.8824 66.0369 30.4143 66.0369 29.5836V19.1587L62.9035 28.1455L59.7702 19.2008V29.5793C59.7702 30.4312 59.8334 30.8782 60.4618 30.9204V31.1987H56.932V30.9204C57.5604 30.8782 57.8598 30.4101 57.8598 29.5793V18.7117C57.8598 17.8809 57.5561 17.4338 56.932 17.3917V17.1176L62.1824 17.1133ZM76.1455 21.8535C77.2167 21.8535 77.7016 21.5372 77.8028 20.4323H78.0432L78.5071 25.2567H78.2667C77.9842 23.7259 77.2377 23.4686 75.7997 23.4686H75.2768V27.7111C75.2768 29.1154 75.2978 29.6552 76.6726 29.6552C78.4902 29.6552 80.1054 29.4064 81.2356 26.8761L81.4381 26.9394L79.9663 31.5572C79.7048 31.2156 79.1566 31.1945 78.2667 31.1945H71.165V30.9162C71.7934 30.874 72.1139 30.4059 72.1139 29.5751V18.7117C72.1139 17.8809 71.7891 17.4338 71.165 17.3917V17.1176H78.6716C79.1776 17.1176 79.5192 17.0332 79.7638 16.7549L80.5525 21.0733L80.291 21.1154C79.7638 19.0743 78.3342 18.4249 76.5335 18.4249C75.3611 18.4249 75.281 19.5804 75.281 20.6431V21.8535H76.1455ZM83.2599 17.088H91.884C92.3817 17.088 92.7317 17.0627 93.0311 16.6663L93.8788 21.845L93.6046 21.9251C92.9552 19.5593 91.4834 18.9056 89.5351 18.8255V32.4639C89.5351 33.5182 89.9104 34.0664 90.6821 34.1212V34.4628H84.4491V34.1212C85.2251 34.0706 85.6215 33.4929 85.6215 32.4639V18.8255C83.6732 18.9056 82.1761 19.5593 81.5266 21.9251L81.2525 21.845L82.1002 16.6663C82.4122 17.0332 82.7623 17.088 83.2599 17.088Z" /> <path fill-rule="evenodd" clip-rule="evenodd" d="M61.8956 32.5946C61.3474 32.7464 60.9383 32.8392 59.8165 32.7928C57.573 32.7 56.6283 31.0427 55.8397 29.0986C54.9415 26.8761 54.3005 24.5398 52.9383 22.6252C54.5957 21.7311 55.4981 20.6726 55.4981 19.2894C55.4981 17.8007 54.4481 17.1218 52.3437 17.1218H44.3437V17.3959C44.972 17.4381 45.2926 17.8851 45.2926 18.7159V29.5835C45.2926 30.4143 44.9678 30.8824 44.3437 30.9246V31.2029H49.3832V30.9246C48.7549 30.8824 48.4554 30.4354 48.4554 29.5835V24.2615C48.8392 24.1771 49.7965 24.0928 50.117 23.941C50.9183 25.3411 51.4033 26.5514 51.8292 27.5973C52.8287 30.0432 53.9715 33.8935 59.8545 33.4718C60.5883 33.4212 61.5245 33.1091 61.98 32.7127L61.8956 32.5946ZM48.4597 22.8571V19.7744C48.4597 18.796 49.438 18.4122 50.4249 18.4122C51.3737 18.4122 51.9009 18.9436 51.9009 19.9009C51.9009 21.242 50.2773 22.3469 48.4597 22.8571Z" /> <path fill-rule="evenodd" clip-rule="evenodd" d="M0.274117 38.6336V11.1081H0V38.6294L0.274117 38.6336ZM96.1265 38.6632V11.0828H95.8524V38.6632H96.1265Z" /> </g> </svg>