<svg fill="currentColor" aria-label="Haier" role="img" width="103" height="32" viewBox="0 0 103 32" xmlns="http://www.w3.org/2000/svg"> <path d="M89.0875 21.4375C89.125 21.0375 89.1625 20.6375 89.1625 20.2375C89.1625 14.0875 84.0625 9.1 77.775 9.1C71.4875 9.1 66.3875 14.0875 66.3875 20.2375C66.3875 26.3875 71.4875 31.3625 77.775 31.3625C82.5625 31.3625 86.65 28.4875 88.3375 24.4L83.425 23.5375C82.3375 25.525 80.275 26.8625 77.925 26.8625C74.8 26.8625 72.225 24.5125 71.7 21.4375H89.0875ZM77.925 13.725C80.5875 13.725 82.8625 15.4375 83.8 17.875H72.05C72.975 15.4375 75.25 13.725 77.925 13.725Z" /> <path d="M63.325 9.575H57.5125V30.975H63.325V9.575Z" /> <path d="M60.4125 0.849998C58.6125 0.849998 57.1625 2.3125 57.1625 4.1C57.1625 5.8875 58.6125 7.3375 60.4125 7.3375C62.2 7.3375 63.65 5.8875 63.65 4.1C63.6625 2.3 62.2 0.849998 60.4125 0.849998Z" /> <path d="M21.925 2.7125V14.225H9.38751V2.7125H3.03751V30.95H9.38751V19.425H21.925V30.95H28.2875V2.7125H21.925Z" /> <path d="M48.1625 9.575V10.725C46.475 9.7 44.5 9.1125 42.375 9.1125C36.2125 9.1125 31.2125 14.0875 31.2125 20.2375C31.2125 26.3875 36.2125 31.3625 42.375 31.3625C44.4375 31.3625 46.375 30.8 48.0375 29.825V30.9375H53.7125V9.575H48.1625ZM42.65 26.675C39.05 26.675 36.15 23.8 36.15 20.2375C36.15 16.675 39.0625 13.8 42.65 13.8C46.25 13.8 49.1625 16.675 49.1625 20.2375C49.1625 23.8 46.25 26.675 42.65 26.675Z" /> <path d="M101.175 7.5875C95.825 8.525 91.75 13.175 91.6875 18.8V30.975H97.25V18.575C97.25 15.7375 99.3875 13.3875 102.125 13.05L101.175 7.5875Z" /> </svg>