<svg fill="currentColor" aria-label="Havas" role="img" width="152" height="32" viewBox="0 0 152 32" xmlns="http://www.w3.org/2000/svg"> <g> <path d="M23.68 9.67112L4.76444 18.56V0.568893H0V31.36H4.76444V23.5378L23.68 14.6489V31.4311H28.4444V0.568893H23.68V9.67112Z" /> <path d="M128.356 9.31556C128.498 6.68444 132.764 4.69333 137.244 4.69333C141.724 4.69333 146.133 6.75556 146.133 9.45778H151.111C151.111 3.76889 144.853 0 137.316 0C129.707 0 123.52 3.69778 123.52 9.45778V12.0889L146.489 22.9689C146.062 25.4578 141.796 27.3067 137.458 27.3067C132.907 27.3067 128.427 25.2444 128.427 22.5422H123.449C123.449 28.2311 129.849 32 137.458 32C145.067 32 151.467 28.3022 151.467 22.5422V20.1244L128.356 9.31556Z" /> <path d="M88.6755 0.568893L76.9422 28.4445L65.2089 0.568893H60.0178L73.0311 31.36H80.8533L93.8666 0.568893H88.6755Z" /> <path d="M65.1378 31.4311L52.1244 0.568893H44.3022L31.2889 31.4311H36.48L37.5467 28.9422L55.3955 20.5511L59.9467 31.4311H65.1378ZM48.2133 3.55556L53.6178 16.3556L40.1778 22.6844L48.2133 3.55556Z" /> <path d="M122.596 31.4311L109.653 0.568893H101.831L88.8178 31.36H94.0089L95.0756 28.8711L112.924 20.48L117.476 31.36H122.596V31.4311ZM105.742 3.55556L111.147 16.3556L97.7067 22.6844L105.742 3.55556Z" /> </g> </svg>