<svg fill="currentColor" aria-label="Hewlett-Packard" role="img" width="50" height="50" viewBox="0 0 50 50" fill="none" xmlns="http://www.w3.org/2000/svg"> <g> <path d="M25.07 0L19.69 15.08H23.345C25.98 15.08 27.1 17.16 26.27 19.485L20.92 34.48H15.54L21.425 17.98H18.655L12.77 34.48H7.345L19.415 0.625C8.3 3.16 0 13.11 0 25C0 36.7 8.04 46.525 18.9 49.25L31.1 15H39.935C41.76 15 44.06 16.23 43.065 19.035L38.105 33.04C37.47 34.83 35.965 35.19 34.765 35.19H29.335L24.065 49.98C24.375 49.99 24.685 50 25 50C38.805 50 50 38.81 50 25C50 11.215 38.845 0.035 25.07 0ZM35.475 17.94L30.355 32.325H33.085L38.21 17.945H35.475V17.94Z"/> </g> </svg>