<svg fill="currentColor" aria-label="Île-de-France Mobilités" role="img" width="172" height="40" viewBox="0 0 172 40" xmlns="http://www.w3.org/2000/svg"> <path d="M162.026 4.20654H144.355C140.633 4.20654 137.615 7.22362 137.615 10.946V28.9365C137.615 32.6588 140.633 35.6759 144.355 35.6759H162.026C165.749 35.6759 168.766 32.6588 168.766 28.9365V10.946C168.766 7.22362 165.749 4.20654 162.026 4.20654ZM150.784 9.72012C151.567 8.02686 153.289 7.15644 154.618 7.77497C155.947 8.3907 156.392 10.2631 155.609 11.9535C154.825 13.644 153.104 14.5144 151.774 13.8987C150.445 13.2802 150 11.4106 150.784 9.72012ZM144.209 20.2239C144.797 19.4794 145.553 18.6958 146.401 18.2536C148.813 17.0081 151.187 15.8102 153.966 15.7375C156.966 15.6591 159.3 14.7243 161.934 13.3641C162.743 12.9443 161.92 14.1674 161.802 14.3241C161.215 15.0686 160.459 15.8522 159.611 16.2944C157.198 17.5399 154.839 18.7322 152.06 18.8049C149.06 18.8833 146.711 19.8237 144.078 21.1839C143.269 21.6037 144.092 20.3806 144.209 20.2239ZM163.543 32.3762C162.214 32.3762 160.162 32.5553 159.001 31.7772C157.115 30.5122 153.694 22.0067 150.456 24.2905C149.577 24.9062 148.945 26.3672 148.352 27.2292C147.719 28.1416 147.087 29.054 146.454 29.9692C145.9 30.7809 145.15 31.5449 144.324 32.0935C143.717 32.5021 143.473 32.2894 143.899 31.6681C145.693 29.0764 147.347 26.1153 149.591 23.8931C151.024 22.4825 153.426 19.9552 155.606 21.2958C157.464 22.4265 158.536 24.1981 159.737 25.9306C160.05 26.384 160.381 26.9829 160.764 27.5399L164.221 32.3762H163.543Z" /> <path d="M11.9368 9.05682H7.72742V21.9256H11.9368V9.05682Z" /> <path d="M11.7213 3.97705H7.95411L5.17773 7.66583H8.35154L9.83209 5.6787L11.3238 7.66583H13.9939V6.99412L11.7213 3.97705Z" /> <path d="M13.9938 4.22614V6.99412V7.66582V21.9255H18.2144V4.22614H13.9938Z" /> <path d="M23.5292 14.1674H28.7685C28.6902 12.7232 27.6714 11.5393 26.2692 11.5393C24.7859 11.5393 23.7895 12.6057 23.5404 14.1674H23.5292ZM23.5292 16.5183C23.6076 18.2788 24.6152 19.443 26.4064 19.443C27.4139 19.443 28.4131 18.9701 28.8077 18.0297H32.7512C31.9815 21.0048 29.2219 22.2978 26.356 22.2978C22.1662 22.2978 19.3199 19.7677 19.3199 15.4576C19.3199 11.5141 22.4713 8.68738 26.258 8.68738C30.8732 8.68738 33.1766 12.1551 32.9779 16.5239H23.5292V16.5183Z" /> <path d="M38.5139 20.6913C40.7473 20.6913 41.6065 18.7741 41.6065 16.8766C41.6065 14.8811 40.7081 13.0507 38.4243 13.0507C36.1601 13.0507 35.3904 14.979 35.3904 16.9549C35.3904 18.8525 36.37 20.6801 38.5139 20.6801M43.2074 21.9144H41.5477V20.5514H41.5085C40.9656 21.6569 39.6698 22.1523 38.2872 22.1523C35.1749 22.1523 33.6328 19.6809 33.6328 16.8346C33.6328 13.9799 35.1553 11.5757 38.248 11.5757C39.2751 11.5757 40.7669 11.9619 41.5085 13.157H41.5477V7.9597H43.2074V21.9144Z" /> <path d="M46.0034 15.9054H51.8052C51.7269 14.3241 50.5402 13.0591 48.8889 13.0591C47.1509 13.0619 46.1125 14.3661 46.0034 15.9054ZM53.4061 18.7238C52.9611 20.9488 51.3518 22.1634 49.0876 22.1634C45.855 22.1634 44.3353 19.9384 44.2346 16.8458C44.2346 13.8119 46.2301 11.5869 48.9869 11.5869C52.5637 11.5869 53.6608 14.9286 53.5629 17.3776H46.0034C45.9446 19.138 46.941 20.6969 49.1464 20.6969C50.5206 20.6969 51.4694 20.0252 51.766 18.721L53.4061 18.7238Z" /> <path d="M54.6404 21.9255V4.22614H67.6882V7.91211H59.2583V11.5393H66.5407V15.1049H59.2583V21.9255H54.6404Z" /> <path d="M68.5278 9.05681H72.6196V11.3098H72.67C73.2913 9.66974 74.7243 8.81052 76.5435 8.81052C76.8598 8.81052 77.2068 8.8413 77.5315 8.91967V12.754C76.9885 12.6056 76.4931 12.5077 75.9194 12.5077C73.8427 12.5077 72.7484 13.9519 72.7484 15.5611V21.9367H68.539" /> <path d="M82.9751 19.6921C84.9818 19.6921 85.6535 18.5558 85.5556 15.897C84.9622 16.2636 83.8651 16.342 82.9555 16.5883C82.0179 16.8066 81.2175 17.2096 81.2175 18.2284C81.2175 19.2667 82.0263 19.6921 82.9751 19.6921ZM77.5203 13.0199C77.5987 11.3406 78.3907 10.2435 79.527 9.57179C80.6633 8.92807 82.1551 8.68178 83.6188 8.68178C86.6639 8.68178 89.6166 9.35348 89.6166 13.0003V18.623C89.6166 19.7089 89.6166 20.9068 90.112 21.9228H85.8718C85.7235 21.5169 85.6731 21.1335 85.6255 20.7081C84.5396 21.8444 82.9275 22.2894 81.3854 22.2894C78.9337 22.2894 76.9969 21.0551 76.9969 18.3963C76.9969 14.2065 81.5617 14.5312 84.4781 13.9379C85.2001 13.7895 85.5948 13.5432 85.5948 12.7512C85.5948 11.7828 84.4389 11.4162 83.5685 11.4162C82.4014 11.4162 81.6597 11.9395 81.4638 13.0283H77.5203V13.0199Z" /> <path d="M91.1587 9.05681H95.2505V10.8172H95.3009C96.0705 9.50182 97.8002 8.68178 99.3339 8.68178C103.624 8.68178 103.969 11.8052 103.969 13.6636V21.9144H99.7593V15.6899C99.7593 13.9295 99.958 12.1411 97.6434 12.1411C96.0621 12.1411 95.3596 13.4761 95.3596 14.8894V21.906H91.1391" /> <path d="M113.918 13.7727C113.888 12.6868 112.919 11.9144 111.864 11.9144C109.513 11.9144 109.135 13.9211 109.135 15.7095C109.135 17.3692 109.857 19.0792 111.635 19.0792C113.087 19.0792 113.837 18.2396 114.036 16.8766H118.128C117.753 20.3163 115.074 22.3034 111.654 22.3034C107.789 22.3034 104.915 19.6557 104.915 15.7123C104.915 11.6205 107.523 8.69577 111.654 8.69577C114.856 8.69577 117.713 10.3862 118.01 13.7755" /> <path d="M122.597 14.1674H127.825C127.755 12.7232 126.739 11.5393 125.326 11.5393C123.832 11.5393 122.844 12.6057 122.597 14.1674ZM122.597 16.5183C122.676 18.2788 123.683 19.443 125.474 19.443C126.493 19.443 127.481 18.9701 127.876 18.0297H131.819C131.05 21.0048 128.29 22.2978 125.416 22.2978C121.226 22.2978 118.38 19.7677 118.38 15.4576C118.38 11.5141 121.531 8.68738 125.318 8.68738C129.933 8.68738 132.236 12.1551 132.038 16.5239H122.586L122.597 16.5183Z" /> <path d="M77.0837 28.3767V29.6669H77.1285C77.3748 29.1912 77.6995 28.8217 78.1025 28.553C78.5027 28.2872 79.0177 28.1528 79.6418 28.1528C80.1484 28.1528 80.6046 28.276 81.016 28.5251C81.4274 28.7713 81.7017 29.1492 81.8416 29.653C82.0683 29.1492 82.407 28.7713 82.852 28.5251C83.297 28.2788 83.7728 28.1528 84.2794 28.1528C85.9726 28.1528 86.8206 29.0484 86.8206 30.8396V36.0341H85.8859V30.8844C85.8859 30.2519 85.7515 29.7677 85.4856 29.4375C85.2169 29.1072 84.7468 28.9393 84.0751 28.9393C83.6692 28.9393 83.3334 29.0148 83.0647 29.1688C82.796 29.3227 82.5833 29.527 82.4266 29.7845C82.2671 30.042 82.1579 30.3359 82.0935 30.6689C82.0292 30.9992 81.9956 31.3434 81.9956 31.7017V36.0341H81.0608V30.8396C81.0608 30.5821 81.0328 30.3387 80.9796 30.1064C80.9264 29.8741 80.8369 29.6697 80.7109 29.499C80.5878 29.3255 80.4199 29.1912 80.2128 29.0904C80.0056 28.9924 79.751 28.9421 79.4543 28.9421C79.0569 28.9421 78.7126 29.0148 78.4215 29.1576C78.1305 29.3003 77.8926 29.499 77.7079 29.7509C77.5231 30.0028 77.3888 30.2995 77.2992 30.6409C77.2097 30.9824 77.1649 31.3546 77.1649 31.7604V36.0341H76.2301V28.3767H77.0837Z" /> <path d="M93.3921 28.4803C93.8427 28.6986 94.2206 28.9896 94.5284 29.3563C94.8363 29.7229 95.0686 30.1511 95.2281 30.6409C95.3876 31.1307 95.466 31.6541 95.466 32.2054C95.466 32.7596 95.3876 33.2802 95.2281 33.7699C95.0686 34.2597 94.8363 34.6879 94.5284 35.0546C94.2206 35.4212 93.8427 35.7095 93.3921 35.9222C92.9415 36.1349 92.4238 36.2413 91.8388 36.2413C91.2539 36.2413 90.7361 36.1349 90.2855 35.9222C89.8349 35.7095 89.4571 35.4212 89.1492 35.0546C88.8413 34.6879 88.609 34.2597 88.4495 33.7699C88.29 33.2802 88.2116 32.7596 88.2116 32.2054C88.2116 31.6513 88.29 31.1307 88.4495 30.6409C88.609 30.1511 88.8413 29.7229 89.1492 29.3563C89.4571 28.9896 89.8349 28.6986 90.2855 28.4803C90.7361 28.262 91.2539 28.1528 91.8388 28.1528C92.4238 28.1556 92.9415 28.2648 93.3921 28.4803ZM90.6633 29.2219C90.3275 29.4095 90.0476 29.6586 89.8237 29.9636C89.5998 30.2715 89.4319 30.6185 89.3171 31.0104C89.2024 31.4022 89.1464 31.7996 89.1464 32.2054C89.1464 32.6113 89.2024 33.0087 89.3171 33.4005C89.4319 33.7923 89.5998 34.1394 89.8237 34.4472C90.0476 34.7551 90.3275 35.0014 90.6633 35.1889C90.9992 35.3764 91.391 35.4716 91.836 35.4716C92.281 35.4716 92.6728 35.3764 93.0087 35.1889C93.3445 35.0014 93.6244 34.7523 93.8483 34.4472C94.0722 34.1394 94.2402 33.7923 94.3549 33.4005C94.4697 33.0087 94.5256 32.6113 94.5256 32.2054C94.5256 31.7996 94.4697 31.4022 94.3549 31.0104C94.2402 30.6185 94.0722 30.2715 93.8483 29.9636C93.6244 29.6558 93.3445 29.4095 93.0087 29.2219C92.6728 29.0344 92.281 28.9393 91.836 28.9393C91.391 28.9393 91.002 29.0344 90.6633 29.2219Z" /> <path d="M97.7974 25.438V29.8321H97.8282C97.9261 29.555 98.0689 29.3115 98.2508 29.1044C98.4327 28.8973 98.6454 28.721 98.8833 28.5782C99.1212 28.4355 99.3787 28.3291 99.6558 28.2592C99.9328 28.1892 100.21 28.1556 100.487 28.1556C101.072 28.1556 101.579 28.2648 102.01 28.4831C102.441 28.7014 102.799 28.9953 103.087 29.3675C103.375 29.7397 103.588 30.1679 103.725 30.6577C103.865 31.1475 103.932 31.6653 103.932 32.2082C103.932 32.7512 103.862 33.269 103.725 33.7588C103.585 34.2485 103.373 34.6796 103.087 35.049C102.799 35.4212 102.441 35.7123 102.01 35.925C101.579 36.1377 101.072 36.2441 100.487 36.2441C99.8629 36.2441 99.3059 36.1013 98.8161 35.8131C98.3264 35.5276 97.9709 35.1162 97.7526 34.5816H97.7218V36.037H96.8598V25.438H97.7974ZM102.858 31.0272C102.762 30.6353 102.614 30.2883 102.413 29.9804C102.208 29.6726 101.951 29.4235 101.632 29.2304C101.315 29.0372 100.932 28.9421 100.487 28.9421C99.9916 28.9421 99.5718 29.0372 99.2304 29.2304C98.8889 29.4235 98.6118 29.6726 98.3991 29.9804C98.1864 30.2883 98.0325 30.6353 97.9373 31.0272C97.8422 31.419 97.7974 31.8108 97.7974 32.2082C97.7974 32.6029 97.845 32.9975 97.9373 33.3893C98.0325 33.7811 98.1836 34.1282 98.3991 34.4361C98.6118 34.7439 98.8889 34.993 99.2304 35.1861C99.5718 35.3792 99.9916 35.4744 100.487 35.4744C100.932 35.4744 101.313 35.3792 101.632 35.1861C101.948 34.993 102.208 34.7439 102.413 34.4361C102.617 34.1282 102.765 33.7811 102.858 33.3893C102.953 32.9975 102.998 32.6057 102.998 32.2082C102.998 31.8108 102.95 31.4162 102.858 31.0272Z" /> <path d="M106.342 25.438V26.9382H105.407V25.438H106.342ZM106.342 28.3767V36.0342H105.407V28.3767H106.342Z" /> <path d="M109.09 25.438V36.0342H108.156V25.438H109.09Z" /> <path d="M111.839 25.438V26.9382H110.904V25.438H111.839ZM111.839 28.3767V36.0342H110.904V28.3767H111.839Z" /> <path d="M116.684 28.3767V29.1632H115.125V34.3269C115.125 34.6348 115.167 34.8727 115.251 35.0462C115.334 35.2197 115.544 35.3149 115.883 35.3345C116.152 35.3345 116.418 35.3205 116.686 35.2897V36.0761C116.546 36.0761 116.409 36.0817 116.269 36.0901C116.129 36.0985 115.992 36.1041 115.852 36.1041C115.228 36.1041 114.792 35.9838 114.545 35.7403C114.296 35.4968 114.179 35.049 114.19 34.3969V29.1632H112.852V28.3767H114.19V26.0761H115.125V28.3767H116.684Z" /> <path d="M118.727 33.5041C118.822 33.8651 118.973 34.1898 119.18 34.4752C119.387 34.7635 119.65 34.9986 119.966 35.1889C120.283 35.3764 120.666 35.4716 121.111 35.4716C121.794 35.4716 122.329 35.2925 122.715 34.937C123.101 34.5816 123.37 34.1058 123.518 33.5125H124.453C124.254 34.3829 123.89 35.0574 123.361 35.5304C122.832 36.0062 122.079 36.2441 121.111 36.2441C120.507 36.2441 119.983 36.1377 119.544 35.925C119.102 35.7123 118.743 35.4212 118.466 35.049C118.189 34.6767 117.982 34.2485 117.851 33.7587C117.716 33.269 117.649 32.7512 117.649 32.2082C117.649 31.7045 117.716 31.2091 117.851 30.7249C117.985 30.2407 118.189 29.8069 118.466 29.4263C118.743 29.0456 119.102 28.7378 119.544 28.5055C119.983 28.2732 120.507 28.1556 121.111 28.1556C121.724 28.1556 122.25 28.2788 122.687 28.5279C123.123 28.7741 123.476 29.0988 123.75 29.499C124.022 29.8992 124.218 30.361 124.338 30.8788C124.456 31.3994 124.506 31.9256 124.486 32.4601H118.584C118.584 32.796 118.631 33.143 118.727 33.5041ZM123.361 30.6465C123.247 30.3191 123.087 30.0308 122.877 29.7789C122.67 29.527 122.415 29.3227 122.119 29.1716C121.822 29.0176 121.483 28.9421 121.108 28.9421C120.722 28.9421 120.381 29.0176 120.084 29.1716C119.787 29.3255 119.535 29.527 119.326 29.7789C119.118 30.0308 118.95 30.3219 118.827 30.6549C118.704 30.9852 118.62 31.3266 118.581 31.6709H123.543C123.538 31.3154 123.476 30.974 123.361 30.6465ZM120.115 27.3076L121.674 25.2141H122.832L120.87 27.3076H120.115Z" /> <path d="M130.16 29.8685C130.05 29.6558 129.905 29.4794 129.72 29.3423C129.535 29.2052 129.326 29.1016 129.088 29.0372C128.85 28.9729 128.598 28.9421 128.329 28.9421C128.122 28.9421 127.909 28.9645 127.697 29.0092C127.484 29.054 127.288 29.1268 127.109 29.2331C126.93 29.3367 126.787 29.4738 126.678 29.6418C126.569 29.8097 126.516 30.0168 126.516 30.2659C126.516 30.473 126.569 30.6493 126.672 30.7921C126.776 30.9348 126.907 31.0579 127.067 31.1559C127.226 31.2539 127.4 31.3378 127.587 31.3994C127.775 31.4638 127.949 31.5169 128.108 31.5561L129.356 31.8388C129.625 31.878 129.888 31.9508 130.151 32.0543C130.414 32.1579 130.647 32.295 130.851 32.4629C131.055 32.6309 131.22 32.838 131.349 33.087C131.478 33.3333 131.542 33.6272 131.542 33.9631C131.542 34.3773 131.447 34.7327 131.259 35.0238C131.072 35.3149 130.831 35.5528 130.537 35.7375C130.246 35.9194 129.916 36.0509 129.549 36.1321C129.183 36.2105 128.822 36.2497 128.463 36.2497C127.562 36.2497 126.832 36.037 126.272 35.6115C125.712 35.1861 125.393 34.5032 125.315 33.5628H126.25C126.289 34.1954 126.518 34.674 126.941 34.9958C127.361 35.3177 127.884 35.4772 128.508 35.4772C128.735 35.4772 128.97 35.452 129.214 35.4016C129.457 35.3513 129.681 35.2673 129.891 35.1497C130.098 35.0322 130.269 34.8811 130.403 34.6963C130.537 34.5144 130.605 34.2877 130.605 34.0218C130.605 33.7951 130.557 33.6048 130.465 33.4509C130.369 33.297 130.244 33.1682 130.087 33.0647C129.927 32.9611 129.748 32.8743 129.544 32.8044C129.34 32.7344 129.135 32.6756 128.928 32.6253L127.725 32.3594C127.417 32.281 127.134 32.1886 126.877 32.0851C126.619 31.9815 126.392 31.8528 126.199 31.6989C126.006 31.5449 125.855 31.3574 125.746 31.1335C125.637 30.9096 125.584 30.6353 125.584 30.3107C125.584 29.9244 125.67 29.5942 125.844 29.3171C126.017 29.04 126.241 28.8189 126.521 28.6482C126.798 28.4803 127.109 28.3571 127.45 28.276C127.792 28.1976 128.13 28.1584 128.469 28.1584C128.855 28.1584 129.214 28.2088 129.547 28.3068C129.88 28.4047 130.171 28.5586 130.423 28.7658C130.675 28.9729 130.876 29.2303 131.024 29.5382C131.173 29.8461 131.257 30.2071 131.276 30.6213H130.339C130.327 30.3303 130.269 30.0812 130.16 29.8685Z" /> </svg>