<svg fill="currentColor" aria-label="Inneov" role="img" width="137" height="32" viewBox="0 0 137 32" xmlns="http://www.w3.org/2000/svg"> <g> <path d="M5.38108 8.02045H0.531971V31.9386H5.38108V8.02045Z" /> <path d="M0 2.94629C0 1.32992 1.32992 0 2.94629 0C4.58312 0 5.89258 1.32992 5.89258 2.94629C5.89258 4.58312 4.56266 5.89258 2.94629 5.89258C1.32992 5.89258 0 4.58312 0 2.94629Z" /> <path d="M8.12276 31.9386V15.4885C8.12276 15.4885 8.42967 7.69308 19.6215 7.59078C19.6215 7.59078 31.2225 6.95651 31.9591 15.6112L32.0614 32L26.9054 31.9386V16.3478C26.9054 16.3478 27.6419 10.1279 18.7826 10.7621C18.7826 10.7621 13.6266 10.7621 13.1969 15.1816L13.3606 32L8.12276 31.9386Z" /> <path d="M35.11 31.9386V15.4885C35.11 15.4885 35.4169 7.69308 46.6087 7.59078C46.6087 7.59078 58.2097 6.95651 58.9463 15.6112V31.8363L53.8926 31.9386V16.3478C53.8926 16.3478 54.6292 10.1279 45.7698 10.7621C45.7698 10.7621 40.6138 10.7621 40.1841 15.1816L40.2864 31.9386H35.11Z" /> <path d="M79.509 24.2455C79.509 24.2455 79.9386 29.0332 73.1867 28.9514C73.1867 28.9514 66.6599 29.5038 66.1688 24.5934V21.2174L84.6445 21.156V16.4501C84.6445 16.4501 85.5652 7.44757 73.0435 7.44757C73.0435 7.44757 63.1407 6.8133 61.2379 14.1176L61.1765 23.9591C61.1765 23.9591 61.2379 29.7289 68.3376 31.4067C68.3376 31.4067 72.6138 32.3887 77.4015 31.5499C77.4015 31.5499 84.3581 30.1381 84.7059 24.1637L79.509 24.2455ZM66.0256 15.734C66.0256 15.734 66.0256 11.376 70.8747 10.4552C70.8747 10.4552 76.2762 9.61637 78.7519 12.5627C78.7519 12.5627 79.8159 13.4015 79.5908 17.9642H66.087L66.0256 15.734Z" /> <path d="M79.9591 1.00256L65.9233 1.06394C65.9233 1.06394 65.3709 1.12533 65.3709 2.63939C65.3709 2.63939 65.2072 4.66497 65.9847 4.74681L79.8772 4.66497C79.8772 4.66497 80.4911 4.60359 80.5115 3.17136C80.4706 3.17136 80.6547 1.12533 79.9591 1.00256Z" /> <path d="M97.0844 7.65219C97.0844 7.65219 87.5908 8.08185 87.3862 15.9386V23.8773C87.3862 23.8773 87.5908 31.8159 99.6215 31.8159C99.6215 31.8159 110.322 31.9591 111.734 24.798L111.877 16.0205C111.877 16.0205 112.327 6.46549 97.0844 7.65219ZM106.517 24.6547C106.517 24.6547 106.312 28.7673 99.7647 28.7673C99.7647 28.7673 93.0742 29.2992 92.5422 24.6138V15.3862C92.5422 15.3862 92.4399 10.6394 98.7008 10.5985C98.7008 10.5985 106.128 9.69822 106.598 15.1816L106.517 24.6547Z" /> <path d="M117.32 8.36829L111.632 8.22507L119.857 28.665C119.857 28.665 120.982 31.8363 124.276 31.8363C124.276 31.8363 126.957 31.9795 128.348 29.1765L136.143 8.30691L131.99 8.24553L125.872 24.9003C125.872 24.9003 124.685 27.0895 123.621 24.2046L117.32 8.36829Z" /> </g> </svg>