<svg fill="currentColor" aria-label="Jardiland" role="img" width="139" height="40" viewBox="0 0 139 40" xmlns="http://www.w3.org/2000/svg"> <g> <path d="M81.5728 24.8247C81.5728 20.8714 81.5728 16.9182 81.5728 13.0075C81.5728 9.01171 81.5728 5.05846 81.5728 1.06271C81.5728 0.340079 81.4453 0.212555 80.7651 0.212555C79.4049 0.212555 78.0871 0.212555 76.7269 0.212555C75.9192 0.212555 75.7917 0.340079 75.7917 1.14773C75.7917 3.57068 75.7917 5.99364 75.7917 8.37409C75.7917 13.8576 75.7917 19.3411 75.7917 24.7822C75.7917 25.5898 75.9192 25.7173 76.7269 25.7173C78.0446 25.7173 79.3624 25.7173 80.6376 25.7173C81.4878 25.7598 81.5728 25.6748 81.5728 24.8247Z" /> <path d="M46.0786 5.73858C44.4208 5.65356 42.9331 6.12115 41.6578 7.39639C41.6578 7.22636 41.6153 7.14134 41.6153 7.09883C41.6153 6.24867 41.5303 6.16366 40.6801 6.16366C39.3199 6.16366 38.0021 6.16366 36.6419 6.16366C36.0043 6.16366 35.8342 6.33369 35.8342 6.9288C35.8342 12.9649 35.8342 19.0011 35.8342 25.0372C35.8342 25.6323 36.0043 25.8023 36.5994 25.8023C37.9596 25.8023 39.3624 25.8023 40.7226 25.8023C41.4878 25.8023 41.5728 25.6748 41.5728 24.9522C41.5728 21.339 41.5728 17.7258 41.5728 14.1552C41.5728 12.7099 41.7003 12.5399 43.0606 12.0298C43.3581 11.9447 43.6557 11.8172 43.9533 11.8172C44.6759 11.7747 45.356 11.7747 46.0786 11.8172C46.8438 11.8597 46.9713 11.7747 46.9713 11.0096C46.9713 9.5643 46.9713 8.11902 46.9713 6.67375C47.0138 5.8661 46.8863 5.78109 46.0786 5.73858Z"/> <path d="M39.2774 38.6822C38.5547 38.7247 37.8746 38.6822 37.152 38.6822C37.152 38.0871 37.152 37.6195 37.152 37.0669C37.7471 37.0669 38.3422 37.0244 38.8948 37.0669C39.3199 37.0669 39.4474 36.8969 39.4474 36.5143C39.4474 36.0893 39.2774 35.9617 38.8948 35.9617C38.2997 36.0042 37.7046 35.9617 37.152 35.9617C37.152 35.4091 37.152 34.9415 37.152 34.3889C37.9171 34.3889 38.6823 34.3889 39.4474 34.3889C39.915 34.3889 39.8725 34.0914 39.8725 33.8363C39.8725 33.5388 39.83 33.3262 39.4474 33.3262C38.4272 33.3687 37.3645 33.3687 36.3443 33.3262C35.9192 33.3262 35.7917 33.4538 35.7917 33.8788C35.7917 35.6642 35.7917 37.4495 35.7917 39.2348C35.7917 39.7024 35.9618 39.83 36.3868 39.7874C37.3645 39.7449 38.3422 39.7449 39.2774 39.7874C39.7025 39.7874 39.8725 39.7024 39.8725 39.2348C39.8725 38.8098 39.7025 38.6822 39.2774 38.6822Z" /> <path d="M56.238 33.3687C55.7279 33.2837 55.5154 33.5388 55.3879 34.0064C55.0053 35.4516 54.6227 36.9394 54.1977 38.4272C54.1551 38.2572 54.1126 38.0871 54.0701 37.9596C53.6876 36.5994 53.3475 35.1966 52.9224 33.8363C52.8799 33.6663 52.7524 33.4113 52.5823 33.3687C52.2423 33.2837 51.9022 33.3262 51.4771 33.3262C51.5622 33.5813 51.5622 33.7938 51.6472 34.0064C52.0723 35.4941 52.4548 37.0244 52.9224 38.5122C53.39 40.0425 52.9649 39.7449 54.6227 39.7875C55.0053 39.7875 55.1753 39.6599 55.3029 39.2774C55.7705 37.492 56.2805 35.6642 56.7906 33.8788C56.8331 33.7088 56.8331 33.5813 56.8757 33.3262C56.6206 33.3687 56.4081 33.4113 56.238 33.3687Z" /> <path d="M75.3241 37.237C76.2593 36.6844 76.5569 36.0893 76.3868 34.9841C76.2593 34.1339 75.7067 33.5388 74.6865 33.4113C73.9639 33.3263 73.1987 33.3688 72.4336 33.3263C71.966 33.2838 71.8385 33.4963 71.881 33.9214C71.881 35.6217 71.881 37.2795 71.881 38.9798C71.881 39.83 71.881 39.83 72.7311 39.83C73.1562 39.83 73.2837 39.7025 73.2412 39.2774C73.1987 38.7248 73.2412 38.1297 73.2412 37.5771C73.7088 37.407 73.9214 37.5345 74.0914 37.9171C74.2614 38.3422 74.5165 38.7248 74.729 39.1499C75.1116 39.83 75.6642 40 76.5144 39.6599C76.0893 38.8948 75.6642 38.0872 75.1966 37.322C75.2816 37.2795 75.2816 37.237 75.3241 37.237ZM74.8565 36.0468C74.4315 36.5994 73.8364 36.4293 73.2412 36.4293C73.2412 35.7492 73.2412 35.1116 73.2412 34.474C73.8364 34.4315 74.4315 34.3039 74.8565 34.8565C75.1541 35.1966 75.1541 35.6642 74.8565 36.0468Z" /> <path d="M63.6344 35.5791C63.5069 34.1764 62.6993 33.3262 61.3815 33.2412C59.8087 33.1562 58.9586 33.7513 58.6185 35.1966C58.406 36.1743 58.406 37.1519 58.661 38.1296C59.0011 39.3624 59.8087 39.9575 61.084 39.915C62.3167 39.915 63.1669 39.2773 63.4644 38.0871C63.5919 37.577 63.5919 37.0669 63.677 36.5143H63.6344C63.677 36.2168 63.677 35.9192 63.6344 35.5791ZM62.1892 38.0021C62.0617 38.5972 61.7216 38.8098 61.169 38.8098C60.5739 38.8098 60.2338 38.5972 60.1063 38.0446C59.8512 37.1094 59.8512 36.1318 60.1063 35.1966C60.2763 34.6015 60.6164 34.3889 61.169 34.3889C61.6791 34.3889 62.0617 34.644 62.1892 35.1966C62.2742 35.6642 62.3167 36.1317 62.3592 36.5993C62.3167 37.0669 62.2742 37.5345 62.1892 38.0021Z" /> <path d="M32.3486 34.1764C32.3061 34.3464 32.2636 34.5165 32.2211 34.729C31.881 35.9192 31.5834 37.152 31.2009 38.4697C30.7333 36.8544 30.3082 35.3241 29.9256 33.8363C29.8406 33.4963 29.6706 33.3688 29.3305 33.4113C29.0755 33.4538 28.8204 33.4113 28.5229 33.4113C28.5654 33.6238 28.5654 33.7938 28.6079 33.9639C29.033 35.4942 29.458 37.067 29.8831 38.5972C30.3507 40.1275 29.9256 39.83 31.5834 39.8725C31.966 39.8725 32.136 39.745 32.2211 39.4049C32.5611 38.1722 32.9012 36.9394 33.2412 35.6642C33.4538 34.9416 33.6238 34.2189 33.8364 33.5388C32.8587 33.1562 32.6036 33.2837 32.3486 34.1764Z" /> <path d="M63.932 0.212555C62.5292 0.212555 61.1265 0.212555 59.6812 0.212555C59.0436 0.212555 58.8735 0.382587 58.8735 0.977698C58.8735 2.08291 58.8735 3.1456 58.8735 4.25081C58.8735 5.05846 58.8735 5.90862 58.8735 6.8438C57.0032 5.61107 55.0478 5.48354 53.05 5.99364C50.3294 6.71627 48.7566 8.67164 47.9065 11.2221C47.2689 13.1775 47.1413 15.2179 47.2689 17.2583C47.3964 19.0011 47.779 20.6589 48.6291 22.2317C50.2019 25.1647 53.4325 26.695 56.6631 25.9299C57.4283 25.7598 58.1084 25.3773 58.8735 25.0797C58.8735 25.5898 59.2136 25.7598 59.7662 25.7598C61.169 25.7173 62.5717 25.7598 63.932 25.7598C64.5271 25.7598 64.6971 25.5898 64.6971 24.9947C64.6971 16.9607 64.6971 8.9692 64.6971 0.93519C64.6971 0.382587 64.5271 0.212555 63.932 0.212555ZM58.8735 18.8736C58.8735 19.1286 58.746 19.4687 58.576 19.6387C57.3007 21.169 54.9628 20.9139 54.0276 19.1711C53.475 18.1084 53.3475 16.9607 53.39 15.813C53.4325 14.8778 53.56 13.9426 53.8576 13.0925C54.6227 11.0521 57.1307 10.5845 58.491 12.1573C58.7035 12.3698 58.7885 12.7099 58.831 13.0075C58.831 13.475 58.8735 13.9851 58.8735 14.4527C58.8735 14.9203 58.8735 15.4304 58.8735 15.898C58.8735 16.8757 58.9161 17.8534 58.8735 18.8736Z" /> <path d="M45.8661 38.6823C45.0585 38.7248 44.2508 38.6823 43.3156 38.6823C44.2083 37.3645 45.0585 36.2168 45.8661 35.0266C46.0361 34.7715 46.2062 34.559 46.3337 34.3039C46.5462 33.8364 46.4187 33.3688 46.0361 33.3688C44.7609 33.3688 43.4432 33.3688 42.1679 33.3688C42.0829 33.3688 41.9129 33.4113 41.8704 33.4963C41.6153 33.9639 41.9129 34.4315 42.423 34.4315C43.1456 34.4315 43.9107 34.4315 44.7184 34.4315C43.9107 35.5792 43.1456 36.6844 42.423 37.7471C42.2104 38.0872 41.9129 38.3847 41.7853 38.7248C41.6578 38.9798 41.6153 39.3624 41.7003 39.66C41.7003 39.745 42.1254 39.83 42.3805 39.83C43.5707 39.83 44.7184 39.83 45.9086 39.83C46.3337 39.83 46.4612 39.7025 46.4612 39.2774C46.4612 38.8523 46.3337 38.6823 45.8661 38.6823Z" /> <path d="M32.6461 25.7598C33.4538 25.7598 33.5813 25.6323 33.5813 24.8672C33.5813 21.7216 33.5813 18.5335 33.5813 15.3879C33.5813 14.2827 33.5813 13.135 33.4963 12.0298C33.2412 9.43677 31.881 7.60893 29.5005 6.58874C27.5452 5.73858 25.4623 5.65356 23.3369 5.8661C21.7216 6.03613 20.1913 6.50372 18.7885 7.35388C18.1084 7.73645 18.0234 8.03401 18.3635 8.71414C18.831 9.69182 19.2986 10.627 19.7662 11.6047C20.1488 12.4123 20.2763 12.4548 21.084 12.0298C22.4017 11.3071 23.762 10.9246 25.2923 11.0521C27.1626 11.2221 28.1403 12.3698 27.7152 13.9851C26.9076 13.8151 26.0574 13.56 25.2497 13.475C24.3996 13.39 23.5069 13.39 22.6568 13.475C19.3836 13.8151 16.8332 15.7705 16.6206 19.2561C16.4506 21.5515 17.1307 23.5919 19.1711 24.8247C21.9341 26.525 24.8247 26.695 27.7577 25.0372C27.9278 25.7173 28.0128 25.7598 28.7354 25.7598C29.9681 25.7598 31.2859 25.7598 32.6461 25.7598ZM26.3124 21.2115C25.4198 21.6366 24.4421 21.5941 23.4644 21.2965C22.6993 21.0414 22.3167 20.4463 22.3167 19.6387C22.3167 18.7885 22.6993 18.1509 23.4644 17.8959C24.7822 17.4708 26.0999 17.5983 27.3751 18.2359C27.8852 18.491 27.6302 18.9586 27.7152 19.2986C27.8852 20.4038 27.1201 20.8289 26.3124 21.2115Z" /> <path d="M3.65569 34.6015C3.78321 34.644 4.03826 34.559 4.08077 34.474C4.16578 34.1764 4.50585 33.8789 4.03826 33.5813C2.678 32.6887 0.552604 33.4113 0.170032 34.9841C0 35.7917 -0.042508 36.6844 0.042508 37.5346C0.21254 39.5324 1.99787 40.5526 3.86823 39.7025C4.29331 39.4899 4.33581 39.3199 4.12327 38.7673C3.95324 38.3422 3.69819 38.5973 3.48565 38.6823C2.38045 39.1074 1.53029 38.5973 1.44527 37.3645C1.44527 37.1095 1.44527 36.8544 1.44527 36.5994C1.44527 36.4719 1.44527 36.3443 1.44527 36.1743C1.40276 34.559 2.1254 34.0914 3.65569 34.6015Z" /> <path d="M10.8395 33.4113C10.457 33.3687 10.0744 33.3687 9.73434 33.4113C9.64932 33.4113 9.60681 33.7938 9.56431 34.0064C9.56431 35.2391 9.56431 36.4718 9.56431 37.7471C9.56431 38.5972 8.92669 39.0223 8.11903 38.7247C7.60894 38.5122 7.56643 38.0871 7.52392 37.6195C7.48142 36.5143 7.52392 35.4091 7.52392 34.3039C7.52392 33.2837 7.52392 33.2837 6.50373 33.4113C6.37621 33.4113 6.16367 33.6238 6.16367 33.7513C6.16367 35.1966 6.12116 36.5993 6.16367 38.0446C6.20618 38.9373 6.58875 39.6599 7.52392 39.8725C8.07653 40 8.62913 40 9.18173 39.915C10.2869 39.7449 10.797 39.1073 10.8821 38.0021C10.9246 37.322 10.8821 36.6419 10.8821 35.9617C10.8821 35.9617 10.8821 35.9617 10.9246 35.9617C10.9246 35.2816 10.9246 34.559 10.9246 33.8788C10.9246 33.7088 10.8821 33.4113 10.8395 33.4113Z" /> <path d="M70.2657 6.58874C72.051 6.58874 73.4538 5.10096 73.4538 3.31562C73.4538 1.48778 71.966 0 70.2232 0C68.4804 0 66.9501 1.53029 66.9501 3.31562C66.9926 5.10096 68.4804 6.58874 70.2657 6.58874Z" /> <path d="M68.1403 7.65143C67.5026 7.65143 67.3751 7.77895 67.3751 8.41657C67.3751 11.1796 67.3751 13.9426 67.3751 16.6631C67.3751 19.3836 67.3751 22.1891 67.3751 24.9097C67.3751 25.5898 67.5026 25.7173 68.1403 25.7173C69.543 25.7173 70.9458 25.7173 72.3911 25.7173C72.9862 25.7173 73.1562 25.5473 73.1562 24.9522C73.1562 19.4261 73.1562 13.9001 73.1562 8.37406C73.1562 7.77895 72.9862 7.60892 72.3911 7.60892C70.9883 7.65143 69.5855 7.65143 68.1403 7.65143Z" /> <path d="M25.6748 33.3688C25.3347 33.3263 25.1647 33.4963 25.2072 33.8364C25.2072 35.6642 25.2072 37.4921 25.2072 39.3199C25.2072 39.7025 25.3347 39.8725 25.7173 39.83C25.8874 39.83 26.0574 39.8725 26.2274 39.83C26.3549 39.7875 26.525 39.6175 26.525 39.4899C26.525 37.4921 26.525 35.4942 26.525 33.4113C26.1849 33.3688 25.9299 33.3688 25.6748 33.3688Z" /> <path d="M14.7928 9.56431C14.8353 6.75878 14.8353 3.95326 14.8353 1.14773C14.8353 0.297571 14.7503 0.212555 13.9001 0.212555C12.4973 0.212555 11.0946 0.212555 9.73432 0.212555C8.75664 0.212555 8.67162 0.340079 8.67162 1.31776C8.67162 6.24869 8.67162 11.1371 8.67162 16.068C8.67162 16.6206 8.62911 17.1732 8.5441 17.6833C8.24654 19.6387 7.14133 20.4889 5.14346 20.3188C4.12327 20.2338 3.14558 19.8937 2.25292 19.4262C1.6153 19.0861 1.31774 19.2561 1.14771 19.9363C0.807646 21.254 0.51009 22.6143 0.170026 23.932C-5.42021e-06 24.6121 0.0425026 24.7397 0.680122 24.9947C2.7205 25.9299 4.8459 26.2699 7.09883 26.1424C8.96918 26.0149 10.712 25.5473 12.1573 24.2721C14.0276 22.6568 14.7503 20.4463 14.8353 18.1084C14.8778 15.2604 14.7928 12.4123 14.7928 9.56431Z" /> <path d="M22.9543 33.3688C21.6366 33.3688 20.3188 33.3688 18.9586 33.3688C18.5335 33.3688 18.576 33.6238 18.576 33.8789C18.576 34.1339 18.491 34.474 18.9586 34.4315C19.3836 34.4315 19.7662 34.4315 20.2763 34.4315C20.2763 34.6865 20.2763 34.8566 20.2763 35.0691C20.2763 36.3868 20.2763 37.7046 20.2763 38.9798C20.2763 39.8725 20.2763 39.83 21.169 39.83C21.5515 39.83 21.6366 39.66 21.6366 39.3199C21.6366 37.9596 21.6366 36.5994 21.6366 35.2391C21.6366 34.9841 21.6366 34.729 21.6366 34.4315C22.1042 34.4315 22.5292 34.4315 22.9543 34.4315C23.3794 34.4315 23.3369 34.1339 23.3369 33.8789C23.3369 33.5813 23.3369 33.3688 22.9543 33.3688Z" /> <path d="M16.6206 38.6822C15.983 38.7247 15.3029 38.6822 14.5802 38.6822C14.5802 38.4272 14.5802 38.2997 14.5802 38.1721C14.5802 36.7269 14.5802 35.2816 14.5802 33.8363C14.5802 33.4538 14.4527 33.2837 14.0701 33.3687C13.9426 33.3687 13.8151 33.3687 13.7301 33.3687C13.3475 33.3262 13.22 33.4538 13.22 33.8363C13.22 35.6642 13.22 37.492 13.22 39.2774C13.22 39.7024 13.39 39.7874 13.7726 39.7874C14.7078 39.7874 15.6854 39.7449 16.6206 39.7874C17.0457 39.7874 17.1732 39.6174 17.1732 39.1923C17.1732 38.8098 17.0457 38.6822 16.6206 38.6822Z" /> <path d="M69.6281 33.3688C68.3103 33.3688 66.9926 33.3688 65.7173 33.3688C65.3347 33.3688 65.2922 33.5388 65.2922 33.8364C65.2922 34.0914 65.2072 34.4315 65.6748 34.4315C66.0574 34.4315 66.4825 34.4315 66.95 34.4315C66.95 36.0468 66.95 37.6196 66.95 39.1499C66.95 39.83 66.9501 39.7875 67.6302 39.83C68.1403 39.8725 68.3103 39.745 68.3103 39.1924C68.2678 37.8746 68.3103 36.5569 68.3103 35.2816C68.3103 35.0266 68.3103 34.7715 68.3103 34.474C68.7779 34.474 69.203 34.474 69.5855 34.474C70.0106 34.474 70.0106 34.2189 70.0106 33.9214C70.0531 33.6238 70.0531 33.3688 69.6281 33.3688Z" /> <path d="M119.065 24.9097C119.065 21.339 119.107 17.8108 119.065 14.2402C119.065 13.1775 118.937 12.0723 118.725 11.0096C117.79 6.58872 114.644 5.14345 110.946 5.95111C110.053 6.12114 109.245 6.63123 108.353 6.9713C108.268 6.16364 108.183 6.12114 107.29 6.12114C105.972 6.12114 104.655 6.12114 103.294 6.12114C102.657 6.12114 102.487 6.29117 102.487 6.92879C102.487 12.9224 102.487 18.916 102.487 24.9097C102.487 25.5473 102.657 25.7173 103.294 25.7173C104.655 25.7173 106.015 25.7173 107.375 25.7173C108.183 25.7173 108.31 25.5898 108.31 24.7821C108.31 20.9564 108.353 17.1732 108.268 13.3475C108.268 12.4548 108.608 11.9872 109.288 11.6472C109.586 11.5196 109.883 11.3921 110.181 11.3071C111.583 10.967 112.731 11.6472 113.029 13.0499C113.156 13.6876 113.241 14.3252 113.241 14.9628C113.241 18.2784 113.241 21.594 113.241 24.9097C113.241 25.5898 113.369 25.7173 114.091 25.7598C115.452 25.7598 116.854 25.7598 118.215 25.7598C118.98 25.7598 119.065 25.6323 119.065 24.9097Z" /> <path d="M112.986 36.9819C112.561 36.9819 112.179 36.9819 111.753 36.9819C111.413 36.9819 111.201 37.0244 111.201 37.4495C111.201 37.8746 111.371 37.9596 111.753 37.9171C111.923 37.9171 112.094 37.9171 112.264 37.9171C112.519 37.9171 112.731 37.9171 112.986 37.9171C113.326 37.9171 113.369 37.7046 113.369 37.4495C113.369 37.1519 113.369 36.9394 112.986 36.9819Z" /> <path d="M117.492 31.796C116.599 31.7535 116.217 32.051 115.919 32.9862C116.514 33.2837 116.897 32.8587 117.279 32.4336C117.62 32.9012 117.96 33.2412 118.555 32.9862C118.385 32.3911 117.917 31.8385 117.492 31.796Z" /> <path d="M82.0829 38.6823C81.4028 38.6823 80.7226 38.6823 80.0425 38.6823C80.0425 38.0871 80.0425 37.577 80.0425 37.0669C80.6376 37.0669 81.1902 37.0669 81.7003 37.0669C82.0829 37.0669 82.3379 37.0244 82.3379 36.5143C82.3379 36.0468 82.1254 35.9192 81.7428 35.9617C81.1902 36.0042 80.5951 35.9617 80.0425 35.9617C80.0425 35.4091 80.0425 34.9415 80.0425 34.3889C80.8502 34.3889 81.6153 34.3889 82.3804 34.3889C82.8055 34.3889 82.763 34.1339 82.763 33.8363C82.763 33.5388 82.763 33.2837 82.3379 33.3262C81.2327 33.3688 80.17 33.3262 79.0648 33.3262C78.7673 33.3262 78.6397 33.4538 78.6397 33.7513C78.6397 35.6217 78.6397 37.492 78.6397 39.3624C78.6397 39.6599 78.7673 39.7875 79.0648 39.7875C80.17 39.7875 81.2327 39.7875 82.3379 39.7875C82.4655 39.7875 82.678 39.6599 82.7205 39.5749C82.8905 39.0223 82.678 38.7248 82.0829 38.6823Z" /> <path d="M130.925 37.1945C131.817 36.6844 132.072 36.0893 131.902 34.9415C131.817 34.1764 131.307 33.6238 130.372 33.4538C129.607 33.3262 128.799 33.4113 128.034 33.3687C127.609 33.3262 127.439 33.4538 127.439 33.9214C127.481 35.7067 127.481 37.492 127.439 39.2774C127.439 39.7449 127.609 39.8725 128.034 39.83C128.417 39.7875 128.842 39.915 128.799 39.2774C128.757 38.7248 128.799 38.1296 128.799 37.6195C129.224 37.4495 129.437 37.577 129.607 37.9171C129.819 38.3422 130.032 38.7673 130.287 39.1923C130.67 39.8725 131.222 40.085 132.03 39.7024C131.605 38.9373 131.18 38.1722 130.755 37.3645C130.84 37.2795 130.882 37.237 130.925 37.1945ZM130.457 35.9617C130.159 36.5994 129.479 36.4293 128.884 36.4293C128.884 35.7492 128.884 35.1116 128.884 34.4314C129.437 34.3889 130.074 34.2614 130.414 34.814C130.542 35.1116 130.584 35.6642 130.457 35.9617Z" /> <path d="M118.725 38.6823C118.002 38.7248 117.322 38.6823 116.642 38.6823C116.642 38.0872 116.642 37.5771 116.642 37.067C117.279 37.067 117.832 37.067 118.427 37.067C118.852 37.067 118.895 36.8544 118.852 36.5144C118.852 36.2168 118.895 35.9193 118.427 35.9618C117.917 36.0043 117.45 36.0043 116.939 35.9618C116.812 35.9618 116.599 35.8342 116.599 35.7492C116.557 35.3241 116.599 34.8991 116.599 34.4315C116.939 34.4315 117.194 34.4315 117.45 34.4315C117.96 34.4315 118.47 34.4315 118.98 34.4315C119.362 34.4315 119.32 34.1339 119.277 33.9214C119.277 33.7088 119.405 33.3688 119.022 33.3688C117.79 33.3688 116.557 33.3688 115.239 33.3688C115.239 35.4517 115.239 37.4495 115.239 39.4474C115.239 39.83 115.494 39.7875 115.707 39.7875C116.727 39.7875 117.705 39.7875 118.725 39.7875C119.192 39.7875 119.32 39.66 119.32 39.1924C119.277 38.8098 119.15 38.6823 118.725 38.6823Z" /> <path d="M137.726 38.6822C137.003 38.7247 136.323 38.6822 135.558 38.6822C135.558 38.1296 135.558 37.6195 135.558 37.0669C136.196 37.0669 136.748 37.0669 137.343 37.0669C137.768 37.0669 137.853 36.8969 137.853 36.5143C137.853 36.1743 137.811 35.9192 137.386 35.9617C136.876 36.0042 136.408 36.0042 135.898 35.9617C135.77 35.9617 135.558 35.7917 135.558 35.7067C135.515 35.2816 135.558 34.8565 135.558 34.3889C136.366 34.3889 137.088 34.3464 137.811 34.3889C138.278 34.4314 138.278 34.1764 138.278 33.8363C138.278 33.4963 138.236 33.3262 137.811 33.3262C136.791 33.3687 135.728 33.3687 134.708 33.3262C134.325 33.3262 134.198 33.4538 134.198 33.8363C134.198 35.6642 134.198 37.492 134.198 39.2773C134.198 39.6599 134.325 39.7874 134.708 39.7874C135.728 39.7874 136.748 39.7874 137.768 39.7874C138.193 39.7874 138.278 39.6174 138.278 39.2348C138.236 38.8948 138.193 38.6822 137.726 38.6822Z" /> <path d="M101.892 38.6823C101.211 38.6823 100.531 38.6823 99.8937 38.6823C99.8937 38.0871 99.8937 37.577 99.8937 37.067C100.531 37.067 101.126 37.067 101.722 37.067C102.189 37.067 102.104 36.7694 102.147 36.4718C102.147 36.1743 102.147 35.9192 101.722 35.9617C101.126 36.0043 100.531 35.9617 99.8937 35.9617C99.8937 35.4091 99.8937 34.899 99.8937 34.389C100.659 34.389 101.339 34.3464 102.062 34.389C102.529 34.389 102.529 34.1764 102.572 33.8363C102.572 33.4963 102.529 33.2837 102.104 33.3263C101.509 33.3688 100.956 33.3263 100.361 33.3263C99.7662 33.3263 99.1711 33.3263 98.491 33.3263C98.491 35.4091 98.491 37.4495 98.491 39.4474C98.491 39.5749 98.7035 39.745 98.831 39.745C99.9362 39.7875 101.041 39.745 102.147 39.745C102.274 39.745 102.444 39.6599 102.487 39.5324C102.742 39.0648 102.487 38.7248 101.892 38.6823Z" /> <path d="M125.186 33.3688C123.868 33.3688 122.55 33.3688 121.19 33.3688C120.808 33.3688 120.808 33.6238 120.808 33.8789C120.808 34.1339 120.765 34.4315 121.19 34.4315C121.615 34.4315 121.998 34.4315 122.508 34.4315C122.508 34.6865 122.508 34.8991 122.508 35.1116C122.508 36.5144 122.55 37.9171 122.508 39.2774C122.508 39.83 122.806 39.83 123.188 39.83C123.571 39.83 123.868 39.8725 123.868 39.2774C123.826 37.8746 123.868 36.4719 123.868 35.0266C123.868 34.814 123.911 34.644 123.911 34.389C124.378 34.389 124.761 34.389 125.186 34.389C125.611 34.4315 125.611 34.1339 125.611 33.8789C125.569 33.6238 125.654 33.3688 125.186 33.3688Z" /> <path d="M108.82 33.3687C108.395 33.3687 108.183 33.4112 108.183 33.9213C108.225 35.0691 108.183 36.2168 108.183 37.3645C107.588 36.3443 107.035 35.3666 106.61 34.2614C106.312 33.4963 105.887 33.2412 105.08 33.3262C104.655 33.3687 104.57 33.4963 104.57 33.8788C104.57 35.6642 104.612 37.4495 104.57 39.2348C104.57 39.7449 104.782 39.8299 105.207 39.8299C105.632 39.8299 105.845 39.7449 105.845 39.2348C105.802 38.0871 105.845 36.9819 105.845 35.8342C105.887 35.8342 105.887 35.8342 105.93 35.8342C106.482 37.0244 107.078 38.1721 107.63 39.3624C107.8 39.7449 108.013 39.8725 108.395 39.8299C108.565 39.8299 108.693 39.8299 108.863 39.8299C109.288 39.8725 109.416 39.7024 109.416 39.2773C109.416 37.492 109.373 35.7067 109.416 33.9213C109.501 33.3687 109.203 33.3687 108.82 33.3687Z" /> <path d="M91.5622 36.4719C92.4973 36.0043 92.5824 35.2391 92.4123 34.474C92.2848 33.7514 91.6897 33.4963 91.0521 33.4538C90.1594 33.3688 89.2667 33.4538 88.204 33.4538C88.204 35.4942 88.204 37.4921 88.204 39.4899C88.204 39.6175 88.4166 39.83 88.5441 39.83C89.5218 39.7875 90.4995 39.83 91.4772 39.66C92.2848 39.5324 92.5824 38.9798 92.6249 38.1722C92.6674 37.3645 92.3698 36.8119 91.5622 36.4719ZM89.5218 34.3465C90.0744 34.3465 90.6695 34.1764 90.9671 34.729C91.0946 34.9841 91.0946 35.4517 90.9245 35.6642C90.627 36.1743 90.0319 36.0043 89.5218 36.0043C89.5218 35.4517 89.5218 34.8991 89.5218 34.3465ZM89.5643 38.7248C89.5643 38.1722 89.5643 37.5771 89.5643 36.982C90.9245 36.8969 91.3071 37.152 91.3071 37.9171C91.2646 38.6398 90.797 38.8523 89.5643 38.7248Z" /> <path d="M137.471 0.212555C136.068 0.212555 134.665 0.212555 133.305 0.212555C132.625 0.212555 132.455 0.340079 132.455 1.06271C132.455 2.80554 132.455 4.54837 132.455 6.24869C132.455 6.41872 132.455 6.58875 132.412 6.80129C130.457 5.52605 128.544 5.56856 127.056 5.86612C124.251 6.46123 122.508 8.28907 121.53 10.9246C120.85 12.8374 120.638 14.8353 120.765 16.8332C120.85 18.661 121.233 20.4038 122.04 22.0191C124.166 26.3124 129.394 27.0351 132.37 24.9097C132.37 25.5898 132.752 25.7173 133.305 25.7173C134.665 25.6748 136.068 25.7173 137.428 25.7173C138.023 25.7173 138.193 25.5473 138.193 24.9522C138.193 16.9607 138.193 8.92669 138.193 0.93519C138.278 0.382587 138.108 0.212555 137.471 0.212555ZM132.455 17.3858C132.455 17.8959 132.455 18.3635 132.455 18.8736C132.455 19.1286 132.327 19.4687 132.157 19.6387C130.882 21.2115 128.502 20.9139 127.566 19.1286C127.014 18.0234 126.886 16.7907 126.971 15.5579C127.056 14.6228 127.184 13.6876 127.566 12.8374C128.374 10.9671 130.755 10.627 132.115 12.1573C132.327 12.3698 132.455 12.7099 132.455 13.0075C132.455 13.475 132.497 13.9851 132.497 14.4527C132.497 14.9203 132.497 15.4304 132.497 15.898C132.455 16.4081 132.455 16.8757 132.455 17.3858Z" /> <path d="M96.1105 36.5994C96.1105 35.6642 96.1105 34.7715 96.1105 33.8364C96.1105 33.7088 96.068 33.4538 96.068 33.4538C95.6855 33.4113 95.3454 33.3688 94.9628 33.4113C94.8778 33.4113 94.7928 33.7513 94.7928 33.9214C94.7928 35.6217 94.7928 37.322 94.7928 39.0223C94.7928 39.8725 94.7928 39.83 95.6429 39.8725C96.068 39.8725 96.153 39.745 96.153 39.3199C96.068 38.3847 96.1105 37.492 96.1105 36.5994Z" /> <path d="M99.4261 25.7598C100.064 25.7598 100.234 25.6323 100.234 24.9947C100.234 20.9989 100.234 16.9607 100.234 12.9649C100.234 9.60679 98.491 7.26886 95.4304 6.29117C93.6876 5.73857 91.8597 5.61104 90.0319 5.82358C88.3741 6.03612 86.8013 6.4612 85.356 7.35387C84.7184 7.73644 84.6334 8.07651 84.9734 8.71413C85.441 9.6493 85.9086 10.5845 86.3337 11.5622C86.7588 12.4123 86.8438 12.4548 87.7364 12.0297C89.0542 11.3496 90.4144 10.9245 91.9022 11.0946C92.8374 11.1796 93.7726 11.4346 94.1977 12.3698C94.4527 12.8799 94.4102 13.5175 94.5377 14.1977C94.2827 14.1126 94.1977 14.0701 94.1126 14.0701C91.7747 13.1775 89.4368 13.1775 87.0988 14.0276C82.2529 15.813 82.2954 21.9766 85.0159 24.3146C86.8438 25.8448 88.9692 26.3124 91.2646 26.1424C92.4123 26.0574 93.475 25.6748 94.4102 24.9522C94.4527 25.7173 94.5802 25.8023 95.3029 25.8023C96.6631 25.7598 98.0234 25.7598 99.4261 25.7598ZM93.9851 20.5739C93.2625 21.254 92.4123 21.5515 91.4346 21.5515C91.0946 21.5515 90.797 21.509 90.457 21.424C89.4793 21.2115 88.9692 20.6164 89.0117 19.6387C89.0117 18.6185 89.4793 18.0234 90.4995 17.8108C90.882 17.7258 91.2646 17.7258 91.6472 17.6833C92.4973 17.7258 93.3475 17.8533 94.0701 18.3209C94.2402 18.4059 94.3677 18.661 94.3677 18.831C94.4102 19.4261 94.5802 20.0212 93.9851 20.5739Z" /> </g> </svg>