<svg fill="currentColor" aria-label="Kenzo" role="img" width="90" height="40" viewBox="0 0 90 40" xmlns="http://www.w3.org/2000/svg"> <g> <path d="M49.517 28.9267H45.9034C45.8497 28.9267 45.814 28.9624 45.814 29.0161V30.9839C45.814 31.0376 45.8497 31.0733 45.9034 31.0733H49.1413C49.678 31.0733 50.0358 31.0018 50.2147 30.8766C50.3936 30.7513 50.483 30.4293 50.483 29.9284C50.483 29.5528 50.4115 29.3023 50.2683 29.1413C50.1431 28.9982 49.8927 28.9267 49.517 28.9267Z" /> <path d="M84.2755 0H5.42039C2.43292 0 0 2.43292 0 5.42039V34.5796C0 37.585 2.43292 40 5.42039 40H84.2755C87.2809 40 89.6959 37.5671 89.6959 34.5796V5.42039C89.7138 2.43292 87.2809 0 84.2755 0ZM26.5653 14.4723C26.5653 14.3649 26.6547 14.2934 26.7442 14.2934H32.737C32.8444 14.2934 32.9159 14.3828 32.9159 14.4723V17.8354C32.9159 17.9428 32.8265 18.0143 32.737 18.0143H26.7442C26.6369 18.0143 26.5653 17.9249 26.5653 17.8354V14.4723ZM7.13775 7.88909C7.13775 7.78175 7.22719 7.7102 7.31664 7.7102H10.6798C10.7871 7.7102 10.8587 7.79964 10.8587 7.88909V24.4723C10.8587 24.5796 10.7692 24.6512 10.6798 24.6512H7.31664C7.2093 24.6512 7.13775 24.5796 7.13775 24.4723V7.88909ZM13.3631 30.805C13.3274 31.0555 13.2379 31.2343 13.0948 31.3775C12.9696 31.5206 12.7907 31.61 12.6118 31.6816C12.415 31.7531 12.1288 31.771 11.7352 31.771H7.92487C7.8712 31.771 7.81753 31.8068 7.81753 31.8784V33.864C7.81753 33.9177 7.78175 33.9714 7.7102 33.9714H7.22719C7.17352 33.9714 7.11986 33.9356 7.11986 33.864V28.4794C7.11986 28.4258 7.15564 28.3721 7.22719 28.3721H11.7531C12.3614 28.3721 12.7907 28.4794 13.0411 28.712C13.2916 28.9445 13.4168 29.356 13.4168 29.9642C13.4168 30.2862 13.3989 30.5724 13.3631 30.805ZM20.8945 22.8265L18.5152 25.2057C18.4437 25.2773 18.3363 25.2773 18.2648 25.2057L11.5564 18.4973C11.4848 18.4258 11.4848 18.3184 11.5564 18.2469L13.6315 16.1717L11.5564 14.0966C11.4848 14.025 11.4848 13.9177 11.5564 13.8462L18.2469 7.15563C18.3184 7.08408 18.4258 7.08408 18.4973 7.15563L20.8766 9.53488C20.9481 9.60644 20.9481 9.71377 20.8766 9.78533L14.5081 16.1717L20.9123 22.576C20.966 22.6476 20.966 22.7549 20.8945 22.8265ZM22.2004 24.4723V7.88909C22.2004 7.78175 22.2898 7.7102 22.3792 7.7102H25.7424C25.8497 7.7102 25.9213 7.79964 25.9213 7.88909V24.4723C25.9213 24.5796 25.8318 24.6512 25.7424 24.6512H22.3792C22.2719 24.6512 22.2004 24.5617 22.2004 24.4723ZM33.1306 33.9535H32.5939C32.5581 33.9535 32.5224 33.9356 32.5045 33.8998L31.8247 32.737C31.8068 32.7013 31.771 32.6834 31.7352 32.6834H26.8694C26.8336 32.6834 26.7979 32.7013 26.78 32.737L26.1002 33.8998C26.0823 33.9356 26.0465 33.9535 26.0107 33.9535H25.4562C25.3846 33.9535 25.3309 33.864 25.3667 33.8104L28.551 28.4258C28.5689 28.39 28.6047 28.3721 28.6404 28.3721H29.9106C29.9463 28.3721 29.9821 28.39 30 28.4258L33.2021 33.8104C33.2558 33.8819 33.2021 33.9535 33.1306 33.9535ZM34.1682 24.4723C34.1682 24.5796 34.0787 24.6512 33.9893 24.6512H26.7621C26.6547 24.6512 26.5832 24.5796 26.5832 24.4723V21.0912C26.5832 20.9839 26.6726 20.9123 26.7621 20.9123H33.9893C34.0966 20.9123 34.1682 21.0018 34.1682 21.0912V24.4723ZM34.1682 11.2522C34.1682 11.3596 34.0787 11.4311 33.9893 11.4311H26.7621C26.6547 11.4311 26.5832 11.3596 26.5832 11.2522V7.88909C26.5832 7.78175 26.6726 7.7102 26.7621 7.7102H33.9893C34.0966 7.7102 34.1682 7.79964 34.1682 7.88909V11.2522ZM51.0912 30.6977C51.0555 30.9302 50.966 31.1091 50.8408 31.2343C50.7156 31.3596 50.5546 31.449 50.3757 31.5206C50.2505 31.5563 49.9642 31.5921 49.7138 31.61C49.6422 31.61 49.6064 31.6995 49.6422 31.7531L50.9839 33.8104C51.0197 33.864 50.9839 33.9535 50.9123 33.9535H50.5009C50.4651 33.9535 50.4472 33.9356 50.4293 33.9177L48.9624 31.6637C48.9445 31.6279 48.9088 31.6279 48.8909 31.6279H45.9392C45.8855 31.6279 45.8497 31.6637 45.8497 31.7174V33.6136V33.864C45.8497 33.9177 45.814 33.9535 45.7603 33.9535H45.2594C45.2057 33.9535 45.1699 33.9177 45.1699 33.864V33.6136V28.4794C45.1699 28.4258 45.2057 28.39 45.2594 28.39H49.5707C50.1431 28.39 50.5546 28.4973 50.7871 28.712C51.0197 28.9267 51.1449 29.3202 51.1449 29.9106C51.1628 30.1968 51.1449 30.4651 51.0912 30.6977ZM51.2701 24.4723C51.2701 24.5796 51.1807 24.6512 51.0912 24.6512H47.7281C47.6208 24.6512 47.5492 24.5617 47.5492 24.4723V23.5957L46.9589 23.8998C46.8694 23.9535 46.7621 23.9177 46.7084 23.8283L39.1413 9.60644V24.4544C39.1413 24.5617 39.0698 24.6333 38.9624 24.6333H35.5993C35.492 24.6333 35.4204 24.5438 35.4204 24.4544V7.88909C35.4204 7.78175 35.5098 7.7102 35.5993 7.7102H38.9803C39.0877 7.7102 39.1592 7.78175 39.1592 7.88909V8.76565L39.7496 8.46154C39.839 8.40787 39.9463 8.44365 40 8.53309L47.5671 22.7549V7.90698C47.5671 7.79964 47.6565 7.72809 47.746 7.72809H51.1091C51.2165 7.72809 51.288 7.81753 51.288 7.90698L51.2701 24.4723ZM63.7925 33.864C63.7925 33.9177 63.7567 33.9714 63.6852 33.9714H63.2021C63.1485 33.9714 63.1127 33.9356 63.1127 33.864V28.4794C63.1127 28.4258 63.1485 28.3721 63.22 28.3721H63.703C63.7567 28.3721 63.8104 28.4079 63.8104 28.4794V33.864H63.7925ZM66.0644 11.2522C66.0644 11.3596 65.975 11.4311 65.8855 11.4311H63.1127L64.7585 13.0769C64.8301 13.1485 64.8301 13.2558 64.7585 13.3274L57.1914 20.8945H65.8676C65.975 20.8945 66.0465 20.9839 66.0465 21.0733V24.4544C66.0465 24.5617 65.9571 24.6333 65.8676 24.6333H52.6834C52.576 24.6333 52.5045 24.5617 52.5045 24.4544V21.0733C52.5045 20.966 52.5939 20.8945 52.6834 20.8945H55.4562L53.8104 19.2487C53.7388 19.1771 53.7388 19.0698 53.8104 18.9982L61.3775 11.4311H52.7013C52.5939 11.4311 52.5224 11.3596 52.5224 11.2522V7.88909C52.5224 7.78175 52.6118 7.7102 52.7013 7.7102H65.8855C65.9928 7.7102 66.0644 7.79964 66.0644 7.88909V11.2522ZM81.61 33.2021C81.5027 33.4347 81.3238 33.5957 81.0734 33.7209C80.8229 33.8283 80.5188 33.8998 80.161 33.9356C79.8211 33.9714 79.5349 33.9893 79.1234 33.9893H78.7835C78.3721 33.9893 78.068 33.9893 77.8712 33.9714C77.6744 33.9714 77.3524 33.9356 76.941 33.8819C76.5116 33.8283 76.2075 33.6673 76.0107 33.4168C75.9034 33.2558 75.814 33.0411 75.7782 32.7549C75.7782 32.7013 75.814 32.6476 75.8676 32.6476H76.4222C76.4759 32.6476 76.5116 32.6834 76.5116 32.7191C76.5295 32.7907 76.5295 32.8444 76.5474 32.8801C76.5832 33.0054 76.7084 33.0948 76.9052 33.1664C77.1199 33.2379 77.4061 33.2737 77.746 33.2916C78.0859 33.3095 78.4437 33.3274 78.8014 33.3274C79.356 33.3274 79.7317 33.3095 80.1252 33.2558C80.5009 33.2021 80.7513 33.1127 80.8945 32.9875C81.0197 32.8623 81.0912 32.6476 81.0912 32.3614C81.0912 31.9857 81.0018 31.7531 80.8408 31.6637C80.6619 31.5563 80.3757 31.5027 79.9463 31.5027H78.8014L77.3524 31.4669C76.8336 31.4669 76.4401 31.3596 76.1539 31.1628C75.8676 30.966 75.7245 30.6082 75.7245 30.1431C75.7245 29.7674 75.7782 29.4633 75.9034 29.2129C76.0286 28.9624 76.2433 28.7657 76.5295 28.6583C76.8157 28.551 77.1556 28.4794 77.5313 28.4436C77.907 28.4079 78.3542 28.4079 78.8193 28.4079C79.2129 28.4079 79.4097 28.4079 79.5707 28.4258C79.7496 28.4258 80.0179 28.4615 80.4293 28.4973C80.8408 28.5331 81.1449 28.6941 81.3775 28.9445C81.4848 29.0519 81.5564 29.195 81.61 29.3739C81.6279 29.4454 81.5921 29.4991 81.5206 29.4991H80.9302C80.8945 29.4991 80.8587 29.4812 80.8408 29.4454C80.7871 29.356 80.7335 29.3023 80.6619 29.2665C80.5546 29.2129 80.3578 29.1592 80.0537 29.1234C79.7674 29.0877 79.3739 29.0698 78.9088 29.0698H78.7835C78.4258 29.0698 77.9606 29.0877 77.585 29.1234C77.2093 29.1592 76.941 29.2129 76.78 29.2844C76.619 29.356 76.5116 29.4454 76.4759 29.5707C76.4222 29.6959 76.4043 29.8569 76.4043 30.0358C76.4043 30.3578 76.4937 30.5724 76.6547 30.6798C76.8336 30.7871 77.0841 30.8587 77.424 30.8587H79.2844C79.4991 30.8587 79.6064 30.8587 79.7853 30.8587C79.9642 30.8587 80.2326 30.8766 80.5725 30.9302C80.9302 30.966 81.2165 31.0912 81.449 31.3059C81.6637 31.5206 81.7889 31.8962 81.7889 32.3971C81.771 32.6834 81.7174 32.9696 81.61 33.2021ZM75.4562 24.9374C70.6261 24.9374 66.6905 21.0018 66.6905 16.1717C66.6905 11.3417 70.6261 7.40608 75.4562 7.40608C80.2862 7.40608 84.2218 11.3417 84.2218 16.1717C84.2397 21.0018 80.3041 24.9374 75.4562 24.9374Z" /> <path d="M11.6995 28.9445H7.92487C7.8712 28.9445 7.81754 28.9803 7.81754 29.0519V31.127C7.81754 31.1807 7.85331 31.2344 7.92487 31.2344H11.3238C11.8784 31.2344 12.254 31.1628 12.4508 31.0197C12.6476 30.8766 12.737 30.5367 12.737 30.0179C12.737 29.6243 12.6655 29.356 12.5224 29.195C12.3793 29.034 12.093 28.9445 11.6995 28.9445Z" /> <path d="M29.5528 28.9267C29.5349 28.8909 29.4991 28.873 29.4633 28.873H29.0877C29.0519 28.873 29.0161 28.8909 28.9982 28.9267L27.2093 32.0036C27.1735 32.0751 27.2093 32.1467 27.2987 32.1467H31.2701C31.3417 32.1467 31.3953 32.0572 31.3596 32.0036L29.5528 28.9267Z" /> <path d="M75.4562 21.1986C78.2324 21.1986 80.483 18.948 80.483 16.1717C80.483 13.3955 78.2324 11.1449 75.4562 11.1449C72.6799 11.1449 70.4293 13.3955 70.4293 16.1717C70.4293 18.948 72.6799 21.1986 75.4562 21.1986Z" /> </g> </svg>