<svg fill="currentColor" aria-label="Laboratoires Vichy" role="img" width="139" height="40" viewBox="0 0 139 40" xmlns="http://www.w3.org/2000/svg"> <g> <path d="M98.8454 29.4021V16.2474H82.0619V29.4021H77.2784V0H82.0619V12.6186H98.8454V0H103.629V29.4021H98.8454Z" /> <path d="M27.134 40H27.8763L25.2784 33.8557L22.6804 40H23.4227L24.0825 38.3093H26.4742L27.134 40ZM24.3299 37.7732L25.2784 35.3402L26.2268 37.7732H24.3299Z" /> <path d="M69.3608 40H70.1031L67.5051 33.8557L64.866 40H65.6082L66.268 38.3093H68.6598L69.3608 40ZM66.5155 37.7732L67.4639 35.3402L68.4124 37.7732H66.5155Z" /> <path d="M96.1237 34.2268V40H96.866V34.2268H96.1237Z" /> <path d="M35.5052 0V29.4021H40.2887V0H35.5052Z" /> <path d="M23.8763 0L14.4742 19.9175C14.5155 19.8763 4.94845 0 4.94845 0H0L14.433 29.4021L28.8247 0H23.8763Z" /> <path d="M62.5979 25.4433C55.5876 25.4433 50.433 20.9485 50.433 14.6804C50.433 8.41237 55.5464 3.91753 62.5979 3.91753C65.6907 3.91753 68.5361 4.90722 70.7216 6.51546V1.89691C68.3299 0.701031 65.567 0 62.5979 0C53.4845 0 46.1031 6.59794 46.1031 14.6804C46.1031 22.8041 53.4845 29.3608 62.5979 29.3608C65.567 29.3608 68.3299 28.6598 70.7216 27.4639V22.8454C68.5361 24.4948 65.6907 25.4433 62.5979 25.4433Z" /> <path d="M34.9691 37.1959V39.4227H35.7113C36.701 39.4227 37.1134 39.0103 37.1134 38.3093C37.1134 37.6083 36.6598 37.1546 35.6289 37.1546L34.9691 37.1959ZM34.9691 34.7629V36.6186H35.299C35.7526 36.6186 36.0412 36.5773 36.2474 36.4536C36.4948 36.2887 36.6598 36.1649 36.6598 35.7526C36.6598 35.3402 36.5361 35.0515 36.2887 34.9278C36.1237 34.8454 35.7938 34.7629 35.3402 34.7629H34.9691ZM34.433 40V34.2268H35.3814C36.6598 34.2268 37.3196 34.7629 37.3196 35.7938C37.3196 36.2887 37.1134 36.6598 36.7423 36.9072C37.0722 36.9897 37.3608 37.1546 37.5258 37.4433C37.732 37.732 37.7732 38.0206 37.7732 38.3918C37.7732 38.9278 37.567 39.3402 37.1546 39.6289C36.7835 39.8763 36.3711 40 35.7526 40H34.433Z" /> <path d="M47.1752 34.6392C46.5154 34.6392 45.9381 34.8866 45.4433 35.3402C44.9897 35.7938 44.7423 36.3711 44.7423 37.0309C44.7423 37.6907 44.9897 38.2268 45.4433 38.7216C45.8969 39.1753 46.4742 39.4227 47.1752 39.4227C47.835 39.4227 48.4124 39.1753 48.9072 38.7216C49.3608 38.268 49.6082 37.6907 49.6082 37.0309C49.6082 36.3711 49.3608 35.7938 48.9072 35.3402C48.4124 34.8454 47.8763 34.6392 47.1752 34.6392ZM47.1752 34.0206C48.0412 34.0206 48.7423 34.3093 49.3608 34.8866C49.9794 35.4639 50.268 36.1649 50.268 36.9897C50.268 37.8144 49.9794 38.5155 49.3608 39.0928C48.7423 39.6701 48.0412 39.9588 47.1752 39.9588C46.3093 39.9588 45.6082 39.6701 44.9897 39.0928C44.3711 38.5155 44.0825 37.8144 44.0825 36.9897C44.0825 36.1649 44.3711 35.4639 44.9897 34.8866C45.6082 34.3093 46.3505 34.0206 47.1752 34.0206Z" /> <path d="M86.6392 34.6392C85.9794 34.6392 85.4021 34.8866 84.9072 35.3402C84.4536 35.7938 84.2062 36.3711 84.2062 37.0309C84.2062 37.6907 84.4536 38.2268 84.9072 38.7216C85.3608 39.1753 85.9381 39.4227 86.6392 39.4227C87.299 39.4227 87.8763 39.1753 88.3711 38.7216C88.8247 38.268 89.0722 37.6907 89.0722 37.0309C89.0722 36.3711 88.8247 35.7938 88.3711 35.3402C87.8763 34.8454 87.299 34.6392 86.6392 34.6392ZM86.6392 34.0206C87.5051 34.0206 88.2062 34.3093 88.8247 34.8866C89.4433 35.4639 89.732 36.1649 89.732 36.9897C89.732 37.8144 89.4433 38.5155 88.8247 39.0928C88.2062 39.6701 87.5051 39.9588 86.6392 39.9588C85.7732 39.9588 85.0722 39.6701 84.4536 39.0928C83.835 38.5155 83.5464 37.8144 83.5464 36.9897C83.5464 36.1649 83.835 35.4639 84.4536 34.8866C85.0309 34.3093 85.7732 34.0206 86.6392 34.0206Z" /> <path d="M125.814 34.9278L125.32 35.2577C125.072 34.8454 124.742 34.6392 124.33 34.6392C124.082 34.6392 123.835 34.7216 123.67 34.8866C123.464 35.0515 123.381 35.2577 123.381 35.5464C123.381 35.7526 123.464 35.9588 123.67 36.1237C123.794 36.2062 124 36.3299 124.247 36.4536L124.619 36.6186C125.072 36.8247 125.402 37.0309 125.608 37.1959C125.897 37.4845 126.021 37.8144 126.021 38.2268C126.021 38.7216 125.856 39.134 125.485 39.5052C125.113 39.8351 124.701 40.0412 124.206 40.0412C123.753 40.0412 123.34 39.9175 123.052 39.6289C122.722 39.3402 122.515 39.0103 122.433 38.5567L123.052 38.3918C123.093 38.6804 123.216 38.9278 123.423 39.134C123.629 39.3402 123.876 39.4639 124.206 39.4639C124.536 39.4639 124.784 39.3402 125.031 39.134C125.278 38.9278 125.402 38.6392 125.402 38.3505C125.402 38.0619 125.278 37.8144 125.072 37.6082C124.948 37.4845 124.701 37.3608 124.33 37.1959L124 37.0309C123.588 36.866 123.299 36.701 123.134 36.4948C122.887 36.2474 122.763 35.9175 122.763 35.5464C122.763 35.134 122.928 34.7629 123.258 34.4742C123.546 34.2268 123.918 34.0619 124.371 34.0619C124.99 34.0206 125.485 34.3505 125.814 34.9278Z" /> <path d="M113.649 40V34.2268H116.825V34.8041H114.309V36.5361H116.619V37.1546H114.309V39.3814H116.825V40H113.649Z" /> <path d="M15.134 34.2268V39.3814H16.701V40H14.4742V34.2268H15.134Z" /> <path d="M77.0722 34.8041V40H76.4124V34.8041H75.0103V34.2268H78.4742V34.8041H77.0722Z" /> <path d="M56.701 34.8041V36.866H56.9072C57.3608 36.866 57.6907 36.8247 57.8969 36.701C58.1856 36.5361 58.3505 36.2474 58.3505 35.8351C58.3505 35.4227 58.1856 35.0928 57.8969 34.9691C57.6907 34.8454 57.3608 34.8041 56.866 34.8041H56.701ZM56.701 37.4433V40H56.0412V34.2268H56.866C58.268 34.2268 58.9691 34.7629 58.9691 35.8351C58.9691 36.2887 58.8454 36.6598 58.5567 36.9485C58.3093 37.2371 57.9381 37.4021 57.4845 37.4433L59.3814 40H58.5979L56.866 37.4433H56.701Z" /> <path d="M104.619 34.8041V36.866H104.825C105.278 36.866 105.608 36.8247 105.814 36.701C106.103 36.5361 106.268 36.2474 106.268 35.8351C106.268 35.4227 106.103 35.0928 105.814 34.9691C105.608 34.8454 105.278 34.8041 104.784 34.8041H104.619ZM104.619 37.4433V40H103.959V34.2268H104.784C106.186 34.2268 106.887 34.7629 106.887 35.8351C106.887 36.2887 106.763 36.6598 106.515 36.9485C106.268 37.2371 105.897 37.4021 105.443 37.4433L107.299 40.0412H106.515L104.784 37.4845L104.619 37.4433Z" /> <path d="M138.186 0L125.196 16.7835V29.4021H120.783V16.7835L107.753 0H112.866L122.969 13.1134L133.072 0H138.186Z" /> </g> </svg>