<svg fill="currentColor" aria-label="Le Monde" role="img" width="174" height="40" viewBox="0 0 174 40" xmlns="http://www.w3.org/2000/svg"> <path fill-rule="evenodd" clip-rule="evenodd" d="M23.0137 7.72602C22.8493 7.06849 21.6986 5.47945 20.3836 5.47945C20.1096 5.47945 19.8904 5.53424 19.726 5.58904C20.9863 6.08219 21.9726 7.34246 22.2466 8.21917L23.0137 7.72602ZM31.2329 37.4247L26.5205 34.2466C25.9726 33.863 25.3151 33.1507 25.3151 31.7808V20.274L24.8219 20.5479L24.6575 20.6575V32.1096C24.6575 33.0959 25.1507 34.0822 25.863 34.5753L30.6301 37.8082L31.2329 37.4247ZM10.9589 25.863C11.0685 23.8904 10.6301 21.5342 10.2466 19.2329C9.80822 16.8767 9.47945 14.5205 9.47945 12.4384C9.53425 11.1781 9.75343 9.9178 10.2466 8.76712C9.36986 10.137 8.82192 11.726 8.76712 13.3699C8.60274 17.4247 10.5205 22.6849 10.3562 26.7945C10.3014 27.3425 10.2466 27.8904 10.2466 28.4384L10.3562 28.3288C10.6849 27.8904 10.9041 27.0685 10.9589 25.863ZM17.5342 37.3699C16.8219 35.9452 15.1233 35.0685 13.1507 35.0685C12.9863 35.1233 12.7671 35.1233 12.6027 35.1233C14.5205 35.4521 16.1644 36.4931 16.7671 37.8082L17.5342 37.3699ZM34.5205 20.3836L32.8767 18.6301L32.9315 19.8356L33.8082 20.8219L34.5205 20.3836ZM79.5616 10.411L75.6164 8.05479L76.2192 7.67123L80 9.9178C79.8356 10.0822 79.726 10.1918 79.5616 10.411ZM80.4931 37.8082L78.8493 36.6575C77.8082 35.8904 77.2603 34.6301 77.2603 33.2055V17.3699C77.2603 15.1781 77.6986 13.6438 78.4658 12.6027C78.0274 13.6438 77.863 14.9041 77.863 16.3836L77.9178 32.6027C77.9178 34.3562 78.411 35.5068 79.6164 36.3288L81.0959 37.3699L80.4931 37.8082ZM67.3973 37.6438C67.3973 37.6438 67.2329 37.7534 67.1233 37.8082H66.7397V11.2877C66.7397 10.0274 66.6301 10.0274 65.8082 9.42465L64.6575 8.54794L65.4247 8.16438C66.0274 8.65753 66.9589 9.31507 66.9589 9.36986C67.2877 9.69863 67.3973 9.9178 67.3973 10.6301V37.6438ZM48 4.9315C47.6164 5.9726 47.6712 7.0137 48.1644 7.83561C48.6027 8.54794 49.4247 9.09589 50.411 9.31506C47.3973 9.53424 46.0822 7.34246 48 4.9315ZM55.0685 27.9452C55.2877 27.1781 55.3425 26.3562 55.3425 25.4247V11.726C55.3425 10.0822 55.2877 9.86301 54.7945 9.36986H54.8493C55.5068 9.20548 55.8904 9.36986 55.8904 10.7945V24.5479C55.8904 26.137 55.6712 27.1781 55.0685 27.9452ZM56.274 37.8082C55.8904 36.4931 54.6849 35.3973 52.6027 35.1233C52.8767 35.0685 53.2055 35.0685 53.4794 35.0685C56.0548 35.1233 56.7671 36.7123 56.9315 37.2055L56.9863 37.3699L56.274 37.8082ZM126.575 37.4794L125.151 36.6027C123.89 35.8356 123.233 34.6301 123.233 32.8219V19.8356C123.233 19.0685 123.178 19.1233 122.904 18.9041C122.904 18.9041 121.918 18.0822 121.26 17.5342L120.548 17.9178L121.918 18.9589C122.685 19.5068 122.575 19.5616 122.575 20.7123V33.3151C122.575 35.0137 123.288 36.2192 124.274 36.8219L125.973 37.7534L126.575 37.4794ZM113.425 37.6986V18.2466L112.712 17.5342L111.781 17.9726L112.658 18.7945V37.8082H113.096C113.205 37.7534 113.37 37.6986 113.425 37.6986ZM98.0822 37.4794L92.6027 34.137C91.5069 33.4794 91.0685 32.6575 91.0685 31.1781V20.274L90.5753 20.4931L90.3562 20.6027V31.726C90.3562 33.0411 90.9041 33.9726 91.9452 34.5753L97.4247 37.8082L98.0822 37.4794ZM100.822 31.2329V20.3836C100.822 19.8356 100.658 19.6164 100.219 19.3973L98.0822 18.0822V18.7945L99.2877 19.5068C100.219 20.0548 100.219 20.1096 100.219 21.1507L100.164 30.9041L100.822 31.2329ZM144.11 11.6712V11.5068C144.11 10.1918 143.342 8.82191 142.192 8.16438C141.753 7.89041 141.37 7.67123 141.37 7.67123L140.822 8.05479L141.151 8.21917C142.685 9.09589 143.507 10.2466 143.507 12.0548L144.11 11.6712ZM161.644 37.4247L156.931 34.2466C156.384 33.863 155.726 33.1507 155.726 31.7808V20.274L155.233 20.5479L155.068 20.6575V32C155.068 33.2603 155.562 34.137 156.329 34.6301L160.986 37.8082L161.644 37.4247ZM141.37 37.9726L136.329 34.6849C135.123 33.9178 134.904 33.2055 134.904 31.7808V21.3699L134.521 21.589L134.247 21.7534V32.0548C134.247 33.6986 134.74 34.411 135.562 34.9589L140.767 38.411L141.37 37.9726ZM164.384 20.3836L162.74 18.6301L162.795 19.8356L163.671 20.8219L164.384 20.3836ZM145.205 31.7808V16.4384L144.11 16.8767V31.3425L145.205 31.7808Z" /> <path fill-rule="evenodd" clip-rule="evenodd" d="M24.2192 33.2603L23.6712 32.1096L22.1918 33.0411C21.0959 31.726 19.3425 30.137 15.1233 30.137C10.6849 30.0822 5.20548 33.6438 2.73973 36.7123L3.17808 37.2603C6.57534 35.0137 10.0274 34.0274 13.0959 34.0274C15.5616 34.0274 17.6438 35.2329 18.4658 36.9863L24.2192 33.2603ZM28.8219 7.12328C27.9452 5.80821 25.6438 3.28766 21.1507 3.28766C15.726 3.23287 10.9589 7.50684 10.7397 12.6575C10.5753 16.7671 12.5479 22.0822 12.3836 26.137C12.274 27.5068 12 28.5479 11.4521 29.2603L12 29.9178L15.3425 27.5068C16.9863 26.3014 17.863 24.8219 17.8082 22.2466C17.7534 19.0685 16.274 14.137 16.274 10.3562C16.274 7.12328 17.5342 4.65753 20.3288 4.65753C22.2466 4.65753 23.7808 6.63013 24 7.72602C24.1096 8.27397 24 8.49314 23.5069 8.82191L22.1918 9.75342V11.2329L28.8219 7.12328ZM41.0959 19.7808L34.6849 12.7123L24.7123 18.5753V19.8904L26.7397 18.7397V31.9452C26.7397 32.7123 27.0137 33.2055 27.5069 33.5342L32.8219 36.9863L40.3288 32.6575L39.726 31.3425L35.8356 33.4247L32.3288 31.0137C31.8904 30.7397 31.8356 30.4657 31.8356 29.8082V25.5342L41.0959 19.7808ZM36.1096 20.8219L31.7808 23.5068V16.5479L32.1644 16.3288L36.1096 20.8219ZM57.7534 37.0959C57.2603 35.726 55.8904 34.3562 53.3699 34.2466C51.0685 34.2466 47.6712 35.1781 44.9315 37.2603L44.3836 36.6027C46.411 34.411 51.1233 30.8493 56.0548 30.7945C58.6301 30.7945 60.4931 31.6712 61.7534 33.0411L63.8904 31.8356L64.4931 33.0959C64.5479 33.0959 57.7534 37.0959 57.7534 37.0959ZM87.3425 7.72602C85.4794 8.82191 84.8219 10.3014 84.8219 12.6027V30.9589C84.8219 32.1096 84.9863 32.6575 85.589 32.9863L86.1918 33.3151L87.8904 32.3288L88.4932 33.4794L82.5206 37.0959L80.4384 35.726C79.5069 35.1233 79.1233 34.3562 79.1233 32.8767V16.3836C79.1233 13.3151 80.1096 11.6712 81.4247 10.6849L82.1918 10.137L76.5479 6.84931L74.0274 8.38356V32.274C74.0274 34.3014 73.7534 34.5753 71.9452 35.5068C71.9452 35.5068 70.5753 36.1644 68.6575 37.2055H68.274V10.6849C68.274 9.36986 68.1096 9.09588 67.3973 8.54794L65.3699 6.9041L62.9041 8.27397V21.9726C62.9041 24.3836 62.5205 26.0822 60.6027 27.2877L55.7808 30.3014L55.2877 29.4794C56.7671 28.3288 57.0959 26.6849 57.0959 24.7671V10.7945C57.0959 8.71232 56.8219 7.9452 54.6301 8.32876C53.8082 8.49314 52.5479 8.65753 51.7808 8.76712C48.6027 9.20547 47.2877 6.9589 49.4247 4.10958C49.4247 4.10958 49.9726 3.39725 51.2877 1.64383L52.3288 2.35616L51.5616 3.45205C50.5753 4.87671 51.3973 5.64383 52.9863 5.09588C53.7534 4.82191 55.2329 4.21917 56.274 3.78082C60.8219 2.02739 62.5205 4.9315 62.7397 6.68493L68.6575 3.28766L73.5342 7.01369L79.5616 3.28766L84.2192 5.9178C85.8082 6.84931 86.5753 6.46575 87.6712 5.86301L88.6027 5.36986L89.3151 6.57534L87.3425 7.72602ZM108.986 30.8493L108.548 29.8082L106.904 30.6849V17.8082C106.904 17.1507 106.685 16.6027 106.027 16.2192L99.8356 12.6027L89.863 18.411V19.7808L91.8904 18.5753V31.1781C91.8904 32.3288 92.1644 32.7671 92.8767 33.1507L98.9041 36.7123L108.986 30.8493ZM132.603 33.589L132.11 32.4931L130.356 33.4794L129.753 33.0959C129.096 32.7123 128.932 32.2192 128.932 31.1233V17.4794C128.932 16.3836 128.712 15.8904 128 15.452L124.329 12.7123L118.63 15.9452L115.616 12.7123L109.589 16.3836L110.411 17.3151L112.438 16.1096L113.918 17.7534V36.6575H114.301C116.712 35.6164 117.425 35.2877 117.425 35.2877C118.575 34.7945 118.904 34.411 118.904 33.0959V17.3151L120.877 16.1644L123.178 17.9726C123.781 18.5205 123.89 18.9041 123.89 19.726L123.945 32.6575C123.945 34.0822 124.384 34.9041 125.315 35.452L127.342 36.6575L132.603 33.589ZM101.863 32.8767L101.589 32.9315L97.6986 30.6301C97.0411 30.2466 96.8767 29.8082 96.8767 28.9863L96.9315 16.4931L97.2055 16.3836L100.986 18.5753C101.753 19.0137 101.918 19.3973 101.918 20.1644L101.863 32.8767ZM145.808 33.3699L145.534 33.4247L142.137 31.2329C141.479 30.7945 141.205 30.4657 141.205 29.589V17.3699L145.479 14.7945L145.808 15.0137V33.3699ZM152.877 31.3973L152.438 30.3014L150.74 31.2329V10.8493C150.74 7.8904 149.425 5.9726 147.178 4.60273L145.041 3.28766L138.301 7.23287L139.616 7.83561L141.808 6.63013L143.233 7.45205C144.767 8.32876 145.753 10.0274 145.753 11.8356V12.6027L134.247 19.2877V20.6027L136.219 19.5616V31.726C136.219 32.7671 136.493 33.2055 137.151 33.6438L142.904 37.2603L152.877 31.3973ZM171.507 20L165.041 12.8767L155.068 18.7397V20.1096L157.151 18.9589V32.274C157.151 33.0411 157.425 33.5342 157.918 33.863L163.233 37.3151L170.74 32.9315L170.192 31.5616L166.247 33.6986L162.685 31.2329C162.192 30.9041 162.137 30.6849 162.137 30.0274V25.6986L171.507 20ZM166.411 21.0411L162.082 23.726V16.7123L162.521 16.4931L166.411 21.0411Z" /> </svg>