<svg fill="currentColor" aria-label="Lenovo" role="img" width="96" height="32" viewBox="0 0 96 32" xmlns="http://www.w3.org/2000/svg"> <g> <path d="M54.7534 13.6874C52.848 13.6874 51.4881 15.1395 51.4881 17.1333C51.4881 19.0387 52.9402 20.5791 54.7534 20.5791C56.6588 20.5791 58.0187 19.127 58.0187 17.1333C58.1071 15.2279 56.6588 13.6874 54.7534 13.6874Z" /> <path d="M80.7721 13.6874C78.8667 13.6874 77.5068 15.1395 77.5068 17.1333C77.5068 19.0387 78.9589 20.5791 80.7721 20.5791C82.6775 20.5791 84.0375 19.127 84.0375 17.1333C84.1258 15.2279 82.6737 13.6874 80.7721 13.6874Z" /> <path d="M26.9253 13.4146C25.746 13.4146 24.8394 13.8679 24.2977 14.6823C23.8444 15.4084 23.4833 16.4034 23.6639 17.5827L29.5568 15.1357C29.0996 14.1407 28.1008 13.4146 26.9253 13.4146Z" /> <path d="M0 0V32H96V0H0ZM8.88547 23.2989V7.34118H12.3313V20.2142H20.0336V23.2951L8.88547 23.2989ZM27.2864 20.7597C28.5541 20.7597 29.3724 20.5791 30.8206 19.492L32.9066 21.0324C31.8194 22.3001 29.4607 23.3911 27.1942 23.3911C23.1145 23.3911 20.3064 20.7635 20.3064 17.0449C20.3064 13.4185 23.1184 10.6987 26.8331 10.6987C28.9191 10.6987 30.5479 11.3325 31.7273 12.6924C32.4533 13.599 32.995 14.7784 33.1794 16.1383L24.5666 19.7609C25.2005 20.3947 26.1071 20.7597 27.2864 20.7597ZM46.7745 15.6812V23.2951H43.4209V16.3188C43.4209 14.6862 41.9688 13.6912 40.6089 13.6912C38.7957 13.6912 37.7969 15.0511 37.7969 16.3188V23.3911H34.4432V11.0598H37.7969V12.7808C38.7957 11.4209 40.3361 10.787 41.7844 10.787C44.7808 10.787 46.8667 12.873 46.7745 15.6812ZM54.7534 23.4795C51.0387 23.4795 48.1345 20.7597 48.1345 17.1333C48.1345 13.599 51.0348 10.787 54.7534 10.787C58.472 10.787 61.3724 13.5068 61.3724 17.1333C61.3724 20.7597 58.472 23.4795 54.7534 23.4795ZM65.9938 23.2989L60.9191 10.9714H64.726L67.807 19.4036L70.8879 10.9714H74.6948L69.7085 23.2989H65.9938ZM80.7722 23.4795C77.0574 23.4795 74.1532 20.7597 74.1532 17.1333C74.1532 13.599 77.0535 10.787 80.7722 10.787C84.4869 10.787 87.3911 13.5068 87.3911 17.1333C87.4795 20.7597 84.5791 23.4795 80.7722 23.4795ZM88.8394 21.8468H88.2939V23.2989H87.9328V21.8468H87.3873V21.5741H88.8394V21.8468ZM91.0137 23.3873H90.6526V22.1196L90.1071 22.934L89.5616 22.1196V23.3873H89.2005V21.5741H89.5616L90.1071 22.3885L90.6526 21.5741H91.0137V23.3873Z" /> </g> </svg>