<svg fill="currentColor" aria-label="M6" role="img" width="80" height="60" viewBox="0 0 80 60" xmlns="http://www.w3.org/2000/svg"> <g> <path d="M9.99769 0L0 60H20.7174L23.3279 43.6843L39.6019 59.9306L56.0703 43.6843L58.5698 60H79.2872L69.5256 0L39.8241 29.6598L9.99769 0Z" /> <path class="svgcolor-2" d="M39.3659 38.2411C34.9641 38.2411 31.3955 34.7975 31.3955 30.5346C31.3955 26.2856 34.9641 22.828 39.3659 22.828C43.7677 22.828 47.3363 26.2717 47.3363 30.5346C47.3502 34.7975 43.7677 38.2411 39.3659 38.2411ZM39.8241 12.2333C42.6152 7.56769 45.5728 2.94376 47.7667 0H34.8253C28.5212 8.55357 22.6337 18.8012 20.9674 25.7579C20.5369 27.2853 20.3148 28.8822 20.3148 30.5485C20.3148 40.6711 28.8544 48.8637 39.3937 48.8637C49.9329 48.8637 58.4726 40.6711 58.4726 30.5485C58.4448 20.5647 50.1551 12.4554 39.8241 12.2333Z"/> </g> </svg>