<svg fill="currentColor" aria-label="Michelin" role="img" width="206" height="40" viewBox="0 0 206 40" xmlns="http://www.w3.org/2000/svg"> <g> <path class="svgcolor-negative" d="M1.14832 9.40533L1.28503 9.70608C1.72249 10.745 2.18729 11.784 2.73411 12.7956C3.03486 13.3698 3.39029 13.8893 3.80041 14.3814C3.41763 14.9556 3.11688 15.5844 2.95284 16.2406C2.76145 17.2522 2.84347 18.3185 3.22625 19.3028C3.36295 19.7403 3.55434 20.1504 3.80041 20.5605C3.80041 20.5878 3.77307 20.6425 3.77307 20.6699C3.49966 22.8025 4.42925 24.9351 6.17908 26.1928C6.45249 26.4115 6.75325 26.6029 7.08134 26.7669C7.38209 27.6145 7.92891 28.38 8.63978 28.9269C9.15926 29.337 9.76076 29.6651 10.3896 29.9111V29.9385C11.1278 30.9501 12.1941 31.661 13.3971 31.9617C13.7252 32.0437 14.0533 32.1258 14.3814 32.1531C14.4087 32.1805 14.4087 32.1805 14.4361 32.2078C15.0923 32.8366 15.9125 33.3014 16.8148 33.5202C16.6781 34.4771 16.7601 35.4614 17.0882 36.391H51.9754C51.9754 35.2153 51.6746 34.067 51.0458 33.0827C51.0185 33.0554 51.0185 33.028 50.9911 33.0007C51.4559 29.5284 49.1319 26.2748 45.7143 25.6186C45.5502 25.5912 45.3589 25.5639 45.1675 25.5366H45.1128C43.8551 24.3062 42.406 23.3493 40.7929 22.6384C40.8202 22.5564 40.8202 22.447 40.8476 22.365L40.9296 22.3377C42.8161 21.4901 43.9371 20.123 44.1832 18.2912C44.3472 16.8421 43.9918 15.3657 43.1442 14.1627C43.1442 14.1353 43.1442 14.1353 43.1442 14.108C43.3356 12.1668 43.0349 10.4716 42.2693 9.07724C41.6678 7.95625 40.7382 7.054 39.5899 6.50718H39.5625C39.2618 5.46822 37.9221 4.67532 36.5003 4.70267C35.3794 4.73001 34.149 5.24949 33.6842 6.1244C31.9891 6.75325 29.337 8.33903 28.5167 12.3582C26.1381 14.108 25.6186 17.4436 27.3684 19.8223C27.5051 19.9863 27.6418 20.1777 27.7785 20.3418C26.1381 20.3691 24.4703 20.5332 22.8571 20.8612L22.8025 20.8886C21.2167 19.7403 19.2208 19.3575 17.3342 19.8223C17.2522 19.8496 17.1975 19.877 17.1429 19.9316C16.596 19.7676 16.0219 19.6582 15.4751 19.5762C15.4477 19.5762 15.393 19.5762 15.3657 19.5762C15.0923 18.7286 14.6275 17.9357 13.9986 17.3069C13.9713 17.2796 13.8893 17.2249 13.8893 17.2249C13.8072 16.7054 13.6979 16.1859 13.5338 15.6664C13.3151 14.8462 12.8776 14.1353 12.2488 13.5612C11.8387 13.1511 11.3465 12.7956 10.7997 12.5496C10.8544 12.3855 10.9091 12.2215 10.9364 12.0574C10.9364 12.0301 10.9638 11.9754 10.9638 11.9481C10.9638 11.9207 11.1552 9.97949 11.4012 8.83117V8.77649C12.0574 4.81203 12.0574 4.75735 12.0574 4.70267V4.67532C12.0848 4.31989 11.9481 3.96446 11.702 3.69105C11.3739 3.33561 10.9091 3.17157 10.4443 3.17157C9.73342 3.17157 9.07724 3.55434 8.7218 4.15584C8.50307 4.53862 8.33903 4.92139 8.20232 5.33151C7.54614 4.04648 6.67122 2.37867 6.06972 1.14833L6.04238 1.09364C5.74163 0.574163 5.22215 0.273411 4.64798 0.273411C4.42925 0.273411 4.23787 0.300752 4.04648 0.382775C3.74573 0.136705 3.36295 0 2.98018 0C2.78879 0 2.57006 0.0273411 2.37867 0.109364C1.69515 0.328093 1.25769 0.984279 1.28503 1.69515C0.765549 1.88653 0.355433 2.32399 0.27341 2.89815C0.218728 3.19891 0.246069 3.47232 0.328092 3.77307C0.328092 3.80041 0.328092 3.82775 0.355433 3.88243L0.27341 3.93712C-0.109365 4.56596 -0.300753 5.68694 1.14832 9.40533Z" /> <path d="M50.8544 36.3636H49.4874C49.9248 35.8168 50.3076 35.2426 50.5537 34.5864C50.745 35.1606 50.8544 35.7621 50.8544 36.3636Z" /> <path d="M28.134 21.4354C28.4074 21.4627 28.6808 21.5174 28.9542 21.5994C29.4737 21.7908 30.4853 22.7751 31.0321 22.8571C31.1415 22.8571 31.3876 22.8024 31.1141 22.6111C31.0321 22.5564 30.4033 21.9822 30.6494 21.6815C30.704 21.5721 30.8407 21.5174 30.9501 21.5721C31.743 21.7635 32.4265 21.8728 32.6453 21.9275C32.782 21.9549 32.8913 21.9549 32.946 21.9002C33.0007 21.8455 32.9733 21.8182 32.8093 21.7635C31.5789 21.4354 30.2119 20.8886 29.255 20.1777C27.9699 19.2208 27.3137 17.6897 27.4778 16.1039C27.6145 14.9556 28.216 13.9439 29.1456 13.2604C29.501 13.0417 29.8838 12.8503 30.2666 12.7409C30.704 12.5769 29.9658 12.4675 29.9385 12.4402C29.7471 12.4128 29.7471 12.2214 29.8838 11.6199C30.4853 9.48734 32.0984 7.81953 34.2037 7.136C34.5318 7.02664 34.8599 6.94462 35.188 6.88994C35.6254 6.83525 35.4614 6.61652 34.9692 6.56184C34.9692 6.56184 34.8052 6.56184 34.8872 6.45248C34.9692 6.37045 35.0513 6.28843 35.1333 6.23375C35.5707 5.98768 36.0629 5.82363 36.555 5.82363C37.5666 5.79629 38.4416 6.37045 38.5509 6.88994C38.5509 6.88994 38.5783 6.9993 38.4689 6.9993C38.2775 6.9993 38.1135 7.08132 38.3869 7.21803C38.4416 7.24537 38.715 7.32739 39.0977 7.51878L39.1524 7.54612C39.918 7.90156 42.2967 9.35063 42.1053 13.4245C42.1053 13.5338 42.0779 13.6705 42.0779 13.7799C42.0779 13.8893 42.0506 13.9986 42.0506 14.108C41.8319 14.0806 41.7225 14.1627 41.8865 14.3267C42.1053 14.5454 42.2967 14.7915 42.4607 15.0649C43.0075 15.9945 43.2536 17.1155 43.1169 18.2091C42.9528 19.4395 42.2146 20.5058 41.121 21.08C40.3281 21.5174 39.5079 21.8455 38.6329 22.0369C38.3869 22.0916 38.4962 22.3923 39.6172 22.3923C39.6992 22.3923 39.918 22.4197 39.9727 22.529C40.1094 22.7751 39.8906 23.2399 39.3985 23.5133C38.9884 23.7594 39.3165 23.8141 39.8906 23.6227C40.1094 23.65 40.3554 23.7047 40.5468 23.7867C42.5427 24.689 44.2652 26.056 45.6049 27.7785C46.8353 29.5283 47.2727 30.9227 46.89 31.7703C46.5072 32.6452 45.4135 32.7546 45.4135 32.7546H45.3862C41.121 33.4108 33.7116 32.2351 28.6261 30.7314C27.4504 30.3759 26.3295 29.9658 25.2085 29.4737C26.3295 26.9309 25.892 23.9508 24.0602 21.8728L23.9781 21.7908C25.3725 21.5448 26.7669 21.4354 28.1887 21.4354" /> <path d="M23.1579 22.6111C24.853 24.525 25.1538 27.4505 23.8414 29.5557C22.365 31.907 19.7403 33.0827 17.3069 32.4539C16.9515 32.3718 16.6234 32.2351 16.2953 32.0984C16.514 32.0711 16.7601 32.0164 16.9788 31.9617C19.3848 31.3055 21.1893 29.0909 21.4627 26.4388C21.6268 24.7984 21.162 23.1306 20.1504 21.8182C19.7949 21.3807 19.3848 20.998 18.9474 20.6972C20.5605 20.6972 22.0916 21.4081 23.1579 22.6111Z" /> <path class="svgcolor-negative" d="M49.0226 29.0362C50.581 31.3602 50.1435 34.4771 48.0383 36.2816C48.0656 35.27 47.8742 34.0943 47.136 33.1374C47.4641 32.8913 47.7102 32.5632 47.9016 32.1805C48.4757 30.9228 48.0109 29.2003 46.5072 27.0677L46.3978 26.931C47.4641 27.3411 48.3937 28.0793 49.0226 29.0362Z" /> <path d="M19.2755 22.529C20.0957 23.6227 20.4785 24.9624 20.3418 26.3294C20.123 28.5167 18.6466 30.3486 16.6781 30.8954C15.2016 31.3055 13.6432 31.0594 12.3582 30.2392C14.8462 30.1572 17.0335 28.5167 17.8264 26.138C18.2092 24.935 18.1818 23.65 17.7444 22.447C17.553 21.9002 17.2522 21.408 16.8968 20.9706C17.8264 21.2167 18.6466 21.7635 19.2755 22.529Z" /> <path d="M15.5297 22.5837C15.6118 22.1463 15.6664 21.6815 15.6391 21.2167C16.8421 22.3923 17.2796 24.1695 16.7601 25.7553C16.0219 28.0246 13.6159 29.4737 11.3739 28.9815C10.3076 28.7355 9.35065 28.1613 8.63978 27.3137C9.04989 27.3958 9.46001 27.4504 9.87013 27.4504C10.663 27.4504 11.4559 27.2864 12.1668 26.9583C13.9713 26.1654 15.229 24.5249 15.5297 22.5837Z" /> <path d="M13.8619 18.838C14.4634 19.9043 14.6822 21.162 14.4361 22.365C14.0533 24.9077 11.702 26.6576 9.13192 26.3021C8.28435 26.1654 7.5188 25.8373 6.86261 25.2905C5.74163 24.4703 5.03076 23.2399 4.86671 21.8729C4.97607 21.9822 5.11278 22.0643 5.22215 22.1463C6.1244 22.8025 7.24538 23.1306 8.36637 23.1306C8.85851 23.1306 9.37799 23.0759 9.84279 22.9392C11.8934 22.365 12.905 21.1347 13.3698 20.2051C13.5885 19.7676 13.7526 19.3302 13.8619 18.838Z" /> <path d="M17.9357 33.7115C18.1545 33.7389 18.4005 33.7389 18.6193 33.7389C20.9159 33.7389 23.1579 32.5359 24.607 30.4306C25.81 30.9501 27.013 31.4149 28.2707 31.7703C31.2235 32.6179 34.2584 33.2467 37.3206 33.6568C39.0431 33.8756 40.7655 34.0123 42.488 34.0123C43.4997 34.0123 44.5113 33.9576 45.5229 33.8209C45.7143 33.7936 45.9057 33.7389 46.0971 33.6842C46.7806 34.4224 46.9173 35.4614 46.8899 36.3636H18.2912C17.9084 35.5434 17.799 34.6138 17.9357 33.7115Z" /> <path d="M1.23035 4.51126L1.28503 4.48392C1.31237 4.45658 1.36705 4.42924 1.42173 4.4019H1.61312C1.64046 4.4019 1.69515 4.42924 1.72249 4.42924C2.05058 4.5386 2.29665 4.94872 2.35133 5.52288C2.48804 6.50716 2.81613 7.4641 3.36295 8.28433C3.44497 8.3937 3.58168 8.42104 3.69104 8.33901C3.80041 8.25699 3.82775 8.12029 3.74573 8.01092C3.25359 7.24537 2.92549 6.37046 2.81613 5.4682C2.70677 4.70265 2.37867 4.15583 1.85919 3.96444C1.74983 3.90976 1.61312 3.90976 1.50376 3.90976C1.44908 3.77305 1.39439 3.63635 1.36705 3.49964C1.31237 3.28091 1.23035 2.8708 1.69515 2.70675L1.77717 2.67941H1.83185C2.15994 2.62473 2.62474 2.78877 3.0622 4.37456C3.39029 5.41352 3.85509 6.37046 4.42925 7.30005C4.51128 7.40942 4.67532 7.43676 4.75735 7.35474C4.83937 7.27271 4.86671 7.16335 4.81203 7.05398C4.26521 6.17907 3.82775 5.24947 3.49966 4.26519C3.30827 3.58167 3.03486 2.84346 2.57006 2.46068C2.54272 2.29664 2.4607 2.10525 2.4607 2.05057C2.37867 1.83184 2.29665 1.31236 2.73411 1.14831C2.81613 1.12097 2.89815 1.09363 2.98018 1.09363C3.28093 1.12097 3.527 1.3397 3.60902 1.61311C3.60902 1.64045 3.63636 1.66779 3.6637 1.72247L5.6596 6.50716C5.6596 6.5345 5.68694 6.56184 5.71428 6.58919C5.79631 6.67121 5.96035 6.67121 6.04238 6.58919C6.09706 6.5345 6.1244 6.42514 6.06972 6.34312L4.10116 1.72247C4.15584 1.61311 4.21053 1.53109 4.31989 1.50374C4.42925 1.44906 4.53862 1.42172 4.64798 1.42172C4.83937 1.42172 5.00342 1.53109 5.08544 1.66779C5.08544 1.66779 7.68284 6.75323 8.14764 7.62815C8.01094 7.87422 7.87423 8.12029 7.76487 8.36636C7.73752 8.50306 7.81955 8.61242 7.87423 8.50306C8.03828 8.25699 8.20232 8.03826 8.39371 7.81953L8.42105 7.79219C8.53042 7.57346 8.91319 6.56184 9.07724 6.23375C9.1866 5.71427 9.37799 5.19479 9.6514 4.72999C9.81545 4.42924 10.1162 4.26519 10.4443 4.26519C10.745 4.26519 10.9638 4.4019 10.9638 4.56595C10.9638 4.62063 10.3349 8.55774 10.3349 8.55774C10.1709 9.37797 10.0342 10.5536 9.95215 11.2372C9.95215 11.4012 9.92481 11.5653 9.89747 11.7293V11.7566C9.89747 11.7566 9.89747 11.784 9.87013 11.866C9.7881 12.2214 9.6514 12.5769 9.51469 12.905L9.70608 13.8346C9.78811 14.2173 9.87013 14.6548 9.89747 14.7915C10.0342 15.311 9.84279 15.6391 9.95215 15.7484C10.0889 15.8852 10.417 15.2016 10.499 14.8189C10.5263 14.3814 10.4716 13.9439 10.3623 13.5065C10.7724 13.6979 11.1552 13.9713 11.4559 14.272C11.9207 14.7095 12.2761 15.2836 12.4402 15.9125C12.6316 16.514 12.7683 17.1428 12.823 17.799C12.823 18.2912 12.6589 20.9706 9.48735 21.8728C9.10458 21.9822 8.7218 22.0096 8.31169 22.0096C7.43677 22.0096 6.56186 21.7635 5.82365 21.244C4.29255 20.1504 3.69104 17.7717 3.9918 16.514C4.10116 16.0219 4.31989 15.5571 4.5933 15.1196C4.73001 15.2016 4.89405 15.2836 5.03076 15.3383L5.11278 15.7758C5.11278 15.8305 5.38619 17.0335 5.85099 17.4163C6.09706 17.5803 6.39781 17.6623 6.69856 17.635C6.83527 17.635 7.16336 17.6076 7.21804 17.4709C7.24539 17.4163 7.21804 17.3616 7.1907 17.3342C7.13602 17.3069 7.10868 17.2795 7.054 17.2522C6.83527 17.1428 6.39781 16.8968 6.31579 16.4867C6.26111 16.2679 6.06972 15.4477 5.96035 14.9556C6.42515 14.5728 6.47983 14.1627 5.87833 14.2994C5.5229 14.3541 5.16746 14.2447 4.89405 13.9986C3.71839 12.905 2.43335 9.5967 2.18729 8.9952C1.14832 6.34312 0.902254 4.89404 1.23035 4.51126Z" /> <path d="M33.1647 16.0492C33.1374 15.9398 33.028 15.9398 32.9733 15.9398C32.864 15.9398 32.7273 15.9672 32.6179 16.0218C32.3445 16.1312 32.1531 16.3773 32.1258 16.678C32.1258 16.7054 32.1258 16.7327 32.1531 16.7601C32.1804 16.7874 32.2078 16.8147 32.2625 16.8147C32.3172 16.8147 32.3445 16.7601 32.3445 16.7327C32.3445 16.6507 32.3992 16.5687 32.4539 16.514C32.6179 16.3773 32.8093 16.2679 33.028 16.2406C33.11 16.2132 33.1921 16.1585 33.1647 16.0492Z" /> <path class="svgcolor-negative" d="M39.6172 11.0184C39.5352 11.0184 39.4532 11.0184 39.3985 11.0184C39.3165 11.0184 39.2344 11.0458 39.1524 11.0731C38.3869 11.3192 38.0861 11.9754 37.8674 12.905C37.6213 13.9166 37.9768 15.1196 38.6056 15.311C38.7423 15.3383 38.879 15.393 39.0431 15.393C39.2071 15.4203 39.3712 15.4477 39.5352 15.4203C39.7266 15.393 39.8906 15.3383 40.0547 15.229C40.3554 14.9829 40.6015 14.6548 40.7382 14.272C40.8749 13.9166 40.9569 13.5338 40.9843 13.1784C41.0116 12.7956 40.9843 12.4402 40.9023 12.0847C40.8202 11.7293 40.6015 11.4285 40.3007 11.2372C40.082 11.1005 39.8633 11.0458 39.6172 11.0184ZM39.4805 11.5926C39.5625 11.5926 39.6172 11.5926 39.6992 11.6199C40.7929 11.784 40.6835 13.2331 40.6015 13.6705C40.5742 13.8619 40.5195 14.026 40.4374 14.19C40.3281 14.5181 40.1367 14.7915 39.8633 15.0102C39.7813 15.0649 39.6719 15.1196 39.5352 15.1469C39.9453 14.8462 40.2187 14.354 40.2461 13.8346C40.3281 12.987 39.9453 12.2761 39.3711 12.2214C39.0977 12.2214 38.8243 12.3308 38.6603 12.5769C38.879 12.6042 39.0431 12.8229 39.0431 13.0417C39.0977 13.2877 38.9337 13.5065 38.6876 13.5612C38.4962 13.5612 38.3595 13.4244 38.3322 13.2331C38.3048 13.3698 38.2775 13.5065 38.2502 13.6705C38.1955 14.1627 38.3322 14.6548 38.6329 15.0376C38.4142 14.8735 38.2775 14.6548 38.2228 14.3814C38.1681 14.2447 38.1408 14.108 38.1408 13.9439C38.0861 13.5065 38.1408 13.069 38.3048 12.6589L38.3322 12.5769C38.4689 12.0847 38.797 11.5926 39.4805 11.5926Z" /> <path class="svgcolor-negative" d="M34.9966 10.3896C34.8325 10.3896 34.6685 10.3896 34.5318 10.4443C34.1763 10.5536 33.8756 10.7997 33.7115 11.1278C33.5202 11.4559 33.3835 11.8113 33.3288 12.1941C33.2467 12.5769 33.2194 12.9596 33.2741 13.3424C33.3288 13.7525 33.4655 14.1353 33.7115 14.4361C33.8483 14.5728 33.985 14.7095 34.1763 14.7642C34.3404 14.8188 34.5044 14.8462 34.6685 14.8735C34.8052 14.9009 34.9692 14.9009 35.1059 14.9009C35.8168 14.8735 36.473 13.8072 36.473 12.7409C36.5003 11.784 36.3636 11.0458 35.6801 10.6083C35.5981 10.5536 35.5434 10.5263 35.4614 10.499C35.2973 10.4169 35.1606 10.3896 34.9966 10.3896ZM34.8872 10.9364C34.9146 10.9364 34.9692 10.9364 34.9966 10.9364C35.8715 11.0184 36.0902 11.6746 36.1722 12.2214V12.3035C36.2269 12.7409 36.1449 13.1784 35.9809 13.5885C35.9262 13.7252 35.8715 13.8619 35.7895 13.9986C35.6528 14.272 35.4067 14.4907 35.1059 14.5454H35.0513C35.4887 14.2447 35.7895 13.7525 35.7895 13.2057C35.8715 12.3581 35.4614 11.6473 34.8872 11.5926C34.5865 11.5926 34.3131 11.702 34.149 11.948C34.4224 12.0301 34.5865 12.3035 34.5044 12.5769C34.4498 12.7409 34.3404 12.8776 34.1763 12.9323C33.985 12.9323 33.8483 12.7956 33.7936 12.6042C33.7389 12.7409 33.7115 12.8776 33.7115 13.0417C33.6569 13.5065 33.7662 13.9439 34.0396 14.3267C34.0123 14.2994 33.985 14.272 33.9576 14.2447C33.7662 13.9713 33.6295 13.6432 33.6022 13.2877C33.5748 13.0964 33.5748 12.9323 33.5748 12.7409C33.6022 12.2761 33.8483 10.9364 34.8872 10.9364Z" /> <path class="svgcolor-negative" d="M32.8913 16.4046C32.7819 16.4319 32.6726 16.514 32.6726 16.6233C32.6726 16.7327 32.7273 16.8421 32.8366 16.8967C33.1374 17.0334 33.4381 17.1701 33.7662 17.2795C34.0396 17.4162 34.2584 17.6349 34.4498 17.8537C34.6958 18.1271 34.9692 18.3458 35.2973 18.5372C35.9262 18.8653 36.637 19.002 37.3206 18.8926C37.676 18.838 38.0041 18.7013 38.3048 18.5372C38.5236 18.4005 38.715 18.2365 38.9337 18.0724C39.0431 17.963 39.1798 17.881 39.3165 17.799C39.3985 17.7443 39.9453 17.5256 40.2187 17.3615C40.2187 17.4709 40.2187 17.5529 40.2734 17.5529C40.3281 17.5529 40.4101 17.4162 40.4374 17.3069C40.4648 17.1975 40.4375 17.0881 40.4101 17.0061C40.3554 16.8967 40.2461 16.8421 40.1367 16.8147V16.7874C40.0273 16.7874 39.9727 16.8694 40.0273 16.9241C40.0547 16.9514 40.0547 16.9514 40.082 16.9788L39.9727 17.0334C39.6992 17.1701 39.4258 17.2522 39.1251 17.3069C38.4142 17.4436 37.676 17.4982 36.9378 17.4162C35.7348 17.3342 34.5591 17.0334 33.4381 16.596L33.1374 16.4593C33.0827 16.4319 33.028 16.4046 33.0007 16.3773C32.9733 16.4046 32.946 16.4046 32.8913 16.4046ZM34.8872 17.5803C36.0629 17.881 37.2659 17.9904 38.4689 17.881C38.2228 18.0997 37.9494 18.2365 37.6213 18.3458C37.2932 18.4278 36.9651 18.4552 36.637 18.4278C36.3089 18.4005 36.0082 18.3185 35.7074 18.1818C35.4067 18.0724 35.1333 17.8537 34.8872 17.5803Z" /> <path d="M173.589 36.3636H8.7218L7.38209 40H172.249L173.589 36.3636Z" /> <path d="M164.976 14.5455H158.113L152.755 29.0909H166.507L168.284 24.2516H161.367L164.976 14.5455Z" /> <path d="M144.771 18.3459H152.809L154.231 14.5455H139.549L134.19 29.0909H149.036L150.485 25.1812H142.283L142.884 23.568H150.54L151.852 19.9863H144.197L144.771 18.3459Z" /> <path d="M174.545 14.5728L169.214 29.1183H176.268L181.627 14.5728H174.545Z" /> <path d="M199.18 14.5728L195.489 24.5523C195.543 23.5407 195.762 19.5762 195.872 17.2796C195.926 16.35 195.707 15.6118 195.27 15.147C194.942 14.7915 194.477 14.6002 193.985 14.5728H185.81L180.451 29.0909H186.411L190.212 18.7833L189.774 29.0909H199.754L205.058 14.5455L199.18 14.5728Z" /> <path d="M74.8599 14.5728L69.7198 22.3924C69.7198 22.3924 70.0478 18.2912 70.1299 17.3343C70.1846 16.5961 70.1025 14.6002 68.2707 14.6002H60.123L54.7642 29.1456H61.162L65.0171 18.592L64.1969 29.1183H69.8565L76.8284 18.7833L73.028 29.1183H79.4532L84.812 14.5728H74.8599Z" /> <path d="M88.8585 14.5728L83.4996 29.1183H90.5537L95.9125 14.5728H88.8585Z" /> <path d="M128.858 14.5728L126.917 19.8223H123.363L125.304 14.5728H118.578L113.247 29.1183H119.945L121.777 24.1969H125.332L123.5 29.1183H130.198L135.557 14.5728H128.858Z" /> <path d="M105.728 14.7095C101.463 15.5844 95.6664 18.7287 95.7485 24.443C95.7758 27.7512 99.7676 29.5831 104.334 29.4464C106.111 29.3643 107.888 29.173 109.638 28.8449L111.333 24.443C109.091 24.7984 106.931 25.3452 105.236 24.6617C102.174 23.4313 104.06 20.2598 106.22 19.2755C107.396 18.7287 108.708 18.4279 110.021 18.4553C110.677 18.4553 112.235 18.4826 112.837 19.877L114.969 14.7642C111.306 13.862 107.642 14.2994 105.728 14.7095Z" /> </g> </svg>