<svg fill="currentColor" aria-label="Nestlé" role="img" width="140" height="40" viewBox="0 0 140 40" xmlns="http://www.w3.org/2000/svg"> <path d="M74.1055 10.6599C73.9103 10.855 73.8128 11.1477 73.8128 11.6356V24.124H73.7152C73.7152 24.124 66.8856 11.9283 66.4953 11.3429C66.3002 10.9526 66.105 10.6599 65.7148 10.4648C65.4221 10.2696 65.0318 10.1721 64.3488 10.1721H62.1048C61.617 10.1721 61.2267 10.3672 61.0316 10.6599C60.8365 10.855 60.7389 11.1477 60.7389 11.6356V29.3926C60.7389 29.8805 60.8365 30.0756 61.0316 30.3683C61.2267 30.661 61.617 30.8561 62.1048 30.8561H63.3732C63.861 30.8561 64.2513 30.661 64.4464 30.3683C64.6415 30.1732 64.7391 29.8805 64.7391 29.3926V16.5139H64.8367C64.8367 16.5139 71.959 29.0999 72.2517 29.5878C72.642 30.2707 73.3249 30.7585 74.3006 30.7585H76.4471C76.9349 30.7585 77.3252 30.5634 77.5203 30.2707C77.7154 30.0756 77.813 29.7829 77.813 29.2951V13.2942H106.595C106.888 13.2942 107.083 13.1966 107.278 13.099C107.473 12.9039 107.571 12.7088 107.571 12.4161V11.2453C107.571 10.9526 107.473 10.6599 107.278 10.5623C107.083 10.4648 106.888 10.3672 106.595 10.3672H75.1787C74.6909 10.1721 74.3006 10.3672 74.1055 10.6599ZM86.6915 15.4406C81.9108 15.4406 79.2765 19.1482 79.2765 23.1484C79.2765 27.3437 82.1059 31.0512 86.7891 31.0512C89.1307 31.0512 91.3747 30.1731 92.6431 28.6121C93.2285 27.9291 93.6187 27.051 93.6187 26.4656C93.6187 26.2705 93.6187 26.0754 93.4236 25.9778C93.326 25.8802 93.1309 25.7827 92.8382 25.7827H90.5942C90.1063 25.7827 89.8136 25.9778 89.6185 26.2705C88.9356 27.2462 88.0575 27.734 86.6915 27.734C84.6426 27.734 83.2767 26.1729 83.1791 24.4167H92.7406C93.1309 24.4167 93.4236 24.3192 93.7163 24.124C93.9114 23.9289 94.1066 23.5386 94.1066 22.9532C94.1066 21.1971 93.5212 19.2457 92.3504 17.8798C91.082 16.4163 89.2282 15.4406 86.6915 15.4406ZM101.424 15.4406C97.619 15.4406 95.1798 17.1968 95.1798 20.1238C95.1798 21.0995 95.5701 21.9776 96.1555 22.6605C96.8384 23.4411 97.9117 23.9289 99.2776 24.3192L102.4 25.0997C103.278 25.2948 104.058 25.5875 104.058 26.3681C104.058 27.5389 102.79 27.9291 101.522 27.9291C100.839 27.9291 100.156 27.8316 99.6678 27.5389C99.2776 27.3437 98.9849 27.051 98.6922 26.6608C98.4971 26.2705 98.497 25.9778 98.1068 25.8802C97.9117 25.7827 97.7165 25.7827 97.3263 25.7827H95.5701C95.1798 25.7827 94.9847 25.8802 94.8871 26.0754C94.7895 26.2705 94.692 26.4656 94.692 26.6608C94.692 27.2462 94.8871 27.9291 95.3749 28.5145C96.4482 29.8805 98.5946 31.0512 101.424 31.0512C104.156 31.0512 107.961 29.8805 107.961 26.1729C107.961 25.1973 107.668 24.4167 107.18 23.7338C106.497 22.8557 105.619 22.2703 104.058 21.88L100.936 21.0995C99.6678 20.8068 99.0824 20.5141 99.0824 19.7336C99.0824 18.953 99.7654 18.3676 101.326 18.3676C102.302 18.3676 103.083 18.5628 103.668 19.1482C104.156 19.636 104.058 19.8311 104.351 20.0263C104.546 20.1238 104.839 20.1238 105.229 20.1238H106.79C107.083 20.1238 107.18 20.1238 107.376 19.9287C107.473 19.8311 107.571 19.636 107.571 19.3433C107.571 18.6603 107.083 17.6847 106.302 17.0017C105.229 16.026 103.57 15.4406 101.424 15.4406ZM110.01 15.9285H109.229C108.937 15.9285 108.742 16.026 108.546 16.1236C108.351 16.3187 108.254 16.5139 108.254 16.8066V17.7822C108.254 18.0749 108.351 18.3676 108.546 18.4652C108.742 18.5628 108.937 18.6603 109.229 18.6603H110.01V25.49C110.01 27.2462 110.498 28.3194 111.376 29.1975C112.156 29.978 113.23 30.5634 115.181 30.5634H116.352C116.644 30.5634 116.84 30.4658 117.035 30.3683C117.23 30.1732 117.327 29.978 117.327 29.6853V28.5145C117.327 28.2218 117.23 27.9291 117.035 27.8316C116.84 27.734 116.644 27.6364 116.352 27.6364H116.157C115.376 27.6364 114.888 27.4413 114.595 27.1486C114.205 26.7583 114.01 26.1729 114.01 25.3924V18.7579H116.547C116.84 18.7579 117.035 18.6603 117.23 18.5628C117.425 18.3676 117.522 18.1725 117.522 17.8798V16.9041C117.522 16.6114 117.425 16.3187 117.23 16.2212C117.035 16.1236 116.84 16.026 116.547 16.026H114.01V11.538C114.01 11.1477 113.913 10.9526 113.717 10.7575C113.522 10.4648 113.23 10.3672 112.839 10.3672H111.181C110.79 10.3672 110.498 10.5623 110.303 10.7575C110.107 10.9526 110.01 11.2453 110.01 11.538C110.01 11.4404 110.01 15.9285 110.01 15.9285ZM118.401 29.4902C118.401 29.8805 118.498 30.0756 118.693 30.2707C118.888 30.5634 119.181 30.661 119.571 30.661H121.23C121.62 30.661 121.913 30.4658 122.108 30.2707C122.303 30.0756 122.401 29.7829 122.401 29.4902V11.4404C122.401 11.0502 122.303 10.855 122.108 10.6599C121.913 10.3672 121.62 10.2696 121.23 10.2696H119.571C119.181 10.2696 118.888 10.4648 118.693 10.6599C118.498 10.855 118.401 11.1477 118.401 11.4404V29.4902ZM83.2767 21.3922C83.4718 19.7336 84.7402 18.4652 86.6915 18.4652C88.6429 18.4652 89.9112 19.7336 90.1063 21.3922H83.2767ZM137.426 13.2942C137.719 13.2942 137.914 13.1966 138.109 13.099C138.304 12.9039 138.402 12.7088 138.402 12.4161V11.1477C138.402 10.6599 138.304 10.3672 138.109 10.2696C137.914 10.0745 137.719 9.97693 137.426 9.97693C137.231 9.97693 136.938 9.97693 136.645 10.0745L125.62 11.0502C125.328 11.0502 125.133 11.1477 125.035 11.3429C124.84 11.4404 124.84 11.6356 124.84 11.8307V12.6112C124.84 12.9039 124.938 13.0015 125.035 13.099C125.133 13.1966 125.328 13.2942 125.62 13.2942H137.426ZM131.279 15.4406C126.499 15.4406 123.864 19.1482 123.864 23.1484C123.864 27.3437 126.791 31.0512 131.377 31.0512C133.718 31.0512 135.963 30.1731 137.231 28.6121C137.816 27.9291 138.207 27.051 138.207 26.4656C138.207 26.2705 138.207 26.0754 138.011 25.9778C137.914 25.8802 137.719 25.7827 137.426 25.7827H135.182C134.694 25.7827 134.401 25.9778 134.206 26.2705C133.523 27.2462 132.645 27.734 131.279 27.734C129.23 27.734 127.865 26.1729 127.767 24.4167H137.426C137.816 24.4167 138.109 24.3192 138.402 24.124C138.597 23.9289 138.792 23.5386 138.792 22.9532C138.792 21.1971 138.207 19.2457 137.036 17.8798C135.767 16.4163 133.914 15.4406 131.279 15.4406ZM127.865 21.3922C128.06 19.7336 129.328 18.4652 131.279 18.4652C133.231 18.4652 134.499 19.7336 134.694 21.3922H127.865Z" /> <path d="M45.1532 13.4544C41.5432 8.18577 38.4211 6.33201 37.543 5.55148C36.5674 4.57582 35.8844 3.60015 35.3966 3.01476C34.3233 1.84396 32.9574 0.478034 30.8109 0.478034C28.6645 0.478034 27.201 1.84396 26.8107 3.11232C26.7132 3.50259 26.6156 3.89285 26.518 3.99042C26.3229 4.38068 25.3472 5.94175 24.957 6.62471H26.7132L25.8351 8.28334C26.8107 8.08821 27.5913 7.89307 28.4694 7.89307C29.3475 7.89307 29.9329 8.08821 30.2256 8.6736C30.7134 9.64927 30.7134 12.6738 31.5915 14.9178C32.372 17.0643 34.3233 19.1132 36.4698 20.7718H36.5674C36.6649 20.7718 36.7625 20.6743 36.7625 20.5767C36.7625 20.4791 36.7625 20.4791 36.6649 20.4791C34.9087 18.7229 33.4452 16.674 32.5671 14.5276C31.7866 12.3811 31.8842 9.45413 31.2012 8.08821C30.7134 7.21011 29.8353 7.01498 28.9572 7.01498C28.2742 7.01498 27.5913 7.11254 27.2986 7.21011L28.0791 5.94175H26.8107C27.1034 5.45391 27.3961 4.96609 27.4937 4.77095C27.5913 4.38069 27.5913 4.08799 27.7864 3.69772C28.2742 2.42936 29.3475 1.64883 30.8109 1.64883C32.5671 1.64883 33.6404 2.81962 34.7136 3.99042C35.2014 4.57582 35.982 5.64905 36.8601 6.52715C37.4455 7.01498 38.7138 7.60037 40.47 9.5517C41.5432 10.6249 42.714 12.0884 44.08 13.9422C48.6656 20.6743 51.7877 26.7234 53.4463 31.309C48.568 28.0893 44.3727 24.9672 40.9578 21.0645C38.5187 18.3327 36.4698 15.2105 34.616 11.1128C34.5185 10.8201 34.4209 10.6249 34.2258 10.3322C34.2258 10.2347 34.1282 10.2347 34.0306 10.2347C33.9331 10.2347 33.8355 10.3322 33.8355 10.4298C33.8355 10.5274 33.8355 10.7225 34.0306 11.2103C35.1039 15.4057 37.7382 19.1132 40.6651 22.2353C43.4946 25.3574 46.7143 27.9917 49.4461 29.9431L51.3974 35.8946C51.3974 35.9922 51.495 36.1873 51.495 36.3824C51.495 36.48 51.495 36.5776 51.3974 36.6751C51.2999 36.7727 51.2999 36.7727 51.1047 36.7727H50.5193C50.2266 36.7727 50.1291 36.7727 50.0315 36.6751C49.9339 36.5776 49.8364 36.48 49.8364 36.3824C49.6412 35.797 48.568 32.6749 48.3729 32.0895C48.3729 31.9919 48.2753 31.8944 48.1778 31.8944C48.0802 31.8944 47.9826 31.9919 47.9826 32.0895C47.9826 32.1871 47.9826 32.2846 48.0802 32.4798C48.3729 33.9433 48.6656 35.5043 48.8607 36.0897C48.9583 36.3824 48.9583 36.5776 48.9583 36.7727C48.9583 36.9678 48.9583 37.0654 48.7632 37.163L48.0802 37.7484C47.8851 37.9435 47.8851 37.9435 47.6899 37.9435C47.4948 37.9435 47.3972 37.8459 47.3972 37.5532C46.7143 34.1384 45.5435 29.9431 45.2508 28.7723C45.1532 28.4796 45.1532 28.382 44.9581 28.382C44.8605 28.382 44.7629 28.4796 44.7629 28.5771C44.7629 28.6747 44.7629 28.7723 44.7629 28.8698C44.9581 30.0406 45.641 34.4311 46.4216 38.5289C46.5191 39.2119 46.8118 39.6021 47.3972 39.6021C47.6899 39.6021 47.8851 39.5046 48.1778 39.3094C48.568 38.9192 48.6656 38.8216 49.1534 38.3338C49.4461 38.0411 49.7388 37.8459 50.3242 37.8459H51.7877C52.0804 37.8459 52.2755 37.7484 52.4707 37.6508C52.6658 37.5532 52.7634 37.2605 52.7634 37.0654C52.7634 36.7727 52.6658 36.5776 52.5682 36.1873C52.178 35.2116 51.0072 31.8944 50.7145 31.0163C51.8853 31.8944 53.6415 33.0652 54.422 33.0652C54.6171 33.0652 54.8123 32.9676 54.8123 32.5773C54.8123 30.7236 51.8853 23.4061 45.1532 13.4544Z" /> <path d="M12.2666 2.32271C12.4617 1.83488 12.9496 1.54218 13.4374 1.54218C14.1204 1.54218 14.7058 2.12758 14.7058 2.81054C14.7058 3.29837 14.5106 3.68864 14.2179 3.88377C14.3155 4.17647 14.3155 4.3716 14.3155 4.56673C14.3155 5.34726 13.8277 5.93266 12.9496 6.22536C12.852 6.71319 12.6569 7.20102 12.2666 7.49372C11.6812 8.07912 11.0958 8.07912 11.0958 8.27425C11.0958 8.37182 11.1934 8.46939 11.3885 8.46939C12.4617 8.46939 13.535 7.88399 13.6325 6.90832C14.6082 6.51806 15.2912 5.5424 15.2912 4.76187C15.2912 4.56673 15.2912 4.3716 15.1936 4.17647C15.4863 3.88377 15.779 3.4935 15.779 2.81054C15.779 2.22514 15.4863 1.63974 15.096 1.15191C14.7058 0.761647 14.1204 0.468948 13.4374 0.468948C12.4617 0.468948 11.8763 0.956779 11.4861 1.54218C10.4129 1.54218 9.04692 2.71297 9.04692 4.3716H8.94936C8.85179 3.7862 8.26639 3.39594 7.77856 3.39594C7.3883 2.12758 6.5102 1.05435 5.0467 1.05435C4.85157 1.05435 4.65644 1.05435 4.46131 1.05435C3.97348 0.66408 3.48564 0.371381 2.90025 0.371381C1.63188 0.371381 0.558655 1.44461 0.558655 2.71297C0.558655 3.4935 0.94892 4.0789 1.63188 4.56673C1.63188 4.56673 1.63188 4.6643 1.63188 4.76187C1.63188 5.83509 2.80268 7.49372 4.46131 7.49372C4.46131 7.78642 4.75401 8.07912 5.14427 8.17669V8.27425H5.0467C2.70511 8.27425 1.72945 9.44505 1.72945 10.128C1.04649 10.4207 0.558655 11.2012 0.558655 11.8842C0.558655 13.3477 1.63188 14.3234 2.99781 14.3234C3.48564 14.3234 3.97348 14.1282 4.26617 13.9331C4.46131 14.0307 4.85157 14.0307 5.14427 14.0307C5.82723 14.0307 6.5102 13.8355 7.0956 13.055C7.19316 13.055 7.19316 13.055 7.29073 13.055C8.16883 13.055 8.85179 12.4696 9.24205 11.7866C9.33962 11.5915 9.33962 11.4939 9.33962 11.3964C9.33962 11.2988 9.33962 11.2012 9.14449 11.2012C9.04692 11.2012 8.94936 11.2988 8.75422 11.5915C8.26639 12.0793 7.3883 12.2745 6.5102 12.2745C6.11993 12.8599 5.6321 13.1526 5.0467 13.1526C4.65644 13.1526 4.26617 13.055 3.97348 12.7623C3.68078 13.055 3.38808 13.1526 2.99781 13.1526C2.21728 13.1526 1.72945 12.6647 1.72945 11.8842C1.72945 11.2988 2.11972 10.9085 2.50998 10.7134C2.60755 9.73775 3.58321 9.15235 4.85157 9.15235C5.0467 9.15235 5.14427 9.15235 5.3394 9.15235C5.53454 8.85965 6.02237 8.56695 6.60776 8.46939C6.70533 8.46939 6.8029 8.46939 6.90046 8.37182C6.99803 8.37182 6.99803 8.27425 6.99803 8.17669C6.99803 8.07912 6.99803 8.07912 6.90046 7.98155C6.8029 7.98155 6.70533 7.88399 6.60776 7.88399C6.02237 7.78642 5.24184 7.39616 4.94914 6.51806C3.48564 6.51806 2.41241 5.34726 2.41241 4.0789V3.98133C1.92458 3.7862 1.63188 3.29837 1.63188 2.81054C1.63188 2.12758 2.21728 1.54218 2.90025 1.54218C3.29051 1.54218 3.68078 1.73731 3.97348 2.03001C4.16861 1.93244 4.36374 1.93244 4.65644 1.93244C5.72967 1.93244 6.90046 2.61541 7.0956 3.98133C8.46152 4.0789 8.75422 5.2497 8.85179 5.73753C8.85179 6.03023 8.94936 6.22536 9.14449 6.22536C9.33962 6.22536 9.33962 6.03023 9.43719 5.73753C9.53475 5.2497 9.72989 4.85943 10.1202 4.56673C10.0226 3.39594 10.9007 2.32271 12.2666 2.32271Z" /> <path d="M15.0541 9.83291C14.5662 10.5159 14.2735 10.8086 13.2979 11.9794C11.9319 13.5404 11.249 14.9064 10.0782 17.7358C10.2733 17.7358 10.566 17.7358 10.8587 17.7358C11.0538 17.7358 11.1514 17.7358 11.3465 17.7358L11.4441 17.4431C12.1271 15.9796 13.0052 14.1258 14.2735 12.6623L14.6638 12.1745C15.9322 10.711 16.7127 9.73534 17.2005 7.68645C17.3957 6.90592 17.4932 6.32052 17.9811 5.83269C18.4689 5.44242 18.9567 5.24729 19.5421 5.24729C20.0299 5.24729 20.4202 5.34486 20.908 5.53999C21.3959 5.73512 21.591 5.73512 22.0788 5.73512C22.274 5.73512 22.3715 5.73512 22.4691 5.73512L21.7861 6.71079L22.6642 7.39375C21.4934 7.68645 20.908 8.85724 20.7129 9.34508C20.7129 9.44264 20.6153 9.54021 20.6153 9.54021C20.6153 9.63777 20.6153 9.73534 20.8105 9.73534C20.908 9.73534 21.0056 9.63778 21.2007 9.44264C21.7861 8.75968 22.1764 8.27185 24.2253 7.68645L22.8594 6.51565L23.9326 4.95459H22.9569C22.274 4.95459 21.8837 4.95459 21.2983 4.66189C20.5178 4.27163 20.1275 4.0765 19.4446 4.0765C18.5665 4.0765 17.8835 4.46676 17.2005 4.95459C16.5176 5.63756 16.3224 6.51565 16.0297 7.49132C15.8346 8.27185 15.5419 9.05238 15.0541 9.83291Z" /> <path d="M17.2573 16.3566C16.6719 17.1371 15.989 18.0152 15.4036 19.0885C15.5987 19.186 16.1841 19.4787 16.3792 19.5763C17.0622 18.6006 17.9403 17.3323 18.5257 16.4542C19.1111 15.5761 19.3062 15.2834 19.3062 14.1126C19.3062 13.9174 19.3062 13.7223 19.3062 13.5272C19.3062 12.9418 19.5013 12.3564 20.0867 11.771C20.5746 11.4783 21.16 11.1856 21.7454 11.1856C22.3308 11.1856 22.6235 11.3807 23.1113 11.3807C23.5016 11.3807 23.6967 11.2832 23.9894 11.1856L24.1845 11.088L23.7943 12.1613L24.8675 12.5515C24.087 13.0394 22.721 14.7955 22.721 16.942C22.721 17.7225 22.8186 18.4055 23.0137 18.9909C23.0137 19.0885 23.1113 19.0885 23.2089 19.0885C23.3064 19.0885 23.404 18.9909 23.404 18.8933V18.6982C23.404 18.0152 23.5016 17.0396 23.6967 16.1615C24.087 14.6004 25.2578 13.2345 26.4286 12.454L24.7699 11.771L25.4529 10.0148L24.6724 10.2099C24.1845 10.3075 23.8918 10.4051 23.404 10.4051C23.1113 10.4051 22.8186 10.4051 22.4283 10.3075C22.1356 10.2099 21.8429 10.2099 21.4527 10.2099C20.6721 10.2099 19.8916 10.5026 19.3062 10.9905C18.3306 11.9661 18.233 13.0394 18.1354 13.9174C18.1354 15.1858 17.9403 15.4785 17.2573 16.3566Z" /> <path d="M41.8386 16.9408C41.741 16.8433 41.741 16.8433 41.6434 16.8433C41.5459 16.8433 41.4483 16.9408 41.4483 16.9408C41.4483 17.0384 41.5459 17.2335 41.741 17.6238C42.5215 18.8922 43.3996 20.1605 44.5704 21.3313C45.7412 22.5997 47.1071 23.7705 48.6682 24.8437L49.156 25.1364C49.2536 25.234 49.2536 25.234 49.3512 25.234C49.4487 25.234 49.5463 25.1364 49.5463 25.0388C49.5463 25.0388 49.5463 24.9413 49.4487 24.9413C48.0828 23.6729 46.5218 22.1118 45.1558 20.6483C43.985 19.4776 42.8142 18.2092 41.8386 16.9408Z" /> <path d="M11.0115 12.6016C11.1091 12.4064 11.5969 11.821 11.7921 11.6259C11.0115 10.0649 9.84075 8.69893 9.25535 8.11353L8.76752 8.50379C9.35291 9.28432 10.231 10.7478 11.0115 12.6016Z" /> <path d="M3.98978 3.95145C3.89221 3.85389 3.89221 3.85389 3.89221 3.75632C3.89221 3.65875 3.89221 3.65875 4.08734 3.65875H4.18491C4.86787 3.95145 5.45327 4.24415 6.03867 4.73198C6.42894 5.02468 6.91677 5.41495 7.30703 6.00034L6.91677 6.39061C6.42894 6.00034 4.86787 4.63442 3.98978 3.95145Z" /> <path d="M10.7817 7.16053L10.2938 6.86783C10.5865 6.0873 11.0744 5.30677 11.5622 4.81894C11.9525 4.42867 12.2451 4.13597 12.6354 3.84328C12.6354 3.64814 12.6354 3.64814 12.733 3.64814C12.8305 3.64814 12.9281 3.74571 12.9281 3.84328C12.9281 3.84328 12.9281 3.94084 12.8305 3.94084C12.2451 4.81894 11.1719 6.6727 10.7817 7.16053Z" /> <path d="M4.28684 11.6052C4.18928 11.6052 4.09171 11.7028 3.99414 11.7028C3.89658 11.7028 3.79901 11.6052 3.79901 11.5077C3.79901 11.4101 3.79901 11.4101 3.89658 11.3125C5.16494 10.4344 6.23817 10.0442 7.6041 9.84903L7.79923 10.4344L4.28684 11.6052Z" /> <path d="M28.8582 4.17196C28.8582 3.87926 29.0533 3.19629 29.6387 3.19629C29.8338 3.19629 30.0289 3.19629 30.2241 3.29386C30.4192 3.39143 30.6143 3.58656 30.6143 3.68413C30.6143 3.87926 30.4192 4.07439 30.2241 4.26952C29.9314 4.56222 29.5411 4.75735 29.2484 4.75735C28.9557 4.75735 28.8582 4.46466 28.8582 4.17196Z" /> <path d="M19.135 6.96896C19.135 6.57869 19.4277 6.09086 19.818 6.09086C20.0131 6.09086 20.3058 6.18843 20.5009 6.38356C20.5985 6.48112 20.6961 6.57869 20.6961 6.67626C20.6961 6.87139 20.5009 7.16409 20.2082 7.26165C20.0131 7.35922 19.7204 7.45679 19.6228 7.45679C19.3301 7.45679 19.135 7.26165 19.135 6.96896Z" /> <path d="M21.3862 12.8795C21.3862 12.782 21.3862 12.6844 21.3862 12.5868C21.4838 12.2941 21.5814 12.099 22.0692 12.099C22.2643 12.099 22.4595 12.099 22.6546 12.2941C22.7522 12.3917 22.8497 12.4893 22.8497 12.6844C22.8497 13.0747 22.1668 13.5625 21.7765 13.5625C21.5814 13.4649 21.3862 13.2698 21.3862 12.8795Z" /> <path d="M17.6119 24.9686C16.3435 24.9686 15.7581 24.3832 15.7581 23.6026C15.7581 22.2367 18.0997 20.8708 20.2462 20.0903L20.8316 20.7732C19.4656 21.2611 16.8313 22.4319 16.8313 23.4075C16.8313 23.7978 17.0265 23.9929 17.807 23.9929C19.1729 23.9929 20.734 23.3099 22.0999 22.627C22.1975 22.627 22.2951 22.5294 22.4902 22.5294C22.6853 22.5294 22.7829 22.627 22.8805 22.8221L23.0756 23.1148C21.5145 23.9929 19.4656 24.9686 17.6119 24.9686Z" /> <path d="M21.1756 25.333C19.9073 26.016 18.6389 26.5038 17.4681 26.5038C16.1997 26.5038 15.0289 25.9184 14.0533 24.4549C13.663 23.8695 13.2728 23.089 12.9801 22.406C12.4922 21.6255 12.0044 21.1376 11.1263 21.1376C10.3458 21.1376 9.56523 21.4303 8.68713 21.8206V22.0157C8.7847 22.3084 8.88227 22.5036 9.17497 22.5036C9.27253 22.5036 9.46766 22.406 9.46766 22.406C9.9555 22.3084 10.2482 22.1133 10.736 22.1133C11.419 22.1133 11.8093 22.5036 12.2971 23.5768L12.4922 23.9671C12.0044 24.2598 10.8336 24.3573 9.9555 24.3573H9.56523L9.6628 24.7476C9.6628 24.9427 9.76036 25.0403 9.85793 25.1379C10.0531 25.2354 10.2482 25.2354 10.736 25.2354C11.8093 25.2354 12.5898 25.1379 13.0776 24.9427C14.2484 26.6989 15.907 27.3819 17.4681 27.3819C18.834 27.3819 20.1024 26.8941 21.4683 26.2111L21.1756 25.333Z" /> <path d="M22.4781 25.764L22.283 24.8859C24.2343 23.8127 26.088 22.9346 28.9175 22.7395C29.015 23.8127 28.9175 25.2762 29.698 25.2762C30.4785 25.2762 32.0396 23.3249 33.9909 20.9833C34.186 21.1784 34.4787 21.276 34.6739 21.4711L34.186 21.9589C32.3323 24.3005 30.7712 26.3494 29.5029 26.3494C28.3321 26.3494 27.8442 24.9835 27.8442 23.9103C25.9905 24.1054 24.2343 24.6908 22.4781 25.764Z" /> <path d="M47.8259 6.53783C47.0454 6.53783 46.8503 6.14757 46.8503 5.56217C46.8503 4.39138 47.6308 2.63518 48.1186 1.65952H46.9478C46.3624 2.83031 43.9233 6.53783 42.6549 8.09889L43.4354 8.87943C44.1184 8.09889 44.8989 6.83053 45.6795 5.56217H45.8746C45.8746 5.56217 45.8746 5.65974 45.8746 5.7573C45.8746 6.83053 46.46 7.61106 47.8259 7.61106C48.704 7.61106 49.9724 7.2208 51.2407 6.73297C52.314 6.3427 53.1921 6.05 53.6799 5.85487V4.68407C53.0945 4.87921 52.0213 5.26947 50.948 5.65974C49.6797 6.14757 48.5089 6.53783 47.8259 6.53783Z" /> <path d="M50.3834 10.015C51.5542 9.52716 53.6031 8.74662 54.7739 8.25879V7.088C52.4323 7.96609 48.237 9.72229 45.31 11.2833C45.4076 11.3809 45.8954 12.0639 45.8954 12.1614C47.0662 11.6736 48.1394 11.3809 49.1151 11.3809C50.481 11.3809 51.6518 11.3809 53.5056 10.8931V10.015C52.4323 10.2101 51.3591 10.4053 50.5786 10.4053C50.1883 10.4053 49.9932 10.3077 49.9932 10.2101C50.1883 10.1126 50.1883 10.1126 50.3834 10.015Z" /> <path d="M25.8406 15.3987L25.3527 16.2768H30.231L29.9383 15.3987H25.8406Z" /> <path d="M8.20463 20.658C8.69246 20.658 9.18029 20.4628 9.57055 20.3653C9.96082 20.1701 10.3511 20.0726 10.8389 20.0726C12.1073 20.0726 13.5708 20.658 14.9367 21.2433C15.0343 21.2433 15.1318 21.2433 15.2294 21.2433C15.4245 21.2433 15.6197 21.1458 15.7172 20.9506L15.8148 20.658C14.3513 19.7799 12.0097 18.8042 10.7413 18.8042C10.156 18.8042 9.76569 18.9018 9.37542 19.0969C8.98516 19.292 8.59489 19.4872 8.20463 19.4872C7.22896 19.4872 4.7898 18.5115 4.7898 17.6334C4.7898 16.5602 8.69246 16.0723 9.18029 16.0723L9.57055 15.1942C6.74113 15.1942 3.32631 16.1699 3.32631 17.5358C3.32631 17.9261 3.52144 18.1212 3.52144 18.5115C3.52144 18.9993 3.32631 19.292 3.32631 19.7799C3.32631 20.1701 3.52144 20.658 3.71658 21.0482C4.00927 21.4385 4.30197 21.7312 4.30197 22.0239C4.30197 22.3166 4.20441 22.6093 4.20441 23.1947C4.20441 24.463 4.98494 25.2436 6.35087 26.8046L6.64356 27.0973C5.47277 27.5852 3.22874 28.5608 2.74091 28.756C0.984719 29.5365 0.496887 30.4146 0.496887 31.8781C0.496887 32.4635 0.496887 33.0489 0.496887 33.6343H0.887153C1.57012 33.6343 1.66768 33.244 1.66768 32.7562C1.66768 32.4635 1.66768 32.1708 1.66768 31.7805C1.66768 31 1.66768 30.317 3.03361 29.7316C3.52144 29.5365 6.05817 28.4633 7.91193 27.6827C8.49732 27.4876 8.98516 27.2925 9.57055 27.2925C10.156 27.2925 10.9365 27.4876 11.8146 28.073C12.5951 28.5608 13.4732 29.1462 14.0586 29.8292L14.8391 29.2438C14.1562 28.4633 13.2781 27.6827 12.3024 27.0973C11.3267 26.5119 10.4486 26.2192 9.66812 26.2192C9.37542 26.2192 9.18029 26.2192 8.88759 26.3168C8.69246 26.4144 8.39976 26.5119 8.10706 26.5119C7.71679 26.5119 7.42409 26.4144 7.03383 25.9265C6.8387 25.7314 5.86303 24.5606 5.57033 24.1703C5.47277 23.9752 5.27764 23.6825 5.27764 23.2922C5.27764 23.0971 5.27764 22.902 5.3752 22.8044C6.2533 23.4874 7.32653 23.8776 8.69246 24.0728L8.59489 23.0971C6.64356 22.6093 4.59467 20.8531 4.59467 19.7799C4.59467 19.5847 4.69224 19.3896 4.69224 19.1945C5.47277 19.975 7.22896 20.658 8.20463 20.658Z" /> <path d="M21.9899 20.8307C23.1607 19.9526 24.4291 19.8551 25.4047 19.8551C25.9901 19.8551 26.6731 19.9526 27.4536 20.0502C28.039 20.1478 28.6244 20.1478 29.2098 20.1478C30.4782 20.1478 31.8441 19.6599 32.4295 19.4648C32.6247 19.6599 32.9174 19.9526 33.1125 20.1478C32.8198 20.3429 31.0636 21.3185 29.3074 21.3185C28.5269 21.3185 27.7463 21.221 27.0634 21.1234C26.5755 21.0258 25.8926 20.9283 25.3072 20.9283C24.6242 20.9283 23.3559 21.1234 22.4778 21.5137L21.9899 20.8307Z" /> <path d="M39.779 24.2505C38.3155 27.2751 36.169 29.5191 33.925 30.7875C32.8518 31.3729 31.8761 31.7631 29.8272 31.7631H25.3392C23.7781 31.7631 22.7049 31.9583 21.9243 32.1534C21.0462 32.3485 20.5584 32.6412 19.6803 32.6412C18.412 32.6412 17.2412 32.0558 16.6558 31.4704L17.729 30.5923L17.2412 29.9094C16.9485 30.1045 13.1434 32.9339 12.3628 33.5193C12.3628 33.3242 12.3628 33.1291 12.3628 32.9339C12.3628 30.7875 11.3872 30.2996 9.92368 29.7142L8.94802 30.2996C10.9969 30.9826 11.4847 31.4704 11.4847 33.0315C11.4847 34.2023 11.0945 34.6901 10.4115 35.0804C9.72855 35.4707 8.94802 35.6658 8.26506 35.6658C7.97236 35.6658 7.87479 35.7634 7.77723 35.8609C7.67966 35.9585 7.58209 36.1536 7.58209 36.3487V36.6414H7.77723C9.04559 36.6414 10.2164 36.4463 11.5823 35.3731L15.8752 32.0558C16.4606 32.7388 18.0217 33.7145 19.7779 33.7145C20.7535 33.7145 21.4365 33.4218 22.4122 33.2266C23.0951 33.0315 23.8757 32.8364 25.4367 32.8364H29.9248C32.2664 32.8364 33.3396 32.3485 34.608 31.6656C37.2422 30.2021 39.5838 27.6653 40.8522 24.7384C40.3644 24.6408 40.0717 24.4457 39.779 24.2505Z" /> <path d="M32.5655 27.8526C33.7363 25.9989 34.712 24.3402 37.2487 22.9743C37.0536 22.8767 36.6633 22.584 36.4682 22.4865C35.4925 22.8767 34.5169 23.7548 33.6388 24.6329C31.6874 26.5843 31.8826 27.755 29.8337 28.5356C29.3458 28.7307 28.6629 28.9258 27.8824 29.121C27.3945 27.6575 26.2237 26.194 24.9554 26.194C24.0773 26.194 23.1016 26.6818 21.9308 27.1697C20.5649 27.755 19.2965 28.438 18.9062 28.7307L19.3941 29.4137C19.7843 29.2185 20.9551 28.6331 22.1259 28.1453C23.1016 27.755 24.0773 27.3648 24.6627 27.3648C25.6383 27.3648 26.3213 28.438 26.614 29.4137C25.5408 29.7064 23.3943 29.8039 22.8089 29.8039C22.5162 29.8039 22.4186 29.8039 22.3211 29.9015C22.2235 29.9991 22.1259 30.0966 22.1259 30.3893L22.0284 30.682H22.7113C26.2237 30.682 29.6385 30.0966 31.785 28.8283C32.0777 28.9258 32.3704 28.9258 32.6631 28.9258C33.9315 28.9258 35.1998 28.2429 35.9804 27.6575C36.2731 27.4623 36.3706 27.2672 36.3706 26.9745C36.3706 26.877 36.3706 26.7794 36.3706 26.6818V26.2916C35.1998 27.2672 34.2242 27.9502 33.0534 27.9502C32.8582 27.9502 32.6631 27.8526 32.5655 27.8526Z" /> </svg>