<svg fill="currentColor" aria-label="Orange" role="img" width="50" height="50" viewBox="0 0 50 50" xmlns="http://www.w3.org/2000/svg"> <g> <path d="M41.1993 39.8765C40.3703 39.8765 39.8589 40.4056 39.7883 41.358H42.5926C42.5926 40.4233 42.0635 39.8765 41.1993 39.8765Z" /> <path d="M17.037 43.6861C17.037 44.1446 17.3369 44.5855 17.866 44.5855C18.448 44.5855 18.9947 44.3386 19.5591 43.8448V42.2046C17.8483 42.4339 17.037 42.8571 17.037 43.6861Z" /> <path d="M33.545 39.9471C32.8924 39.9471 32.1517 40.4233 32.1517 41.9929C32.1693 42.8571 32.2222 44.2681 33.5626 44.2681C34.9559 44.2504 35.0617 42.8395 35.0617 41.9224C35.0617 40.8289 34.5326 39.9471 33.545 39.9471Z" /> <path d="M0 0V50H50V0H0ZM6.1552 45.9612C4.33862 45.9612 2.71605 44.8148 2.71605 42.2928C2.71605 39.7707 4.35626 38.6243 6.1552 38.6243C7.97178 38.6243 9.59436 39.7707 9.59436 42.2928C9.59436 44.8148 7.97178 45.9612 6.1552 45.9612ZM14.7443 40.3704C14.709 40.3704 14.6914 40.3704 14.6561 40.3704C13.8624 40.3704 12.9806 40.4938 12.716 41.1111V45.7319H10.8466V38.8007H12.5926V39.612C12.9277 39.1711 13.739 38.642 14.515 38.642C14.5855 38.642 14.6737 38.642 14.7443 38.6596V40.3704ZM21.4109 45.7496H19.7884L19.612 45.1499C18.9065 45.6085 18.1305 45.8377 17.3192 45.8377C16.0141 45.8377 15.2557 44.9735 15.2557 43.8095C15.2557 42.2575 16.6843 41.4286 19.6296 41.0935V40.7055C19.6296 40.194 19.2416 39.9118 18.5362 39.9118C17.8307 39.9118 17.2487 40.194 16.843 40.7055L15.6085 40C16.261 39.1005 17.2487 38.642 18.5714 38.642C20.388 38.642 21.4109 39.4356 21.4109 40.7055C21.4109 40.7055 21.4109 45.7319 21.4109 45.7496ZM29.0829 45.7672H27.2487V41.2346C27.2487 40.388 27.0194 40 26.3668 40C25.8201 40 25.2734 40.2469 24.6561 40.776V45.7672H22.8395V38.9947L24.3563 38.7831L24.515 39.612C25.3792 38.9947 26.0494 38.6596 26.9136 38.6596C28.3422 38.6596 29.0829 39.418 29.0829 40.9171V45.7672ZM36.843 45.3792C36.843 46.5432 36.7548 48.448 33.4392 48.4832C32.0635 48.4832 30.8113 47.9365 30.5467 46.7548L32.3457 46.4727C32.4162 46.8078 32.6279 47.1605 33.6508 47.1605C34.6032 47.1605 35.0617 46.7019 35.0617 45.6261V44.8148L35.0441 44.7972C34.7619 45.3086 34.3033 45.8025 33.2451 45.8025C31.6226 45.8025 30.3527 44.6737 30.3527 42.328C30.3527 40 31.6755 38.6949 33.157 38.6949C34.515 38.6949 35.0265 39.2945 35.1675 39.6296L35.3263 38.836H36.843V45.3792ZM44.3739 42.5397H39.7354C39.7531 43.8624 40.2998 44.515 41.3757 44.515C42.0635 44.515 42.522 44.2328 42.9453 43.6155L44.2857 44.3563C43.7037 45.3616 42.6455 45.8907 41.2169 45.8907C39.1711 45.8907 37.9365 44.5679 37.9365 42.2751C37.9365 39.9647 39.1711 38.642 41.1817 38.642C43.1922 38.642 44.3915 39.9118 44.3915 42.1869C44.3915 42.3104 44.3739 42.4339 44.3739 42.5397ZM44.3739 36.4727V38.4656H43.9859V36.4727H43.2628V36.1728H45.0794V36.4727H44.3739ZM47.7072 38.4656V36.5432H47.6896L46.9312 38.4656H46.6843L45.9259 36.5432H45.9083V38.4656H45.5203V36.1728H46.1023L46.7901 37.9189L47.4603 36.1728H48.0423V38.4656H47.7072Z" /> <path d="M6.15523 44.3915C7.05135 44.3915 7.7778 43.444 7.7778 42.2751C7.7778 41.1063 7.05135 40.1587 6.15523 40.1587C5.25911 40.1587 4.53265 41.1063 4.53265 42.2751C4.53265 43.444 5.25911 44.3915 6.15523 44.3915Z" /> </g> </svg>