<svg fill="currentColor" aria-label="Pampers" role="img" width="88" height="50" viewBox="0 0 88 50" xmlns="http://www.w3.org/2000/svg"> <g> <path d="M14.0855 26.842C14.0855 21.4533 10.4305 19.9364 7.68561 19.9364C4.94074 19.9364 2.87487 20.991 1.54577 22.898C0.216674 24.805 -0.0867066 27.1309 0.028867 31.7394C0.14444 36.3479 0.823435 40.913 1.14126 43.6146C1.45909 46.3161 2.65817 46.8362 4.13173 46.8362C5.60529 46.8362 5.7642 46.3305 5.60529 45.247C5.43193 43.629 4.66626 37.3014 4.66626 37.3014C12.9587 36.2323 14.0855 29.7457 14.0855 26.842ZM4.23285 33.5741C4.23285 33.5741 2.68706 23.8659 7.26666 23.7215C9.86706 23.7215 10.2282 26.5819 10.2282 27.3042C10.2282 28.0266 10.2282 32.6206 4.23285 33.5741Z" /> <path d="M16.8737 30.3525C15.9347 30.3525 14.2733 30.4681 14.2733 32.0428C14.2733 33.603 15.5013 33.4874 16.3392 33.4874C17.1771 33.4874 17.8561 34.0364 17.8561 34.5709C17.8561 35.1055 17.8561 35.3222 17.8561 35.3222C12.2941 35.3222 9.7226 37.9659 9.7226 40.4507C9.7226 42.9356 11.384 45.1315 13.811 45.1315C16.2381 45.1315 17.6683 42.6177 17.6683 42.6177C17.6683 42.6177 17.5671 43.7735 18.0728 44.4958C18.5784 45.2182 20.2687 45.117 20.6732 45.117C21.0777 45.117 21.1499 44.6403 21.1499 43.7013C21.1499 41.9676 21.1499 37.5903 21.1499 34.8165C21.1644 30.8581 17.8127 30.3525 16.8737 30.3525ZM17.0904 40.5374C16.397 41.8376 14.5767 42.5311 13.8688 41.592C13.1465 40.6241 13.8688 39.3528 14.5189 38.8183C15.8191 37.6914 17.7405 37.9226 17.7405 37.9226C17.7405 37.9226 17.7983 39.2372 17.0904 40.5374Z" /> <path d="M26.6252 37.0702C26.6252 38.1104 26.6252 43.239 26.6252 44.2213C26.6252 45.2037 26.4374 45.4493 25.8018 45.4493C25.1806 45.4493 22.6957 45.3337 22.6957 42.2277C22.6957 39.1216 22.6957 33.3141 22.6957 32.5917C22.6957 31.8694 23.5192 30.3525 25.0505 30.3525C25.6284 30.3525 26.1052 30.7426 26.1052 31.4793C26.1052 32.0139 26.1052 32.6062 26.1052 32.6062C26.1052 32.6062 27.2898 31.0459 29.6879 31.0459C32.1005 31.0459 33.0829 32.9529 33.0829 32.9529C33.0829 32.9529 34.1664 31.0315 36.7668 31.0315C39.3672 31.0315 40.8552 33.2707 40.8552 35.1921C40.8552 37.1136 40.8552 42.95 40.8552 43.9324C40.8552 44.9148 40.0896 45.0159 39.4828 45.0159C38.876 45.0159 36.9257 44.4091 36.9257 42.0254C36.9257 39.6417 36.8968 37.2147 36.8968 36.2901C36.8968 35.38 36.3479 34.7443 35.4522 34.7443C34.5565 34.7443 33.6752 35.5678 33.6752 36.4779C33.6752 37.388 33.6752 41.9243 33.6752 43.1523C33.6752 44.3802 32.4906 44.4091 32.1872 44.4091C31.8694 44.4091 29.8469 44.0769 29.8469 42.0254C29.8469 39.974 29.818 38.0815 29.818 36.9691C29.818 35.8567 29.5579 34.7732 28.4889 34.7732C27.4776 34.7876 26.6252 35.4233 26.6252 37.0702Z" /> <path d="M47.3851 30.0347C42.7622 30.0347 42.2855 33.8341 42.2855 35.5244C42.2855 37.2147 42.2855 46.2872 42.2855 48.0641C42.2855 49.8411 43.8313 49.9856 44.4236 49.9856C45.0303 49.9856 45.6082 49.6677 45.6082 49.191C45.6082 48.7142 45.6082 44.2358 45.6082 44.2358C51.0257 43.8024 53.0771 39.2083 53.0771 36.0445C53.0627 32.3317 50.7368 30.0347 47.3851 30.0347ZM45.6515 41.043C45.6515 41.043 45.6515 36.5646 45.6515 35.5822C45.6515 34.5998 46.1572 33.5597 47.6741 33.5597C49.191 33.5597 49.74 34.9321 49.74 36.1167C49.74 37.3014 49.2199 40.913 45.6515 41.043Z" /> <path d="M63.9699 39.7428C63.6954 39.3239 62.9731 38.9338 62.063 39.7862C61.1528 40.6385 60.2716 41.4042 59.0291 41.4042C57.7723 41.4042 57.6134 40.364 57.6134 39.6417C57.6134 39.6417 62.3663 38.0237 63.3198 37.5758C64.2733 37.1424 64.3455 36.5357 64.3166 35.6255C64.2877 34.7154 63.5799 30.338 59.2603 30.338C57.2667 30.338 54.9985 32.3317 54.2762 35.6833C53.9295 37.5325 53.0771 44.6258 58.6535 44.6258C62.2219 44.6258 63.8254 42.1699 64.2011 41.3175C64.5622 40.4796 64.2444 40.1473 63.9699 39.7428ZM59.2892 33.5452C60.8494 33.2129 60.965 35.4666 60.965 35.4666L57.6134 36.6079C57.6134 35.9723 57.7289 33.8775 59.2892 33.5452Z" /> <path d="M65.718 32.4328C65.718 31.8405 66.5125 30.5258 68.0439 30.5258C68.8818 30.5258 69.1996 30.9881 69.1996 31.3204C69.1996 31.6671 69.1996 32.5484 69.1996 32.5484C69.1996 32.5484 70.7021 30.7425 72.3201 30.7425C73.3892 30.7425 73.6203 31.9705 73.6203 32.4473C73.6203 32.924 73.7359 33.4441 73.028 33.7475C72.3201 34.0364 69.5463 35.1343 69.5463 36.4779C69.5463 37.8214 69.5752 43.5568 69.5752 44.178C69.5752 45.2037 68.6217 45.2181 68.2028 45.2181C67.7983 45.2181 65.718 45.1748 65.718 42.7189C65.718 40.2629 65.718 32.4328 65.718 32.4328Z" /> <path d="M74.3282 34.4265C74.3282 33.1985 74.5304 30.1647 78.98 30.1647C82.0572 30.1647 83.5163 32.7218 83.5163 34.1664C83.5163 34.6721 83.1695 35.1488 82.4761 35.3944C81.7682 35.64 80.887 35.51 80.5836 34.8454C80.2947 34.1809 79.8035 33.2996 78.9367 33.2996C78.0554 33.2996 77.8098 34.1664 77.8098 34.3976C77.8098 35.2644 78.8644 35.9434 80.8436 37.7492C82.8228 39.5551 83.1262 40.4796 83.1262 42.1699C83.1262 43.8602 81.6237 46.1572 78.4599 46.1572C75.7295 46.1572 73.8659 44.7414 72.8402 43.2679C72.4501 42.6033 72.6812 41.7221 73.0858 41.1008C73.4903 40.4796 74.1548 40.1907 74.7182 40.7541C75.2817 41.3175 76.6107 42.8778 78.2432 42.8778C79.11 42.8778 79.5145 42.2855 79.5145 41.7221C79.5145 40.6674 77.4487 39.7573 76.004 38.1682C74.1693 36.1601 74.3282 34.4265 74.3282 34.4265Z" /> <path d="M85.7267 43.3834C86.5212 43.3834 87.1569 44.0046 87.1569 44.7848C87.1569 45.5649 86.5212 46.2005 85.7267 46.2005C84.9321 46.2005 84.282 45.5793 84.282 44.7848C84.282 44.0046 84.9176 43.3834 85.7267 43.3834ZM85.7122 43.6724C85.1054 43.6724 84.6287 44.178 84.6287 44.7992C84.6287 45.4204 85.1054 45.926 85.7267 45.926C86.3334 45.9405 86.7957 45.4349 86.7957 44.8136C86.7957 44.1635 86.3334 43.6724 85.7122 43.6724ZM85.4955 45.5071H85.1777V44.1058C85.3077 44.0913 85.4811 44.0624 85.7122 44.0624C85.9722 44.0624 86.1023 44.1058 86.1889 44.178C86.2756 44.2358 86.3334 44.3369 86.3334 44.4814C86.3334 44.6547 86.2034 44.7703 86.0445 44.8136V44.8281C86.1745 44.8714 86.2467 44.987 86.2901 45.1748C86.3334 45.3915 86.3623 45.4637 86.3912 45.5215H86.0445C86.0011 45.4637 85.9722 45.3482 85.9289 45.1748C85.9 45.0303 85.8133 44.9581 85.64 44.9581H85.4811L85.4955 45.5071ZM85.51 44.727H85.6689C85.8422 44.727 85.9867 44.6692 85.9867 44.5247C85.9867 44.3947 85.8856 44.308 85.6833 44.308C85.5966 44.308 85.5388 44.3225 85.51 44.3225V44.727Z" /> <path d="M67.8272 17.4372C68.4918 17.4372 69.0118 17.4083 69.0118 16.9026C69.0118 16.397 69.0118 16.2959 69.0118 15.7469C69.0118 15.1979 68.9685 15.0679 68.0439 15.0679C67.1193 15.0679 65.0679 15.3424 63.8977 17.3071V18.4773C63.8977 18.4773 65.8625 17.4372 67.8272 17.4372Z" /> <path d="M66.6426 6.09652C66.9749 5.70646 67.1193 5.46086 66.816 5.14303C66.4981 4.82521 66.0069 4.43515 65.8047 4.24734C65.6024 4.05953 65.1979 4.00175 64.6778 4.53627C64.1433 5.0708 62.6264 6.51547 62.1641 7.80123C62.1063 7.98903 61.9474 8.72581 62.6264 9.36147C62.8287 9.50594 63.0887 9.79487 63.4643 9.36147C63.8399 8.92807 66.6426 6.09652 66.6426 6.09652Z" /> <path d="M56.5299 5.33083C56.5299 5.33083 56.4577 1.50246 56.4288 1.27131C56.3999 1.04016 55.5331 0 54.1462 0C54.0162 0 53.9728 0.0433401 53.9728 0.375614C53.9728 0.707888 54.074 3.17827 54.1173 3.69835C54.1751 4.21843 54.7819 5.33083 56.5299 5.33083Z" /> <path d="M46.5472 6.44324C46.7495 6.44324 47.2984 6.63104 47.7896 7.03555C48.2808 7.44006 49.4077 8.42243 49.8411 9.31813C49.8844 9.50594 49.8266 9.52038 49.4943 9.52038C49.1621 9.52038 47.7029 9.40481 47.2984 8.97141C46.8939 8.53801 45.8971 7.35338 45.7382 7.12223C45.5793 6.89108 45.6804 6.44324 46.5472 6.44324Z" /> <path d="M57.2811 7.71454C51.5458 7.46895 49.7255 15.2268 49.7255 15.2268C49.7255 15.2268 46.9373 13.1609 43.759 13.1609C41.2742 13.1609 39.4683 15.2557 39.4683 17.3938C39.4683 20.4276 41.8087 23.577 44.698 25.7729C48.4108 28.6911 52.2392 30.5114 54.2328 30.5114C56.2265 30.5114 58.249 27.3332 59.3903 25.3684C62.1063 20.5721 62.2363 15.9058 62.2363 14.0711C62.2219 12.2508 60.7772 7.97458 57.2811 7.71454ZM51.5024 19.113C51.5024 19.113 54.3484 20.7888 53.3371 22.1901C52.9471 22.6958 51.4591 21.2655 51.5024 19.113ZM58.1768 18.3618C57.5556 21.2511 55.6775 28.3733 53.0771 28.3733C51.199 28.3733 43.5712 22.3057 43.5712 18.4773C43.5712 17.1338 44.5247 16.3392 45.4059 16.3392C46.7495 16.3392 49.4221 17.7839 49.4221 17.7839C49.4221 17.7839 49.6099 24.4727 52.3837 24.4727C53.4672 24.4727 55.0852 22.9125 55.0852 21.6556C55.0852 20.7166 54.464 18.5785 51.7336 16.6715C51.7336 16.6715 52.6004 11.6874 56.3998 11.6874C57.9745 11.6874 59.058 14.2444 58.1768 18.3618Z" /> </g> </svg>