<svg fill="currentColor" aria-label="Peugeot" role="img" width="56" height="60" viewBox="0 0 56 60" xmlns="http://www.w3.org/2000/svg"> <path d="M27.7359 2.83019C35.717 2.83019 44.0377 3.50943 52.4717 4.98113C52.5849 8.37736 52.7547 13.5849 52.5283 18C52.0189 27.9057 49.8113 35.5472 45.6793 42.1698C41.5472 48.7358 35.151 54.3962 27.7359 57.7358C20.3208 54.3962 13.9245 48.7358 9.79246 42.1698C5.66038 35.5472 3.50944 27.9057 2.9434 18C2.71699 13.5849 2.8302 8.32075 2.9434 4.98113C11.434 3.50943 19.7547 2.83019 27.7359 2.83019ZM27.7359 3.79245C19.8679 3.79245 11.8302 4.4717 3.90567 5.77358C3.73586 10.8113 3.73586 14.7736 3.90567 17.9434C4.4151 27.6792 6.56605 35.2075 10.5849 41.6604C14.6604 48.1132 20.717 53.434 27.7359 56.6604C34.7547 53.434 40.8113 48.1132 44.8302 41.6604C48.8491 35.2075 51 27.6792 51.5094 17.9434C51.6793 14.7736 51.6793 10.7547 51.5094 5.77358C43.6415 4.4717 35.6038 3.79245 27.7359 3.79245ZM27.6793 32.6604C27.6793 32.6604 27.8491 33.566 27.9057 33.8491C27.9057 34.0189 27.9623 34.0189 27.9057 34.1887C27.7925 34.6415 27.2264 37.1887 26.7736 39.7925L26.6604 40.1887C26.4906 41.2641 26.3208 42.3396 26.2076 43.3019C26.151 43.8113 26.151 43.9811 26.3208 44.434C26.717 45.7358 28.1887 49.1887 28.4717 49.8113C28.5283 49.8679 28.5283 49.9811 28.5283 50.0377L28.6415 50.8302C28.1887 50.1509 25.6415 45.4528 24.6227 42.9057C24.5094 42.6226 24.5094 42.4528 24.6227 41.8868C25.2453 38.8868 27.1132 33.8491 27.6793 32.6604ZM24 25.4717C24 25.4717 24.1698 26.0943 24.3962 26.7736L24.4528 27C24.566 27.4528 24.6793 27.9057 24.7359 28.1887C24.7925 28.4717 24.7925 28.5283 24.6793 28.8113C24.4528 29.434 24 30.3962 23.5472 31.4151L23.3774 31.8679C22.8113 33.1132 22.2453 34.3019 21.9623 34.8113C21.8491 35.0377 21.6793 35.2075 21.4528 35.4906C20.8868 36.0566 19.7547 37.1887 19.0755 37.8113C18.8491 38.0377 18.7359 38.2075 18.7359 38.5472C18.6793 39 18.566 39.8491 18.566 40.2453C18.566 40.5849 18.6227 40.7547 18.7925 41.1509C19.9811 43.3019 24.0566 48.283 25.1887 49.3585C25.2453 49.4151 25.3585 49.4717 25.5283 49.5849C25.6981 49.6981 26.2642 50.0377 26.2642 50.0377L26.3208 50.0943L26.5472 50.434C26.5472 50.434 26.5472 50.434 26.4906 50.434L26.2642 50.3774C26.2076 50.3208 26.0944 50.3208 25.9811 50.2642L25.6981 50.1509C25.3019 49.9811 24.8491 49.6981 24.566 49.5849C24.4528 49.5283 24.3962 49.4717 24.283 49.4151C22.9245 48.283 18.7925 43.4717 17.6038 41.434C17.3208 40.9245 17.2642 40.7547 17.3208 40.3019C17.3774 39.3962 17.4906 38.3208 17.6038 37.8113C17.6604 37.5283 17.717 37.3585 17.9434 37.0755C18.6793 36.2264 19.6415 35.0377 20.5472 33.8491L20.8868 33.4528C22.2453 31.6415 23.5472 29.8302 24 28.8679C24.1132 28.6415 24.1132 28.5849 24.1132 28.3585C24.1132 27.7925 23.9434 26.6604 23.8868 26.3774C23.8868 26.3208 23.8868 26.2642 23.8868 26.2642L24 25.4717ZM35.2642 24.3962L35.6038 24.566C35.717 24.6226 35.7736 24.6792 35.8868 24.7358C38.0377 27 39.7359 29.3208 40.0755 29.8868C40.1321 30 40.1887 30.1132 40.1887 30.283C40.5849 33.566 40.2453 37.0189 39.4528 40.0189C39.3962 40.3019 39.283 40.4151 39.0566 40.6415C38.2076 41.2642 36.9623 42.283 35.717 43.3019L35.3208 43.6415C33.7925 44.8868 32.3774 46.1321 31.8113 46.6415C31.6415 46.7547 31.5283 46.9245 31.4151 47.0943C31.1321 47.5472 30.6793 48.3396 30.5094 48.7358L30.4528 48.8491C30.3962 48.9057 30.3962 48.9623 30.3962 48.9623C30.1132 48.3396 29.4906 46.8679 29.2642 46.2453C29.2076 46.0189 29.2076 45.9623 29.2642 45.6792C29.6038 44.434 31.2453 40.7547 31.5283 40.0755V40.3585C31.5283 40.4151 31.5283 40.4151 31.5283 40.4717C31.3585 40.9245 30.5094 43.8113 30.3396 45.0566C30.283 45.3396 30.283 45.3962 30.3396 45.6792C30.3962 46.2453 30.7925 47.3208 30.7925 47.3208C30.7925 47.3208 31.0189 46.8679 31.1887 46.5849C31.3019 46.4151 31.3585 46.3585 31.4717 46.2453C32.2642 45.4528 33.566 44.2641 34.9811 43.0755L35.4906 42.6226C36.566 41.717 37.6415 40.8113 38.4906 40.1321C38.717 39.9623 38.7736 39.8491 38.8302 39.5094C39.0566 37.8679 39.1698 34.8679 39 32.717C39 32.3208 38.8302 31.9245 38.6038 31.5849C38.0943 30.7925 37.4717 30.0566 36.5094 29.0943C36.3962 28.9811 36.283 28.8113 36.2264 28.5849C35.8868 27.1132 35.2642 24.3962 35.2642 24.3962ZM17.151 27.8491C17.2642 27.7925 17.434 27.7925 17.5472 27.8491C18.1698 28.0189 19.4717 28.3019 20.434 28.5849C20.5472 28.6415 20.717 28.7547 20.8302 28.8679L21.0566 29.2075C21.1132 29.3208 21.1132 29.4906 21.0566 29.6038C20.8868 29.9434 20.6038 30.3962 20.3774 30.9057L20.151 31.2453C19.7547 31.9245 19.4151 32.5472 19.1887 32.8868C19.0755 33.1132 18.9623 33.2264 18.7359 33.283C17.7736 33.6226 16.5849 34.0189 15.8491 34.2453C15.6793 34.3019 15.6793 34.3585 15.6793 34.5283C15.7359 34.8113 15.9057 35.8302 15.9623 36.1132C15.9623 36.2264 16.0755 36.283 16.2453 36.283C16.6415 36.2264 17.7736 35.9434 17.7736 35.9434C17.7736 35.9434 17.434 36.2264 17.2642 36.4528C17.2076 36.5094 17.2076 36.5094 17.151 36.5094C16.8679 36.6226 16.0755 36.7925 15.8491 36.8491C15.6793 36.9057 15.566 36.7924 15.5094 36.6226C15.5094 36.6226 15.1698 35.2641 15.0566 34.8113C15.0566 34.7547 15 34.6981 15 34.5849C14.8868 34.3019 14.717 33.7925 14.6038 33.5094C14.6038 33.4528 14.6038 33.4528 14.6038 33.3962C14.6038 33.0566 14.6604 32.3774 14.6604 32.3774C14.6604 32.3774 15.3396 33 15.6793 33.2264C15.7359 33.3962 15.7925 33.3962 15.8491 33.3962C16.3019 33.283 17.3208 32.9434 17.9434 32.717C18.0566 32.6604 18.1698 32.6038 18.283 32.4906C18.8491 31.7547 19.6415 30.6792 20.0377 29.8302C20.0943 29.717 20.0943 29.6038 20.0943 29.434L19.9811 29.1509C19.9811 29.0377 19.8679 28.9811 19.7547 28.9245C18.7359 28.5283 17.9434 28.2453 17.0377 27.9623L17.151 27.8491ZM37.1321 19.1887C37.3585 19.1321 37.5849 19.1321 37.8113 19.1887C39.5094 19.9245 42.3396 21.566 43.9245 22.7547C44.0943 22.8679 44.151 22.9245 44.151 23.1509C44.5472 24.8491 44.6604 27.4528 44.434 29.6604C44.434 29.8302 44.3774 29.8868 44.3208 30.0566C43.3019 32.0943 42.1698 34.0189 40.9811 35.5472C40.9811 35.3774 41.0943 34.4717 41.0943 34.0189C41.0943 33.9623 41.0943 33.9057 41.151 33.9057C41.3774 33.7358 41.6604 33.5094 41.8302 33.3396C41.8868 33.283 41.9434 33.2264 42 33.1698C42.5094 32.3774 43.3585 30.7358 43.6981 29.7736C43.8113 29.5472 43.8113 29.2641 43.8113 29.0377C43.6981 27.6792 43.4717 25.7547 43.1887 24.5094C43.1321 24.283 43.0189 24.1132 42.7925 24C42.5094 23.8302 41.9434 23.6038 40.7547 23.0943C40.5849 23.0377 40.4151 22.9245 40.3019 22.8113C39.5094 22.1321 38.2076 21.1132 37.4151 20.4906C37.1887 20.3208 36.9057 20.2642 36.6227 20.3208C36.0566 20.434 35.3208 20.6604 34.9245 20.717C34.8113 20.7736 34.7547 20.7736 34.5849 20.717C34.5283 20.717 34.4151 20.717 34.3019 20.717H34.1321C33.9623 20.717 33.7925 20.6604 33.7359 20.6604H33.6793C35.0377 19.9811 36.3396 19.4717 37.1321 19.1887ZM19.1887 30.283C18.7925 30.9623 18.283 31.6981 17.8868 32.1509C17.8302 32.2075 17.7736 32.2641 17.717 32.2641C17.3208 32.434 16.5849 32.6604 16.0755 32.8302L19.1887 30.283ZM13.6415 29.3774L13.4151 31.0755L12.566 30.1132C12.7359 29.7736 13.1887 29.434 13.6415 29.3774ZM18.2264 19.6981L18 19.9811C18 19.9811 18 19.9811 17.9434 20.0377C17.717 20.2075 16.8679 20.8302 16.6415 21C16.5849 21.0566 16.5283 21.1132 16.5283 21.1698C16.4717 21.4528 16.4151 22.0189 16.3585 22.3019C16.3585 22.4151 16.3019 22.4151 16.2453 22.4717C15.8491 22.6415 15.3962 22.8113 15 22.9811C14.9434 23.0377 14.8868 23.0377 14.8302 23.0377C14.7736 23.0943 14.2642 23.4906 14.2642 23.4906C14.2642 23.4906 15.3396 23.2075 15.7359 23.1509C15.8491 23.1509 15.8491 23.1509 15.9623 23.1509C16.0189 23.2075 16.1887 23.2641 16.2453 23.2641C16.3585 23.3208 16.4151 23.3208 16.5283 23.2641C16.9811 23.1509 17.717 22.9811 18.1698 22.8679C18.3962 22.8113 18.5094 22.7547 18.6793 22.6415C18.8491 22.5283 19.3585 22.1321 19.3585 22.1321C19.3585 22.1321 19.3585 22.1887 19.3585 22.2453C19.3585 22.3019 19.3585 22.3019 19.3019 22.3019C19.1887 22.4151 19.0189 22.6415 18.9623 22.6981C18.7359 22.9245 18.6227 22.9811 18.3962 23.0943C17.2642 23.5472 15.283 24.3396 13.8113 24.8491C13.6981 24.9057 13.6981 24.9057 13.5849 24.9623C13.5283 25.0189 13.4151 25.1321 13.4151 25.1321C13.4151 25.1321 14.6038 25.2453 15 25.2453C15.1132 25.2453 15.2264 25.3019 15.283 25.3585C15.566 25.6415 16.5849 26.6604 16.8679 27C16.8679 27 14.0377 27.4528 12.7359 27.7925C12.566 27.8491 12.5094 27.9623 12.4528 28.0755C12.3396 28.4717 12.1132 29.717 12.1132 29.717C12.1132 29.717 12 29.6604 11.8868 29.6038C11.7736 29.5472 11.7736 29.4906 11.6604 29.434C11.3208 29.0943 10.8113 28.4717 10.5849 28.1321C10.5283 28.0189 10.4717 27.9057 10.5849 27.7925C10.8679 27.4528 11.3774 26.8868 11.6604 26.5472C11.717 26.4906 11.717 26.434 11.7736 26.3774C11.8868 26.2075 12 25.6981 12.0566 25.4717V25.4151L12 25.4717C11.9434 25.5283 11.8302 25.5849 11.7736 25.6415C11.717 25.6981 11.6604 25.6981 11.6604 25.7547C11.6038 25.8679 11.5472 26.0377 11.4906 26.1509C11.4906 26.2075 11.434 26.2642 11.3774 26.2642C10.9811 26.5472 10.5849 26.8868 10.3019 27.0566H10.2453C10.1887 27 10.0755 26.8302 10.0189 26.7736C10.0189 26.717 9.96227 26.717 9.96227 26.6604C9.96227 26.6038 9.96227 26.434 9.96227 26.3774C9.96227 26.2641 10.0189 26.2075 10.1321 26.0377C10.3019 25.8679 10.4717 25.6981 10.6415 25.5283C11.0943 25.1321 12.2264 24.2264 14.2076 22.8113C14.2642 22.8113 14.2642 22.7547 14.3208 22.6981C14.5472 22.4151 15.1132 21.6226 15.283 21.4528L15.3396 21.3962C15.566 21.2264 15.6793 21.1132 15.9057 21C16.5283 20.6604 17.6038 20.0377 18.2264 19.6981ZM30.4528 19.0189C30.5094 19.0189 30.6227 19.0189 30.6793 19.0755L31.2453 19.3585C31.3019 19.3585 31.3585 19.4151 31.3585 19.5283C31.4151 19.8679 31.5283 20.3208 31.5849 20.6604C31.5849 20.8302 31.5849 21 31.5283 21.1132C31.3019 21.5094 30.7925 22.3019 30.5094 22.6981C30.4528 22.8113 30.4528 22.9245 30.4528 23.0377C30.566 23.717 31.1321 26.2075 31.1321 26.2075L30.7925 25.9245C30.7359 25.8679 30.6793 25.8113 30.6793 25.6981C30.4528 25.0189 30 23.5472 29.7736 22.8679C29.717 22.7547 29.7736 22.6415 29.8302 22.5283C30.1698 22.1321 30.6793 21.4528 30.9623 21C31.0189 20.8868 31.0755 20.7736 31.0189 20.6604C30.9623 20.5472 30.8491 20.3208 30.7359 20.0943C30.6793 20.0377 30.6793 19.9811 30.6227 19.9811L30.2264 19.8113C30.1698 19.8113 30.0566 19.8113 30 19.8113C29.151 20.1509 27.9623 20.6038 27.2264 20.8868C27.1698 20.9434 27.1132 20.9434 27 20.9434C26.7736 20.8868 26.2076 20.8302 25.8679 20.7736C25.8113 20.7736 25.8113 20.717 25.8113 20.6604L26.151 20.0377C26.2076 19.9811 26.2642 19.9245 26.3774 19.8679C27.5094 19.5849 29.0377 19.3019 30.4528 19.0189ZM18 21.8491C18.0566 21.8491 18.1132 21.8491 18.1132 21.9057C18.1698 22.0755 18.1698 22.2453 18.1132 22.4151C18.1132 22.4717 18 22.5283 17.9434 22.5283L17.3774 22.6415C17.3208 22.6415 17.3208 22.6415 17.3208 22.5849L17.3774 21.9057C17.3774 21.8491 17.434 21.8491 17.434 21.8491H18ZM24.3962 17.6038C24.4528 17.6038 24.5094 17.6604 24.4528 17.717L23.0943 20.0943C23.0377 20.2075 22.8679 20.3208 22.7547 20.3774L20.2076 21.1698C19.9245 21.283 19.6415 21.283 19.3585 21.3396C18.7925 21.3962 17.0943 21.4528 17.0943 21.4528L17.151 21.3962C17.151 21.3396 17.2076 21.3396 17.2642 21.3396L18.0566 21C18.1132 21 18.1698 20.9434 18.2264 20.8868L19.4717 19.3585C19.5283 19.3019 19.6415 19.1887 19.6981 19.1321C20.4906 18.6792 21.9623 18.0566 22.9811 17.717C23.0943 17.6604 23.2076 17.6604 23.3208 17.6604L24.3962 17.6038ZM22.9811 14.8302C25.8113 14.6038 29.6604 14.4906 33.3396 14.7736C33.566 14.7736 33.7359 14.8302 33.9623 14.9434C35.151 15.4528 37.3019 16.5283 39.6793 17.8868C39.7925 17.9434 39.9057 18 39.9623 18.1132C40.5849 18.6792 42.1698 20.3208 42.1698 20.3208L41.6604 20.2075C41.6038 20.2075 41.5472 20.1509 41.4906 20.1509C40.4717 19.4717 39 18.6226 37.8113 18C37.6415 17.9434 37.5283 17.8868 37.3585 17.8868C36.7359 17.8302 35.9434 17.7736 35.434 17.7736C35.151 17.7736 34.9811 17.717 34.7547 17.6038C34.2453 17.3774 33.1132 16.8113 32.4906 16.5849C32.2642 16.4717 32.0943 16.4717 31.8679 16.4717C30.8491 16.4717 28.5849 16.5849 27.3962 16.6415C27.3396 16.6415 27.3396 16.6415 27.283 16.6415L26.717 16.5283C28.3019 16.2453 32.2076 15.9057 33.8491 15.7925L33.1698 15.566C33.0566 15.5094 32.8868 15.5094 32.7736 15.5094C32.434 15.5094 31.6415 15.5094 30.6227 15.5094H30.283C28.7547 15.5094 26.7736 15.566 24.9057 15.6792C24.7359 15.6792 24.566 15.7358 24.4528 15.7925C23.717 16.1321 21.9057 17.0943 20.0943 18.1132L19.6981 18.3396C19.2453 18.6226 18.7925 18.8491 18.3396 19.1321C18.3396 19.1321 18.566 18.8491 18.6227 18.7925C18.6793 18.7358 18.6793 18.7358 18.7359 18.6792C18.7925 18.6226 19.0755 18.4528 19.3019 18.283L19.4717 18.1698C19.6415 18.0566 19.7547 18 19.8113 17.9434C19.8679 17.9434 19.8679 17.8868 19.9245 17.8868C20.4906 17.4906 21.3396 16.7547 21.8491 16.3019C21.9623 16.1887 22.0755 16.0755 22.1321 15.9623C22.3019 15.6792 22.4717 15.3962 22.5849 15.2264C22.6415 14.9434 22.8113 14.8868 22.9811 14.8302ZM10.9245 8.32075C11.6038 8.26415 12 8.54717 12 9.22641V9.62264C12 10.3585 11.6038 10.6415 10.9245 10.6981C9.96227 10.8113 9.00001 10.9245 8.03774 11.0377V12.1132C7.81133 12.1132 7.64152 12.1698 7.4151 12.1698V8.71698C8.60378 8.60377 9.73586 8.43396 10.9245 8.32075ZM43.4151 8.20755C44.9434 8.37736 46.5283 8.54717 48.0566 8.71698V9.28302C47.3774 9.22641 46.6981 9.11321 46.0755 9.0566V11.9434C45.8491 11.9434 45.6793 11.8868 45.4528 11.8868V9C44.7736 8.9434 44.0943 8.83019 43.4151 8.77358V8.20755ZM17.7736 7.75472V8.32075C16.5283 8.37736 15.2264 8.49057 13.9811 8.60377V9.45283C15.1132 9.33962 16.2453 9.28302 17.3774 9.22641V9.79245C16.2453 9.84906 15.1132 9.96226 13.9811 10.0189V10.9811C15.2264 10.8679 16.5283 10.7547 17.7736 10.6981V11.2642C16.3019 11.3774 14.8302 11.4906 13.3585 11.6038V8.15094C14.8302 7.98113 16.3019 7.86792 17.7736 7.75472ZM37.5283 8.71698C37.5283 7.92453 37.9245 7.75472 38.7736 7.81132C39.5094 7.86792 40.3019 7.92453 41.0377 7.98113C41.7736 8.03774 42.283 8.26415 42.283 9.0566V10.5849C42.283 11.3774 41.8302 11.4906 41.0377 11.434C40.3019 11.3774 39.5094 11.3208 38.7736 11.2642C37.9245 11.2075 37.5283 11.0377 37.5283 10.2453V8.71698ZM31.6415 7.5283C33.1132 7.58491 34.5849 7.64151 36.0566 7.69811V8.26415C34.8113 8.20755 33.5094 8.15094 32.2642 8.09434V8.9434C33.3962 9 34.5283 9 35.6604 9.0566V9.62264C34.5283 9.56604 33.3962 9.50943 32.2642 9.50943V10.4717C33.5094 10.5283 34.8113 10.5849 36.0566 10.6415V11.2075C34.5849 11.1509 33.1132 11.0943 31.6415 11.0377V7.5283ZM24 7.4717V9.96226C24 10.7547 23.6038 10.9245 22.7547 10.9811C22.0189 10.9811 21.283 11.0377 20.5472 11.0377C19.7547 11.0943 19.3019 10.9245 19.3019 10.1321V7.64151L19.9245 7.58491V10.1887C19.9245 10.3585 20.0377 10.4717 20.2642 10.4717C21.2264 10.4151 22.1887 10.4151 23.151 10.3585C23.3208 10.3585 23.434 10.1887 23.434 10.0755V7.4717C23.5472 7.5283 23.7736 7.5283 24 7.4717ZM38.434 8.37736C38.2642 8.37736 38.0944 8.49057 38.0944 8.66038V10.3585C38.0944 10.5283 38.2076 10.6981 38.434 10.6981C39.3962 10.7547 40.4151 10.8113 41.3774 10.9245C41.5472 10.9245 41.717 10.8113 41.717 10.6415V8.9434C41.717 8.77358 41.5472 8.60377 41.3774 8.60377C40.4151 8.49057 39.4528 8.43396 38.434 8.37736ZM26.6038 7.4717C27.6793 7.4717 28.8113 7.4717 29.8868 7.4717V8.03774C28.6981 8.03774 27.566 8.03774 26.3774 8.03774C26.2076 8.03774 26.0377 8.15094 26.0377 8.32075V10.0755C26.0377 10.2453 26.2076 10.4151 26.3774 10.4151C27.4528 10.4151 28.4717 10.4151 29.5472 10.4151V9.45283C28.9245 9.45283 28.3019 9.45283 27.7359 9.45283V8.88679C28.5283 8.88679 29.3774 8.88679 30.1698 8.88679V10.9245C29.0377 10.9245 27.9057 10.9245 26.7736 10.9245C25.9245 10.9245 25.5283 10.8113 25.5283 9.96226V8.49057C25.4717 7.69811 25.8679 7.4717 26.6038 7.4717ZM11.151 8.88679C10.0755 9 9.05661 9.11321 8.03774 9.22641V10.5283C9.05661 10.4151 10.0755 10.3019 11.0943 10.1887C11.2642 10.1887 11.434 10.0189 11.434 9.84906V9.16981C11.434 9 11.2642 8.83019 11.151 8.88679Z" /> </svg>