<svg fill="currentColor" aria-label="Pfizer" role="img" width="123" height="50" viewBox="0 0 123 50" xmlns="http://www.w3.org/2000/svg"> <g> <path d="M2.38153 20.0049C3.82267 14.7411 9.81925 13.4831 15.3517 13.3244C19.895 13.2022 24.9634 13.8007 24.9634 13.8007L22.5818 22.4963C22.5818 22.4963 17.5134 21.8979 12.9702 22.02C7.43771 22.191 1.44113 23.4367 0 28.7128L2.38153 20.0049Z" /> <path d="M78.8471 10.7474C71.5681 10.7474 69.7118 17.7821 68.6615 21.6048L60.894 50.0122H65.425L72.3131 24.829H77.0274L73.8886 36.2726H78.4196L82.1812 22.533H72.936C73.4123 20.7987 73.913 18.9546 74.3283 17.4524C75.0855 14.6678 76.3312 12.6527 78.1387 12.7259C80.1295 12.7992 79.1158 14.106 78.8471 15.1075C78.4685 16.4875 79.4944 17.8798 81.2775 17.8798C85.1612 17.8798 86.1138 10.7474 78.8471 10.7474ZM53.1265 15.7181L47.5085 36.2726H52.235L54.3234 28.6639H58.427C62.958 28.6639 65.9624 26.1602 66.7807 22.6917C67.5379 19.4431 65.6448 15.7181 60.5642 15.7181C58.0728 15.7181 55.6058 15.7181 53.1265 15.7181ZM57.1934 18.1363H59.0132C60.9184 18.1363 62.4206 19.6629 62.0664 22.3131C61.7245 24.768 59.062 26.2457 56.7294 26.2457H54.9829L57.1934 18.1363ZM102.015 22.1177C98.0459 22.1177 95.1759 25.5374 94.4919 28.957C93.8324 32.2423 95.7132 36.6023 100.892 36.6023C104.58 36.6023 106.424 34.978 106.424 34.978L105.581 32.8896C105.581 32.8896 104.03 34.1475 101.869 34.1475C99.7069 34.1475 98.3512 32.4499 98.6566 29.7264H107.474C108.097 28.1265 108.439 22.1177 102.015 22.1177ZM119.577 22.3009C116.622 22.3009 114.875 25.3542 114.875 25.3542L115.645 22.533H111.114L107.352 36.2726H111.883C111.883 36.2726 112.97 32.2545 113.532 30.2516C114.387 27.1128 116.133 25.1588 116.976 25.0733C117.953 24.9756 117.855 27.3205 119.748 27.3205C122.631 27.3327 123.254 22.3009 119.577 22.3009ZM83.8911 22.533L83.2682 24.8168H89.0205L79.9829 36.2726H92.7455L93.3683 33.9888H86.8832L95.9209 22.533H83.8911ZM101.991 24.3894C104.458 24.3894 103.896 27.6502 103.896 27.6502L98.9619 27.638C98.9619 27.6258 99.7802 24.3894 101.991 24.3894Z" /> <path d="M36.8588 36.3092C20.6033 35.2956 1.70979 26.9052 2.38151 20.0049L0.134317 28.212C-0.54961 35.2589 16.976 43.6126 34.4773 45.0171L36.8588 36.3092Z" /> <path d="M42.7699 25C41.3288 30.2638 35.3322 31.5217 29.7997 31.6805C25.2565 31.8026 20.1881 31.2042 20.1881 31.2042L22.5696 22.5086C22.5696 22.5086 27.638 23.107 32.1813 22.9849C37.7015 22.8261 43.7103 21.5804 45.1515 16.3044L42.7699 25Z" /> <path d="M8.2926 8.69565C24.5481 9.70933 43.4416 18.0997 42.7821 25L45.0293 16.7929C45.701 9.75818 28.1754 1.40449 10.6619 0L8.2926 8.69565Z" /> </g> </svg>