<svg fill="currentColor" aria-label="Pierre et Vacances" role="img" width="133" height="50" viewBox="0 0 133 50" xmlns="http://www.w3.org/2000/svg"> <g> <path d="M25.0552 0C11.2141 0 0 11.2583 0 25.0552C0 30.6623 2.03091 36.3135 5.05519 40C6.15894 41.2804 7.35099 42.0309 8.56512 42.0309C9.3819 42.0309 10.3091 41.6556 11.0375 40.8389C6.71082 37.7042 3.84106 31.4349 3.84106 25.0773C3.84106 13.2671 13.3333 3.70861 25.0331 3.70861C36.7329 3.70861 46.2252 13.2892 46.2252 25.0773C46.2252 36.5121 36.9316 46.4459 26.6887 46.4459C22.2958 46.4459 19.2936 44.0839 19.2936 40.7285C19.2936 37.9691 20.9492 35.6733 25.0331 32.2737C27.5055 34.0618 30.1325 35.4525 32.34 36.2914C35.7395 37.5717 37.3951 36.755 37.947 34.4371C34.9227 33.6203 31.2804 31.8764 28.1015 29.6247C31.4349 26.5342 33.9735 22.936 33.9735 18.5872C33.9735 13.3333 30.0662 9.4702 25.011 9.4702C19.9559 9.4702 16.1148 13.3333 16.1148 18.5872C16.1148 22.8035 18.6313 26.6667 21.9647 29.7572C16.8653 34.1501 15.0552 37.351 15.0552 40.9713C15.0552 46.2472 19.8234 50 26.3797 50C37.2627 50 49.9559 39.9559 49.9559 25.0331C50.0221 11.2362 38.8742 0 25.0552 0ZM20.3974 18.8079C20.3974 15.4967 22.2958 13.4658 25.0773 13.4658C27.8587 13.4658 29.8013 15.4967 29.8013 18.8079C29.8013 21.9205 27.7704 24.6137 25.0773 27.1523C22.2958 24.5916 20.3974 21.6556 20.3974 18.8079ZM65.9823 12.8035H67.9029V23.1347H65.9823V12.8035ZM57.7704 20.287H59.9559C62.5386 20.287 64.2163 18.8079 64.2163 16.5342C64.2163 14.2605 62.5607 12.8035 59.9559 12.8035H55.8278V23.1347H57.7483L57.7704 20.287ZM57.7704 14.5916H59.8896C61.3687 14.5916 62.2958 15.3201 62.2958 16.5121C62.2958 17.7042 61.3687 18.4768 59.8896 18.4768H57.7704V14.5916ZM83.1126 19.6468H84.8124C85.5408 20.8168 86.4459 21.9647 87.5055 23.1126H89.5585C88.5651 21.8543 87.6821 20.6181 86.9095 19.404C88.4106 18.9404 89.3157 17.7925 89.3157 16.2252C89.3157 14.106 87.7263 12.8035 85.2539 12.8035H81.2141V23.1347H83.1347L83.1126 19.6468ZM83.1126 14.5916H85.1656C86.5342 14.5916 87.3951 15.2318 87.3951 16.2472C87.3951 17.2627 86.5563 17.9249 85.1656 17.9249H83.1126V14.5916ZM99.4702 23.1126C98.4768 21.8543 97.5938 20.6181 96.8212 19.404C98.3223 18.9404 99.2274 17.7925 99.2274 16.2252C99.2274 14.106 97.638 12.8035 95.1656 12.8035H91.1038V23.1347H93.0243V19.6468H94.7241C95.4525 20.8168 96.3576 21.9647 97.4172 23.1126H99.4702ZM95.0773 17.9249H93.0243V14.6137H95.0773C96.4459 14.6137 97.3068 15.2539 97.3068 16.2693C97.2848 17.2627 96.4238 17.9249 95.0773 17.9249ZM113.135 23.2009C113.775 23.2009 114.349 22.9581 114.812 22.5607C115.143 22.8256 115.43 23.0243 115.607 23.1347H116.799C116.645 23.0022 116.049 22.5166 115.364 21.9205C115.519 21.6556 115.651 21.3687 115.762 21.0596C115.916 20.596 115.916 19.9779 115.21 19.9117C115.121 20.4857 114.945 20.9492 114.746 21.3245C114.327 20.9051 113.929 20.4857 113.576 20.0442C114.283 19.6247 114.989 19.2053 114.989 18.3223C114.989 17.5055 114.349 16.8874 113.4 16.8874C112.384 16.8874 111.744 17.6159 111.744 18.4327C111.744 18.8742 111.921 19.3377 112.208 19.8234C111.611 20.1987 111.082 20.6843 111.082 21.5011C111.104 22.5607 112.075 23.2009 113.135 23.2009ZM113.422 17.7704C113.775 17.7704 114.018 18.0132 114.018 18.3664C114.018 18.8079 113.598 19.0508 113.091 19.3598C112.892 19.0287 112.781 18.7196 112.781 18.4327C112.759 18.0353 113.024 17.7704 113.422 17.7704ZM112.737 20.5298C113.157 21.0375 113.664 21.5453 114.128 21.9647C113.863 22.1634 113.532 22.2737 113.223 22.2737C112.649 22.2737 112.208 21.9426 112.208 21.4349C112.23 21.0596 112.428 20.7947 112.737 20.5298ZM79.0508 21.0596L77.7263 19.9779C76.9757 20.9934 75.9603 21.5232 74.8124 21.5232C73.1788 21.5232 72.0309 20.6181 71.6556 19.0728C74.3488 19.1611 76.9536 18.8079 79.5364 17.9691V17.7483C79.5364 14.702 77.5276 12.6269 74.6799 12.6269C71.6556 12.6269 69.6026 14.9448 69.6026 17.9691C69.6026 21.1258 71.8543 23.3333 74.8344 23.3333C76.6446 23.3113 78.2561 22.4283 79.0508 21.0596ZM74.702 14.415C76.1589 14.415 77.1744 15.2318 77.5276 16.7108C75.9603 17.1965 74.3046 17.4393 71.5894 17.5276C71.7439 15.6291 72.9139 14.415 74.702 14.415ZM109.735 21.0596L108.411 19.9779C107.66 20.9934 106.645 21.5232 105.497 21.5232C103.863 21.5232 102.715 20.6181 102.34 19.0728C105.033 19.1611 107.638 18.8079 110.221 17.9691V17.7483C110.221 14.702 108.212 12.6269 105.364 12.6269C102.34 12.6269 100.287 14.9448 100.287 17.9691C100.287 21.1258 102.539 23.3333 105.519 23.3333C107.307 23.3113 108.94 22.4283 109.735 21.0596ZM105.364 14.415C106.821 14.415 107.837 15.2318 108.19 16.7108C106.623 17.1965 104.967 17.4393 102.252 17.5276C102.406 15.6291 103.576 14.415 105.364 14.415ZM80.9713 35.6291C79.0508 35.6291 77.638 34.128 77.638 32.053C77.638 30 79.0728 28.4768 80.9713 28.4768C81.766 28.4768 82.4503 28.7417 83.0243 29.2053L83.9514 27.7042C83.0243 27.0419 82.0088 26.6887 80.8609 26.6887C77.8808 26.6887 75.6954 28.9625 75.6954 32.053C75.6954 35.1214 77.8808 37.4172 80.8609 37.4172C82.1192 37.4172 83.245 37.0199 84.128 36.2472L83.1567 34.7461C82.5607 35.3422 81.8102 35.6291 80.9713 35.6291ZM110.971 35.6291C109.051 35.6291 107.638 34.128 107.638 32.053C107.638 30 109.073 28.4768 110.971 28.4768C111.766 28.4768 112.45 28.7417 113.024 29.2053L113.951 27.7042C113.024 27.0419 112.009 26.6887 110.861 26.6887C107.881 26.6887 105.695 28.9625 105.695 32.053C105.695 35.1214 107.881 37.4172 110.861 37.4172C112.119 37.4172 113.245 37.0199 114.128 36.2472L113.157 34.7461C112.561 35.3422 111.81 35.6291 110.971 35.6291ZM72.6711 27.7483C71.7439 27.0419 70.8609 26.7329 69.7572 26.7329C66.7991 26.7329 64.6137 29.0066 64.6137 32.0971C64.6137 35.1876 66.8212 37.4614 69.7572 37.4614C70.7726 37.4614 71.6336 37.1965 72.4945 36.5784L72.6711 37.2848H74.2384V26.9536H73.245L72.6711 27.7483ZM72.34 34.5033C71.6998 35.2318 70.8609 35.6291 69.8676 35.6291C67.947 35.6291 66.5563 34.128 66.5563 32.053C66.5563 30 67.9691 28.4768 69.8676 28.4768C70.8609 28.4768 71.7219 28.8962 72.34 29.6247V34.5033ZM92.2737 27.7483C91.3466 27.0419 90.4636 26.7329 89.3598 26.7329C86.4018 26.7329 84.2163 29.0066 84.2163 32.0971C84.2163 35.1876 86.4238 37.4614 89.3598 37.4614C90.3753 37.4614 91.2362 37.1965 92.0971 36.5784L92.2737 37.2848H93.8411V26.9536H92.8477L92.2737 27.7483ZM91.9426 34.5033C91.3024 35.2318 90.4636 35.6291 89.4702 35.6291C87.5497 35.6291 86.1589 34.128 86.1589 32.053C86.1589 30 87.5717 28.4768 89.4702 28.4768C90.4636 28.4768 91.3245 28.8962 91.9426 29.6247V34.5033ZM59.7792 34.989L57.064 26.9095H54.9007L58.6534 37.2406H60.7947L64.5475 26.9095H62.4503L59.7792 34.989ZM119.316 26.7329C116.291 26.7329 114.238 29.0508 114.238 32.0751C114.238 35.2318 116.49 37.4393 119.47 37.4393C121.28 37.4393 122.892 36.5563 123.709 35.1876L122.384 34.106C121.634 35.1214 120.618 35.6512 119.47 35.6512C117.837 35.6512 116.689 34.7461 116.313 33.2009C119.007 33.2892 121.611 32.936 124.194 32.0971V31.8543C124.172 28.7859 122.163 26.7329 119.316 26.7329ZM116.203 31.6556C116.358 29.7351 117.528 28.521 119.316 28.521C120.773 28.521 121.788 29.3378 122.141 30.8168C120.574 31.3245 118.896 31.5453 116.203 31.6556ZM126.998 29.6027C126.998 29.0728 127.506 28.521 128.852 28.521C129.581 28.521 130.508 28.6976 131.391 29.3157L132.141 27.7483C131.302 27.1523 130.044 26.7329 128.786 26.7329C126.667 26.7329 125.055 27.8808 125.055 29.7351C125.055 33.1567 130.486 32.6932 130.486 34.5033C130.486 35.1214 129.868 35.6512 128.565 35.6512C127.748 35.6512 126.645 35.4305 125.629 34.6358L124.879 36.2031C125.806 36.9316 127.174 37.4393 128.631 37.4393C130.883 37.4393 132.428 36.2031 132.428 34.415C132.45 30.9934 126.998 31.3245 126.998 29.6027ZM102.362 33.7307L97.1302 26.9095H95.7174V37.2406H97.6159V30.4415L102.848 37.2406H104.238V26.9095H102.362V33.7307Z" /> </g> </svg>