<svg fill="currentColor" aria-label="Purina" role="img" width="135" height="24" viewBox="0 0 135 24" xmlns="http://www.w3.org/2000/svg"> <path d="M119.87 13.608H124.22L122.119 8.43994L119.87 13.608Z" /> <path d="M72.8923 6.72968C72.3718 6.20915 71.6654 5.9303 70.7916 5.9303C70.4384 5.9303 69.9365 5.98607 69.323 6.1162V11.7862C69.3788 11.7862 69.4345 11.7862 69.4717 11.7862C69.5833 11.7862 69.6576 11.7862 69.7134 11.7862C71.0333 11.7862 72.0372 11.4888 72.6878 10.9311C73.3385 10.3734 73.6731 9.66694 73.6731 8.79319C73.6731 7.93804 73.4129 7.25021 72.8923 6.72968Z" /> <path d="M36.2138 6.33927C35.7862 6.0976 35.2843 5.96747 34.7266 5.96747C34.4291 5.96747 34.0201 6.02324 33.5554 6.13478V11.8792C33.8528 11.9349 34.1317 11.9721 34.3733 12.0093C34.6522 12.0465 34.8939 12.0651 35.0984 12.0651C35.7862 12.0651 36.3439 11.8048 36.8458 11.2657C37.3478 10.7266 37.5895 10.0201 37.5895 9.1464C37.5895 8.55151 37.4779 7.97521 37.2362 7.47328C36.976 6.97134 36.6414 6.59954 36.2138 6.33927Z" /> <path d="M24.1487 0.706421V23.2936H133.794V0.706421H24.1487ZM39.2254 12.0093C38.4074 12.7901 37.2548 13.1991 35.7676 13.1991C35.4144 13.1991 35.024 13.1805 34.615 13.1247C34.2804 13.0875 33.9086 13.0132 33.5554 12.9388V16.9357C33.5554 18.0697 33.7041 18.4043 33.7971 18.5159C34.0201 18.7947 34.3734 18.9063 34.8567 18.9063H35.6189V19.7242H28.9636V18.9063H29.7258C30.2649 18.9063 30.6367 18.739 30.8598 18.4043C30.9342 18.2928 31.0457 17.9582 31.0457 16.9357V7.47327C31.0457 6.33926 30.897 6.00464 30.804 5.8931C30.5624 5.61424 30.2091 5.48411 29.7258 5.48411H28.9636V4.66614H34.5035C35.8234 4.66614 36.883 4.81486 37.6452 5.09372C38.426 5.37257 39.0953 5.85592 39.6344 6.52517C40.1735 7.19441 40.4524 8.01238 40.4524 8.9419C40.471 10.206 40.0434 11.2285 39.2254 12.0093ZM60.158 5.40975H59.4144C58.9125 5.40975 58.5407 5.61424 58.2804 6.04182C58.206 6.15336 58.0945 6.46939 58.0945 7.49186V13.4036C58.0945 14.8908 57.9458 16.0434 57.6483 16.8799C57.3509 17.7165 56.7374 18.4601 55.8637 19.055C54.9713 19.6499 53.763 19.9473 52.2758 19.9473C50.6398 19.9473 49.3943 19.6499 48.5391 19.0922C47.684 18.5159 47.0519 17.7351 46.6987 16.7684C46.457 16.0991 46.3455 14.9094 46.3455 13.1061V7.38032C46.3455 6.33926 46.1782 5.91169 46.0294 5.74438C45.8249 5.52129 45.4903 5.39116 45.007 5.39116H44.2634V4.57319H50.9187V5.39116H50.1565C49.6359 5.39116 49.2827 5.53988 49.0596 5.87451C48.9481 6.02323 48.8366 6.41362 48.8366 7.38032V13.7382C48.8366 14.2959 48.8923 14.9465 48.9853 15.653C49.0782 16.3594 49.2641 16.8985 49.5244 17.2703C49.7847 17.6421 50.1565 17.9582 50.6212 18.2184C51.1046 18.4601 51.718 18.5902 52.4245 18.5902C53.3354 18.5902 54.172 18.3857 54.897 17.9953C55.6034 17.6049 56.1053 17.103 56.3656 16.4895C56.6259 15.8761 56.756 14.7978 56.756 13.2734V7.38032C56.756 6.2649 56.6073 5.91169 56.5143 5.80015C56.2727 5.52129 55.9194 5.39116 55.4361 5.39116H54.6925V4.57319H54.897H59.9721H60.1766V5.40975H60.158ZM79.6964 19.7056H75.4764L75.4206 19.6127L70.5128 12.8644C70.2153 12.883 69.9551 12.883 69.7506 12.883C69.639 12.883 69.5461 12.883 69.4531 12.883C69.416 12.883 69.3788 12.883 69.3416 12.883V16.9171C69.3416 18.0511 69.4903 18.3857 69.5833 18.4973C69.8063 18.7761 70.1596 18.8877 70.6429 18.8877H71.4237V19.7056H64.7684V18.8877H65.512C66.0511 18.8877 66.4229 18.7204 66.646 18.3857C66.7204 18.2742 66.8319 17.9396 66.8319 16.9171V7.47327C66.8319 6.33926 66.6832 6.00464 66.5902 5.8931C66.3486 5.61424 65.9953 5.48411 65.512 5.48411H64.7684V4.66614H70.2897C71.8513 4.66614 73.0225 4.77768 73.7847 5.01936C74.5654 5.26103 75.2161 5.70719 75.7552 6.33926C76.2943 6.98992 76.5732 7.75212 76.5732 8.64445C76.5732 9.59256 76.2572 10.4291 75.6437 11.117C75.086 11.749 74.2308 12.2138 73.1154 12.5112C73.7661 13.4036 75.9597 16.4338 75.9597 16.4524C76.629 17.4005 77.2053 18.0139 77.67 18.33C78.1348 18.6274 78.7668 18.8133 79.5105 18.9063L79.6964 18.9249V19.7056ZM90.6274 5.5027H89.9024C89.3819 5.5027 89.0101 5.65142 88.787 5.94887C88.7126 6.06041 88.5639 6.39503 88.5639 7.47327V16.9171C88.5639 17.8094 88.6197 18.1627 88.694 18.3114C88.7498 18.4415 88.8613 18.5716 89.0472 18.6646C89.3261 18.8133 89.605 18.8877 89.921 18.8877H90.646V19.7056H83.9907V18.8877H84.7157C85.2548 18.8877 85.6266 18.739 85.8497 18.4415C85.9241 18.33 86.0728 17.9953 86.0728 16.9171V7.47327C86.0728 6.58094 85.9984 6.22772 85.9427 6.09759C85.8869 5.96746 85.7754 5.83733 85.5895 5.74438C85.3106 5.59565 85.0132 5.5027 84.6971 5.5027H83.9721V4.68473H84.1766H90.4043H90.6088L90.6274 5.5027ZM112.434 5.29821V5.5027H111.709C111.151 5.5027 110.779 5.65142 110.556 5.98605C110.482 6.09759 110.352 6.43221 110.352 7.45468V19.9659H109.664L109.608 19.8915L100.257 8.5515V16.9729C100.257 18.0883 100.406 18.4229 100.499 18.5159C100.722 18.7761 101.112 18.9063 101.614 18.9063H102.339V19.7242H96.8366V18.9063H97.5616C98.1193 18.9063 98.5097 18.7575 98.7142 18.4415C98.7885 18.33 98.9187 17.9953 98.9187 16.9729V6.91556C98.5283 6.4694 98.2308 6.15336 98.0449 6.00464C97.8404 5.85592 97.543 5.72579 97.134 5.59565C96.9481 5.53988 96.6507 5.5027 96.2417 5.5027H96.0372V4.68473H100.313L100.369 4.75909L109.013 15.2626V7.43609C109.013 6.32067 108.864 5.98605 108.771 5.87451C108.548 5.61424 108.177 5.48411 107.656 5.48411H106.931V4.66614H112.434V5.29821ZM130.689 19.7056H124.462V18.9063L124.666 18.8877C125.335 18.8505 125.614 18.739 125.726 18.646C125.875 18.5159 125.949 18.3857 125.949 18.2184C125.949 17.9396 125.8 17.4562 125.54 16.8242C125.54 16.8242 124.908 15.2998 124.722 14.8536H119.331C119.126 15.3183 118.383 17.0101 118.383 17.0101C118.085 17.6793 118.029 18.0325 118.029 18.1998C118.029 18.3671 118.104 18.4973 118.271 18.6274C118.383 18.7204 118.717 18.8505 119.535 18.9063L119.721 18.9249V19.7242H114.72V18.9434L114.888 18.9063C115.631 18.7761 115.873 18.6274 115.966 18.5345C116.319 18.2184 116.71 17.512 117.137 16.4895L122.361 4.49883L122.417 4.3687H123.123L123.179 4.49883L128.161 16.6383C128.552 17.5864 128.905 18.1998 129.221 18.4601C129.518 18.7204 129.946 18.8691 130.485 18.9063L130.689 18.9249V19.7056Z" /> <path d="M0.706429 23.2936H23.275V0.706421H0.706429V23.2936ZM1.41286 1.43144H22.55V22.5871H1.41286V1.43144Z" /> <path d="M15.2068 8.7746H8.77459V2.32379H2.32378V8.7746H8.77459V15.2254H15.2068V8.7746H21.6576V2.32379H15.2068V8.7746Z" /> <path d="M8.77459 15.2254H2.32378V21.6762H8.77459V15.2254Z" /> <path d="M21.6576 15.2254H15.2068V21.6762H21.6576V15.2254Z" /> </svg>