<svg fill="currentColor" aria-label="Senseo" role="img" width="66" height="50" viewBox="0 0 66 50" xmlns="http://www.w3.org/2000/svg"> <g> <path d="M65.7077 16.822C65.4511 16.0319 64.7556 15.5659 63.9249 15.6064C63.1348 15.6469 62.554 16.1399 62.3717 16.957C62.2704 17.4028 62.3312 17.8349 62.6418 18.1929C62.8849 18.4765 63.0808 18.4832 63.3442 18.2401C63.5265 18.0646 63.7493 18.1118 63.7966 18.3549C63.8304 18.5373 63.8506 18.7601 63.7764 18.9154C63.5332 19.4287 63.3239 19.9824 62.9592 20.4011C62.4325 20.9954 61.6694 21.2047 60.859 21.3466C60.9265 21.1305 60.9806 20.9616 61.0278 20.7861C61.3587 19.6448 61.5478 18.4832 61.3115 17.2947C61.1156 16.2817 60.5484 15.5389 59.6367 15.0594C58.3604 14.3909 56.976 14.9041 56.2196 16.3155C56.1724 16.41 56.1183 16.4978 56.0643 16.6059C56.0238 16.5654 55.9968 16.5451 55.9968 16.5316C56.0643 16.248 56.1859 15.9508 55.7402 15.8428C55.6929 15.8293 55.6794 15.7077 55.6456 15.6334C55.2809 14.8501 54.9433 14.0532 54.5449 13.2834C49.5678 3.802 38.7628 -1.53971 28.2348 0.391676C19.8609 1.92463 13.7696 6.59778 9.92709 14.195C9.72449 14.5935 9.5219 14.8163 9.06269 14.8096C8.84659 14.8096 8.62374 14.8906 8.40764 14.9514C6.71261 15.4308 5.44978 16.4506 4.48408 17.9362C2.9984 20.2323 3.04567 22.9268 4.71369 25.1013C5.41601 26.0197 6.33443 26.6815 7.30688 27.2825C7.49597 27.4041 7.59051 27.5392 7.61753 27.762C7.65129 28.1334 7.69856 28.4981 7.75934 28.8628C7.84038 29.376 7.93492 29.896 8.02946 30.4362C7.93492 30.4227 7.86739 30.416 7.80661 30.4025C6.19262 30.0783 4.67992 30.362 3.25502 31.1588C2.07998 31.8139 1.31012 32.8268 0.675333 33.9749C-0.709054 36.4668 0.0878125 39.6137 2.53244 41.0859C4.13968 42.0583 5.91574 42.3217 7.75934 42.1259C9.53541 41.9368 11.1291 41.302 12.554 40.1405C12.6418 40.2485 12.7161 40.3295 12.7837 40.4173C18.5846 47.7512 27.708 51.3033 36.9193 49.561C45.6375 47.9133 51.8031 42.8822 55.4633 34.8123C56.7126 32.0637 57.3001 29.1396 57.4622 26.1278C57.469 25.9859 57.5297 25.8104 57.631 25.7293C58.5697 24.9257 59.3396 23.9803 60.0419 22.9741C60.2107 22.7377 60.366 22.6026 60.6564 22.5486C62.1353 22.2785 63.3036 21.4006 64.4179 20.4687C64.7961 20.1513 65.1067 19.7258 65.3701 19.3004C65.8293 18.544 65.9981 17.7066 65.7077 16.822ZM16.5519 33.5832C15.8023 36.5681 14.2288 39.0127 11.4735 40.4849C8.92763 41.8422 6.24664 41.8895 3.60618 40.701C0.229628 39.168 -0.513214 34.684 2.18128 32.1515C3.72098 30.7064 5.57809 30.1459 7.65804 30.5038C9.6232 30.8482 10.7847 32.1988 11.5816 33.9141C11.6154 33.9816 11.5613 34.0897 11.5478 34.1842C11.4668 34.1369 11.3655 34.1099 11.3115 34.0424C10.6564 33.1983 9.8393 32.604 8.78581 32.3609C6.36145 31.7936 3.78851 33.4211 3.35632 35.7847C2.87685 38.4117 4.97031 40.782 7.63778 40.6402C10.3728 40.4984 12.5405 38.8101 13.4792 36.0886C13.9047 34.8663 14.0735 33.6237 13.8034 32.3406C13.4252 30.5848 12.3515 29.3693 10.8523 28.4643C9.47463 27.6337 8.09024 26.8166 6.75988 25.9252C5.35523 24.9865 4.39629 23.6831 4.04513 22.0084C3.41034 18.956 5.24043 16.0251 8.33335 15.1202C9.87306 14.6677 11.3858 14.7353 12.8107 15.5254C14.715 16.5856 15.4646 19.1248 14.4449 20.9954C13.7223 22.3258 12.3582 22.758 11.0143 22.3865C9.78527 22.0489 9.14373 20.5159 9.73125 19.3814C9.84605 19.1586 10.0486 18.983 10.2107 18.7804C10.2445 18.8074 10.2782 18.8277 10.312 18.8547C10.312 18.8884 10.3255 18.9222 10.3188 18.9492C10.0757 19.9014 10.7442 20.5767 11.7099 20.3471C12.5878 20.1445 13.1348 19.2936 13.0538 18.2739C12.9322 16.7882 11.9057 15.836 10.3188 15.755C8.06998 15.6402 6.19937 17.5176 6.34119 19.7596C6.40197 20.6577 6.82066 21.4073 7.38792 22.0827C8.09024 22.92 8.96815 23.5413 9.92709 24.0546C11.1021 24.6894 12.2907 25.3106 13.4455 25.9792C16.4506 27.7215 17.1867 31.044 16.5519 33.5832ZM11.5951 38.7966C10.1905 40.289 7.58376 40.9238 5.82795 40.2147C3.82228 39.4111 2.80931 36.9395 3.69397 34.9608C3.81553 34.6907 4.05864 34.4476 4.28824 34.245C5.42952 33.232 6.77339 32.8066 8.29959 32.9146C8.62374 32.9349 8.80607 33.0565 8.92087 33.3941C9.56242 35.258 10.4471 37.0138 11.5276 38.6615C11.5478 38.702 11.5681 38.7426 11.5951 38.7966ZM8.82633 16.5181C8.39413 18.3684 7.95518 20.2255 7.52973 22.0421C6.76663 21.4006 6.17236 19.9149 6.50326 18.7331C6.87468 17.3622 7.45545 16.849 8.82633 16.5181ZM23.2712 23.2712C23.1969 22.373 22.5014 22.0151 21.7923 22.5689C21.4141 22.866 21.0832 23.2644 20.8469 23.6899C20.1243 24.9865 19.6988 26.3844 19.7799 27.8768C19.8069 28.3901 19.9284 28.9303 20.1378 29.403C20.4957 30.2337 21.2858 30.5173 22.13 30.1931C23.0686 29.8285 23.6629 29.0789 24.1829 28.2685C24.3652 27.9781 24.5138 27.6607 24.7096 27.3028C24.7502 27.4176 24.7839 27.4919 24.8042 27.5662C24.8177 27.6202 24.8042 27.681 24.8042 27.735C24.6421 29.5381 22.5284 31.4357 20.705 31.3952C19.2329 31.3682 17.9565 30.3417 17.4906 28.7615C17.0111 27.134 17.3893 25.6213 18.2402 24.2099C18.9492 23.0348 19.9217 22.1637 21.2588 21.7653C21.9139 21.5694 22.5892 21.5357 23.2577 21.7112C24.3922 22.0084 24.9865 22.9133 24.8042 24.0748C24.5341 25.8104 22.6229 27.3568 20.9211 27.215C20.7793 27.2015 20.6308 27.1542 20.4889 27.1205C20.4889 27.08 20.4822 27.0394 20.4822 27.0057C21.61 26.6613 22.2718 25.7969 22.866 24.8717C23.1632 24.3855 23.3185 23.852 23.2712 23.2712ZM35.3593 26.4654C35.0959 27.0057 34.7448 27.4851 34.2585 27.8498C33.7656 28.228 33.2118 28.3428 32.604 28.201C32.0435 28.0727 31.6383 27.7282 31.51 27.1677C31.402 26.7153 31.3547 26.2358 31.3885 25.7698C31.5033 24.3179 31.6653 22.866 31.8072 21.4073C31.8207 21.252 31.8342 21.0899 31.8274 20.9346C31.8139 20.3404 31.402 20.0365 30.882 20.3268C30.5173 20.5294 30.1594 20.8401 29.9298 21.1845C29.2882 22.1367 28.9506 23.2239 28.8088 24.3652C28.6872 25.3376 28.6062 26.3101 28.4779 27.2758C28.3631 28.1942 27.8701 28.856 27.0124 29.2274C26.5667 29.4165 26.121 29.5989 25.6686 29.7744C25.5403 29.8217 25.3985 29.842 25.1891 29.896C25.3849 29.6056 25.5875 29.403 25.6686 29.1599C25.8374 28.6197 26.013 28.0659 26.0738 27.5054C26.2764 25.6888 26.4317 23.8655 26.6005 22.0421C26.6478 21.5289 26.6275 21.0224 26.1143 20.705C26.9111 19.9689 28.2483 20.5835 28.8628 22.0016C28.9303 21.8868 28.9844 21.799 29.0316 21.7045C29.4233 20.9616 29.8758 20.2728 30.5173 19.7191C31.1521 19.1788 31.8679 18.8952 32.7188 18.956C33.7588 19.0302 34.3936 19.6043 34.3936 20.6442C34.3936 21.5694 34.2585 22.5013 34.1775 23.4265C34.0897 24.3517 33.9884 25.2836 33.8939 26.2088C33.8804 26.3304 33.8871 26.4587 33.9141 26.5735C33.9749 26.8571 34.1707 26.9922 34.4341 26.8774C34.6975 26.7626 34.9203 26.5735 35.1567 26.4046C35.231 26.3506 35.285 26.2628 35.4201 26.2291C35.3998 26.3169 35.393 26.3979 35.3593 26.4654ZM42.288 25.9927C41.0049 27.2488 39.4382 27.708 37.6688 27.3298C37.007 27.188 36.46 26.8503 36.1359 26.2156C35.7982 25.5538 35.9198 24.6894 36.406 24.2436C36.899 23.7979 38.02 23.7034 38.567 24.0613C38.621 24.0951 38.6818 24.1288 38.7358 24.1559C38.7156 24.1829 38.6953 24.2166 38.6683 24.2436C38.6008 24.2436 38.54 24.2436 38.4725 24.2436C37.7904 24.2099 37.2974 24.5138 37.1218 25.0743C36.9328 25.6686 37.1759 26.3776 37.7431 26.6815C38.513 27.1002 39.3234 27.1407 40.0865 26.6748C40.9981 26.121 41.1737 24.8042 40.3971 24.0478C39.9379 23.6021 39.3571 23.2712 38.8304 22.893C38.4927 22.6567 38.1213 22.4541 37.7972 22.1975C36.3655 21.0697 36.4195 19.2463 37.9255 18.2266C39.0262 17.477 40.2553 17.2407 41.5586 17.5378C42.0651 17.6526 42.4973 17.9092 42.7674 18.382C43.0376 18.8479 42.9835 19.3274 42.6054 19.7056C42.2137 20.0972 41.7477 20.2863 41.0994 20.2053C41.194 20.131 41.221 20.0972 41.2547 20.0837C41.9638 19.7731 42.1394 18.983 41.6397 18.4022C41.1062 17.7877 39.9041 17.6661 39.2558 18.1659C38.7561 18.5508 38.6751 19.1451 39.0667 19.6448C39.5395 20.2391 40.2013 20.5835 40.8225 20.9886C41.329 21.3196 41.8355 21.664 42.261 22.0827C43.3887 23.2037 43.409 24.8987 42.288 25.9927ZM51.9314 18.8479C51.6478 20.6713 49.8379 22.1232 48.0011 22.0151C47.8323 22.0084 47.6634 21.9543 47.5014 21.9206C49.0748 21.3736 50.3917 19.7056 50.4592 18.0983C50.4795 17.6256 50.4525 17.1461 49.973 16.8895C49.507 16.6397 49.0681 16.8422 48.6899 17.1326C48.4198 17.342 48.1429 17.5851 47.9538 17.862C46.7248 19.6921 46.4209 21.7247 46.8531 23.852C46.9476 24.3247 47.2785 24.7906 47.6027 25.1756C48.0956 25.7496 48.7912 25.8441 49.48 25.52C50.1891 25.1891 50.7361 24.6556 51.148 23.9938C51.1953 23.9195 51.2358 23.8385 51.2831 23.7574C51.2899 23.7439 51.3236 23.7439 51.4182 23.7034C51.3777 23.9195 51.3709 24.1018 51.3101 24.2639C50.9725 25.1216 50.3444 25.7226 49.5205 26.1075C46.4479 27.5257 44.3274 25.2769 44.0573 22.9133C43.7264 20.0162 46.0359 16.8557 48.8722 16.2345C49.7569 16.0386 50.574 16.1939 51.2561 16.822C51.8504 17.369 52.053 18.0713 51.9314 18.8479ZM64.1815 20.5632C63.2023 21.3668 62.0408 21.7855 60.8117 22.0016C60.5686 22.0421 60.4268 22.1434 60.3053 22.3663C59.7447 23.3928 59.0154 24.2842 58.07 24.9865C55.3215 27.0327 52.6337 25.1351 52.2758 22.4136C52.0462 20.651 52.7215 19.1518 53.7818 17.8012C54.295 17.1394 54.9028 16.5789 55.6524 16.1737C55.7469 16.1197 55.8482 16.0791 55.9495 16.0319C55.9765 16.0521 55.9968 16.0791 56.0238 16.0994C55.9698 16.2277 55.9157 16.356 55.855 16.4843C55.0919 17.9768 54.5786 19.53 54.6597 21.2318C54.7069 22.2042 54.9365 23.1226 55.5511 23.906C55.6726 24.0613 55.8212 24.2099 55.9765 24.3382C56.5911 24.8379 57.2258 24.8649 57.8606 24.3922C58.1172 24.2031 58.3739 23.9735 58.5562 23.7102C58.9006 23.1902 59.1977 22.6364 59.5422 22.0421C59.245 21.9611 59.0492 21.9071 58.8533 21.8463C57.4149 21.4073 56.402 20.5497 56.044 19.0438C55.8212 18.1051 55.936 17.1731 56.402 16.329C57.5365 14.2558 59.6435 14.607 60.7442 16.0994C61.2439 16.7815 61.3587 17.5783 61.352 18.4022C61.3385 19.3206 61.1426 20.2053 60.859 21.0764C60.8185 21.2047 60.7712 21.3263 60.7307 21.4614C62.2231 21.4749 63.8641 20.2458 64.2423 18.8412C64.2896 18.6588 64.3098 18.463 64.3098 18.2739C64.3031 17.8214 64.087 17.504 63.7764 17.4298C63.4657 17.3555 63.2226 17.4905 62.9255 17.9633C62.8107 17.7472 62.6756 17.5783 62.6283 17.396C62.4595 16.6734 62.8984 15.9778 63.6143 15.7888C64.8636 15.4511 65.9171 16.4506 65.7753 17.8282C65.6335 18.983 65.0459 19.8541 64.1815 20.5632ZM57.3001 21.8936C57.7931 22.1232 58.2658 22.346 58.7791 22.5891C58.5089 23.2915 58.3131 24.0411 57.496 24.4395C57.4284 23.5751 57.3677 22.7445 57.3001 21.8936Z" /> <path d="M58.7453 16.7342C57.9822 15.9576 57.0368 16.1467 56.6316 17.1529C56.4155 17.7066 56.4155 18.2739 56.5438 18.8412C56.8679 20.2863 58.1578 21.4411 59.5624 21.5154C59.7583 20.3809 59.8191 19.2666 59.5287 18.1591C59.3869 17.6256 59.137 17.1326 58.7453 16.7342ZM59.2788 20.7185C59.2585 20.9144 59.218 21.1102 59.1775 21.3601C57.9282 20.9549 57.0165 20.3066 56.7396 18.9965C56.6316 18.4832 56.456 17.9835 56.6248 17.4433C56.8072 16.8557 57.3069 16.5856 57.8269 16.9098C58.2051 17.1461 58.5495 17.4838 58.7926 17.8552C59.3531 18.7264 59.3734 19.7258 59.2788 20.7185Z" /> </g> </svg>