<svg fill="currentColor" aria-label="SFR" role="img" viewBox="0 0 64 64" xmlns="http://www.w3.org/2000/svg"> <g> <path d="M0 0V64H64V0H0ZM21.376 41.8688C18.1312 41.8688 16.1216 40.6976 14.4512 37.824L17.0304 36.288C18.176 38.3168 19.6608 38.8992 21.3568 38.8992C23.0528 38.8992 25.0176 37.7408 25.0176 35.8656C25.0176 34.8416 24.8128 33.6512 22.1888 32.96C22.176 32.9536 20.768 32.5504 20.768 32.5504C17.7088 31.6928 14.8416 30.2272 14.8416 26.8352C14.8416 23.4432 17.8752 21.1456 21.5744 21.1456C24.7104 21.1456 26.6432 22.6752 27.8976 24.512L25.3184 26.016C24.3648 24.7552 23.0592 24.1216 21.5872 24.1216C19.4496 24.1216 18.2592 25.152 18.2592 26.688C18.2592 27.4944 18.5344 28.7296 20.8832 29.3888L20.8896 29.3952C20.8896 29.3952 22.2912 29.8048 22.304 29.8048C25.1392 30.5408 28.416 31.6864 28.416 35.7248C28.4224 39.136 24.96 41.8688 21.376 41.8688ZM43.7376 24.7488H43.7312H34.8992V30.1696H42.5088V33.2416H34.8992V41.408H31.6416V21.6192H43.7376V24.7488ZM57.4592 41.4016L53.0368 33.4336H49.728V41.4016H46.4704V21.6192H53.7792C56.7168 21.6192 60.64 22.4448 60.64 27.3664C60.64 30.7136 58.9056 32.2624 56.1664 32.9856L61.312 41.4016H57.4592Z" /> <path d="M57.2608 27.3344C57.2608 26.0864 56.704 24.544 53.4976 24.544H49.7344V30.4832H53.3824C56.3328 30.4832 57.2608 29.2224 57.2608 27.3344Z" /> </g> </svg>