<svg fill="currentColor" aria-label="SNCF" role="img" width="96" height="50" viewBox="0 0 96 50" fill="none" xmlns="http://www.w3.org/2000/svg"> <g> <path d="M0 0.240388V50.0801H86.2981L95.6731 20.7532C63.0609 -1.04166 9.69551 -0.400638 0 0.240388ZM87.2596 23.7981H73.5577L72.1154 30.0481H83.9744C82.9327 33.0929 82.3718 33.4936 81.7308 33.4936H71.3141C71.3141 33.4936 70.1122 38.8622 69.7917 39.984C69.4711 41.4263 68.8301 41.9872 67.7885 42.3878C66.7468 42.8686 64.7436 42.9487 62.0994 42.9487C54.1667 42.7083 47.9167 39.2628 47.1154 34.6955L47.0353 34.375L45.2724 42.7885H41.1058C41.1058 42.7885 37.6603 32.8526 30.609 24.7596C30.0481 27.484 29.4872 30.2885 28.9263 33.0929C28.766 33.9744 27.8846 33.0929 27.0032 32.1314C25.641 30.6891 25.641 30.2083 25.8814 29.0865C26.2019 27.484 27.3237 22.0353 27.3237 22.0353C27.3237 21.875 27.1635 21.9551 27.1635 22.0353C26.6827 23.1571 26.1218 23.7179 25.641 23.5577C24.6795 23.3974 23.6378 23.3173 22.4359 23.3173C19.6314 23.3173 14.8237 23.7179 14.1827 26.2821C13.0609 30.2885 28.2051 29.6474 27.4038 36.0577C26.9231 39.5833 22.6763 43.2692 11.859 43.1891C9.29487 43.1891 6.8109 42.7083 4.48718 42.2276L5.84936 39.3429C7.53205 39.8237 10.5769 40.4647 13.3013 40.4647C16.9872 40.4647 21.4744 39.0224 21.6346 36.3782C21.875 32.0513 6.73077 33.0128 8.49359 26.5224C9.53526 22.6763 15.4647 20.8333 22.1154 20.7532C24.4391 20.7532 25.4006 20.8333 27.4038 21.1538C36.3782 22.4359 39.9038 29.0865 42.5481 35.9776L45.7532 20.6731H49.9199L48.3173 28.4455C48.3974 28.2853 48.4776 28.2051 48.5577 28.0449C51.6026 23.1571 57.6923 20.7532 66.3462 20.5128C66.8269 20.5128 67.1474 20.5128 67.1474 20.5128C67.1474 20.5128 66.266 23.2372 65.2244 23.3173C59.2147 23.7981 54.2468 26.3622 52.8846 30.5288C51.0417 36.1378 57.4519 39.2628 61.859 39.6635C63.0609 39.7436 64.3429 39.7436 65.5449 39.6635L69.8718 20.6731H89.4231C88.3013 23.7981 87.6603 23.7981 87.2596 23.7981Z" /> </g> </svg>