<svg fill="currentColor" aria-label="Société Générale" role="img" width="165" height="32" viewBox="0 0 165 32" xmlns="http://www.w3.org/2000/svg"> <g> <path d="M53.5632 3.59277C51.8292 2.88342 50.0099 2.39737 48.3678 2.39737C45.9704 2.39737 44.775 2.92939 44.775 3.81609C44.775 6.47619 55.468 4.34811 55.468 9.98358C55.468 12.335 53.2939 14.1084 48.8539 14.1084C46.2332 14.1084 44.197 13.5764 41.8391 12.289L42.8177 10.2003C44.8604 11.3563 46.7652 11.8424 48.8539 11.8424C51.4745 11.8424 52.8473 11.087 52.8473 9.97701C52.8473 7.0936 42.1544 9.22167 42.1544 3.94089C42.1544 1.67488 44.3284 0.0788177 48.2759 0.0788177C50.6273 0.0788177 52.624 0.610837 54.4893 1.54351L53.5632 3.59277ZM65.4581 14.2003C61.1954 14.2003 57.6486 11.3629 57.6486 7.10016C57.6486 2.88342 61.202 0 65.4581 0C69.7603 0 73.2217 2.88342 73.2217 7.10016C73.2677 11.3629 69.7668 14.2003 65.4581 14.2003ZM65.4581 2.30542C62.3514 2.30542 60.2233 4.39409 60.2233 7.10016C60.2233 9.85222 62.266 11.9343 65.4581 11.9343C68.6502 11.9343 70.6535 9.84565 70.6535 7.10016C70.6995 4.39409 68.6568 2.30542 65.4581 2.30542ZM83.4351 14.2003C78.9557 14.2003 75.5796 11.3629 75.5796 7.10016C75.5796 2.92939 78.9951 0 83.4351 0C86.0952 0 87.9606 0.755337 89.6946 1.99672L88.3612 3.94745C87.1199 3.01478 85.5632 2.30542 83.5271 2.30542C80.243 2.30542 78.2003 4.39409 78.2003 7.05419C78.2003 9.80624 80.243 11.8489 83.5271 11.8489C85.5698 11.8489 87.2118 11.1856 88.4532 10.2529L89.7865 12.2036C88.092 13.491 86.0952 14.2003 83.4351 14.2003ZM92.3087 0.486043H94.9688V13.7997H92.3087V0.486043ZM98.5222 13.7997V0.486043H110.949V2.70608H101.189V5.81281H108.736V8.03284H101.189V11.5862H111.396V13.8062L98.5222 13.7997ZM120.709 2.70608V13.7997H118.049V2.70608H112.722V0.486043H126.036V2.70608H120.709ZM128.256 13.7997V0.486043H140.236V2.70608H130.476V5.81281H138.023V8.03284H130.476V11.5862H140.683V13.8062L128.256 13.7997ZM49.4844 29.688C50.8571 29.688 52.3678 29.3793 53.2545 28.8867V24.8933H55.9146V30.1741C54.1412 31.33 51.7898 31.9934 49.4778 31.9934C44.9984 31.9934 41.5764 29.156 41.5764 24.8933C41.5764 20.7225 44.9918 17.8391 49.4319 17.8391C52.0066 17.8391 53.9573 18.5484 55.6453 19.8358L54.3186 21.7931C53.0772 20.8604 51.5205 20.197 49.4844 20.197C46.2003 20.1051 44.1576 22.2397 44.1576 24.8998C44.1576 27.7373 46.2003 29.688 49.4844 29.688ZM59.0213 31.5534V18.2397H71.4483V20.4598H61.688V23.5665H69.2348V25.7865H61.688V29.3399H71.8949V31.5599L59.0213 31.5534ZM76.335 31.5534H74.1149V18.2397H76.6437L85.3859 28.3612C85.2545 25.8325 85.1626 23.7898 85.1626 21.7931V18.2397H87.8227V31.5534H85.1626L76.4663 21.5238L76.335 21.5698C76.4269 23.5665 76.335 27.0739 76.335 28.1839V31.5534ZM91.422 31.5534V18.2397H103.402V20.4598H93.642V23.5665H101.189V25.7865H93.642V29.3399H103.849V31.5599L91.422 31.5534ZM112.992 26.6732H109.176V31.5534H106.516V18.2397H115.126C117.964 18.2397 119.744 20.0131 119.744 22.5419C119.744 24.9392 118.01 26.312 115.882 26.6273L119.875 31.5993H116.768L112.992 26.6732ZM114.851 24.4532C116.401 24.4532 117.294 23.6519 117.294 22.5025C117.294 21.2151 116.539 20.4598 115.12 20.4598H109.176V24.4532H114.851ZM124.972 28.4466L123.422 31.5534H120.716L127.238 18.2397H129.859L136.381 31.5534H133.721L132.171 28.4466H124.972ZM125.99 26.2266H131.14L128.565 20.8144L125.99 26.2266ZM138.463 31.5534V18.2397H140.683V29.3333H149.557V31.5534H138.463ZM151.337 31.5534V18.2397H163.764V20.4598H154.003V23.5665H161.55V25.7865H154.003V29.3399H164.204V31.5599L151.337 31.5534Z" /> <path d="M26.6273 16.0197V16.9064H5.76683V16.0197H0V32H32.3941V16.0197H26.6273Z" /> <path class="svgcolor-2" d="M0 0.0459747V16.4663H5.76683V15.133H26.6273V16.4663H32.3941V0.0459747H0Z" /> </g> </svg>