<svg fill="currentColor" aria-label="Sodexho" role="img" width="124" height="40" viewBox="0 0 124 40" xmlns="http://www.w3.org/2000/svg"> <g> <path d="M58.8155 24.7378L57.4337 31.6101C56.8291 34.3985 55.1511 36.2492 51.7212 36.2492C47.7853 36.2492 46.7489 33.8063 47.6126 30.3763C48.8464 25.5151 52.8192 24.0592 58.8155 24.7378ZM65.0093 14.9167L60.8266 15.1882L59.5065 21.9124C57.9025 21.8507 57.409 21.8014 55.5213 21.8014C49.636 21.8014 44.5034 24.2813 43.1462 30.0802C41.9247 35.3115 44.8982 39.3708 51.3757 39.3708C58.0136 39.3708 60.9007 35.9038 61.9371 31.0302L65.0093 14.9167Z" /> <path d="M19.6422 25.0339C13.5102 24.4787 8.22949 24.9846 8.14312 27.0697C8.0074 30.1913 18.248 27.4645 18.0506 33.2264C17.7668 41.678 3.51635 39.7286 0 38.6552L0.641579 36.1505C6.71191 37.1129 13.1277 37.1993 13.2634 33.8433C13.4115 30.2776 3.13387 33.4855 3.36829 27.7113C3.55336 23.4177 9.96915 21.0981 20.4935 22.6404L19.6422 25.0339Z" /> <path d="M36.1752 30.7835C35.2869 34.3122 32.4985 36.5207 29.1672 36.5207C25.6878 36.5207 24.1209 34.4972 25.0463 30.7835C25.9346 27.2548 28.76 24.8859 32.0913 24.8859C35.4226 24.8859 37.0635 27.2548 36.1752 30.7835ZM32.6342 21.9988C26.5392 21.9988 21.6286 25.5275 20.4318 30.7835C19.2227 36.0395 22.5046 39.5682 28.5996 39.5682C34.6946 39.5682 39.6052 36.0395 40.802 30.7835C42.0111 25.5275 38.7292 21.9988 32.6342 21.9988Z" /> <path d="M103.097 39.4818H97.7915C94.5712 36.459 88.4269 29.5126 83.8988 22.1591H87.7853C92.0913 28.0938 103.097 39.4818 103.097 39.4818Z" /> <path d="M108.661 5.08328L111.104 0L111.795 5.16965L116.767 3.42998L113.288 7.88402L117.064 10.8081L112.03 11.203L111.758 16.5824L108.957 12.5972L104.849 16.3849L106.391 11.0426L101.542 10.3886L106.268 7.69895L104.318 3.09685L108.661 5.08328Z" /> <path d="M118.988 30.8328C118.088 34.4109 115.25 36.6687 111.869 36.6687C108.328 36.6687 106.737 34.6206 107.687 30.8328C108.587 27.2548 111.462 24.8489 114.843 24.8489C118.223 24.8489 119.889 27.2548 118.988 30.8328ZM115.386 21.9124C109.192 21.9124 104.207 25.5028 102.986 30.8328C101.764 36.1752 105.096 39.7533 111.289 39.7533C117.483 39.7533 122.468 36.1752 123.689 30.8328C124.923 25.4905 121.579 21.9124 115.386 21.9124Z" /> <path d="M79.889 38.0012C89.9075 32.4368 98.6058 23.8865 104.775 16.5083C100.333 30.3887 89.6607 37.8532 79.889 38.0012Z" /> <path d="M75.9284 24.5774C77.8408 24.5774 78.8896 25.2684 78.8896 26.6009C78.8896 30.1296 72.0049 29.8951 68.9698 29.2782C70.0308 26.6379 72.4491 24.5774 75.9284 24.5774ZM83.0105 26.4035C83.0105 23.8495 80.9747 21.9618 76.3356 21.9618C68.8341 21.9618 63.9482 26.8353 63.9482 32.8686C63.9482 36.7674 67.1808 40 73.0907 40C77.1623 40 79.8766 37.9889 79.8766 37.9889C74.6946 38.5441 68.3282 37.9889 68.3282 32.4491C68.3282 32.227 68.3405 32.0049 68.3529 31.7952C75.4473 33.2634 83.0105 31.4867 83.0105 26.4035Z" /> </g> </svg>