<svg fill="currentColor" aria-label="Sunny Delight" role="img" width="85" height="50" viewBox="0 0 85 50" xmlns="http://www.w3.org/2000/svg"> <g> <path d="M84.5957 2.75094C84.3516 1.18285 83.0493 0.0434016 81.4758 -5.84341e-06C81.0038 -0.0108577 80.5154 0.130217 80.0488 0.255013C78.9636 0.542588 77.8947 0.878996 76.8149 1.172C75.8166 1.44329 75.0624 2.00216 74.6012 2.93543C74.3787 3.38578 74.1291 3.81985 73.9121 4.22137C73.6136 3.91209 73.3369 3.58111 73.0168 3.30982C72.306 2.71296 71.4487 2.53391 70.5588 2.6587C69.9945 2.73467 69.452 2.9517 68.8985 3.10906C67.9218 3.38578 66.9452 3.65707 65.9739 3.95008C65.2957 4.15626 64.6826 4.48724 64.2593 5.07324C64.102 5.29028 63.9229 5.38252 63.6842 5.40965C63.6299 5.41508 63.5757 5.40965 63.5214 5.4205C62.0401 5.77319 60.6348 6.31578 59.3543 7.14595C58.6652 6.76071 57.9273 6.65762 57.1785 6.83125C56.4731 6.9886 55.784 7.21649 55.0895 7.41725C54.1996 7.67227 53.3098 7.92729 52.4145 8.18231C51.5843 8.42105 50.8139 8.77373 50.3418 9.53336C50.141 9.85349 49.9132 9.85349 49.593 9.85349C49.0179 9.85349 48.4319 9.88062 47.873 9.99999C46.5165 10.293 45.2523 10.841 44.0586 11.5627C43.9826 11.6115 43.8415 11.6169 43.7547 11.5844C43.3261 11.3999 42.8866 11.2859 42.4199 11.2697C41.7091 11.248 41.0635 11.5138 40.4015 11.7092C39.1155 12.0836 37.8296 12.4796 36.5382 12.8432C36.0716 12.9734 35.7243 13.3912 35.198 13.3695C35.0949 13.3641 34.9864 13.3858 34.8833 13.4183C33.9501 13.6842 33.0168 13.9501 32.0835 14.2214C31.5735 14.3679 31.0635 14.5252 30.5209 14.688C30.5534 14.5958 30.5697 14.5469 30.5914 14.5035C30.9061 13.8524 31.1069 13.1687 31.1937 12.4525C31.2425 12.0293 31.2913 11.6006 31.3022 11.172C31.3185 10.5643 31.3076 9.95659 31.2859 9.34888C31.2751 9.05588 31.2479 8.75745 31.172 8.47531C30.9875 7.79706 30.6674 7.20564 30.1139 6.73901C29.262 6.02821 28.2908 5.77319 27.2273 6.05534C26.5925 6.22354 25.9794 6.49484 25.3717 6.76071C23.9935 7.36299 22.6044 7.94899 21.2534 8.61095C20.0054 9.21866 18.7846 9.8969 17.5692 10.5806C16.5002 11.1828 15.4422 11.8177 14.4113 12.4851C13.4237 13.1253 12.4579 13.809 11.5084 14.5035C10.6728 15.1167 9.82634 15.7352 9.05586 16.4297C8.35592 17.0591 7.71566 17.7591 7.10252 18.4807C6.10415 19.6582 5.34995 20.9875 4.88874 22.4742C4.5035 23.7113 4.40041 24.9702 4.54148 26.2561C4.63915 27.1622 4.87789 28.0304 5.25228 28.8551C5.84913 30.1628 6.67388 31.3076 7.75364 32.2572C8.55125 32.9626 9.37057 33.6516 10.2062 34.3624C9.88603 34.5524 9.5876 34.7585 9.26747 34.9105C8.18229 35.4314 7.09167 35.9468 5.99563 36.4406C4.60117 37.07 3.17415 37.6343 1.96959 38.6164C1.3022 39.1535 0.797588 39.8209 0.477458 40.624C0.0813642 41.6169 0.0379567 42.675 0.00540112 43.7168C-0.0217286 44.612 0.0379567 45.5127 0.108494 46.408C0.162753 47.0971 0.320105 47.7754 0.672791 48.3831C1.26422 49.4031 2.1595 49.9891 3.34778 50C3.92835 50.0054 4.51435 49.8915 5.08408 49.7667C6.8258 49.376 8.5404 48.8714 10.2007 48.2203C11.503 47.7103 12.7943 47.1785 14.0586 46.5979C14.8779 46.2235 15.6592 45.7623 16.4406 45.312C17.4389 44.7368 18.4319 44.1563 19.3977 43.5377C20 43.1579 20.5534 42.7075 21.1286 42.2897C21.7743 43.1145 22.6207 43.5974 23.6679 43.5974C24.3027 43.5974 24.943 43.4889 25.5778 43.3912C26.8638 43.1904 27.9707 42.5882 28.969 41.7851C29.2295 41.5735 29.4574 41.427 29.8263 41.5464C30.6348 41.8068 31.4704 41.7526 32.268 41.5193C32.8811 41.3402 33.4671 41.0581 34.0694 40.8193C34.1508 40.7868 34.2376 40.7433 34.319 40.7433C34.8399 40.7162 35.3662 40.7325 35.8817 40.6782C36.2886 40.6294 36.7173 40.5589 37.0808 40.3798C37.363 40.2442 37.4823 40.3093 37.656 40.4938C38.6164 41.5355 40.2333 41.7851 41.4921 41.1123C42.1595 40.7542 42.816 40.3473 43.402 39.8752C43.9772 39.414 44.4981 38.8768 44.9647 38.3071C45.1926 38.025 45.4422 37.9436 45.746 37.8622C46.1421 37.7537 46.5654 37.656 46.9072 37.4498C47.2165 37.2653 47.5312 37.1839 47.8567 37.1731C48.4916 37.1514 49.0559 36.9506 49.593 36.6413C49.6581 36.6034 49.7395 36.5762 49.8101 36.5708C50.1845 36.5654 50.5588 36.6034 50.9224 36.56C51.6712 36.4677 52.2897 36.0825 52.7998 35.5399C53.1579 35.1546 53.4726 34.726 53.8415 34.3516C54.8128 33.3641 55.1221 32.2138 54.7368 30.879C54.7097 30.7922 54.726 30.6674 54.7748 30.5968C55.0515 30.1953 55.2631 29.7775 55.3282 29.2892C55.3554 29.0722 55.3825 28.8497 55.4205 28.6327C55.4802 28.2583 55.5724 27.8839 55.5941 27.5041C55.6212 26.9452 55.4747 26.4135 55.2143 25.9088C56.4894 25.567 57.797 25.3066 58.4753 23.9935C59.2024 24.3353 59.924 24.4601 60.6891 24.2594C61.4324 24.0586 62.1703 23.8524 62.9083 23.6462C63.2881 23.5431 63.6625 23.4292 64.0803 23.3098C64.0586 23.4455 64.0314 23.5323 64.0369 23.6191C64.0531 23.9989 64.0369 24.3842 64.1074 24.7531C64.2648 25.5399 64.688 26.1801 65.3499 26.6468C66.1313 27.2002 67.0049 27.4444 67.9435 27.1894C69.4248 26.7878 70.8898 26.3266 72.3711 25.9143C73.3478 25.643 74.0748 25.0678 74.5252 24.1725C77.7645 17.7265 80.9983 11.2805 84.2213 4.82365C84.5469 4.17254 84.7097 3.4943 84.5957 2.75094ZM21.6874 36.5165C21.1883 37.6777 20.3852 38.6272 19.4574 39.4628C18.4373 40.3798 17.3087 41.1503 16.115 41.8177C14.9321 42.4742 13.7656 43.1742 12.5502 43.7656C11.3836 44.3299 10.1736 44.8182 8.9582 45.2794C7.45521 45.8492 5.91424 46.3104 4.34615 46.6685C4.064 46.7336 3.77643 46.7824 3.42374 46.853C3.36406 46.3972 3.28809 45.9522 3.25554 45.5073C3.21756 44.9593 3.185 44.4113 3.2067 43.8633C3.22841 43.2773 3.27181 42.6858 3.37491 42.1053C3.46715 41.5572 3.7927 41.1177 4.28104 40.8464C4.94843 40.4666 5.6321 40.1085 6.32662 39.7721C6.89091 39.4954 7.47691 39.2729 8.04664 39.0125C8.94734 38.6001 9.86975 38.2149 10.7379 37.7374C11.4758 37.325 12.2029 36.853 12.8432 36.3049C13.4726 35.7623 13.8632 35.0298 13.733 34.14C13.6516 33.6028 13.4075 33.1362 13.0656 32.7184C12.4308 31.9316 11.644 31.3185 10.8573 30.6945C9.92401 29.9566 9.08299 29.121 8.48071 28.0738C7.87301 27.0103 7.61256 25.8709 7.72108 24.6609C7.8079 23.6896 8.1443 22.7835 8.62721 21.9316C9.18608 20.9441 9.86975 20.0543 10.6999 19.2946C11.5301 18.535 12.4254 17.8296 13.3261 17.1568C14.2268 16.484 15.1546 15.8492 16.0987 15.2414C17.1459 14.5686 18.2148 13.9121 19.3 13.299C20.4666 12.6424 21.6386 11.9967 22.8486 11.427C24.4872 10.6511 26.1638 9.95116 27.8187 9.22409C27.8676 9.20238 27.9218 9.20238 28.0141 9.1861C28.0304 9.34888 28.0521 9.50081 28.0521 9.64731C28.0738 10.6511 28.0466 11.6495 27.7862 12.6316C27.4878 13.7547 26.8638 14.612 25.8274 15.1601C24.4818 15.8763 23.1524 16.6251 21.8014 17.3304C20.0651 18.2366 18.3559 19.1861 16.7336 20.2821C15.8708 20.8627 15.0678 21.5193 14.3679 22.2897C14.0314 22.6641 13.7764 23.0928 13.6896 23.592C13.6136 24.0369 13.8036 24.4384 14.0423 24.7911C14.5415 25.529 15.1763 26.1422 15.8708 26.701C16.4189 27.1405 16.956 27.5963 17.4986 28.0467C17.9815 28.4428 18.4644 28.8334 18.9528 29.2241C19.6853 29.8047 20.3472 30.4558 20.9007 31.2154C21.4161 31.9262 21.8068 32.6858 21.9913 33.554C22.1921 34.5632 22.0998 35.5616 21.6874 36.5165ZM29.1318 36.2724C28.7303 37.3087 28.1009 38.1986 27.2924 38.9582C26.5111 39.6907 25.6212 40.2116 24.5252 40.2984C24.2756 40.3201 24.0314 40.3473 23.7656 40.3744C23.9501 39.452 24.1291 38.5838 24.2865 37.7157C24.4167 36.9995 24.5198 36.2832 24.6283 35.5616C24.7422 34.8074 24.8453 34.0532 24.9484 33.299C24.9539 33.2718 24.9593 33.2447 24.9539 33.2176C24.8616 32.8432 25.0786 32.6858 25.3879 32.561C26.2507 32.2138 27.1188 31.9154 28.0629 31.9425C28.9094 31.9696 29.5116 32.4688 29.6256 33.3424C29.7558 34.3787 29.4954 35.3337 29.1318 36.2724ZM33.9501 35.2794C33.9501 35.3608 33.8036 35.4856 33.7005 35.5236C32.9734 35.7732 32.2409 36.0065 31.5084 36.2344C31.3293 36.2887 31.2208 36.3646 31.2371 36.5871C31.2534 36.8095 31.3673 36.9289 31.5572 36.994C31.8882 37.108 32.1812 36.956 32.4579 36.815C32.8269 36.6305 33.1741 36.4026 33.5323 36.191C33.6299 36.4569 33.7222 36.7173 33.8198 36.994C33.1199 37.7374 32.2409 38.2528 31.2317 38.4319C30.3038 38.6001 29.7667 38.2311 29.6853 37.2165C29.6039 36.1747 29.8643 35.1709 30.4775 34.2919C31.0418 33.4834 31.8502 33.0548 32.8106 32.9246C33.4563 32.8378 33.7873 33.3207 33.8849 33.8795C33.9718 34.3353 33.9555 34.8128 33.9501 35.2794ZM33.8036 28.3668C33.7981 28.4048 33.7981 28.4373 33.7981 28.4753C33.809 28.714 33.7222 28.8443 33.4617 28.9148C32.0184 29.3272 30.586 29.7667 29.1481 30.1953C29.1047 30.2062 29.0613 30.1953 28.9908 30.1953C29.1807 28.7412 29.376 27.2979 29.5659 25.8329C29.1264 26.5165 28.7303 27.2111 28.2528 27.8459C27.7157 28.5567 27.1568 29.2621 26.5219 29.8806C25.5127 30.8681 24.3136 31.5572 22.93 31.9154C22.8486 31.9371 22.7618 31.9479 22.7129 31.9588C22.3657 31.4162 22.0456 30.879 21.6874 30.369C21.4704 30.0543 21.1937 29.783 20.9549 29.4845C20.9007 29.4194 20.8681 29.3055 20.8844 29.2241C21.096 28.0684 21.313 26.9126 21.5301 25.7569C21.7851 24.3896 22.0401 23.0277 22.2897 21.6603C22.3331 21.4162 22.3494 21.1666 22.4145 20.9278C22.4416 20.8247 22.5447 20.6945 22.6424 20.6565C24.1454 20.1356 25.6484 19.631 27.1568 19.121C27.2219 19.0993 27.287 19.0884 27.3847 19.0667C27.1351 20.2225 26.8855 21.3402 26.6522 22.4634C26.408 23.6191 26.1693 24.7802 25.9251 25.9414C25.8654 26.2344 25.7732 26.522 25.7298 26.8204C25.7081 26.9615 25.7189 27.1839 25.8003 27.2382C25.9522 27.3413 26.1367 27.4498 26.37 27.3359C26.8638 27.0971 27.2382 26.7119 27.5583 26.3049C28.1009 25.6104 28.6326 24.8888 29.0613 24.1183C29.5171 23.2935 29.9186 22.4254 30.217 21.5355C30.6077 20.3852 30.8736 19.1915 31.1937 18.0195C31.2371 17.8568 31.3076 17.7699 31.4975 17.7157C32.7238 17.3901 33.9446 17.0374 35.1709 16.6902C35.312 16.6522 35.453 16.6142 35.6158 16.5654C35.4422 17.7591 35.274 18.9094 35.0949 20.0651C34.943 21.0635 34.7639 22.0564 34.612 23.0548C34.4601 24.064 34.3244 25.0732 34.1725 26.0825C34.0586 26.8475 33.9284 27.6072 33.8036 28.3668ZM36.0553 35.2469C35.9522 35.8383 35.8437 36.4297 35.7569 37.0266C35.6972 37.4444 35.7135 37.4335 35.274 37.439C34.9376 37.439 34.6012 37.4769 34.1779 37.5041C34.6392 34.8182 35.0895 32.1921 35.5399 29.5659C36.0607 29.5659 36.5111 29.5659 37.0049 29.5659C36.9615 29.8969 36.9343 30.2225 36.8801 30.5426C36.7607 31.2697 36.6359 31.9913 36.5057 32.713C36.3592 33.554 36.2018 34.4004 36.0553 35.2469ZM38.1769 36.37C37.6722 36.5762 37.1025 36.8041 36.5491 37.0266C36.8204 35.1818 37.0862 33.3315 37.3521 31.4976C37.9001 31.3511 38.4373 31.21 38.9799 31.0689C38.7086 32.8378 38.4482 34.5903 38.1769 36.37ZM37.5854 29.6582C37.8947 29.2078 38.28 28.8551 38.8443 28.7466C39.1969 28.6815 39.5008 28.904 39.4954 29.376C39.4303 29.4845 39.3326 29.7124 39.1807 29.8915C38.9148 30.2008 38.5621 30.4124 38.1606 30.4558C37.9815 30.4721 37.7536 30.3635 37.6071 30.2387C37.4118 30.0868 37.4552 29.8481 37.5854 29.6582ZM43.3423 32.8323C43.2013 33.6788 43.0385 34.5198 42.8486 35.3554C42.6804 36.0987 42.2138 36.6739 41.6386 37.1405C41.1286 37.5583 40.5643 37.911 40.0163 38.3017C39.8046 37.9598 39.631 37.6777 39.4628 37.4064C40.217 36.9181 41.0418 36.522 41.3944 35.6592C40.9766 35.8329 40.548 36.0065 40.1248 36.191C39.924 36.2778 39.7558 36.2181 39.6093 36.0933C39.0721 35.6321 38.9636 35.0407 39.045 34.357C39.1264 33.6951 39.262 33.0494 39.5008 32.4254C39.8155 31.6061 40.2658 30.8898 41.172 30.6294C41.5355 30.5263 41.9208 30.5046 42.2951 30.4503C42.3874 29.7775 42.3874 29.7775 43.0711 29.5876C43.3261 29.5171 43.5811 29.4574 43.8741 29.3814C43.6896 30.5589 43.5323 31.6983 43.3423 32.8323ZM48.4373 29.7016C48.4047 30.3364 48.3017 30.9712 48.2094 31.6061C48.1063 32.2789 47.9707 32.9463 47.8567 33.6191C47.8187 33.8307 47.7699 33.9664 47.4932 33.9664C47.1622 33.9664 46.8258 34.0477 46.4894 34.0966C46.3917 34.1074 46.2995 34.1129 46.1638 34.1237C46.2344 33.7222 46.2995 33.3532 46.3592 32.9843C46.4623 32.3277 46.5762 31.6712 46.6522 31.0146C46.7064 30.548 46.6467 30.5534 46.1855 30.7054C45.6972 30.8736 45.7515 31.2751 45.6864 31.6223C45.5399 32.3874 45.4259 33.1579 45.3065 33.9284C45.274 34.1237 45.2794 34.319 45.2414 34.5144C45.2251 34.5903 45.1438 34.6934 45.0786 34.7043C44.6066 34.8128 44.1237 34.8996 43.6191 34.9973C43.6625 34.6826 43.695 34.357 43.7493 34.0315C43.8632 33.3261 43.9935 32.6153 44.1128 31.9099C44.2268 31.2371 44.3299 30.5643 44.433 29.886C44.5795 28.9691 44.7205 28.0467 44.8779 27.1297C44.8887 27.0537 44.9539 26.9343 45.0081 26.9235C45.491 26.815 45.9794 26.7282 46.4623 26.6359C46.4785 26.6305 46.4948 26.6413 46.5274 26.6522C46.37 27.6343 46.2072 28.6164 46.0499 29.5876C46.5925 29.3923 47.0808 29.1807 47.5909 29.0559C48.0683 28.9257 48.4644 29.1644 48.4373 29.7016ZM46.7932 24.9864C46.0879 25.1872 45.3825 25.3825 44.6771 25.5833C44.6446 25.5941 44.6066 25.5941 44.5252 25.5996C44.5686 25.3066 44.612 25.0298 44.6554 24.7531C44.7748 24.0477 44.8996 23.3424 45.0244 22.6316C45.1383 21.975 45.2631 21.3239 45.3662 20.6674C45.4964 19.8643 45.6104 19.0559 45.7243 18.2474C45.746 18.0901 45.7894 17.9219 45.746 17.7808C45.6104 17.3576 45.3554 17.2328 44.8725 17.4281C44.5198 17.5692 44.1779 17.7862 43.8849 18.0304C43.1633 18.6435 42.6207 19.4086 42.1649 20.2333C41.5843 21.2859 41.1394 22.3928 40.879 23.5648C40.6891 24.4276 40.5263 25.2957 40.3527 26.1639C40.3147 26.3646 40.2984 26.5708 40.2333 26.7607C40.2062 26.8475 40.0976 26.9452 40.0054 26.9723C39.1101 27.2436 38.2094 27.4986 37.3087 27.7537C36.8258 27.8947 36.3429 28.0304 35.8274 28.1769C35.8763 27.7754 35.9197 27.3955 35.9739 27.0157C36.039 26.56 36.1096 26.1042 36.1747 25.6484C36.2615 25.0353 36.3537 24.4221 36.4406 23.8036C36.5219 23.223 36.5816 22.637 36.663 22.0564C36.7607 21.3348 36.8801 20.6186 36.9777 19.8969C37.0591 19.3272 37.1242 18.752 37.2056 18.1769C37.287 17.58 37.4281 16.9832 37.4444 16.3863C37.4552 15.9197 37.6885 15.8383 38.0521 15.7352C39.4194 15.3554 40.7813 14.9376 42.1432 14.5415C42.2083 14.5252 42.2734 14.5252 42.3494 14.5144C42.1269 15.8871 41.9099 17.2328 41.6929 18.573C41.7091 18.5784 41.7254 18.5893 41.7417 18.5947C41.9316 18.318 42.1161 18.0358 42.306 17.7645C42.93 16.8638 43.6245 16.0228 44.4384 15.2903C45.453 14.3841 46.6033 13.6896 47.9218 13.3152C48.3939 13.1796 48.8877 13.0982 49.3814 13.0548C50.1085 12.9951 51.0472 13.8524 50.8735 14.8291C50.7108 15.7352 50.5534 16.6413 50.3852 17.5475C50.2333 18.3559 50.0597 19.159 49.9132 19.9674C49.7233 20.9929 49.5442 22.0239 49.3543 23.0494C49.2837 23.4346 49.2186 23.8144 49.1264 24.1942C49.1101 24.2594 48.9962 24.3299 48.9148 24.3516C48.2203 24.5849 47.5095 24.7857 46.7932 24.9864ZM52.1324 28.5458C52.1161 28.6218 52.013 28.6869 51.937 28.7412C51.8882 28.7737 51.8177 28.7737 51.758 28.7737C50.9875 28.8009 51.0418 29.414 50.9495 29.9186C50.8681 30.3527 50.8139 30.7922 50.7325 31.2263C50.6836 31.4867 50.7813 31.682 51.0363 31.7743C51.134 31.8123 51.2425 31.8231 51.3456 31.8448C51.4378 31.8665 51.5247 31.8936 51.606 31.9099C51.2154 32.3657 50.8247 32.8323 50.4286 33.2881C50.3961 33.3207 50.3364 33.3424 50.2875 33.3478C49.7938 33.4129 49.1047 32.9517 49.0504 32.4742C49.0179 32.1975 49.0776 31.9045 49.1155 31.6223C49.2078 30.9929 49.3163 30.3635 49.414 29.7341C49.4248 29.6636 49.414 29.5931 49.414 29.4845C49.2403 29.5388 49.0938 29.5822 48.9256 29.631C48.9256 29.3543 48.9311 29.0884 48.9256 28.8171C48.9202 28.4862 49.1807 28.4048 49.414 28.3668C49.6419 28.3288 49.7015 28.2149 49.7395 28.025C49.8046 27.7428 49.8806 27.4607 49.9566 27.1785C49.9728 27.1134 50.0217 27.0429 50.0759 27.0103C50.6023 26.7173 51.1286 26.4352 51.7146 26.1204C51.606 26.6739 51.5084 27.1894 51.3999 27.7537C51.7254 27.618 52.0184 27.4986 52.3223 27.3738C52.268 27.7862 52.2138 28.166 52.1324 28.5458ZM66.2832 10.51C66.1584 11.3945 65.9739 12.268 65.8112 13.147C65.5995 14.2485 65.3825 15.35 65.1709 16.4569C64.981 17.4498 64.7965 18.4373 64.6229 19.4303C64.5795 19.6744 64.5089 19.8264 64.2376 19.9023C62.8323 20.2876 61.4324 20.6891 60.0325 21.0906C60.0163 21.096 60 21.0852 59.9566 21.0743C60.0759 20.4178 60.2062 19.7667 60.3201 19.1101C60.4557 18.318 60.5751 17.5203 60.7108 16.7227C60.8247 16.0608 60.9658 15.3988 61.0635 14.7368C61.134 14.2702 61.1774 13.7981 61.1937 13.3261C61.2045 12.9626 60.8301 12.7672 60.4341 12.8812C59.707 13.0928 59.1644 13.5757 58.7194 14.1454C58.2474 14.7477 57.7862 15.3825 57.4444 16.0662C57.0537 16.8421 56.7227 17.6668 56.5002 18.5079C56.1801 19.707 55.9739 20.9441 55.7243 22.1649C55.6864 22.3603 55.5833 22.4579 55.3879 22.5122C54.2214 22.8323 53.0602 23.1687 51.8991 23.4997C51.7037 23.554 51.503 23.6137 51.2751 23.6734C51.8448 19.5496 52.4091 15.4802 52.9734 11.4053C54.574 10.9333 56.1693 10.4612 57.8133 9.97829C57.5854 11.3782 57.363 12.7455 57.1405 14.1183C57.1514 14.1237 57.1622 14.1346 57.1731 14.14C57.3413 13.9012 57.4986 13.6516 57.6777 13.4183C58.128 12.8323 58.5838 12.2572 59.045 11.682C59.669 10.8953 60.4503 10.2876 61.2913 9.76668C62.2463 9.17525 63.2772 8.75746 64.3896 8.57297C65.0895 8.4536 65.6592 8.70862 66.0933 9.25664C66.3809 9.62018 66.3429 10.0868 66.2832 10.51ZM81.2696 3.47259C80.4232 5.16549 79.5713 6.85295 78.7249 8.54584C76.3809 13.2121 74.0423 17.8839 71.6983 22.5448C71.644 22.6479 71.5409 22.7672 71.4378 22.7998C70.0651 23.2121 68.6869 23.6137 67.2707 24.026C67.6885 23.1199 68.09 22.2463 68.4916 21.3728C69.1318 19.9837 69.7775 18.5947 70.4178 17.2002C70.4558 17.1242 70.4232 16.9995 70.3906 16.9072C69.9077 15.5887 69.4248 14.2702 68.9365 12.9571C68.3017 11.2371 67.6668 9.51166 67.032 7.79164C66.9506 7.5746 66.8801 7.36299 66.7824 7.09712C68.1931 6.68475 69.5985 6.27238 71.0255 5.85458C71.7905 8.0141 72.5502 10.1682 73.3206 12.3549C73.4129 12.2029 73.4943 12.0836 73.5594 11.9533C74.1562 10.803 74.7422 9.64731 75.3391 8.49701C75.9794 7.2599 76.625 6.02821 77.2653 4.7911C77.4281 4.47097 77.6397 4.27021 78.0195 4.17254C79.1318 3.89039 80.2279 3.55398 81.3673 3.22843C81.3293 3.32609 81.3076 3.40206 81.2696 3.47259Z" /> <path d="M26.7444 33.4672C26.6847 33.478 26.5979 33.5486 26.5871 33.6028C26.484 34.1346 26.3971 34.6663 26.3103 35.198C26.2072 35.8437 26.115 36.4948 26.0173 37.1405C25.9468 37.6234 25.8708 38.1009 25.8003 38.5838C25.8328 38.611 25.8708 38.6381 25.9034 38.6652C26.1476 38.459 26.446 38.2854 26.6196 38.0304C26.918 37.5963 27.1731 37.1297 27.3901 36.6468C27.6994 35.9577 27.8459 35.2089 27.873 34.4601C27.9056 33.6679 27.5203 33.3478 26.7444 33.4672Z" /> <path d="M40.9658 32.4254C40.9007 32.6261 40.8464 32.8323 40.8193 33.0385C40.765 33.516 40.7216 33.9935 40.6945 34.4764C40.6891 34.5632 40.7867 34.7043 40.8627 34.7314C41.058 34.7965 41.5735 34.4059 41.606 34.1997C41.7363 33.4075 41.8611 32.6153 41.9913 31.8231C41.5626 31.7254 41.1177 31.9805 40.9658 32.4254Z" /> <path d="M32.3114 34.1617C32.1758 34.0857 31.8773 34.2268 31.7363 34.433C31.7308 34.4384 31.7363 34.4493 31.7308 34.4601C31.5952 34.7206 31.4541 34.981 31.313 35.2414C31.3402 35.2686 31.3619 35.2903 31.389 35.3174C31.72 35.2035 32.051 35.0949 32.3765 34.981C32.4145 34.9701 32.4579 34.9376 32.4742 34.905C32.5773 34.7206 32.4633 34.2485 32.3114 34.1617Z" /> </g> </svg>