<svg fill="currentColor" aria-label="Supermarchés Casino" role="img" width="141" height="40" viewBox="0 0 141 40" xmlns="http://www.w3.org/2000/svg"> <g> <path d="M26.0925 20.0319C26.0925 23.4131 23.3493 26.1563 19.9681 26.0925C16.5869 26.0925 13.8437 23.3493 13.9075 19.9681C13.9075 16.5869 16.6507 13.8437 20.0319 13.9075C23.4131 13.9075 26.0925 16.6507 26.0925 20.0319Z" /> <path d="M67.3684 23.6045C58.9474 26.4115 48.8676 22.7751 49.6332 14.673C50.2073 8.80383 57.2887 3.95534 64.8166 4.08293C65.1994 4.08293 65.6459 4.08293 66.0287 4.21053C67.1132 4.40191 67.496 4.91228 67.496 5.42265C67.4322 5.99681 67.1132 6.50718 66.6667 6.88995L66.7305 7.14514C66.7943 7.27273 66.8581 7.33652 67.0494 7.33652C69.2185 7.27273 70.8772 5.67783 70.8772 4.84848C70.8772 3.82775 69.8565 2.48804 65.5821 2.42424C52.8868 2.23285 44.6571 8.35726 44.0191 14.992C43.1898 23.8596 55.3748 28.3254 65.7735 25.5821C68.1978 24.9442 69.4737 24.051 69.5375 23.6683C69.6013 23.3493 69.6013 23.0303 69.5375 22.7113C68.7719 23.0303 68.0702 23.3493 67.3684 23.6045ZM99.9043 7.59171L100.159 7.6555C101.946 4.72089 105.965 5.86922 107.177 1.72249C106.029 2.23285 104.242 2.29665 102.839 2.42424C101.116 2.61563 100.478 3.25359 100.159 4.33812C99.9681 5.10367 99.7129 5.99681 99.5853 6.76236C99.4577 7.40032 99.5853 7.46411 99.9043 7.59171ZM93.8437 11.2281C93.9075 11.3557 93.9713 11.3557 94.0989 11.2919C94.8644 10.9729 95.7576 10.2711 95.7576 9.63317C95.7576 8.86762 94.8006 8.35726 92.1212 8.16587C87.7193 7.91069 84.0829 9.44179 84.0829 12.0574C84.0829 15.2472 89.9522 15.6938 89.9522 18.3094C89.9522 19.5853 88.74 20.6699 86.1244 20.6061C84.4019 20.6061 82.8708 19.9681 82.8708 18.5646C82.8708 17.6715 83.5726 16.6507 86.252 15.949C85.8692 15.4386 85.6778 15.3748 85.1675 15.4386C82.1053 15.949 80.3828 17.2249 80.2552 18.8198C80.1914 20.5423 81.5311 22.0096 86.4434 22.0096C91.9936 22.0734 94.4179 19.3939 94.4817 17.0335C94.4817 14.4179 90.8453 12.9506 89.2504 11.8022C88.8676 11.547 88.5486 11.1005 88.5486 10.6539C88.5486 9.95215 89.3142 9.2504 91.2919 9.2504C92.1212 9.1866 92.8868 9.44179 93.5885 9.88836C93.9075 10.2073 93.9713 10.6539 93.7161 11.0367L93.8437 11.2281ZM78.4051 17.9904C79.2344 15.1834 80.2552 12.504 81.4673 9.88836C81.7225 9.37799 81.6587 8.99521 81.1483 8.86762C80.2552 8.67624 79.362 8.48485 78.4051 8.48485C68.6443 7.97448 61.8182 14.0351 61.563 18.6922C61.4354 20.6061 62.5199 21.882 64.9442 21.882C67.6874 21.882 70.941 20.3509 73.1738 18.5646C73.748 18.118 73.8118 18.3094 73.6842 18.6922C73.2376 20.3509 73.3652 21.7544 74.8325 21.8182C76.4912 21.9458 78.5327 20.9888 79.2344 20.6699C79.2982 20.6699 79.362 20.4147 79.362 19.9681C78.5327 19.8405 78.2137 18.9474 78.4051 17.9904ZM67.815 19.2663C67.1132 19.2663 66.5391 18.6284 66.5391 17.9266C66.5391 17.8628 66.5391 17.8628 66.5391 17.799C66.7305 14.2265 71.7703 9.63317 76.874 10.4625C74.386 16.3955 70.3668 19.3939 67.815 19.2663ZM134.482 8.22966C129.633 7.97448 125.805 11.8022 125.167 15.8214C121.659 19.8405 120.128 19.3301 120.447 17.8628C120.829 16.0766 123.062 11.6746 123.19 9.95215C123.254 8.99522 122.679 8.29346 121.531 8.29346C119.553 8.16587 116.3 10.3349 113.301 13.0144C112.791 13.5247 112.408 13.2695 112.6 12.7592C113.11 11.4833 113.301 10.7815 113.812 9.56938C113.876 9.31419 113.876 9.12281 113.684 8.99522C113.238 8.48485 112.6 8.16587 111.962 8.10207C111.388 8.10207 110.877 8.35726 110.558 8.80383C107.943 11.2919 102.711 18.9474 100.989 18.8198C100.67 18.8198 100.415 18.6284 100.415 18.3094C100.415 18.2456 100.415 18.1818 100.415 18.1818C100.478 17.0973 103.668 9.69697 103.732 8.80383C103.732 8.48485 103.541 8.22966 103.222 8.22966H103.158C101.499 8.54864 99.8405 9.12281 98.3732 9.88836C98.2456 10.0797 98.1818 10.3349 98.118 10.5901C98.5008 10.5901 98.8836 10.8453 98.6922 11.547C98.1818 13.2695 95.8214 18.756 95.7576 19.9681C95.63 20.7974 96.2041 21.563 97.0335 21.6906C97.1611 21.6906 97.2887 21.6906 97.4163 21.6906C100.478 21.8182 103.604 19.3939 107.687 14.4179C106.603 16.7145 105.901 18.6284 105.837 20.0957C105.774 21.563 107.624 21.6906 108.708 21.563C109.091 21.4992 109.155 21.4992 109.282 21.0526C109.665 19.7767 111.069 17.2249 113.939 14.4179C115.343 13.0782 117.002 11.7384 117.767 11.8022C118.341 11.8022 118.405 12.4402 118.341 12.7592C118.022 14.0989 117.002 16.4593 116.364 18.437C115.726 20.3509 116.555 21.4992 118.022 21.6268C120 21.7544 122.616 20.5423 125.231 17.799C125.423 20.1595 127.337 21.9458 129.697 21.9458C134.801 22.201 139.075 18.3094 139.394 13.2057C139.394 10.3349 137.289 8.35726 134.482 8.22966ZM135.247 13.7161C134.545 17.1611 132.057 19.7767 129.761 19.6491C128.357 19.5853 127.911 17.9904 128.23 16.2041C128.804 13.3333 131.164 10.3349 133.589 10.4625C134.864 10.5263 135.63 11.8022 135.247 13.7161ZM11.2281 20.4785L11.547 20.2233L11.2281 19.9681C9.12281 18.3732 6.50718 17.4801 3.82775 17.4163C2.04147 17.4163 0 18.118 0 20.2233C0 22.3285 2.04147 22.9665 3.82775 22.9665C6.50718 22.9665 9.12281 22.0734 11.2281 20.4785ZM12.6316 24.8166L12.7592 24.37L12.3126 24.3062C9.63317 23.9872 6.95375 24.4976 4.6571 25.8373C3.126 26.7305 1.72249 28.3892 2.74322 30.1754C3.76396 31.9617 5.93301 31.5789 7.46411 30.6858C9.76077 29.3461 11.6108 27.3046 12.6316 24.8166ZM15.2472 12.6954L15.6938 12.823L15.7576 12.3764C16.0766 9.69697 15.5662 7.01754 14.2265 4.72089C13.3333 3.18979 11.6746 1.78628 9.88836 2.80702C8.10207 3.82775 8.48485 5.99681 9.37799 7.52791C10.7177 9.82456 12.7592 11.6108 15.2472 12.6954ZM27.3684 15.2472L27.2408 15.6938L27.6874 15.7576C30.3668 16.0766 33.0463 15.5662 35.3429 14.2265C36.874 13.3333 38.2775 11.6746 37.2568 9.88836C36.236 8.10207 34.067 8.48485 32.5359 9.37799C30.2392 10.7177 28.453 12.7592 27.3684 15.2472ZM15.949 27.4322L15.5024 27.5598C13.0144 28.5805 10.9729 30.4306 9.63317 32.7273C8.74003 34.2584 8.35726 36.4274 10.1435 37.4482C11.9298 38.4689 13.5885 37.0654 14.4817 35.5343C15.8214 33.2376 16.3317 30.5582 16.0128 27.8788L15.949 27.4322ZM4.52951 14.4817C6.82616 15.8214 9.50558 16.3317 12.185 16.0128L12.6316 15.949L12.504 15.5662C11.4833 13.0781 9.63317 11.0367 7.33652 9.69697C5.80542 8.80383 3.63636 8.42105 2.61563 10.2073C1.5949 11.9936 2.9984 13.6523 4.52951 14.4817ZM35.5343 25.5821C33.2376 24.2424 30.5582 23.7321 27.8788 24.051L27.4322 24.1148L27.5598 24.5614C28.5805 27.0494 30.4306 29.0909 32.7273 30.4306C34.2584 31.3238 36.4274 31.7065 37.4482 29.9203C38.4689 28.134 37.0016 26.4115 35.5343 25.5821ZM19.8405 11.547L20.0957 11.2281C21.6906 9.12281 22.5837 6.50718 22.5837 3.82775C22.5837 2.04147 21.882 0 19.7767 0C17.6715 0 16.9697 2.04147 16.9697 3.82775C16.9697 6.50718 17.8628 9.12281 19.4577 11.2281L19.8405 11.547ZM24.8166 27.3684L24.37 27.2408L24.3062 27.6874C23.9872 30.3668 24.4976 33.0463 25.8373 35.3429C26.7305 36.874 28.3892 38.2775 30.1754 37.2568C31.9617 36.236 31.5789 34.067 30.6858 32.5359C29.3461 30.2392 27.3046 28.453 24.8166 27.3684ZM36.1722 17.0335C33.4928 17.0335 30.8772 17.9266 28.7719 19.5215L28.4529 19.7767L28.7719 20.0319C30.8772 21.6268 33.4928 22.5199 36.1722 22.5199C37.9585 22.5199 40 21.8182 40 19.7129C40 17.6077 37.9585 17.0335 36.1722 17.0335ZM20.1595 28.4529L19.9043 28.7719C18.3094 30.8772 17.4163 33.4928 17.4163 36.1722C17.4163 37.9585 18.118 40 20.2233 40C22.3285 40 23.0303 37.9585 23.0303 36.1722C23.0303 33.4928 22.1372 30.8772 20.5423 28.7719L20.1595 28.4529ZM30.3668 7.33652C31.26 5.80542 31.6427 3.63636 29.8565 2.61563C28.0702 1.5949 26.4115 2.9984 25.5183 4.52951C24.1786 6.82616 23.6683 9.50558 23.9872 12.185L24.051 12.6316L24.4976 12.504C26.9856 11.4195 29.0271 9.63317 30.3668 7.33652Z" /> <path d="M95.63 32.5359C95.3748 32.7273 95.1196 32.9825 94.9282 33.3014V32.3445H93.8437V37.2568H94.8644V35.1515C94.8644 34.7049 94.992 34.1946 95.2472 33.8118C95.5024 33.4928 95.949 33.3014 96.3955 33.3014H96.4593V32.2169C96.2042 32.2807 95.8852 32.3445 95.63 32.5359ZM103.923 32.2169C103.222 32.2169 102.52 32.5997 102.073 33.1738C101.818 32.5359 101.18 32.1531 100.478 32.2169C100.159 32.2169 99.8405 32.2807 99.5215 32.4721C99.2026 32.6635 99.0112 32.8549 98.8198 33.1738V32.2807H97.7991V37.193H98.8198V34.5136C98.8198 34.1308 98.9474 33.748 99.2026 33.4928C99.4577 33.2376 99.7767 33.1738 100.159 33.1738C100.478 33.1738 100.734 33.2376 100.925 33.4928C101.116 33.8118 101.18 34.1946 101.18 34.5136V37.193H102.201V34.4498C102.201 33.748 102.711 33.1738 103.413 33.1101H103.477C104.242 33.1101 104.625 33.5566 104.625 34.4498V37.1292H105.646V34.1308C105.71 33.5566 105.518 33.0463 105.136 32.6635C104.88 32.4083 104.434 32.2169 103.923 32.2169ZM91.866 32.8549C91.4195 32.4721 90.7815 32.2169 90.1435 32.2169C89.5056 32.2169 88.8676 32.4721 88.4211 32.9187C87.9107 33.3652 87.6555 34.067 87.7193 34.7687C87.6555 36.1085 88.6762 37.2568 90.016 37.3206C90.0798 37.3206 90.1435 37.3206 90.2073 37.3206C90.9729 37.3206 91.7384 37.0654 92.2488 36.4912L91.6746 35.8533C91.2919 36.236 90.7815 36.4912 90.2711 36.4274C89.8884 36.4274 89.5056 36.2998 89.2504 36.1085C88.9314 35.9171 88.8038 35.5981 88.74 35.2791H92.6316V34.5774C92.6316 33.8756 92.3764 33.3014 91.866 32.8549ZM88.6762 34.4498C88.6762 34.067 88.8038 33.748 89.1228 33.4928C89.4418 33.2376 89.7608 33.1738 90.1435 33.1738C90.4625 33.1738 90.8453 33.3014 91.1005 33.4928C91.3557 33.748 91.4833 34.067 91.4833 34.4498H88.6762ZM73.3652 34.7687C73.2376 34.6412 73.0463 34.5774 72.8549 34.5136C72.7273 34.4498 72.5359 34.386 72.4083 34.3222C72.2807 34.2584 72.0893 34.1946 71.8979 34.1946C71.7065 34.1308 71.579 34.1308 71.3876 34.067C71.26 34.0032 71.1324 33.8756 71.1324 33.748C71.1324 33.5566 71.1962 33.429 71.3238 33.3652C71.5152 33.2376 71.7065 33.2376 71.8979 33.2376C72.3445 33.2376 72.7911 33.3652 73.2376 33.6204L73.6204 32.8549C73.1739 32.5359 72.5997 32.3445 72.0255 32.3445C71.5152 32.3445 71.0686 32.4721 70.622 32.7273C70.303 32.9825 70.0479 33.429 70.1117 33.8118C70.1117 34.4498 70.622 34.8963 71.6428 35.2153C71.6428 35.2153 71.7065 35.2153 71.7703 35.2153C72.4083 35.4067 72.7273 35.6619 72.7273 35.9171C72.7273 36.0447 72.6635 36.236 72.5359 36.2998C72.3445 36.4274 72.1531 36.4912 71.9617 36.4274C71.3238 36.4274 70.7496 36.1723 70.303 35.7895L69.7927 36.6188C70.1117 36.874 70.4306 37.0654 70.8134 37.193C71.1962 37.3206 71.5152 37.3844 71.8979 37.3844C72.3445 37.3844 72.8549 37.2568 73.2376 36.9378C73.5566 36.6826 73.748 36.236 73.748 35.7895C73.8756 35.3429 73.6842 34.9601 73.3652 34.7687ZM137.863 34.7687C137.735 34.6412 137.544 34.5774 137.352 34.5136C137.225 34.4498 137.034 34.386 136.906 34.3222C136.778 34.2584 136.587 34.1946 136.396 34.1946C136.204 34.1308 136.077 34.1308 135.885 34.067C135.758 34.0032 135.63 33.8756 135.63 33.748C135.63 33.5566 135.694 33.429 135.885 33.3652C136.077 33.2376 136.268 33.2376 136.459 33.2376C136.906 33.2376 137.352 33.3652 137.799 33.6204L138.182 32.8549C137.735 32.5359 137.161 32.3445 136.587 32.3445C136.077 32.3445 135.63 32.4721 135.183 32.7273C134.864 32.9825 134.609 33.429 134.673 33.8118C134.673 34.4498 135.183 34.8963 136.204 35.2153C136.204 35.2153 136.268 35.2153 136.332 35.2153C136.97 35.4067 137.289 35.6619 137.289 35.9171C137.289 36.0447 137.225 36.236 137.097 36.2998C136.906 36.4274 136.715 36.4912 136.523 36.4274C135.885 36.4274 135.311 36.1723 134.864 35.7895L134.354 36.6188C134.673 36.874 134.992 37.0654 135.375 37.193C135.758 37.3206 136.077 37.3844 136.459 37.3844C136.906 37.3844 137.416 37.2568 137.799 36.9378C138.118 36.6826 138.309 36.236 138.309 35.7895C138.373 35.3429 138.182 34.9601 137.863 34.7687ZM84.1467 32.2169C83.5088 32.2169 82.8708 32.5997 82.5518 33.1738V32.3445H81.5311V38.7879H82.5518V36.4912C82.9346 37.0016 83.5726 37.2568 84.2105 37.3206C84.8485 37.3206 85.4227 37.0654 85.8692 36.6188C86.8262 35.5343 86.8262 34.0032 85.8692 32.9187C85.3589 32.4721 84.7847 32.2169 84.1467 32.2169ZM85.0399 35.9171C84.7847 36.236 84.4019 36.3636 83.9554 36.3636C83.5726 36.3636 83.1898 36.236 82.9346 35.9171C82.6794 35.5981 82.488 35.2153 82.488 34.7687C82.488 34.3222 82.6156 33.9394 82.9346 33.6204C83.1898 33.3014 83.5726 33.1101 84.0191 33.1101C84.4019 33.1101 84.7847 33.3014 85.1037 33.6204C85.4227 33.9394 85.5503 34.386 85.5503 34.7687C85.4865 35.2153 85.3589 35.6619 85.0399 35.9171ZM78.7241 34.9601C78.7241 35.3429 78.5965 35.7257 78.3413 35.9809C78.0861 36.236 77.7672 36.2998 77.3844 36.3636C76.6188 36.3636 76.2361 35.9171 76.2361 35.0239V32.2807H75.2153V35.2791C75.1515 35.8533 75.3429 36.3636 75.7257 36.7464C76.3636 37.3206 77.3206 37.3844 78.0223 37.0016C78.3413 36.8102 78.5327 36.6188 78.7241 36.2998V37.193H79.7448V32.2807H78.7241V34.9601ZM132.632 32.8549C132.185 32.4721 131.547 32.2169 130.909 32.2169C130.271 32.2169 129.633 32.4721 129.187 32.9187C128.676 33.3652 128.421 34.067 128.485 34.7687C128.421 36.1085 129.442 37.2568 130.782 37.3206C130.845 37.3206 130.909 37.3206 130.973 37.3206C131.738 37.3206 132.504 37.0654 133.014 36.4912L132.44 35.8533C132.057 36.236 131.547 36.4912 131.037 36.4274C130.654 36.4274 130.271 36.2998 130.016 36.1085C129.697 35.9171 129.569 35.5981 129.506 35.2791H133.397V34.5774C133.397 33.8756 133.142 33.3014 132.632 32.8549ZM129.506 34.4498C129.506 34.067 129.633 33.748 129.952 33.4928C130.271 33.2376 130.59 33.1738 130.973 33.1738C131.292 33.1738 131.675 33.3014 131.93 33.4928C132.185 33.748 132.313 34.067 132.313 34.4498H129.506ZM125.231 32.2169C124.912 32.2169 124.593 32.2807 124.274 32.4721C123.955 32.6635 123.764 32.8549 123.573 33.1738V30.622H122.552V37.193H123.573V34.5136C123.573 34.1308 123.7 33.748 123.955 33.4928C124.211 33.2376 124.53 33.1738 124.912 33.1738C125.678 33.1738 126.061 33.6204 126.061 34.5136V37.193H127.081V34.1946C127.145 33.6204 126.954 33.1101 126.571 32.7273C126.252 32.4083 125.742 32.2169 125.231 32.2169ZM132.568 31.0686L131.483 30.622L130.59 31.7065H131.547L132.568 31.0686ZM110.877 32.7273C110.494 32.4083 109.984 32.2807 109.474 32.2807C108.708 32.2807 108.006 32.5359 107.432 32.9825L107.879 33.6204C108.325 33.3014 108.772 33.1101 109.282 33.1101C109.984 33.1101 110.367 33.429 110.367 34.067V34.2584H109.091C108.581 34.2584 108.07 34.386 107.624 34.5774C107.241 34.8325 107.049 35.2153 107.113 35.6619C107.113 36.1085 107.305 36.555 107.624 36.8102C108.006 37.1292 108.453 37.2568 108.9 37.2568C109.537 37.2568 110.112 37.0016 110.494 36.555V37.193H111.451V34.0032C111.451 33.5566 111.26 33.0463 110.877 32.7273ZM110.367 35.4067C110.367 35.7257 110.239 35.9809 109.984 36.1723C109.729 36.3636 109.41 36.4274 109.155 36.4274C108.9 36.4274 108.581 36.3636 108.389 36.236C108.198 36.1085 108.134 35.9171 108.134 35.6619C108.134 35.1515 108.517 34.9601 109.282 34.9601H110.431V35.4067H110.367ZM119.298 36.3636C118.852 36.3636 118.469 36.1723 118.15 35.8533C117.831 35.5343 117.64 35.1515 117.64 34.7049C117.64 34.2584 117.767 33.8756 118.15 33.6204C118.469 33.3652 118.852 33.1738 119.298 33.1738C119.809 33.1738 120.255 33.3652 120.574 33.748L121.148 32.9825C120.638 32.4721 119.936 32.1531 119.234 32.2169C118.533 32.2169 117.831 32.4721 117.321 32.9187C116.81 33.3652 116.555 34.067 116.555 34.7687C116.555 35.4705 116.874 36.1085 117.384 36.6188C117.831 37.0654 118.469 37.3206 119.171 37.3206C119.936 37.3206 120.702 37.0016 121.212 36.4274L120.638 35.7257C120.319 36.1085 119.872 36.3636 119.298 36.3636ZM114.769 32.5359C114.514 32.7273 114.258 32.9825 114.067 33.3014V32.3445H113.046V37.2568H114.067V35.1515C114.067 34.7049 114.195 34.1946 114.45 33.8118C114.705 33.4928 115.152 33.3014 115.598 33.3014H115.662V32.2169C115.343 32.2169 115.088 32.3445 114.833 32.5359H114.769ZM140.287 24.6252C140.223 24.4976 140.096 24.4338 139.968 24.4338C139.904 24.4338 134.801 24.051 126.061 24.051C98.118 24.1786 70.303 27.5598 43.126 34.1946C42.9346 34.1946 42.8708 34.386 42.8708 34.5136C42.9346 34.6412 43.0622 34.7049 43.2536 34.7049H43.3812C66.4753 29.7289 89.9522 27.177 113.557 27.1132C121.148 27.0494 128.676 27.3684 136.204 28.134C136.332 28.134 136.459 28.134 136.523 28.0064L140.159 24.8166C140.287 24.8166 140.415 24.689 140.351 24.4976L140.287 24.6252Z" /> </g> </svg>