<svg fill="currentColor" aria-label="Super U" role="img" width="72" height="70" viewBox="0 0 72 70" xmlns="http://www.w3.org/2000/svg"> <g> <path d="M9.40192 69.8824C8.98418 69.7469 8.4987 69.2276 8.3745 68.7985C8.03579 67.5453 8.93902 66.6985 10.7906 66.4953C11.6487 66.405 11.6826 66.3937 11.6826 66.2017C11.6826 65.434 10.7681 65.2195 9.67289 65.7163C9.41321 65.8405 9.1987 65.9195 9.18741 65.9082C9.17612 65.8969 9.06322 65.6824 8.92773 65.434L8.67934 64.9824L8.87128 64.8243C9.23257 64.5308 10.1471 64.2824 10.881 64.2824C11.9648 64.2824 12.6197 64.6663 12.9697 65.4679C13.0374 65.6147 13.0939 66.3034 13.1164 67.2405L13.1616 68.7647L13.5229 68.7872L13.8842 68.8098L13.8616 69.3292L13.839 69.8485L13.2068 69.8711C12.36 69.905 11.9874 69.7921 11.8519 69.4534L11.7503 69.1937L11.4906 69.4534C10.9826 69.9614 10.1471 70.1195 9.40192 69.8824ZM11.0503 68.7195C11.3552 68.5276 11.6826 67.9517 11.6826 67.5905C11.6826 67.3759 11.66 67.3646 11.2761 67.3646C10.3842 67.3759 9.63902 67.8388 9.76321 68.3243C9.90999 68.8776 10.5084 69.0582 11.0503 68.7195ZM15.9164 69.8034C15.16 69.4195 14.9906 68.8663 14.9906 66.8566V65.513L14.5842 65.4905L14.1777 65.4679L14.1552 64.9372L14.1326 64.4066H15.2729H16.4132L16.4358 66.3598L16.4584 68.313L16.6955 68.5163C17.339 69.0695 18.3777 68.4372 18.6148 67.3534C18.66 67.1163 18.7052 66.6082 18.7052 66.213V65.5017H18.2761H17.8471V64.9485V64.3953H18.9874H20.1277L20.1503 66.5743L20.1729 68.7534L20.489 68.7759L20.8052 68.7985V69.3405V69.8824H20.0939C19.71 69.8824 19.2697 69.8372 19.1342 69.7921C18.8858 69.7017 18.6826 69.4195 18.6826 69.1598C18.6826 69.0921 18.5471 69.1711 18.3439 69.363C17.7455 69.9953 16.6616 70.1759 15.9164 69.8034ZM32.2987 69.9163C30.5826 69.4534 29.7471 67.7598 30.3568 65.9872C30.5148 65.513 31.1358 64.7905 31.5761 64.5647C32.0955 64.305 32.8971 64.1921 33.4503 64.305C34.6584 64.5534 35.381 65.5243 35.381 66.913V67.3534H33.5181C31.7003 67.3534 31.6552 67.3534 31.6552 67.5227C31.6552 67.9856 32.1971 68.5501 32.7729 68.7082C33.2132 68.8324 33.6987 68.7421 34.2971 68.4485L34.7826 68.2114L35.0422 68.663C35.189 68.9114 35.3019 69.1598 35.3019 69.205C35.3019 69.2501 35.0197 69.4308 34.6697 69.6001C34.1164 69.8711 33.9471 69.9163 33.2922 69.9388C32.8971 69.9727 32.4455 69.9501 32.2987 69.9163ZM33.8681 66.2582C33.8681 66.0776 33.789 65.9082 33.5858 65.705C33.3374 65.4566 33.2471 65.4227 32.8745 65.4227C32.5358 65.4227 32.389 65.4679 32.1858 65.6485C31.9261 65.863 31.6777 66.2582 31.6777 66.4388C31.6777 66.4953 32.0616 66.5292 32.7729 66.5292H33.8793L33.8681 66.2582ZM48.6245 69.8711C47.3487 69.4759 46.6487 68.505 46.6487 67.1163C46.6487 65.5921 47.4616 64.5759 48.8955 64.3163C49.4487 64.2146 49.9229 64.2711 50.4648 64.5082C51.3003 64.8695 51.7406 65.5808 51.7971 66.6759L51.831 67.3759H49.9568C48.5116 67.3759 48.0826 67.3985 48.0826 67.4776C48.0826 67.7034 48.41 68.2792 48.6358 68.4598C49.1777 68.8888 49.9342 68.8888 50.7471 68.4824C51.0745 68.313 51.2326 68.2792 51.289 68.3356C51.4019 68.4824 51.7181 69.1259 51.7181 69.2163C51.7181 69.3517 50.9955 69.7243 50.4761 69.8598C49.9003 70.0179 49.11 70.0179 48.6245 69.8711ZM50.3293 66.2469C50.2052 65.6824 49.8777 65.4227 49.3132 65.4227C48.9971 65.4227 48.6132 65.5808 48.4439 65.784C48.3874 65.8517 48.2858 66.0437 48.2181 66.213L48.0826 66.5292H49.2342H50.3858L50.3293 66.2469ZM23.4019 69.7921C22.8939 69.634 22.5439 69.3405 22.3068 68.8663C22.1035 68.4598 22.0922 68.3695 22.0922 66.9808V65.5243L21.6858 65.5017L21.2793 65.4792L21.2568 64.9485L21.2342 64.4179H21.6632H22.0922L22.1148 63.6727L22.1374 62.9276H22.8148H23.4922L23.5148 63.6727L23.5374 64.4179H24.1245H24.7116V64.9711V65.5243H24.1358H23.5487V66.7888C23.5487 67.5566 23.5826 68.1437 23.6503 68.2679C23.7632 68.5163 24.1922 68.7421 24.5648 68.7421H24.8245V69.3292V69.9163L24.2939 69.905C23.989 69.8937 23.5939 69.8485 23.4019 69.7921ZM25.5697 69.3517V68.7985H25.9535H26.3374V67.1501V65.5017L25.931 65.4792L25.5245 65.4566L25.5019 64.9259L25.4793 64.3953H26.4164C27.5455 64.3953 27.6922 64.4743 27.6922 65.1405V65.5469L27.8955 65.1969C28.2003 64.6776 28.6858 64.384 29.2277 64.3727L29.6793 64.3614L29.7019 65.0501L29.7245 65.7388L29.2164 65.7727C28.5955 65.8179 28.3245 65.9985 28.031 66.563C27.8503 66.913 27.8164 67.1163 27.7826 67.884L27.7487 68.7985H28.1439H28.539V69.3517V69.905H27.06H25.581L25.5697 69.3517ZM36.2164 69.8485C36.1826 69.8147 36.16 69.5663 36.16 69.2953V68.7985H36.5777H37.0068V67.2856C37.0068 66.4501 36.9842 65.705 36.9503 65.6372C36.9164 65.5469 36.7923 65.5017 36.5213 65.5017H36.1487V64.9485V64.3953H37.0406C37.8761 64.3953 37.9439 64.4066 38.1471 64.5985C38.26 64.7114 38.3503 64.8921 38.3503 65.005C38.3503 65.1969 38.3729 65.1856 38.7342 64.8469C39.6713 63.955 41.0261 64.0905 41.5681 65.1405L41.6697 65.3324L41.8503 65.0953C42.2793 64.5308 42.81 64.2824 43.5213 64.2711C44.2777 64.2711 44.7406 64.5195 45.0455 65.1066C45.2487 65.513 45.26 65.6034 45.2939 67.1614L45.3164 68.7985H45.689H46.0616V69.3517V69.905H44.9664H43.8713L43.8487 67.9066L43.8261 65.9082L43.6116 65.7388C43.4422 65.6034 43.3181 65.5808 43.0245 65.6146C42.2455 65.705 41.839 66.5179 41.839 67.9743V68.8098H42.2229H42.6068V69.363V69.9163L41.5229 69.8937L40.439 69.8711L40.3939 67.9066C40.36 66.134 40.3374 65.9308 40.1906 65.7727C39.9761 65.5469 39.5132 65.5356 39.1406 65.7614C38.6664 66.055 38.4293 66.6985 38.3842 67.8501L38.339 68.8098H38.7793H39.2197L39.1971 69.3405L39.1745 69.8711L37.7293 69.8937C36.9164 69.905 36.2503 69.8824 36.2164 69.8485ZM52.6664 69.3517V68.7985H53.0503H53.4342L53.4116 67.1727L53.389 65.5469L52.9826 65.5243L52.5761 65.5017V64.9598V64.4179H53.5019C54.3487 64.4179 54.4503 64.4292 54.5971 64.5985C54.6874 64.7001 54.7664 64.8921 54.7664 65.0388V65.2872L55.0826 64.9711C55.5342 64.5082 56.0422 64.305 56.7648 64.305C57.4422 64.305 57.7471 64.4292 58.1422 64.8808C58.5035 65.2872 58.5826 65.7953 58.5826 67.4324V68.8211H58.9664H59.3503V69.3743V69.9276L58.2664 69.905L57.1826 69.8824L57.1374 67.9743C57.081 65.6824 57.0584 65.6034 56.3019 65.6034C55.8052 65.6034 55.3535 65.9195 55.0826 66.4388C54.8681 66.8566 54.8455 66.9695 54.8455 67.8614V68.8211H55.2293H55.6132V69.3743V69.9276H54.1342H52.6551L52.6664 69.3517ZM61.6987 69.7356C61.1793 69.5324 60.9084 69.284 60.6826 68.8098C60.5245 68.4824 60.5019 68.2227 60.4793 66.9695L60.4455 65.513H60.0729H59.7003V64.9598V64.4066H60.1293H60.5471V63.6388V62.8711H61.2245H61.9019V63.6388V64.4066H62.5342H63.1664V64.9598V65.513H62.5342H61.9019V66.6872C61.9019 68.0872 61.9922 68.4034 62.4439 68.5953C62.6019 68.663 62.8616 68.7195 62.9971 68.7195H63.2568V69.3066V69.8937H62.681C62.331 69.905 61.9471 69.8372 61.6987 69.7356ZM47.439 61.4711C47.3826 61.4485 47.3374 61.313 47.3374 61.1776C47.3374 60.9405 47.3487 60.9292 47.7552 60.9292C48.4664 60.9292 48.5793 60.4663 47.9019 60.2969C47.5971 60.2179 47.5858 60.2066 47.6423 59.913C47.7439 59.405 47.7326 59.3711 47.4616 59.3147C46.6261 59.134 45.881 58.4679 45.5648 57.6324C45.3164 56.9663 45.3503 55.8937 45.6551 55.3066C45.9487 54.7421 46.389 54.3017 46.9761 54.0195C47.8568 53.5905 49.2116 53.7146 49.8664 54.2792C50.16 54.5388 50.1826 54.584 50.1826 55.0469V55.5437L49.8213 55.5663L49.46 55.5888V55.2953C49.46 54.5614 48.2293 54.2227 47.2697 54.7082C45.8358 55.4195 45.8132 57.6775 47.2471 58.4001C48.0261 58.7953 48.9745 58.705 49.6745 58.163C49.8213 58.0501 49.9568 57.9485 49.9793 57.9485C50.0019 57.9485 50.081 58.084 50.1713 58.2534L50.3406 58.5582L50.1374 58.7276C49.7761 59.0098 49.3132 59.2243 48.8052 59.3372C48.2068 59.4727 48.1052 59.6985 48.5568 59.913C49.11 60.1727 49.1777 60.9066 48.681 61.2792C48.4439 61.4598 47.6648 61.5727 47.439 61.4711ZM2.80838 59.2808C1.76967 58.9872 0.877731 58.2647 0.426118 57.3388C0.0874079 56.6501 -0.00291482 56.2211 -0.0142051 55.4534C-0.0254955 53.0711 2.01805 51.3324 4.4116 51.6824C5.33741 51.8179 5.9245 52.0663 6.28579 52.4614C6.56805 52.7776 6.59063 52.834 6.59063 53.3872V53.9743H6.20676H5.84547V53.6017C5.84547 52.834 5.12289 52.405 3.81321 52.4163C3.21483 52.4163 3.0116 52.4614 2.61644 52.6421C1.95031 52.9469 1.48741 53.3985 1.17128 54.0534C0.911601 54.5727 0.900311 54.6743 0.900311 55.4646C0.900311 56.2437 0.922892 56.3566 1.17128 56.8759C1.67934 57.9485 2.52612 58.5469 3.65515 58.6146C4.42289 58.6711 5.24708 58.4792 5.66483 58.163C5.9245 57.9711 5.94708 57.9146 5.94708 57.4856V57.0227H6.33096H6.71483V57.6663C6.71483 58.3098 6.71483 58.3211 6.38741 58.6259C5.70999 59.2582 3.90354 59.5856 2.80838 59.2808ZM9.67289 59.2582C8.48741 58.8405 7.77612 57.8469 7.76483 56.6163C7.76483 55.8372 7.96805 55.2727 8.47612 54.7195C9.09709 54.0421 9.65031 53.7937 10.5761 53.7937C11.1858 53.7937 11.3777 53.8276 11.7729 54.0082C12.439 54.3243 12.8229 54.6969 13.139 55.3405C13.3874 55.8372 13.4213 55.984 13.4213 56.5824C13.4213 57.734 12.8906 58.6034 11.8745 59.1001C11.1632 59.4388 10.3616 59.4953 9.67289 59.2582ZM11.5132 58.434C12.981 57.6888 12.981 55.4534 11.5019 54.7195C10.2487 54.0985 8.80354 54.8776 8.58902 56.2888C8.46483 57.1017 8.97289 58.0727 9.72934 58.4792C10.1922 58.7163 10.9826 58.705 11.5132 58.434ZM37.3455 59.2921C37.1874 59.2243 36.9503 59.134 36.8261 59.0775C36.4422 58.9195 35.9568 58.4227 35.6971 57.9034C35.4713 57.463 35.4487 57.3276 35.4487 56.605C35.4487 55.6227 35.6181 55.1259 36.1487 54.5614C36.8035 53.8614 37.831 53.5792 38.7455 53.8388C39.6713 54.1098 40.2358 54.8776 40.3035 55.984L40.3487 56.5937H38.3052H36.2616V56.7856C36.2616 57.8017 37.1535 58.6259 38.26 58.6259C38.8132 58.6259 39.039 58.5582 39.581 58.2308L39.8971 58.0388L40.0777 58.3324C40.2584 58.6259 40.2584 58.6372 40.1003 58.7614C40.01 58.8292 39.7277 58.9872 39.4793 59.1114C38.8922 59.405 37.8197 59.484 37.3455 59.2921ZM39.4568 55.8259C39.4568 55.5098 39.0955 54.8888 38.8019 54.6969C37.8761 54.0872 36.6455 54.6405 36.2842 55.8259L36.2277 56.0179H37.8422H39.4568V55.8259ZM52.2035 59.3034C51.1084 58.9195 50.7358 57.6437 51.4584 56.7743C51.8648 56.2888 53.0164 55.9388 54.1906 55.9388H54.6197V55.6001C54.6197 55.1485 54.4277 54.7985 54.1003 54.6179C53.7052 54.4146 52.8245 54.4824 52.2713 54.7647L51.8423 54.9905L51.6616 54.6856C51.5148 54.4485 51.5035 54.3695 51.5939 54.313C52.6664 53.5905 54.3487 53.5792 54.981 54.3017C55.3874 54.7646 55.4326 54.9679 55.4777 56.8308L55.5229 58.6034L55.8842 58.6259C56.2455 58.6485 56.2455 58.6485 56.2455 58.9872V59.3259H55.7826C55.2971 59.3259 54.8906 59.213 54.789 59.0437C54.7552 58.9872 54.7213 58.8179 54.7213 58.6711V58.4001L54.4164 58.7388C53.9987 59.2017 53.5019 59.4275 52.9374 59.4163C52.6664 59.3937 52.339 59.3485 52.2035 59.3034ZM53.739 58.513C54.2245 58.2308 54.5293 57.6888 54.5971 57.034L54.6423 56.5259L53.9761 56.5824C52.4181 56.7066 51.7971 57.1243 51.9439 57.9146C52.0003 58.1856 52.3277 58.5808 52.5874 58.6711C52.9035 58.784 53.389 58.7163 53.739 58.513ZM68.8793 59.3372C68.0664 59.1227 67.581 58.5921 67.581 57.9146V57.5421H67.9648C68.3487 57.5421 68.3487 57.5421 68.3487 57.8469C68.3487 58.2647 68.631 58.5243 69.2293 58.6485C70.1326 58.8405 70.889 58.4905 70.889 57.8921C70.889 57.5421 70.539 57.2485 69.76 56.955C68.2584 56.3792 67.8406 56.0066 67.8406 55.2163C67.8406 54.663 68.0777 54.2905 68.631 54.0082C69.3648 53.6243 70.6971 53.7485 71.2277 54.2566C71.4535 54.4711 71.4761 54.5388 71.4761 55.0017V55.5211H71.1374C70.8213 55.5211 70.7987 55.5098 70.7987 55.2727C70.7987 55.1372 70.7084 54.9227 70.5955 54.7872C70.4261 54.584 70.3132 54.5501 69.8503 54.5163C69.1955 54.4711 68.8229 54.6292 68.6987 54.9905C68.5293 55.4872 68.8906 55.8259 70.0648 56.2663C70.9681 56.605 71.3519 56.8647 71.5664 57.2824C71.939 58.0163 71.6681 58.7501 70.8551 59.1679C70.4713 59.3598 69.3422 59.4501 68.8793 59.3372ZM14.3132 58.9872V58.6485H14.7422H15.1713V56.6163V54.584H14.7084H14.2455V54.2453V53.9066H14.9455C15.781 53.9066 15.9277 53.9856 15.9955 54.4824L16.0406 54.8437L16.2777 54.5614C16.5713 54.2001 17.2487 53.8275 17.7229 53.7711C18.4455 53.6695 19.1793 54.0308 19.4052 54.6066C19.4616 54.7534 19.5293 54.9001 19.5406 54.9114C19.5519 54.9227 19.7213 54.7647 19.9245 54.5388C20.1277 54.3243 20.4326 54.0647 20.6132 53.9743C21.2906 53.6243 22.1939 53.6921 22.7019 54.1211C23.2213 54.5614 23.2552 54.6856 23.2777 56.7517L23.3116 58.6372H23.7745H24.2374V58.9759V59.3147H23.4019H22.5664L22.5439 57.305C22.5213 55.5776 22.4987 55.2501 22.3632 55.0243C21.9455 54.2679 20.7826 54.3469 20.1842 55.1824C19.7777 55.7356 19.6761 56.2324 19.6761 57.5195V58.6485H20.1503H20.6245L20.6019 58.9646L20.5793 59.2808L19.7664 59.3034L18.9535 59.3259L18.9197 57.3163C18.8971 55.4646 18.8745 55.2727 18.7164 55.0017C18.4003 54.4598 17.8245 54.3469 17.1471 54.6856C16.7293 54.9001 16.2777 55.4872 16.1422 56.0066C16.0971 56.1759 16.0519 56.8421 16.0519 57.4856V58.6485H16.4697H16.8987V58.9872V59.3259H15.6342H14.3132V58.9872ZM24.8132 58.9872V58.6485H25.2761H25.739L25.7164 56.6388L25.6939 54.6292L25.2535 54.6066L24.8132 54.584V54.2453V53.9066H25.5245C26.3487 53.9066 26.5068 54.0082 26.5068 54.5501V54.8888L26.9584 54.4485C27.5568 53.8614 28.1552 53.6582 28.8326 53.805C29.4422 53.9292 29.6793 54.0985 29.9164 54.584L30.1197 54.9905L30.3003 54.7082C30.7519 54.0195 31.7229 53.6356 32.5245 53.8163C33.1003 53.9517 33.4277 54.2001 33.6423 54.663C33.8003 55.013 33.8229 55.2501 33.8568 56.8534L33.8906 58.6485H34.3084H34.7261V58.9872V59.3259H33.8793H33.0326V57.384C33.0326 55.2275 32.9761 54.9114 32.5245 54.6517C31.8584 54.2566 30.9439 54.663 30.4584 55.5663C30.3003 55.8598 30.2777 56.063 30.2439 57.2824L30.21 58.6598H30.639H31.0681V58.9985V59.3372L30.2439 59.3147L29.4197 59.2921L29.3745 57.2146C29.3406 55.4195 29.3068 55.1146 29.1826 54.9227C28.7761 54.3243 27.8164 54.3695 27.1955 55.0243C26.6761 55.5776 26.5406 56.0066 26.5068 57.4066L26.4729 58.6598H26.9471H27.4213V58.9985V59.3372H26.1116H24.8132V58.9872ZM41.2971 59.2695C41.2632 59.2356 41.2406 59.0888 41.2406 58.9308V58.6485H41.6584H42.0874V56.6163V54.584H41.6245H41.1616V54.2453V53.9066H41.8729C42.731 53.9066 42.8552 53.9969 42.8552 54.6292V55.0356L43.1035 54.663C43.4648 54.1324 43.8487 53.8953 44.3906 53.8727L44.8422 53.8614V54.2453V54.6292L44.4019 54.6856C43.9164 54.7421 43.6342 54.9227 43.3632 55.3292C43.0358 55.8034 42.9342 56.3227 42.9342 57.5308V58.6598H43.3181H43.7019V58.9985V59.3372H42.5277C41.8729 59.3259 41.3197 59.2921 41.2971 59.2695ZM56.9906 58.9872V58.6485H57.4084H57.8374V56.6163V54.584H57.3745H56.9116V54.2453V53.9066H57.6116C57.9955 53.9066 58.3568 53.9405 58.4019 53.9743C58.56 54.0759 58.6842 54.3921 58.6842 54.6405V54.8776L58.9439 54.5727C59.0793 54.4034 59.4181 54.155 59.689 54.0195C60.31 53.7146 61.2697 53.6808 61.7439 53.9517C62.4326 54.3582 62.5906 54.9227 62.5906 57.0792V58.6372H63.0197H63.4374V58.9759V59.3147L62.6132 59.2921L61.789 59.2695L61.7439 57.2372C61.6987 55.1485 61.6648 54.934 61.3261 54.6856C61.1003 54.5163 60.6148 54.4711 60.1971 54.584C59.689 54.7082 59.1471 55.1824 58.8987 55.713C58.7181 56.0969 58.6955 56.255 58.6955 57.3953V58.6485H59.1245H59.5422V58.9872V59.3259H58.2777H56.9906V58.9872ZM65.831 59.213C65.3793 59.055 65.0971 58.7953 64.8939 58.355C64.7019 57.9485 64.6906 57.8356 64.6906 56.255V54.584H64.2277H63.7648V54.2453V53.9066H64.2277H64.6906V53.1388V52.3711H65.0745H65.4584V53.1388V53.9066H66.1358H66.8132V54.2453V54.584H66.1358H65.4584V56.0066C65.4584 56.7856 65.5035 57.5759 65.5487 57.7566C65.6842 58.2308 66.0229 58.5356 66.4971 58.6146C66.8922 58.6711 66.8922 58.6711 66.8922 58.9985V59.3259L66.4858 59.3147C66.2713 59.3147 65.9777 59.2695 65.831 59.213Z" /> <path d="M38.9567 0.201074C38.3018 0.150697 37.9995 0.150696 37.395 0.150696C38.5033 0.201073 39.6116 0.301829 40.7703 0.553715C52.7097 2.87107 60.3166 14.8608 57.7978 27.3544C55.2789 39.8479 43.5914 48.0594 31.7023 45.7925C31.1482 45.6917 30.6444 45.5406 30.1407 45.4398C32.1557 46.0443 34.322 46.397 36.6393 46.397C38.9567 46.397 40.7199 46.0947 42.4327 45.6917C49.7878 44.0293 55.7323 38.8908 58.7045 32.3921C59.964 29.571 60.6693 26.4476 60.6693 23.1731C60.6189 10.3269 50.5938 1.20862 38.9567 0.201074Z" /> <path d="M11.7026 21.4099C10.8462 33.9538 20.569 44.8857 33.8182 46.0444C33.1129 45.994 32.4076 45.8932 31.652 45.7421C19.7629 43.4248 12.1056 31.3846 14.6245 18.9414C17.093 6.54863 28.6797 -1.66286 40.468 0.503358C39.4604 0.301849 38.4529 0.201095 37.4454 0.100341C23.9443 -0.856826 12.559 8.66447 11.7026 21.4099Z" /> <path d="M40.7199 0.503379C28.8308 -1.81397 17.1433 6.44789 14.6245 18.9414C12.1056 31.435 19.7629 43.4248 31.652 45.7421C43.5914 48.0595 55.2789 39.7976 57.7474 27.3041C60.2662 14.8105 52.6593 2.82073 40.7199 0.503379ZM35.6821 44.1804C24.0954 44.1804 14.7252 34.8103 14.7252 23.2739C14.7756 11.7375 24.1458 2.36734 35.6821 2.36734C47.2185 2.36734 56.6391 11.7375 56.6391 23.2739C56.6391 34.8103 47.2689 44.1804 35.6821 44.1804Z" /> <path d="M47.3193 13.2992H40.1657C38.8559 13.2992 38.6544 13.8533 38.6544 14.609V26.2461C38.5537 28.9161 37.5965 29.7725 35.6822 29.7725C33.7174 29.7725 32.7603 28.8658 32.7099 26.0446V14.609C32.7099 13.803 32.5084 13.2992 31.1986 13.2992H24.045V27.1529C24.045 30.2259 24.6495 31.4854 25.909 32.8456C27.8737 34.911 31.2993 35.7674 35.6822 35.7674C40.065 35.7674 43.4906 34.911 45.4553 32.8456C46.7148 31.5357 47.3193 30.2259 47.3193 27.1529V13.2992Z" /> </g> </svg>