<svg fill="currentColor" aria-label="Tessi" role="img" width="116" height="35" viewBox="0 0 116 35" xmlns="http://www.w3.org/2000/svg"> <g> <path fill-rule="evenodd" clip-rule="evenodd" d="M6.9 20.9V24.7C6.9 27.3 8.2 29.1 12 29.1C12.6 29.1 13.2 29.1 13.8 29V34.5C13 34.6 12 34.7 11 34.7C4 34.7 0 30.8 0 24.9V20.9V14.8V8.29998V4.39998L6.9 0.0999756V8.39997H13.8V13.7H6.9V20.9ZM108.1 34.7L108 8.79998H115.4V30.5L108.1 34.7ZM25.4 18.8C26.1 14.9 28.8 12.9 32.3 12.9C35.8 12.9 38.1 14.7 38.7 18.8H25.4ZM32.2 7.89998C24.2 7.89998 18.5 13.4 18.5 21.4C18.5 29.2 23.7 34.8 32.2 34.8C40 34.8 43.9 30.9 45 26.5H38.4C37.8 28 36.1 29.6 32.5 29.6C28.5 29.6 25.9 27.2 25.3 22.9H45.2V21.6C45.2 13.3 40.4 7.89998 32.2 7.89998ZM62.2 12.7C58.9 12.7 57.4 13.8 57.4 15.4C57.4 17.5 60.2 18.1 63.4 18.7C68.1 19.6 73.9 20.7 73.9 27.1C74 31.8 69.4 34.7 61.8 34.7C53.9 34.7 50 31.7 49.9 26.4L56.1 26.5C56.3 28.8 57.9 30 61.8 30C65.5 30 67 29 67 27.3C67 25.1 64.2 24.5 60.8 23.8C56.1 22.8 50.5 21.7 50.5 15.5C50.5 10.8 55 7.79998 62.3 7.79998C69.5 7.79998 73.4 10.8 73.5 16H67.3C67 13.8 65.2 12.7 62.2 12.7ZM85.9 15.4C85.9 13.7 87.4 12.7 90.7 12.7C93.7 12.7 95.5 13.8 95.7 16.1H101.9C101.8 10.9 97.9 7.89998 90.7 7.89998C83.4 7.89998 78.9 10.9 78.9 15.6C78.9 21.8 84.5 22.9 89.2 23.9C92.5 24.6 95.4 25.2 95.4 27.4C95.4 29.1 93.8 30.1 90.2 30.1C86.3 30.1 84.7 28.9 84.5 26.6L78.3 26.5C78.4 31.8 82.3 34.8 90.2 34.8C97.8 34.8 102.4 31.9 102.3 27.2C102.3 20.8 96.6 19.7 91.8 18.8C88.7 18.1 85.9 17.5 85.9 15.4ZM115.3 5.29998H108V0.0999756H115.4L115.3 5.29998Z" /> </g> </svg>