<svg fill="currentColor" aria-label="Total Énergies" role="img" width="69" height="50" viewBox="0 0 69 50" xmlns="http://www.w3.org/2000/svg"> <g> <path d="M37.6144 4.49371C35.4943 6.18649 33.4619 8.42161 32.2786 10.8704C29.8517 15.9049 31.1994 20.5285 32.2347 23.5306C33.6481 27.6174 36.5187 29.6827 39.9372 31.1892C44.8128 33.3367 50.9375 33.4846 56.4979 32.0438C58.4591 31.5398 61.505 30.4825 62.1679 29.5019C62.8856 28.4391 63.0006 26.3793 61.4557 25.4809C59.9492 24.5989 59.8013 25.2727 55.3146 26.2698C52.192 26.9655 48.7791 27.086 44.6813 25.3165C42.0956 24.199 40.348 22.4898 39.7509 20.1505C38.0362 13.4397 41.7395 10.9471 42.4626 10.4924L37.6144 4.49371Z" /> <path d="M42.7201 12.3988C40.7918 12.1413 35.1327 11.5442 29.2107 10.4924C20.0456 8.86535 9.27539 6.61379 5.83504 6.37274C-0.782683 5.90709 -1.88929 14.5079 3.39722 15.9761C6.38835 16.8088 14.6222 15.9323 16.6272 19.8876C17.2353 21.0928 18.8514 25.6288 20.6756 31.2495C21.3933 33.4517 27.2167 33.1066 26.132 28.4118C25.5129 25.7329 24.105 18.4906 24.105 18.4906C24.105 18.4906 40.8137 20.2601 42.1723 20.3806L42.7201 12.3988Z" /> <path d="M51.5182 7.97787C53.6383 8.03265 57.3306 8.58048 58.996 9.69256L68.2652 11.5223C68.3528 6.37822 65.5315 3.60623 62.3706 2.01206C59.9711 0.801362 56.602 -0.184723 51.551 0.0289287C46.7192 0.237102 41.6354 1.2944 37.587 4.52109L42.4297 10.5253C44.7087 9.08448 47.5793 7.86831 51.5182 7.97787Z" /> <path d="M58.8481 9.59396C58.8481 9.59396 59.3356 9.90622 59.5493 10.098C60.5573 11.0183 60.8914 12.1249 57.8291 12.6289L60.2505 20.1232C65.7616 18.644 68.1939 15.3954 68.2652 11.4182L58.8481 9.59396Z" /> <path d="M57.9168 12.6179C55.1996 13.0672 49.935 13.3575 42.6763 12.3933L42.1285 20.3752C53.9177 21.3941 58.0647 20.6984 60.3382 20.0903L57.9168 12.6179Z" /> <path d="M0.00250244 41.4555C0.00250244 41.5963 0.113345 41.7046 0.246356 41.7046H2.46875V47.645L3.93187 47.6504V41.7046H6.15426C6.28727 41.7046 6.39811 41.5963 6.39811 41.4555V40.5404C6.39811 40.3996 6.28727 40.2913 6.15426 40.2913H0.246356C0.113345 40.2913 0.00250244 40.3996 0.00250244 40.5404V41.4555Z" /> <path d="M5.21765 44.9321C5.21765 46.497 6.53113 47.7154 8.15498 47.7154C9.7899 47.7154 11.1034 46.497 11.1034 44.9321C11.1034 43.3563 9.7899 42.1162 8.15498 42.1162C6.52559 42.1162 5.21765 43.3563 5.21765 44.9321ZM6.84149 44.9212C6.84149 44.1848 7.40679 43.5729 8.15498 43.5729C8.9087 43.5729 9.47954 44.1794 9.47954 44.9212C9.47954 45.6631 8.91425 46.2588 8.15498 46.2588C7.40679 46.2588 6.84149 45.6577 6.84149 44.9212Z" /> <path d="M12.0566 46.0692C12.0566 47.2768 12.9822 47.7642 13.9132 47.7642C14.545 47.7642 15.1935 47.6775 15.6091 47.358C16.2853 46.8436 15.72 45.7985 14.8 46.3129C14.5284 46.4645 14.0795 46.3887 13.9964 46.3562C13.8135 46.2804 13.4865 46.2154 13.5087 45.6956V43.4158H14.8665C15.9084 43.4158 15.8973 42.0999 14.8665 42.0999H13.5087V40.3021L12.0622 40.2967V42.0999H11.3528V43.4158H12.0622L12.0566 46.0692Z" /> <path d="M16.1578 44.9104C16.1578 46.6162 17.4602 47.7154 18.8568 47.7154C19.5773 47.7154 20.331 47.4122 20.5915 47.0006V47.7263L21.9327 47.7208V42.8147C21.9327 41.8563 20.6192 41.8996 20.6192 42.7606C20.3642 42.349 19.5939 42.127 18.8734 42.127C17.4713 42.1162 16.1578 43.1938 16.1578 44.9104ZM17.7816 44.9212C17.7816 44.1848 18.3469 43.5729 19.1062 43.5729C19.8599 43.5729 20.4308 44.1794 20.4308 44.9212C20.4308 45.6631 19.8655 46.2696 19.1062 46.2696C18.3469 46.2696 17.7816 45.6577 17.7816 44.9212Z" /> <path d="M24.7148 47.645V40.9357C24.7148 40.0855 23.1963 40.1126 23.1963 40.9357V47.645H24.7148Z" /> <path d="M26.0338 40.2047C25.8897 40.2047 25.79 40.313 25.79 40.4429V47.3959C25.79 47.5367 25.8897 47.645 26.0338 47.645H30.9497L30.9552 46.145H27.4582V44.7209H30.2015C30.3456 44.7209 30.4454 44.6017 30.4454 44.4718V43.5187C30.4454 43.3779 30.3456 43.2696 30.2015 43.2696H27.4582V41.7046H30.6172C30.7613 41.7046 30.8721 41.5963 30.8721 41.4555V40.4537C30.8721 40.313 30.7613 40.2047 30.6172 40.2047H26.0338Z" /> <path d="M35.9044 47.4284C35.9044 47.5584 36.0263 47.645 36.1482 47.645H37.107C37.229 47.645 37.3509 47.5584 37.3509 47.4284V44.4934C37.3509 43.1992 36.6027 42.035 35.1728 42.035C34.3304 42.035 33.5102 42.2841 33.1888 42.6631C33.1888 41.8833 31.9141 41.8508 31.9141 42.5927V47.6504L33.3495 47.6558V44.6721C33.3495 42.831 35.8988 43.1234 35.8988 44.6721L35.9044 47.4284Z" /> <path d="M47.6481 41.9862C46.8556 41.9862 46.2072 42.4573 45.9079 42.923V42.5711C45.9079 41.9158 44.6997 41.8454 44.6997 42.5927V47.6288L46.1185 47.645V45.0783C46.1185 44.3039 46.6394 43.4537 47.1937 43.3617L47.77 43.2696C48.6845 43.2696 48.5349 41.9862 47.6481 41.9862Z" /> <path d="M51.4389 48.6739C50.7074 48.6739 50.0035 48.6306 49.6267 48.4248C48.7233 47.9266 48.1913 49.0259 48.7566 49.3454C49.5158 49.784 49.8927 50.0006 51.317 50.0006C53.1404 50.0006 54.1269 48.9934 54.1269 47.5151V42.5927C54.1269 41.9429 52.8633 41.8671 52.8633 42.5115V42.8472C52.5972 42.4357 51.8324 42.2028 51.0953 42.2028C49.6932 42.2028 48.4296 43.2696 48.4296 44.9537C48.4296 46.6378 49.6876 47.6829 51.1618 47.6829C51.8712 47.6829 52.4531 47.3797 52.697 47.0114V47.4663C52.7025 48.1649 52.2924 48.6739 51.4389 48.6739ZM50.0534 44.9483C50.0534 44.2118 50.6187 43.6324 51.3669 43.6324C52.1206 43.6324 52.6915 44.2064 52.6915 44.9483C52.6915 45.6956 52.1262 46.2642 51.3669 46.2642C50.6242 46.2642 50.0534 45.701 50.0534 44.9483Z" /> <path d="M56.05 41.461C56.5211 41.461 56.9145 41.0548 56.9145 40.5837C56.9145 40.0964 56.5211 39.6956 56.05 39.6956C55.5678 39.6956 55.1743 40.1018 55.1743 40.5837C55.1743 41.0548 55.5678 41.461 56.05 41.461ZM56.5543 47.645C56.6762 47.645 56.7649 47.5421 56.7649 47.423V42.8635C56.7649 41.8996 55.3129 41.8996 55.3129 42.8635V47.423C55.3129 47.5421 55.4126 47.645 55.5346 47.645H56.5543Z" /> <path d="M60.5391 42.0241C58.8377 42.0241 57.6129 43.3292 57.6129 44.9483C57.6129 46.5674 58.8155 47.8183 60.5613 47.8183C61.775 47.8183 62.4899 47.4609 62.9444 46.8761C63.2215 46.3996 62.5731 45.8093 61.9911 46.145C61.4757 46.4916 61.1266 46.4429 60.5945 46.4429C59.9461 46.4429 59.3808 46.0042 59.3032 45.3165H62.9277C63.155 45.3165 63.2104 45.192 63.2104 45.0566V44.7534C63.2104 43.3508 62.2849 42.0241 60.5391 42.0241ZM61.7639 44.3093H59.3365C59.4972 43.7028 59.996 43.3292 60.5502 43.3292C61.0822 43.3292 61.6143 43.6433 61.7639 44.3093Z" /> <path d="M66.1644 41.9808C64.6735 41.9808 63.7536 42.7714 63.7536 43.7732C63.7536 44.6667 64.3632 45.2191 65.2776 45.3978L66.2032 45.5873C66.7352 45.6902 67.0123 45.8039 67.0123 46.0746C67.0123 46.3129 66.7574 46.5349 66.2364 46.5349C65.6822 46.5349 65.1058 46.432 64.7511 46.1288C63.9586 45.7172 63.2548 46.5891 64.0473 47.1793C64.5073 47.4934 65.2333 47.7912 66.181 47.7912C67.7162 47.7912 68.7193 46.9898 68.7193 45.9284C68.7193 44.8996 67.9323 44.4501 66.9791 44.2714L66.0923 44.1035C65.6213 44.0115 65.4439 43.8653 65.4439 43.6541C65.4439 43.4267 65.7321 43.248 66.1699 43.248C66.641 43.248 67.04 43.2967 67.3892 43.5241C68.082 43.9248 68.7969 43.0693 68.1485 42.5277C67.7938 42.2245 67.2839 41.9808 66.1644 41.9808Z" /> <path d="M41.1472 42.0241C39.4458 42.0241 38.2209 43.3292 38.2209 44.9483C38.2209 46.5674 39.4236 47.8183 41.1694 47.8183C42.3831 47.8183 43.098 47.4609 43.5525 46.8761C43.8296 46.3996 43.1811 45.8093 42.5992 46.145C42.0838 46.4916 41.7347 46.4429 41.2026 46.4429C40.5542 46.4429 39.9889 46.0042 39.9113 45.3165H43.5358C43.7631 45.3165 43.8185 45.192 43.8185 45.0566V44.7534C43.8129 43.3508 42.893 42.0241 41.1472 42.0241ZM42.372 44.3093H39.9445C40.1053 43.7028 40.6041 43.3292 41.1583 43.3292C41.6903 43.3292 42.2224 43.6433 42.372 44.3093Z" /> </g> </svg>