<svg fill="currentColor" aria-label="Universal" role="img" width="104" height="50" viewBox="0 0 104 50" xmlns="http://www.w3.org/2000/svg"> <g> <path d="M69.3352 31.9232C69.1403 31.6726 69.363 31.2968 69.363 31.2968H55.5963L57.1275 32.6331C57.4616 32.7723 57.8931 33.1063 58.088 33.6214C58.5473 34.8463 57.8653 33.858 57.8653 35.6954C57.8653 37.3936 57.392 37.1152 57.392 37.1152C57.392 37.1152 57.2945 39.1197 56.2506 40.3446C55.5963 41.0128 56.0974 41.5557 56.0974 41.5557C56.0974 41.5557 55.8747 41.6809 55.5546 43.1286C55.4432 43.6019 56.0557 44.3257 56.5707 44.1448C56.9605 44.0056 55.6242 43.8803 57.0718 43.2678C57.6286 43.0312 57.1693 42.5857 57.1693 42.5857C57.1693 42.5857 58.1158 42.5161 58.6448 41.0963C59.5774 41.2355 59.2294 40.6648 61.1642 40.2472C61.6793 40.1358 61.7767 39.9827 61.721 39.5095C61.6514 39.0223 62.3474 39.5791 64.2684 37.6303C65.7717 36.0852 65.2288 35.7511 66.2728 35.1804C67.3725 34.5958 67.4699 35.2361 67.8458 34.7489C68.681 33.6492 68.3886 33.7188 68.7366 33.0228L68.9872 32.6331C69.0011 32.6191 69.5301 32.1737 69.3352 31.9232ZM75.6687 32.466C72.5089 42.3213 63.6002 49.9911 52.3252 49.9911C40.368 49.9911 32.3224 42.4326 29.093 32.6748C32.4477 41.7505 41.593 48.265 52.3391 48.265C63.1826 48.265 72.3836 41.6531 75.6687 32.466ZM56.167 16.1798C55.3179 16.2077 55.304 15.5117 54.7194 15.637C54.1208 15.7622 54.2322 15.1219 53.8007 15.1219C53.4805 15.108 53.0212 14.9549 52.882 15.1915C52.6314 15.5674 53.1743 15.0384 53.7171 15.5117C54.4967 16.1798 54.441 15.7205 54.9142 16.1102C55.2205 16.3608 54.9699 16.5 55.1509 16.4165C55.485 16.2494 56.0139 16.5 56.0139 16.5C56.0139 16.5 57.0301 16.1659 56.167 16.1798ZM59.4104 17.4187C59.5356 17.4187 59.7027 17.3909 59.7166 17.2377C59.5913 17.1681 59.5078 17.0985 59.3547 17.1125L59.4104 17.4187ZM56.6681 17.1125H56.8491C57.0022 17.0707 57.1275 17.2517 57.1553 17.363C57.6147 17.0011 58.1297 17.0985 58.6308 17.0011C58.1436 16.8062 57.7261 16.4026 57.1553 16.3886C56.4176 16.3886 57.0857 16.7645 56.6681 17.1125ZM52.3391 0.00500488C39.7556 0.00500488 32.2389 7.60523 29.0512 17.4326C31.5568 10.5284 37.3892 5.08574 44.7389 2.83073C44.6553 2.90033 44.5997 2.96993 44.5997 3.03952C43.9176 3.47104 44.1542 3.95823 43.8202 4.06959C43.2355 4.26446 42.5952 6.06013 42.5952 6.06013C42.5952 6.06013 42.9571 6.31068 41.8157 7.57738C40.8692 8.63529 40.5908 10.2221 40.5908 10.2221C40.5908 10.2221 41.2171 11.3636 41.0919 12.672C40.9944 13.6743 40.9527 12.9365 41.3981 13.6464C41.6487 14.0779 41.9271 15.5534 42.0941 14.9688C42.4143 13.8691 41.5095 12.853 41.6626 11.7533C41.6904 11.8925 42.0106 11.3218 41.9967 11.8368C41.9688 13.1871 43.667 15.7901 43.667 15.7901C43.667 15.7901 43.0267 16.4304 43.6949 16.4304L43.5278 16.8341C43.5278 16.8341 44.015 16.8062 44.3352 17.0707C44.6553 17.3352 44.9337 17.6553 45.2121 17.6553C45.8803 17.6553 50.098 17.6553 50.098 17.6553C50.098 17.6553 50.446 16.1798 50.7244 15.9154C51.0028 15.6648 50.1537 15.9154 49.9031 15.6648C49.6526 15.4142 49.4994 15.8875 49.3742 16.1381C49.2489 16.3886 49.0958 16.8341 48.706 16.9593C48.3302 17.0846 47.4115 17.1542 47.2305 17.1542C47.0356 17.1542 46.4788 16.0824 46.4788 16.0824C45.9777 15.275 46.3536 14.2589 46.9243 13.2706C47.3419 12.5468 48.4694 12.2266 49.4438 12.6024C50.5295 11.7394 50.794 12.672 51.7684 12.2544C53.049 11.6977 52.3252 13.716 53.564 14.2311C54.0791 12.8669 52.3948 11.8508 53.4527 11.2105C54.2043 10.7511 54.7611 10.4727 55.0674 9.86024C55.4989 8.98329 55.6798 8.35689 56.0139 8.23162C56.7934 7.96714 56.6264 7.22939 56.6264 7.22939C56.6264 7.22939 57.4477 7.46603 58.1019 6.86748C57.6147 6.603 56.8909 6.38028 57.0857 5.85133C57.3085 5.22494 58.9788 6.49164 59.466 5.47549C58.4777 5.04398 57.4616 4.11135 56.863 3.88863C56.4454 4.33406 56.1949 4.15311 55.652 3.73552C54.7472 3.0256 54.6637 3.69376 54.1069 3.20656C53.6475 4.11135 54.3296 4.04175 54.5384 4.26447C55.123 4.90478 53.9538 3.69375 54.0651 5.32237C54.093 5.73996 53.4666 5.82348 53.0072 4.90478C52.7706 4.4315 50.8497 4.52894 50.5573 4.06959C50.8218 3.54063 53.0908 1.64754 56.5568 2.10689C56.4454 2.06514 56.348 2.02338 56.2366 1.99554C65.4098 3.35968 72.8987 9.51224 75.7522 17.6553C72.6063 7.70266 64.0178 0.00500488 52.3391 0.00500488Z" /> <path d="M10.2595 19.8408H6.4176L6.98831 20.5228V25.5618C6.98831 26.6893 6.23664 27.1765 5.12305 27.1765C4.00947 27.1765 3.2578 26.7032 3.2578 25.5618V20.5228L3.82851 19.8408H-0.0133629L0.557355 20.5228V25.6453C0.557355 28.1509 1.96325 29.1253 5.10913 29.1253C8.25501 29.1253 9.67484 28.1509 9.67484 25.6453V20.5228L10.2595 19.8408Z" /> <path d="M23.5807 19.8408H20.3513L20.9221 20.5228V25.1025L16.2868 19.8408H13.3775L13.9482 20.5228V28.2623L13.3775 28.9443H16.6069L16.0362 28.2623V23.5991L20.9638 28.9443H23.01V20.5228L23.5807 19.8408Z" /> <path d="M31.0278 28.9304L30.4571 28.2483V20.5089L31.0278 19.8268H27.1721L27.7428 20.5089V28.2483L27.1721 28.9304H31.0278Z" /> <path d="M43.7645 19.8408H40.5212L41.0919 20.5228L38.7951 25.534L36.5818 20.5228L37.1526 19.8408H33.3385L37.5841 28.9443H39.4772L43.7645 19.8408Z" /> <path d="M54.608 28.9304V26.4666L53.9259 27.0373H49.2767V25.2973H52.2277L52.8959 25.868V22.9031L52.2277 23.4738H49.2767V21.7339H53.9259L54.608 22.3046V19.8408H46.0334L46.6041 20.5228V28.2623L46.0334 28.9443H54.608" /> <path fill-rule="evenodd" clip-rule="evenodd" d="M67.6648 28.9304L65.1871 25.353C66.3981 24.8658 67.2472 23.9193 67.2472 22.5969C67.2472 21.0796 66.3146 19.8408 63.7255 19.8408H58.0462L58.6169 20.5228V28.2623L58.0462 28.9443H61.8603L61.2895 28.2623V25.6871H62.431L64.1709 28.2623L63.6002 28.9443H67.6648V28.9304ZM64.5189 22.7778C64.5189 23.4321 63.8925 23.961 63.0156 23.961H61.2895V21.7199H63.3497C63.9482 21.7339 64.5189 22.0262 64.5189 22.7778Z" /> <path d="M79.1904 26.2717C79.1904 24.824 78.0351 24.0167 76.3508 23.4738C75.265 23.1397 73.7199 22.8892 73.7199 22.1654C73.7199 21.8174 74.1514 21.5668 74.8892 21.5668C75.8636 21.5668 77.4783 21.9705 78.7311 22.583V19.5345L78.0072 20.2305C77.2416 19.9104 75.9193 19.5902 75.0006 19.5902C71.9104 19.5902 70.9081 20.9543 70.9081 22.1932C70.9081 23.8914 72.0217 24.6292 73.7895 25.2416C75.098 25.6871 76.309 25.7288 76.309 26.4805C76.309 27.1208 75.5573 27.2043 75.1815 27.2043C74.221 27.2043 72.495 26.8563 70.9638 25.868V29.2366L71.6876 28.4432C72.3975 28.7216 73.9983 29.1809 75.3068 29.1809C77.9933 29.1809 79.1904 27.9978 79.1904 26.2717Z" /> <path fill-rule="evenodd" clip-rule="evenodd" d="M92.804 28.9304L88.3218 19.8268H85.2595L85.5935 20.5089L81.5429 28.9304H84.8836L84.3129 28.2483L84.7584 27.2878H89.0874L89.5329 28.2483L88.9621 28.9304H92.804ZM88.4193 25.6592H85.3987L86.902 22.402L88.4193 25.6592Z" /> <path d="M103.578 28.9304V26.4666L102.896 27.0373H98.5251V20.5089L99.0958 19.8268H95.2957L95.8664 20.5089V28.2483L95.2957 28.9304H103.578Z" /> <path d="M101.156 21.1353C101.156 21.7617 101.671 22.2767 102.297 22.2767C102.924 22.2767 103.439 21.7617 103.439 21.1353C103.439 20.5089 102.924 19.9939 102.297 19.9939C101.671 19.9939 101.156 20.495 101.156 21.1353ZM101.031 21.1353C101.031 20.4393 101.601 19.8686 102.297 19.8686C102.993 19.8686 103.55 20.4393 103.55 21.1353C103.55 21.8313 102.993 22.402 102.297 22.402C101.601 22.3881 101.031 21.8313 101.031 21.1353Z" /> <path fill-rule="evenodd" clip-rule="evenodd" d="M102.771 20.6342C102.645 20.5228 102.492 20.481 102.339 20.481C101.963 20.481 101.685 20.7734 101.685 21.1353C101.685 21.4972 101.963 21.7895 102.325 21.7895C102.506 21.7895 102.659 21.7199 102.785 21.6086V21.4415C102.673 21.5807 102.506 21.6642 102.325 21.6642C102.033 21.6642 101.81 21.3998 101.81 21.1214C101.81 20.829 102.033 20.5785 102.325 20.5785C102.506 20.5785 102.659 20.6481 102.771 20.7873V20.6342Z" /> </g> </svg>